<?xml version="1.0" encoding="UTF-8" standalone="no"?>
<!DOCTYPE svg PUBLIC "-//W3C//DTD SVG 1.1//EN"
 "http://www.w3.org/Graphics/SVG/1.1/DTD/svg11.dtd">
<!-- Generated by graphviz version 2.26.0 (20091210.2329)
 -->
<!-- Title: snakemake_dag Pages: 1 -->
<svg width="910pt" height="404pt"
 viewBox="0.00 0.00 910.00 404.00" xmlns="http://www.w3.org/2000/svg" xmlns:xlink="http://www.w3.org/1999/xlink">
<g id="graph1" class="graph" transform="scale(1 1) rotate(0) translate(4 400)">
<title>snakemake_dag</title>
<polygon fill="white" stroke="white" points="-4,5 -4,-400 907,-400 907,5 -4,5"/>
<!-- 0 -->
<g id="node1" class="node"><title>0</title>
<polyline fill="none" stroke="#ced856" stroke-width="2" points="362,-36 332,-36 "/>
<path fill="none" stroke="#ced856" stroke-width="2" d="M332,-36C326,-36 320,-30 320,-24"/>
<polyline fill="none" stroke="#ced856" stroke-width="2" points="320,-24 320,-12 "/>
<path fill="none" stroke="#ced856" stroke-width="2" d="M320,-12C320,-6 326,-1.61846e-14 332,-1.46056e-14"/>
<polyline fill="none" stroke="#ced856" stroke-width="2" points="332,-1.46056e-14 362,-6.71068e-15 "/>
<path fill="none" stroke="#ced856" stroke-width="2" d="M362,-6.71068e-15C368,-5.1317e-15 374,-6 374,-12"/>
<polyline fill="none" stroke="#ced856" stroke-width="2" points="374,-12 374,-24 "/>
<path fill="none" stroke="#ced856" stroke-width="2" d="M374,-24C374,-30 368,-36 362,-36"/>
<text text-anchor="middle" x="347" y="-15.5" font-family="sans" font-size="10.00">all</text>
</g>
<!-- 1 -->
<g id="node2" class="node"><title>1</title>
<polyline fill="none" stroke="#68d856" stroke-width="2" points="372,-324 284,-324 "/>
<path fill="none" stroke="#68d856" stroke-width="2" d="M284,-324C278,-324 272,-318 272,-312"/>
<polyline fill="none" stroke="#68d856" stroke-width="2" points="272,-312 272,-300 "/>
<path fill="none" stroke="#68d856" stroke-width="2" d="M272,-300C272,-294 278,-288 284,-288"/>
<polyline fill="none" stroke="#68d856" stroke-width="2" points="284,-288 372,-288 "/>
<path fill="none" stroke="#68d856" stroke-width="2" d="M372,-288C378,-288 384,-294 384,-300"/>
<polyline fill="none" stroke="#68d856" stroke-width="2" points="384,-300 384,-312 "/>
<path fill="none" stroke="#68d856" stroke-width="2" d="M384,-312C384,-318 378,-324 372,-324"/>
<text text-anchor="middle" x="328" y="-303.5" font-family="sans" font-size="10.00">map_with_minimap</text>
</g>
<!-- 1&#45;&gt;0 -->
<g id="edge6" class="edge"><title>1&#45;&gt;0</title>
<path fill="none" stroke="grey" stroke-width="2" d="M308.504,-287.966C299.49,-278.289 289.745,-265.576 285,-252 279.721,-236.896 282.582,-231.816 285,-216 294.596,-153.243 320.367,-83.0472 335.492,-45.4026"/>
<polygon fill="grey" stroke="grey" points="338.742,-46.7005 339.273,-36.119 332.259,-44.0604 338.742,-46.7005"/>
</g>
<!-- 2 -->
<g id="node3" class="node"><title>2</title>
<polyline fill="none" stroke="#56d8d0" stroke-width="2" points="734,-252 678,-252 "/>
<path fill="none" stroke="#56d8d0" stroke-width="2" d="M678,-252C672,-252 666,-246 666,-240"/>
<polyline fill="none" stroke="#56d8d0" stroke-width="2" points="666,-240 666,-228 "/>
<path fill="none" stroke="#56d8d0" stroke-width="2" d="M666,-228C666,-222 672,-216 678,-216"/>
<polyline fill="none" stroke="#56d8d0" stroke-width="2" points="678,-216 734,-216 "/>
<path fill="none" stroke="#56d8d0" stroke-width="2" d="M734,-216C740,-216 746,-222 746,-228"/>
<polyline fill="none" stroke="#56d8d0" stroke-width="2" points="746,-228 746,-240 "/>
<path fill="none" stroke="#56d8d0" stroke-width="2" d="M746,-240C746,-246 740,-252 734,-252"/>
<text text-anchor="middle" x="706" y="-231.5" font-family="sans" font-size="10.00">run_stringtie</text>
</g>
<!-- 1&#45;&gt;2 -->
<g id="edge22" class="edge"><title>1&#45;&gt;2</title>
<path fill="none" stroke="grey" stroke-width="2" d="M384.27,-300.053C448.261,-292.56 555.835,-277.751 656.135,-251.976"/>
<polygon fill="grey" stroke="grey" points="657.026,-255.36 665.817,-249.447 655.257,-248.588 657.026,-255.36"/>
</g>
<!-- 4 -->
<g id="node5" class="node"><title>4</title>
<polyline fill="none" stroke="#567bd8" stroke-width="2" points="158,-252 92,-252 "/>
<path fill="none" stroke="#567bd8" stroke-width="2" d="M92,-252C86,-252 80,-246 80,-240"/>
<polyline fill="none" stroke="#567bd8" stroke-width="2" points="80,-240 80,-228 "/>
<path fill="none" stroke="#567bd8" stroke-width="2" d="M80,-228C80,-222 86,-216 92,-216"/>
<polyline fill="none" stroke="#567bd8" stroke-width="2" points="92,-216 158,-216 "/>
<path fill="none" stroke="#567bd8" stroke-width="2" d="M158,-216C164,-216 170,-222 170,-228"/>
<polyline fill="none" stroke="#567bd8" stroke-width="2" points="170,-228 170,-240 "/>
<path fill="none" stroke="#567bd8" stroke-width="2" d="M170,-240C170,-246 164,-252 158,-252"/>
<text text-anchor="middle" x="125" y="-231.5" font-family="sans" font-size="10.00">run_2passtools</text>
</g>
<!-- 1&#45;&gt;4 -->
<g id="edge28" class="edge"><title>1&#45;&gt;4</title>
<path fill="none" stroke="grey" stroke-width="2" d="M277.037,-287.924C247.363,-277.4 209.953,-264.131 179.667,-253.389"/>
<polygon fill="grey" stroke="grey" points="180.698,-250.041 170.103,-249.997 178.358,-256.639 180.698,-250.041"/>
</g>
<!-- 10 -->
<g id="node11" class="node"><title>10</title>
<polyline fill="none" stroke="#56d86b" stroke-width="2" points="636,-252 494,-252 "/>
<path fill="none" stroke="#56d86b" stroke-width="2" d="M494,-252C488,-252 482,-246 482,-240"/>
<polyline fill="none" stroke="#56d86b" stroke-width="2" points="482,-240 482,-228 "/>
<path fill="none" stroke="#56d86b" stroke-width="2" d="M482,-228C482,-222 488,-216 494,-216"/>
<polyline fill="none" stroke="#56d86b" stroke-width="2" points="494,-216 636,-216 "/>
<path fill="none" stroke="#56d86b" stroke-width="2" d="M636,-216C642,-216 648,-222 648,-228"/>
<polyline fill="none" stroke="#56d86b" stroke-width="2" points="648,-228 648,-240 "/>
<path fill="none" stroke="#56d86b" stroke-width="2" d="M648,-240C648,-246 642,-252 636,-252"/>
<text text-anchor="middle" x="565" y="-231.5" font-family="sans" font-size="10.00">quantify_reads_for_simulation</text>
</g>
<!-- 1&#45;&gt;10 -->
<g id="edge42" class="edge"><title>1&#45;&gt;10</title>
<path fill="none" stroke="grey" stroke-width="2" d="M384.166,-288.937C417.573,-278.788 460.219,-265.832 495.707,-255.051"/>
<polygon fill="grey" stroke="grey" points="496.962,-258.328 505.513,-252.072 494.927,-251.63 496.962,-258.328"/>
</g>
<!-- 11 -->
<g id="node12" class="node"><title>11</title>
<polyline fill="none" stroke="#d87556" stroke-width="2" points="842,-252 776,-252 "/>
<path fill="none" stroke="#d87556" stroke-width="2" d="M776,-252C770,-252 764,-246 764,-240"/>
<polyline fill="none" stroke="#d87556" stroke-width="2" points="764,-240 764,-228 "/>
<path fill="none" stroke="#d87556" stroke-width="2" d="M764,-228C764,-222 770,-216 776,-216"/>
<polyline fill="none" stroke="#d87556" stroke-width="2" points="776,-216 842,-216 "/>
<path fill="none" stroke="#d87556" stroke-width="2" d="M842,-216C848,-216 854,-222 854,-228"/>
<polyline fill="none" stroke="#d87556" stroke-width="2" points="854,-228 854,-240 "/>
<path fill="none" stroke="#d87556" stroke-width="2" d="M854,-240C854,-246 848,-252 842,-252"/>
<text text-anchor="middle" x="809" y="-231.5" font-family="sans" font-size="10.00">bam_to_bed12</text>
</g>
<!-- 1&#45;&gt;11 -->
<g id="edge44" class="edge"><title>1&#45;&gt;11</title>
<path fill="none" stroke="grey" stroke-width="2" d="M384.223,-302.415C464.54,-296.519 616.691,-282.484 753.954,-252.001"/>
<polygon fill="grey" stroke="grey" points="754.825,-255.393 763.81,-249.778 753.285,-248.565 754.825,-255.393"/>
</g>
<!-- 13 -->
<g id="node14" class="node"><title>13</title>
<polyline fill="none" stroke="#56d88a" stroke-width="2" points="452,-252 314,-252 "/>
<path fill="none" stroke="#56d88a" stroke-width="2" d="M314,-252C308,-252 302,-246 302,-240"/>
<polyline fill="none" stroke="#56d88a" stroke-width="2" points="302,-240 302,-228 "/>
<path fill="none" stroke="#56d88a" stroke-width="2" d="M302,-228C302,-222 308,-216 314,-216"/>
<polyline fill="none" stroke="#56d88a" stroke-width="2" points="314,-216 452,-216 "/>
<path fill="none" stroke="#56d88a" stroke-width="2" d="M452,-216C458,-216 464,-222 464,-228"/>
<polyline fill="none" stroke="#56d88a" stroke-width="2" points="464,-228 464,-240 "/>
<path fill="none" stroke="#56d88a" stroke-width="2" d="M464,-240C464,-246 458,-252 452,-252"/>
<text text-anchor="middle" x="383" y="-231.5" font-family="sans" font-size="10.00">create_basecall_error_model</text>
</g>
<!-- 1&#45;&gt;13 -->
<g id="edge50" class="edge"><title>1&#45;&gt;13</title>
<path fill="none" stroke="grey" stroke-width="2" d="M341.879,-287.831C348.214,-279.539 355.838,-269.557 362.793,-260.453"/>
<polygon fill="grey" stroke="grey" points="365.645,-262.485 368.934,-252.413 360.083,-258.235 365.645,-262.485"/>
</g>
<!-- 2&#45;&gt;0 -->
<g id="edge10" class="edge"><title>2&#45;&gt;0</title>
<path fill="none" stroke="grey" stroke-width="2" d="M700.475,-215.742C693.545,-195.67 679.848,-163.666 658,-144 576.585,-70.7157 446.987,-37.1102 383.909,-24.4316"/>
<polygon fill="grey" stroke="grey" points="384.498,-20.9805 374.013,-22.5055 383.16,-27.8515 384.498,-20.9805"/>
</g>
<!-- 3 -->
<g id="node4" class="node"><title>3</title>
<polyline fill="none" stroke="#56d8a9" stroke-width="2" points="637,-180 493,-180 "/>
<path fill="none" stroke="#56d8a9" stroke-width="2" d="M493,-180C487,-180 481,-174 481,-168"/>
<polyline fill="none" stroke="#56d8a9" stroke-width="2" points="481,-168 481,-156 "/>
<path fill="none" stroke="#56d8a9" stroke-width="2" d="M481,-156C481,-150 487,-144 493,-144"/>
<polyline fill="none" stroke="#56d8a9" stroke-width="2" points="493,-144 637,-144 "/>
<path fill="none" stroke="#56d8a9" stroke-width="2" d="M637,-144C643,-144 649,-150 649,-156"/>
<polyline fill="none" stroke="#56d8a9" stroke-width="2" points="649,-156 649,-168 "/>
<path fill="none" stroke="#56d8a9" stroke-width="2" d="M649,-168C649,-174 643,-180 637,-180"/>
<text text-anchor="middle" x="565" y="-159.5" font-family="sans" font-size="10.00">assess_stringtie_performance</text>
</g>
<!-- 2&#45;&gt;3 -->
<g id="edge26" class="edge"><title>2&#45;&gt;3</title>
<path fill="none" stroke="grey" stroke-width="2" d="M670.42,-215.831C651.968,-206.409 629.245,-194.806 609.627,-184.788"/>
<polygon fill="grey" stroke="grey" points="611.067,-181.594 600.569,-180.163 607.883,-187.828 611.067,-181.594"/>
</g>
<!-- 3&#45;&gt;0 -->
<g id="edge8" class="edge"><title>3&#45;&gt;0</title>
<path fill="none" stroke="grey" stroke-width="2" d="M537.39,-143.762C498.052,-117.778 425.856,-70.0882 382.56,-41.4895"/>
<polygon fill="grey" stroke="grey" points="384.317,-38.4551 374.044,-35.8639 380.459,-44.2959 384.317,-38.4551"/>
</g>
<!-- 4&#45;&gt;0 -->
<g id="edge12" class="edge"><title>4&#45;&gt;0</title>
<path fill="none" stroke="grey" stroke-width="2" d="M125.237,-215.937C126.3,-196.617 130.402,-165.817 145,-144 184.937,-84.3132 263.715,-47.6047 310.212,-30.178"/>
<polygon fill="grey" stroke="grey" points="311.698,-33.3616 319.898,-26.6519 309.304,-26.7839 311.698,-33.3616"/>
</g>
<!-- 5 -->
<g id="node6" class="node"><title>5</title>
<polyline fill="none" stroke="#d85656" stroke-width="2" points="86,-180 12,-180 "/>
<path fill="none" stroke="#d85656" stroke-width="2" d="M12,-180C6,-180 4.14483e-14,-174 3.31587e-14,-168"/>
<polyline fill="none" stroke="#d85656" stroke-width="2" points="3.31587e-14,-168 1.65793e-14,-156 "/>
<path fill="none" stroke="#d85656" stroke-width="2" d="M1.65793e-14,-156C8.28967e-15,-150 6,-144 12,-144"/>
<polyline fill="none" stroke="#d85656" stroke-width="2" points="12,-144 86,-144 "/>
<path fill="none" stroke="#d85656" stroke-width="2" d="M86,-144C92,-144 98,-150 98,-156"/>
<polyline fill="none" stroke="#d85656" stroke-width="2" points="98,-156 98,-168 "/>
<path fill="none" stroke="#d85656" stroke-width="2" d="M98,-168C98,-174 92,-180 86,-180"/>
<text text-anchor="middle" x="49" y="-159.5" font-family="sans" font-size="10.00">apply_junc_filter</text>
</g>
<!-- 4&#45;&gt;5 -->
<g id="edge30" class="edge"><title>4&#45;&gt;5</title>
<path fill="none" stroke="grey" stroke-width="2" d="M105.822,-215.831C96.6412,-207.134 85.4994,-196.578 75.5224,-187.127"/>
<polygon fill="grey" stroke="grey" points="77.8385,-184.499 68.1719,-180.163 73.0243,-189.581 77.8385,-184.499"/>
</g>
<!-- 8 -->
<g id="node9" class="node"><title>8</title>
<polyline fill="none" stroke="#569ad8" stroke-width="2" points="222,-180 166,-180 "/>
<path fill="none" stroke="#569ad8" stroke-width="2" d="M166,-180C160,-180 154,-174 154,-168"/>
<polyline fill="none" stroke="#569ad8" stroke-width="2" points="154,-168 154,-156 "/>
<path fill="none" stroke="#569ad8" stroke-width="2" d="M154,-156C154,-150 160,-144 166,-144"/>
<polyline fill="none" stroke="#569ad8" stroke-width="2" points="166,-144 222,-144 "/>
<path fill="none" stroke="#569ad8" stroke-width="2" d="M222,-144C228,-144 234,-150 234,-156"/>
<polyline fill="none" stroke="#569ad8" stroke-width="2" points="234,-156 234,-168 "/>
<path fill="none" stroke="#569ad8" stroke-width="2" d="M234,-168C234,-174 228,-180 222,-180"/>
<text text-anchor="middle" x="194" y="-159.5" font-family="sans" font-size="10.00">merge_juncs</text>
</g>
<!-- 4&#45;&gt;8 -->
<g id="edge40" class="edge"><title>4&#45;&gt;8</title>
<path fill="none" stroke="grey" stroke-width="2" d="M142.412,-215.831C150.521,-207.369 160.316,-197.149 169.182,-187.897"/>
<polygon fill="grey" stroke="grey" points="171.962,-190.055 176.354,-180.413 166.908,-185.211 171.962,-190.055"/>
</g>
<!-- 5&#45;&gt;0 -->
<g id="edge2" class="edge"><title>5&#45;&gt;0</title>
<path fill="none" stroke="grey" stroke-width="2" d="M56.7954,-143.755C66.5998,-123.07 85.4279,-89.906 112,-72 144.028,-50.4177 251.969,-31.8938 309.754,-23.2316"/>
<polygon fill="grey" stroke="grey" points="310.549,-26.6524 319.931,-21.7304 309.527,-19.7274 310.549,-26.6524"/>
</g>
<!-- 5&#45;&gt;1 -->
<g id="edge18" class="edge"><title>5&#45;&gt;1</title>
<path fill="none" stroke="grey" stroke-width="2" d="M48.1295,-180.296C48.2171,-200.711 51.6982,-233.318 71,-252 97.7594,-277.9 195.022,-292.734 261.91,-300.079"/>
<polygon fill="grey" stroke="grey" points="261.642,-303.57 271.957,-301.151 262.385,-296.61 261.642,-303.57"/>
</g>
<!-- 6 -->
<g id="node7" class="node"><title>6</title>
<polyline fill="none" stroke="#d8bc56" stroke-width="2" points="848,-108 744,-108 "/>
<path fill="none" stroke="#d8bc56" stroke-width="2" d="M744,-108C738,-108 732,-102 732,-96"/>
<polyline fill="none" stroke="#d8bc56" stroke-width="2" points="732,-96 732,-84 "/>
<path fill="none" stroke="#d8bc56" stroke-width="2" d="M732,-84C732,-78 738,-72 744,-72"/>
<polyline fill="none" stroke="#d8bc56" stroke-width="2" points="744,-72 848,-72 "/>
<path fill="none" stroke="#d8bc56" stroke-width="2" d="M848,-72C854,-72 860,-78 860,-84"/>
<polyline fill="none" stroke="#d8bc56" stroke-width="2" points="860,-84 860,-96 "/>
<path fill="none" stroke="#d8bc56" stroke-width="2" d="M860,-96C860,-102 854,-108 848,-108"/>
<text text-anchor="middle" x="796" y="-87.5" font-family="sans" font-size="10.00">assess_sim_alignment</text>
</g>
<!-- 6&#45;&gt;0 -->
<g id="edge4" class="edge"><title>6&#45;&gt;0</title>
<path fill="none" stroke="grey" stroke-width="2" d="M731.934,-76.9472C722.903,-75.2182 713.726,-73.5203 705,-72 588.271,-51.6627 449.337,-31.9967 384.191,-23.0405"/>
<polygon fill="grey" stroke="grey" points="384.396,-19.536 374.014,-21.646 383.446,-26.4712 384.396,-19.536"/>
</g>
<!-- 7 -->
<g id="node8" class="node"><title>7</title>
<polyline fill="none" stroke="#56c1d8" stroke-width="2" points="417,-180 349,-180 "/>
<path fill="none" stroke="#56c1d8" stroke-width="2" d="M349,-180C343,-180 337,-174 337,-168"/>
<polyline fill="none" stroke="#56c1d8" stroke-width="2" points="337,-168 337,-156 "/>
<path fill="none" stroke="#56c1d8" stroke-width="2" d="M337,-156C337,-150 343,-144 349,-144"/>
<polyline fill="none" stroke="#56c1d8" stroke-width="2" points="349,-144 417,-144 "/>
<path fill="none" stroke="#56c1d8" stroke-width="2" d="M417,-144C423,-144 429,-150 429,-156"/>
<polyline fill="none" stroke="#56c1d8" stroke-width="2" points="429,-156 429,-168 "/>
<path fill="none" stroke="#56c1d8" stroke-width="2" d="M429,-168C429,-174 423,-180 417,-180"/>
<text text-anchor="middle" x="383" y="-159.5" font-family="sans" font-size="10.00">simulate_reads</text>
</g>
<!-- 7&#45;&gt;1 -->
<g id="edge14" class="edge"><title>7&#45;&gt;1</title>
<path fill="none" stroke="grey" stroke-width="2" d="M336.788,-178.342C319.905,-186.816 302.606,-199.033 293,-216 281.519,-236.277 292.822,-261.065 305.552,-279.489"/>
<polygon fill="grey" stroke="grey" points="302.871,-281.75 311.624,-287.72 308.505,-277.595 302.871,-281.75"/>
</g>
<!-- 8&#45;&gt;1 -->
<g id="edge16" class="edge"><title>8&#45;&gt;1</title>
<path fill="none" stroke="grey" stroke-width="2" d="M195.5,-180.208C197.993,-199.938 204.593,-231.36 222,-252 233.186,-265.264 248.446,-275.638 263.901,-283.59"/>
<polygon fill="grey" stroke="grey" points="262.469,-286.785 272.995,-287.996 265.521,-280.485 262.469,-286.785"/>
</g>
<!-- 9 -->
<g id="node10" class="node"><title>9</title>
<polyline fill="none" stroke="#d89c56" stroke-width="2" points="667,-396 597,-396 "/>
<path fill="none" stroke="#d89c56" stroke-width="2" d="M597,-396C591,-396 585,-390 585,-384"/>
<polyline fill="none" stroke="#d89c56" stroke-width="2" points="585,-384 585,-372 "/>
<path fill="none" stroke="#d89c56" stroke-width="2" d="M585,-372C585,-366 591,-360 597,-360"/>
<polyline fill="none" stroke="#d89c56" stroke-width="2" points="597,-360 667,-360 "/>
<path fill="none" stroke="#d89c56" stroke-width="2" d="M667,-360C673,-360 679,-366 679,-372"/>
<polyline fill="none" stroke="#d89c56" stroke-width="2" points="679,-372 679,-384 "/>
<path fill="none" stroke="#d89c56" stroke-width="2" d="M679,-384C679,-390 673,-396 667,-396"/>
<text text-anchor="middle" x="632" y="-375.5" font-family="sans" font-size="10.00">annot_to_juncs</text>
</g>
<!-- 9&#45;&gt;1 -->
<g id="edge20" class="edge"><title>9&#45;&gt;1</title>
<path fill="none" stroke="grey" stroke-width="2" d="M584.834,-366.829C533.596,-354.694 451.373,-335.22 393.799,-321.584"/>
<polygon fill="grey" stroke="grey" points="394.602,-318.177 384.065,-319.278 392.989,-324.989 394.602,-318.177"/>
</g>
<!-- 12 -->
<g id="node13" class="node"><title>12</title>
<polyline fill="none" stroke="#88d856" stroke-width="2" points="890,-180 836,-180 "/>
<path fill="none" stroke="#88d856" stroke-width="2" d="M836,-180C830,-180 824,-174 824,-168"/>
<polyline fill="none" stroke="#88d856" stroke-width="2" points="824,-168 824,-156 "/>
<path fill="none" stroke="#88d856" stroke-width="2" d="M824,-156C824,-150 830,-144 836,-144"/>
<polyline fill="none" stroke="#88d856" stroke-width="2" points="836,-144 890,-144 "/>
<path fill="none" stroke="#88d856" stroke-width="2" d="M890,-144C896,-144 902,-150 902,-156"/>
<polyline fill="none" stroke="#88d856" stroke-width="2" points="902,-156 902,-168 "/>
<path fill="none" stroke="#88d856" stroke-width="2" d="M902,-168C902,-174 896,-180 890,-180"/>
<text text-anchor="middle" x="863" y="-159.5" font-family="sans" font-size="10.00">flair_correct</text>
</g>
<!-- 9&#45;&gt;12 -->
<g id="edge48" class="edge"><title>9&#45;&gt;12</title>
<path fill="none" stroke="grey" stroke-width="2" d="M679.271,-367.504C734.499,-352.431 823.357,-318.779 863,-252 873.919,-233.607 873.16,-209.149 870.09,-190.373"/>
<polygon fill="grey" stroke="grey" points="873.484,-189.485 868.147,-180.332 866.611,-190.815 873.484,-189.485"/>
</g>
<!-- 10&#45;&gt;3 -->
<g id="edge24" class="edge"><title>10&#45;&gt;3</title>
<path fill="none" stroke="grey" stroke-width="2" d="M565,-215.831C565,-208.131 565,-198.974 565,-190.417"/>
<polygon fill="grey" stroke="grey" points="568.5,-190.413 565,-180.413 561.5,-190.413 568.5,-190.413"/>
</g>
<!-- 10&#45;&gt;7 -->
<g id="edge36" class="edge"><title>10&#45;&gt;7</title>
<path fill="none" stroke="grey" stroke-width="2" d="M519.074,-215.831C494.408,-206.073 463.831,-193.977 437.914,-183.724"/>
<polygon fill="grey" stroke="grey" points="439.182,-180.462 428.596,-180.038 436.607,-186.971 439.182,-180.462"/>
</g>
<!-- 11&#45;&gt;6 -->
<g id="edge32" class="edge"><title>11&#45;&gt;6</title>
<path fill="none" stroke="grey" stroke-width="2" d="M807.354,-215.762C805.136,-191.201 801.168,-147.247 798.56,-118.354"/>
<polygon fill="grey" stroke="grey" points="802.018,-117.734 797.633,-108.09 795.046,-118.364 802.018,-117.734"/>
</g>
<!-- 11&#45;&gt;12 -->
<g id="edge46" class="edge"><title>11&#45;&gt;12</title>
<path fill="none" stroke="grey" stroke-width="2" d="M822.626,-215.831C828.846,-207.539 836.332,-197.557 843.16,-188.453"/>
<polygon fill="grey" stroke="grey" points="845.99,-190.513 849.19,-180.413 840.39,-186.313 845.99,-190.513"/>
</g>
<!-- 12&#45;&gt;6 -->
<g id="edge34" class="edge"><title>12&#45;&gt;6</title>
<path fill="none" stroke="grey" stroke-width="2" d="M846.093,-143.831C838.219,-135.369 828.708,-125.149 820.099,-115.897"/>
<polygon fill="grey" stroke="grey" points="822.509,-113.35 813.135,-108.413 817.385,-118.118 822.509,-113.35"/>
</g>
<!-- 13&#45;&gt;7 -->
<g id="edge38" class="edge"><title>13&#45;&gt;7</title>
<path fill="none" stroke="grey" stroke-width="2" d="M383,-215.831C383,-208.131 383,-198.974 383,-190.417"/>
<polygon fill="grey" stroke="grey" points="386.5,-190.413 383,-180.413 379.5,-190.413 386.5,-190.413"/>
</g>
</g>
</svg>
