<?xml version="1.0" encoding="UTF-8" standalone="no"?>
<!DOCTYPE svg PUBLIC "-//W3C//DTD SVG 1.1//EN"
 "http://www.w3.org/Graphics/SVG/1.1/DTD/svg11.dtd">
<!-- Generated by graphviz version 2.26.0 (20091210.2329)
 -->
<!-- Title: snakemake_dag Pages: 1 -->
<svg width="464pt" height="332pt"
 viewBox="0.00 0.00 463.76 332.00" xmlns="http://www.w3.org/2000/svg" xmlns:xlink="http://www.w3.org/1999/xlink">
<g id="graph1" class="graph" transform="scale(1 1) rotate(0) translate(4 328)">
<title>snakemake_dag</title>
<polygon fill="white" stroke="white" points="-4,5 -4,-328 460.758,-328 460.758,5 -4,5"/>
<!-- 0 -->
<g id="node1" class="node"><title>0</title>
<polyline fill="none" stroke="#56d8d0" stroke-width="2" points="265.877,-36 235.877,-36 "/>
<path fill="none" stroke="#56d8d0" stroke-width="2" d="M235.877,-36C229.877,-36 223.877,-30 223.877,-24"/>
<polyline fill="none" stroke="#56d8d0" stroke-width="2" points="223.877,-24 223.877,-12 "/>
<path fill="none" stroke="#56d8d0" stroke-width="2" d="M223.877,-12C223.877,-6 229.877,-1.61846e-14 235.877,-1.46056e-14"/>
<polyline fill="none" stroke="#56d8d0" stroke-width="2" points="235.877,-1.46056e-14 265.877,-6.71068e-15 "/>
<path fill="none" stroke="#56d8d0" stroke-width="2" d="M265.877,-6.71068e-15C271.877,-5.1317e-15 277.877,-6 277.877,-12"/>
<polyline fill="none" stroke="#56d8d0" stroke-width="2" points="277.877,-12 277.877,-24 "/>
<path fill="none" stroke="#56d8d0" stroke-width="2" d="M277.877,-24C277.877,-30 271.877,-36 265.877,-36"/>
<text text-anchor="middle" x="250.877" y="-15.5" font-family="sans" font-size="10.00">all</text>
</g>
<!-- 1 -->
<g id="node2" class="node"><title>1</title>
<polyline fill="none" stroke="#56d86b" stroke-width="2" points="367.877,-252 279.877,-252 "/>
<path fill="none" stroke="#56d86b" stroke-width="2" d="M279.877,-252C273.877,-252 267.877,-246 267.877,-240"/>
<polyline fill="none" stroke="#56d86b" stroke-width="2" points="267.877,-240 267.877,-228 "/>
<path fill="none" stroke="#56d86b" stroke-width="2" d="M267.877,-228C267.877,-222 273.877,-216 279.877,-216"/>
<polyline fill="none" stroke="#56d86b" stroke-width="2" points="279.877,-216 367.877,-216 "/>
<path fill="none" stroke="#56d86b" stroke-width="2" d="M367.877,-216C373.877,-216 379.877,-222 379.877,-228"/>
<polyline fill="none" stroke="#56d86b" stroke-width="2" points="379.877,-228 379.877,-240 "/>
<path fill="none" stroke="#56d86b" stroke-width="2" d="M379.877,-240C379.877,-246 373.877,-252 367.877,-252"/>
<text text-anchor="middle" x="323.877" y="-231.5" font-family="sans" font-size="10.00">map_with_minimap</text>
</g>
<!-- 1&#45;&gt;0 -->
<g id="edge4" class="edge"><title>1&#45;&gt;0</title>
<path fill="none" stroke="grey" stroke-width="2" d="M354.93,-215.949C402.602,-185.952 484.374,-123.993 444.877,-72 425.982,-47.1272 338.946,-30.6677 288.1,-22.9947"/>
<polygon fill="grey" stroke="grey" points="288.542,-19.5223 278.14,-21.5341 287.527,-26.4482 288.542,-19.5223"/>
</g>
<!-- 2 -->
<g id="node3" class="node"><title>2</title>
<polyline fill="none" stroke="#567bd8" stroke-width="2" points="127.877,-180 71.8771,-180 "/>
<path fill="none" stroke="#567bd8" stroke-width="2" d="M71.8771,-180C65.8771,-180 59.8771,-174 59.8771,-168"/>
<polyline fill="none" stroke="#567bd8" stroke-width="2" points="59.8771,-168 59.8771,-156 "/>
<path fill="none" stroke="#567bd8" stroke-width="2" d="M59.8771,-156C59.8771,-150 65.8771,-144 71.8771,-144"/>
<polyline fill="none" stroke="#567bd8" stroke-width="2" points="71.8771,-144 127.877,-144 "/>
<path fill="none" stroke="#567bd8" stroke-width="2" d="M127.877,-144C133.877,-144 139.877,-150 139.877,-156"/>
<polyline fill="none" stroke="#567bd8" stroke-width="2" points="139.877,-156 139.877,-168 "/>
<path fill="none" stroke="#567bd8" stroke-width="2" d="M139.877,-168C139.877,-174 133.877,-180 127.877,-180"/>
<text text-anchor="middle" x="99.8771" y="-159.5" font-family="sans" font-size="10.00">run_stringtie</text>
</g>
<!-- 1&#45;&gt;2 -->
<g id="edge18" class="edge"><title>1&#45;&gt;2</title>
<path fill="none" stroke="grey" stroke-width="2" d="M267.642,-215.924C231.275,-204.235 184.377,-189.161 149.416,-177.923"/>
<polygon fill="grey" stroke="grey" points="150.481,-174.589 139.89,-174.861 148.339,-181.254 150.481,-174.589"/>
</g>
<!-- 4 -->
<g id="node5" class="node"><title>4</title>
<polyline fill="none" stroke="#569ad8" stroke-width="2" points="356.877,-180 290.877,-180 "/>
<path fill="none" stroke="#569ad8" stroke-width="2" d="M290.877,-180C284.877,-180 278.877,-174 278.877,-168"/>
<polyline fill="none" stroke="#569ad8" stroke-width="2" points="278.877,-168 278.877,-156 "/>
<path fill="none" stroke="#569ad8" stroke-width="2" d="M278.877,-156C278.877,-150 284.877,-144 290.877,-144"/>
<polyline fill="none" stroke="#569ad8" stroke-width="2" points="290.877,-144 356.877,-144 "/>
<path fill="none" stroke="#569ad8" stroke-width="2" d="M356.877,-144C362.877,-144 368.877,-150 368.877,-156"/>
<polyline fill="none" stroke="#569ad8" stroke-width="2" points="368.877,-156 368.877,-168 "/>
<path fill="none" stroke="#569ad8" stroke-width="2" d="M368.877,-168C368.877,-174 362.877,-180 356.877,-180"/>
<text text-anchor="middle" x="323.877" y="-159.5" font-family="sans" font-size="10.00">run_2passtools</text>
</g>
<!-- 1&#45;&gt;4 -->
<g id="edge22" class="edge"><title>1&#45;&gt;4</title>
<path fill="none" stroke="grey" stroke-width="2" d="M323.877,-215.831C323.877,-208.131 323.877,-198.974 323.877,-190.417"/>
<polygon fill="grey" stroke="grey" points="327.377,-190.413 323.877,-180.413 320.377,-190.413 327.377,-190.413"/>
</g>
<!-- 2&#45;&gt;0 -->
<g id="edge10" class="edge"><title>2&#45;&gt;0</title>
<path fill="none" stroke="grey" stroke-width="2" d="M59.4512,-149.329C39.8957,-140.929 18.2416,-127.74 6.87712,-108 -1.10578,-94.1337 -3.13994,-84.4763 6.87712,-72 32.3616,-40.2588 151.58,-26.0368 213.429,-20.7049"/>
<polygon fill="grey" stroke="grey" points="213.881,-24.1796 223.558,-19.8671 213.304,-17.2034 213.881,-24.1796"/>
</g>
<!-- 3 -->
<g id="node4" class="node"><title>3</title>
<polyline fill="none" stroke="#56d88a" stroke-width="2" points="171.877,-108 27.8771,-108 "/>
<path fill="none" stroke="#56d88a" stroke-width="2" d="M27.8771,-108C21.8771,-108 15.8771,-102 15.8771,-96"/>
<polyline fill="none" stroke="#56d88a" stroke-width="2" points="15.8771,-96 15.8771,-84 "/>
<path fill="none" stroke="#56d88a" stroke-width="2" d="M15.8771,-84C15.8771,-78 21.8771,-72 27.8771,-72"/>
<polyline fill="none" stroke="#56d88a" stroke-width="2" points="27.8771,-72 171.877,-72 "/>
<path fill="none" stroke="#56d88a" stroke-width="2" d="M171.877,-72C177.877,-72 183.877,-78 183.877,-84"/>
<polyline fill="none" stroke="#56d88a" stroke-width="2" points="183.877,-84 183.877,-96 "/>
<path fill="none" stroke="#56d88a" stroke-width="2" d="M183.877,-96C183.877,-102 177.877,-108 171.877,-108"/>
<text text-anchor="middle" x="99.8771" y="-87.5" font-family="sans" font-size="10.00">assess_stringtie_performance</text>
</g>
<!-- 2&#45;&gt;3 -->
<g id="edge20" class="edge"><title>2&#45;&gt;3</title>
<path fill="none" stroke="grey" stroke-width="2" d="M99.8771,-143.831C99.8771,-136.131 99.8771,-126.974 99.8771,-118.417"/>
<polygon fill="grey" stroke="grey" points="103.377,-118.413 99.8771,-108.413 96.3772,-118.413 103.377,-118.413"/>
</g>
<!-- 3&#45;&gt;0 -->
<g id="edge6" class="edge"><title>3&#45;&gt;0</title>
<path fill="none" stroke="grey" stroke-width="2" d="M137.981,-71.8314C161.478,-60.6274 191.441,-46.3406 214.593,-35.3012"/>
<polygon fill="grey" stroke="grey" points="216.22,-38.403 223.74,-30.9397 213.207,-32.0845 216.22,-38.403"/>
</g>
<!-- 4&#45;&gt;0 -->
<g id="edge8" class="edge"><title>4&#45;&gt;0</title>
<path fill="none" stroke="grey" stroke-width="2" d="M324.209,-143.651C323.805,-124.641 321.025,-94.6043 308.877,-72 302.975,-61.0172 293.983,-51.0431 284.829,-42.7399"/>
<polygon fill="grey" stroke="grey" points="287.036,-40.022 277.165,-36.1727 282.481,-45.3374 287.036,-40.022"/>
</g>
<!-- 5 -->
<g id="node6" class="node"><title>5</title>
<polyline fill="none" stroke="#88d856" stroke-width="2" points="287.877,-108 213.877,-108 "/>
<path fill="none" stroke="#88d856" stroke-width="2" d="M213.877,-108C207.877,-108 201.877,-102 201.877,-96"/>
<polyline fill="none" stroke="#88d856" stroke-width="2" points="201.877,-96 201.877,-84 "/>
<path fill="none" stroke="#88d856" stroke-width="2" d="M201.877,-84C201.877,-78 207.877,-72 213.877,-72"/>
<polyline fill="none" stroke="#88d856" stroke-width="2" points="213.877,-72 287.877,-72 "/>
<path fill="none" stroke="#88d856" stroke-width="2" d="M287.877,-72C293.877,-72 299.877,-78 299.877,-84"/>
<polyline fill="none" stroke="#88d856" stroke-width="2" points="299.877,-84 299.877,-96 "/>
<path fill="none" stroke="#88d856" stroke-width="2" d="M299.877,-96C299.877,-102 293.877,-108 287.877,-108"/>
<text text-anchor="middle" x="250.877" y="-87.5" font-family="sans" font-size="10.00">apply_junc_filter</text>
</g>
<!-- 4&#45;&gt;5 -->
<g id="edge24" class="edge"><title>4&#45;&gt;5</title>
<path fill="none" stroke="grey" stroke-width="2" d="M305.456,-143.831C296.724,-135.219 286.145,-124.785 276.635,-115.405"/>
<polygon fill="grey" stroke="grey" points="278.87,-112.693 269.292,-108.163 273.954,-117.677 278.87,-112.693"/>
</g>
<!-- 6 -->
<g id="node7" class="node"><title>6</title>
<polyline fill="none" stroke="#d87556" stroke-width="2" points="423.877,-108 367.877,-108 "/>
<path fill="none" stroke="#d87556" stroke-width="2" d="M367.877,-108C361.877,-108 355.877,-102 355.877,-96"/>
<polyline fill="none" stroke="#d87556" stroke-width="2" points="355.877,-96 355.877,-84 "/>
<path fill="none" stroke="#d87556" stroke-width="2" d="M355.877,-84C355.877,-78 361.877,-72 367.877,-72"/>
<polyline fill="none" stroke="#d87556" stroke-width="2" points="367.877,-72 423.877,-72 "/>
<path fill="none" stroke="#d87556" stroke-width="2" d="M423.877,-72C429.877,-72 435.877,-78 435.877,-84"/>
<polyline fill="none" stroke="#d87556" stroke-width="2" points="435.877,-84 435.877,-96 "/>
<path fill="none" stroke="#d87556" stroke-width="2" d="M435.877,-96C435.877,-102 429.877,-108 423.877,-108"/>
<text text-anchor="middle" x="395.877" y="-87.5" font-family="sans" font-size="10.00">merge_juncs</text>
</g>
<!-- 4&#45;&gt;6 -->
<g id="edge26" class="edge"><title>4&#45;&gt;6</title>
<path fill="none" stroke="grey" stroke-width="2" d="M342.046,-143.831C350.592,-135.285 360.933,-124.944 370.257,-115.62"/>
<polygon fill="grey" stroke="grey" points="372.868,-117.959 377.464,-108.413 367.918,-113.009 372.868,-117.959"/>
</g>
<!-- 5&#45;&gt;0 -->
<g id="edge2" class="edge"><title>5&#45;&gt;0</title>
<path fill="none" stroke="grey" stroke-width="2" d="M250.877,-71.8314C250.877,-64.131 250.877,-54.9743 250.877,-46.4166"/>
<polygon fill="grey" stroke="grey" points="254.377,-46.4132 250.877,-36.4133 247.377,-46.4133 254.377,-46.4132"/>
</g>
<!-- 5&#45;&gt;1 -->
<g id="edge12" class="edge"><title>5&#45;&gt;1</title>
<path fill="none" stroke="grey" stroke-width="2" d="M251.694,-108.293C253.215,-127.257 257.549,-157.256 269.877,-180 275.643,-190.638 284.162,-200.554 292.737,-208.911"/>
<polygon fill="grey" stroke="grey" points="290.501,-211.611 300.219,-215.833 295.255,-206.473 290.501,-211.611"/>
</g>
<!-- 6&#45;&gt;1 -->
<g id="edge16" class="edge"><title>6&#45;&gt;1</title>
<path fill="none" stroke="grey" stroke-width="2" d="M395.305,-108.286C394.03,-127.245 390.058,-157.241 377.877,-180 372.168,-190.668 363.666,-200.593 355.088,-208.949"/>
<polygon fill="grey" stroke="grey" points="352.57,-206.511 347.599,-215.867 357.32,-211.652 352.57,-206.511"/>
</g>
<!-- 7 -->
<g id="node8" class="node"><title>7</title>
<polyline fill="none" stroke="#d85656" stroke-width="2" points="358.877,-324 288.877,-324 "/>
<path fill="none" stroke="#d85656" stroke-width="2" d="M288.877,-324C282.877,-324 276.877,-318 276.877,-312"/>
<polyline fill="none" stroke="#d85656" stroke-width="2" points="276.877,-312 276.877,-300 "/>
<path fill="none" stroke="#d85656" stroke-width="2" d="M276.877,-300C276.877,-294 282.877,-288 288.877,-288"/>
<polyline fill="none" stroke="#d85656" stroke-width="2" points="288.877,-288 358.877,-288 "/>
<path fill="none" stroke="#d85656" stroke-width="2" d="M358.877,-288C364.877,-288 370.877,-294 370.877,-300"/>
<polyline fill="none" stroke="#d85656" stroke-width="2" points="370.877,-300 370.877,-312 "/>
<path fill="none" stroke="#d85656" stroke-width="2" d="M370.877,-312C370.877,-318 364.877,-324 358.877,-324"/>
<text text-anchor="middle" x="323.877" y="-303.5" font-family="sans" font-size="10.00">annot_to_juncs</text>
</g>
<!-- 7&#45;&gt;1 -->
<g id="edge14" class="edge"><title>7&#45;&gt;1</title>
<path fill="none" stroke="grey" stroke-width="2" d="M323.877,-287.831C323.877,-280.131 323.877,-270.974 323.877,-262.417"/>
<polygon fill="grey" stroke="grey" points="327.377,-262.413 323.877,-252.413 320.377,-262.413 327.377,-262.413"/>
</g>
</g>
</svg>
