<?xml version="1.0" encoding="utf-8" standalone="no"?>
<!DOCTYPE svg PUBLIC "-//W3C//DTD SVG 1.1//EN"
  "http://www.w3.org/Graphics/SVG/1.1/DTD/svg11.dtd">
<!-- Created with matplotlib (https://matplotlib.org/) -->
<svg height="288pt" version="1.1" viewBox="0 0 288 288" width="288pt" xmlns="http://www.w3.org/2000/svg" xmlns:xlink="http://www.w3.org/1999/xlink">
 <defs>
  <style type="text/css">
*{stroke-linecap:butt;stroke-linejoin:round;}
  </style>
 </defs>
 <g id="figure_1">
  <g id="patch_1">
   <path d="M 0 288 
L 288 288 
L 288 0 
L 0 0 
z
" style="fill:#ffffff;"/>
  </g>
  <g id="axes_1">
   <g id="patch_2">
    <path d="M 38.88 252 
L 256.32 252 
L 256.32 34.56 
L 38.88 34.56 
z
" style="fill:#ffffff;"/>
   </g>
   <g id="matplotlib.axis_1">
    <g id="xtick_1">
     <g id="line2d_1">
      <defs>
       <path d="M 0 0 
L 0 6 
" id="m596c3595f2" style="stroke:#262626;stroke-width:1.25;"/>
      </defs>
      <g>
       <use style="fill:#262626;stroke:#262626;stroke-width:1.25;" x="93.24" xlink:href="#m596c3595f2" y="252"/>
      </g>
     </g>
     <g id="text_1">
      <text style="fill:#262626;font-family:DejaVu Sans;font-size:15.4px;font-style:normal;font-weight:normal;text-anchor:middle;" transform="rotate(-0, 93.24, 273.201594)" x="93.24" y="273.201594">0</text>
     </g>
    </g>
    <g id="xtick_2">
     <g id="line2d_2">
      <g>
       <use style="fill:#262626;stroke:#262626;stroke-width:1.25;" x="201.96" xlink:href="#m596c3595f2" y="252"/>
      </g>
     </g>
     <g id="text_2">
      <text style="fill:#262626;font-family:DejaVu Sans;font-size:15.4px;font-style:normal;font-weight:normal;text-anchor:middle;" transform="rotate(-0, 201.96, 273.201594)" x="201.96" y="273.201594">1</text>
     </g>
    </g>
    <g id="text_3">
     <text style="fill:#262626;font-family:DejaVu Sans;font-size:16.8px;font-style:normal;font-weight:normal;text-anchor:middle;" transform="rotate(-0, 147.6, 293.169688)" x="147.6" y="293.169688">Prediction</text>
    </g>
   </g>
   <g id="matplotlib.axis_2">
    <g id="ytick_1">
     <g id="line2d_3">
      <defs>
       <path d="M 0 0 
L -6 0 
" id="mce20dc5631" style="stroke:#262626;stroke-width:1.25;"/>
      </defs>
      <g>
       <use style="fill:#262626;stroke:#262626;stroke-width:1.25;" x="38.88" xlink:href="#mce20dc5631" y="88.92"/>
      </g>
     </g>
     <g id="text_4">
      <text style="fill:#262626;font-family:DejaVu Sans;font-size:15.4px;font-style:normal;font-weight:normal;" transform="translate(26.177281 92.867453)rotate(-90)">0</text>
     </g>
    </g>
    <g id="ytick_2">
     <g id="line2d_4">
      <g>
       <use style="fill:#262626;stroke:#262626;stroke-width:1.25;" x="38.88" xlink:href="#mce20dc5631" y="197.64"/>
      </g>
     </g>
     <g id="text_5">
      <text style="fill:#262626;font-family:DejaVu Sans;font-size:15.4px;font-style:normal;font-weight:normal;" transform="translate(26.177281 201.587453)rotate(-90)">1</text>
     </g>
    </g>
    <g id="text_6">
     <text style="fill:#262626;font-family:DejaVu Sans;font-size:16.8px;font-style:normal;font-weight:normal;text-anchor:middle;" transform="rotate(-90, 6.981813, 143.28)" x="6.981813" y="143.28">Annotation</text>
    </g>
   </g>
   <g id="QuadMesh_1">
    <path clip-path="url(#p8d7f356b93)" d="M 38.88 34.56 
L 147.6 34.56 
L 147.6 143.28 
L 38.88 143.28 
L 38.88 34.56 
" style="fill:#1b69af;"/>
    <path clip-path="url(#p8d7f356b93)" d="M 147.6 34.56 
L 256.32 34.56 
L 256.32 143.28 
L 147.6 143.28 
L 147.6 34.56 
" style="fill:#f1f7fd;"/>
    <path clip-path="url(#p8d7f356b93)" d="M 38.88 143.28 
L 147.6 143.28 
L 147.6 252 
L 38.88 252 
L 38.88 143.28 
" style="fill:#f7fbff;"/>
    <path clip-path="url(#p8d7f356b93)" d="M 147.6 143.28 
L 256.32 143.28 
L 256.32 252 
L 147.6 252 
L 147.6 143.28 
" style="fill:#08306b;"/>
   </g>
   <g id="text_7">
    <text style="fill:#ffffff;font-family:DejaVu Sans;font-size:16.8px;font-style:normal;font-weight:normal;text-anchor:middle;" transform="rotate(-0, 93.24, 93.55575)" x="93.24" y="93.55575">326964</text>
   </g>
   <g id="text_8">
    <text style="fill:#262626;font-family:DejaVu Sans;font-size:16.8px;font-style:normal;font-weight:normal;text-anchor:middle;" transform="rotate(-0, 201.96, 93.55575)" x="201.96" y="93.55575">27167</text>
   </g>
   <g id="text_9">
    <text style="fill:#262626;font-family:DejaVu Sans;font-size:16.8px;font-style:normal;font-weight:normal;text-anchor:middle;" transform="rotate(-0, 93.24, 202.27575)" x="93.24" y="202.27575">13394</text>
   </g>
   <g id="text_10">
    <text style="fill:#ffffff;font-family:DejaVu Sans;font-size:16.8px;font-style:normal;font-weight:normal;text-anchor:middle;" transform="rotate(-0, 201.96, 202.27575)" x="201.96" y="202.27575">416355</text>
   </g>
   <g id="text_11">
    <text style="fill:#262626;font-family:DejaVu Sans;font-size:16.8px;font-style:normal;font-weight:normal;text-anchor:middle;" transform="rotate(-0, 147.6, 28.56)" x="147.6" y="28.56">Decision tree 2</text>
   </g>
  </g>
 </g>
 <defs>
  <clipPath id="p8d7f356b93">
   <rect height="217.44" width="217.44" x="38.88" y="34.56"/>
  </clipPath>
 </defs>
</svg>
