<?xml version="1.0" encoding="utf-8" standalone="no"?>
<!DOCTYPE svg PUBLIC "-//W3C//DTD SVG 1.1//EN"
  "http://www.w3.org/Graphics/SVG/1.1/DTD/svg11.dtd">
<!-- Created with matplotlib (https://matplotlib.org/) -->
<svg height="396pt" version="1.1" viewBox="0 0 720 396" width="720pt" xmlns="http://www.w3.org/2000/svg" xmlns:xlink="http://www.w3.org/1999/xlink">
 <defs>
  <style type="text/css">
*{stroke-linecap:butt;stroke-linejoin:round;}
  </style>
 </defs>
 <g id="figure_1">
  <g id="patch_1">
   <path d="M 0 396 
L 720 396 
L 720 0 
L 0 0 
z
" style="fill:#ffffff;"/>
  </g>
  <g id="axes_1">
   <g id="patch_2">
    <path d="M 89.944 286.109277 
L 373.308082 286.109277 
L 373.308082 58.944 
L 89.944 58.944 
z
" style="fill:#ffffff;"/>
   </g>
   <g id="matplotlib.axis_1">
    <g id="xtick_1">
     <g id="line2d_1">
      <defs>
       <path d="M 0 0 
L 0 6 
" id="mf94a41971a" style="stroke:#262626;stroke-width:1.25;"/>
      </defs>
      <g>
       <use style="fill:#262626;stroke:#262626;stroke-width:1.25;" x="137.171347" xlink:href="#mf94a41971a" y="286.109277"/>
      </g>
     </g>
     <g id="text_1">
      <text style="fill:#262626;font-family:DejaVu Sans;font-size:15.4px;font-style:normal;font-weight:normal;" transform="translate(73.639347 341.498826)rotate(-30)">One pass</text>
     </g>
    </g>
    <g id="xtick_2">
     <g id="line2d_2">
      <g>
       <use style="fill:#262626;stroke:#262626;stroke-width:1.25;" x="231.626041" xlink:href="#mf94a41971a" y="286.109277"/>
      </g>
     </g>
     <g id="text_2">
      <text style="fill:#262626;font-family:DejaVu Sans;font-size:15.4px;font-style:normal;font-weight:normal;" transform="translate(155.210204 343.959217)rotate(-30)">Two pass,</text>
      <text style="fill:#262626;font-family:DejaVu Sans;font-size:15.4px;font-style:normal;font-weight:normal;" transform="translate(157.526718 362.534162)rotate(-30)">no filtering</text>
     </g>
    </g>
    <g id="xtick_3">
     <g id="line2d_3">
      <g>
       <use style="fill:#262626;stroke:#262626;stroke-width:1.25;" x="326.080735" xlink:href="#mf94a41971a" y="286.109277"/>
      </g>
     </g>
     <g id="text_3">
      <text style="fill:#262626;font-family:DejaVu Sans;font-size:15.4px;font-style:normal;font-weight:normal;" transform="translate(222.199444 359.816404)rotate(-30)">Annot. guided</text>
      <text style="fill:#262626;font-family:DejaVu Sans;font-size:15.4px;font-style:normal;font-weight:normal;" transform="translate(257.099406 359.579287)rotate(-30)">alignment</text>
     </g>
    </g>
   </g>
   <g id="matplotlib.axis_2">
    <g id="ytick_1">
     <g id="line2d_4">
      <defs>
       <path d="M 0 0 
L -6 0 
" id="m9f3a0e7906" style="stroke:#262626;stroke-width:1.25;"/>
      </defs>
      <g>
       <use style="fill:#262626;stroke:#262626;stroke-width:1.25;" x="89.944" xlink:href="#m9f3a0e7906" y="285.560069"/>
      </g>
     </g>
     <g id="text_4">
      <text style="fill:#262626;font-family:DejaVu Sans;font-size:15.4px;font-style:normal;font-weight:normal;text-anchor:end;" transform="rotate(-0, 80.444, 291.410866)" x="80.444" y="291.410866">40</text>
     </g>
    </g>
    <g id="ytick_2">
     <g id="line2d_5">
      <g>
       <use style="fill:#262626;stroke:#262626;stroke-width:1.25;" x="89.944" xlink:href="#m9f3a0e7906" y="245.666614"/>
      </g>
     </g>
     <g id="text_5">
      <text style="fill:#262626;font-family:DejaVu Sans;font-size:15.4px;font-style:normal;font-weight:normal;text-anchor:end;" transform="rotate(-0, 80.444, 251.517411)" x="80.444" y="251.517411">50</text>
     </g>
    </g>
    <g id="ytick_3">
     <g id="line2d_6">
      <g>
       <use style="fill:#262626;stroke:#262626;stroke-width:1.25;" x="89.944" xlink:href="#m9f3a0e7906" y="205.77316"/>
      </g>
     </g>
     <g id="text_6">
      <text style="fill:#262626;font-family:DejaVu Sans;font-size:15.4px;font-style:normal;font-weight:normal;text-anchor:end;" transform="rotate(-0, 80.444, 211.623956)" x="80.444" y="211.623956">60</text>
     </g>
    </g>
    <g id="ytick_4">
     <g id="line2d_7">
      <g>
       <use style="fill:#262626;stroke:#262626;stroke-width:1.25;" x="89.944" xlink:href="#m9f3a0e7906" y="165.879705"/>
      </g>
     </g>
     <g id="text_7">
      <text style="fill:#262626;font-family:DejaVu Sans;font-size:15.4px;font-style:normal;font-weight:normal;text-anchor:end;" transform="rotate(-0, 80.444, 171.730502)" x="80.444" y="171.730502">70</text>
     </g>
    </g>
    <g id="ytick_5">
     <g id="line2d_8">
      <g>
       <use style="fill:#262626;stroke:#262626;stroke-width:1.25;" x="89.944" xlink:href="#m9f3a0e7906" y="125.98625"/>
      </g>
     </g>
     <g id="text_8">
      <text style="fill:#262626;font-family:DejaVu Sans;font-size:15.4px;font-style:normal;font-weight:normal;text-anchor:end;" transform="rotate(-0, 80.444, 131.837047)" x="80.444" y="131.837047">80</text>
     </g>
    </g>
    <g id="ytick_6">
     <g id="line2d_9">
      <g>
       <use style="fill:#262626;stroke:#262626;stroke-width:1.25;" x="89.944" xlink:href="#m9f3a0e7906" y="86.092795"/>
      </g>
     </g>
     <g id="text_9">
      <text style="fill:#262626;font-family:DejaVu Sans;font-size:15.4px;font-style:normal;font-weight:normal;text-anchor:end;" transform="rotate(-0, 80.444, 91.943592)" x="80.444" y="91.943592">90</text>
     </g>
    </g>
    <g id="text_10">
     <text style="fill:#262626;font-family:DejaVu Sans;font-size:16.8px;font-style:normal;font-weight:normal;" transform="translate(34.5413 244.462138)rotate(-90)">Correctly aligned</text>
     <text style="fill:#262626;font-family:DejaVu Sans;font-size:16.8px;font-style:normal;font-weight:normal;" transform="translate(53.353625 245.373013)rotate(-90)">spliced reads (%)</text>
    </g>
   </g>
   <g id="patch_3">
    <path clip-path="url(#pef9ba6f644)" d="M 99.389469 155.01078 
L 174.953225 155.01078 
L 174.953225 151.426421 
L 99.389469 151.426421 
L 99.389469 155.01078 
z
" style="fill:#eeeeee;stroke:#8f8f8f;stroke-linejoin:miter;stroke-width:1.5;"/>
   </g>
   <g id="patch_4">
    <path clip-path="url(#pef9ba6f644)" d="M 193.844163 144.465903 
L 269.407919 144.465903 
L 269.407919 141.003741 
L 193.844163 141.003741 
L 193.844163 144.465903 
z
" style="fill:#eeeeee;stroke:#8f8f8f;stroke-linejoin:miter;stroke-width:1.5;"/>
   </g>
   <g id="patch_5">
    <path clip-path="url(#pef9ba6f644)" d="M 288.298857 71.03613 
L 363.862613 71.03613 
L 363.862613 70.820704 
L 288.298857 70.820704 
L 288.298857 71.03613 
z
" style="fill:#eeeeee;stroke:#8f8f8f;stroke-linejoin:miter;stroke-width:1.5;"/>
   </g>
   <g id="line2d_10">
    <path clip-path="url(#pef9ba6f644)" d="M 137.171347 155.01078 
L 137.171347 155.298698 
" style="fill:none;stroke:#8f8f8f;stroke-linecap:round;stroke-width:1.5;"/>
   </g>
   <g id="line2d_11">
    <path clip-path="url(#pef9ba6f644)" d="M 137.171347 151.426421 
L 137.171347 151.163678 
" style="fill:none;stroke:#8f8f8f;stroke-linecap:round;stroke-width:1.5;"/>
   </g>
   <g id="line2d_12">
    <path clip-path="url(#pef9ba6f644)" d="M 118.280408 155.298698 
L 156.062286 155.298698 
" style="fill:none;stroke:#8f8f8f;stroke-linecap:round;stroke-width:1.5;"/>
   </g>
   <g id="line2d_13">
    <path clip-path="url(#pef9ba6f644)" d="M 118.280408 151.163678 
L 156.062286 151.163678 
" style="fill:none;stroke:#8f8f8f;stroke-linecap:round;stroke-width:1.5;"/>
   </g>
   <g id="line2d_14"/>
   <g id="line2d_15">
    <path clip-path="url(#pef9ba6f644)" d="M 231.626041 144.465903 
L 231.626041 144.644889 
" style="fill:none;stroke:#8f8f8f;stroke-linecap:round;stroke-width:1.5;"/>
   </g>
   <g id="line2d_16">
    <path clip-path="url(#pef9ba6f644)" d="M 231.626041 141.003741 
L 231.626041 140.936269 
" style="fill:none;stroke:#8f8f8f;stroke-linecap:round;stroke-width:1.5;"/>
   </g>
   <g id="line2d_17">
    <path clip-path="url(#pef9ba6f644)" d="M 212.735102 144.644889 
L 250.51698 144.644889 
" style="fill:none;stroke:#8f8f8f;stroke-linecap:round;stroke-width:1.5;"/>
   </g>
   <g id="line2d_18">
    <path clip-path="url(#pef9ba6f644)" d="M 212.735102 140.936269 
L 250.51698 140.936269 
" style="fill:none;stroke:#8f8f8f;stroke-linecap:round;stroke-width:1.5;"/>
   </g>
   <g id="line2d_19"/>
   <g id="line2d_20">
    <path clip-path="url(#pef9ba6f644)" d="M 326.080735 71.03613 
L 326.080735 71.307282 
" style="fill:none;stroke:#8f8f8f;stroke-linecap:round;stroke-width:1.5;"/>
   </g>
   <g id="line2d_21">
    <path clip-path="url(#pef9ba6f644)" d="M 326.080735 70.820704 
L 326.080735 70.535488 
" style="fill:none;stroke:#8f8f8f;stroke-linecap:round;stroke-width:1.5;"/>
   </g>
   <g id="line2d_22">
    <path clip-path="url(#pef9ba6f644)" d="M 307.189796 71.307282 
L 344.971674 71.307282 
" style="fill:none;stroke:#8f8f8f;stroke-linecap:round;stroke-width:1.5;"/>
   </g>
   <g id="line2d_23">
    <path clip-path="url(#pef9ba6f644)" d="M 307.189796 70.535488 
L 344.971674 70.535488 
" style="fill:none;stroke:#8f8f8f;stroke-linecap:round;stroke-width:1.5;"/>
   </g>
   <g id="line2d_24"/>
   <g id="line2d_25">
    <path clip-path="url(#pef9ba6f644)" d="M 99.389469 153.214405 
L 174.953225 153.214405 
" style="fill:none;stroke:#8f8f8f;stroke-linecap:round;stroke-width:1.5;"/>
   </g>
   <g id="line2d_26">
    <path clip-path="url(#pef9ba6f644)" d="M 193.844163 142.716236 
L 269.407919 142.716236 
" style="fill:none;stroke:#8f8f8f;stroke-linecap:round;stroke-width:1.5;"/>
   </g>
   <g id="line2d_27">
    <path clip-path="url(#pef9ba6f644)" d="M 288.298857 70.930762 
L 363.862613 70.930762 
" style="fill:none;stroke:#8f8f8f;stroke-linecap:round;stroke-width:1.5;"/>
   </g>
   <g id="patch_6">
    <path d="M 89.944 286.109277 
L 89.944 58.944 
" style="fill:none;stroke:#262626;stroke-linecap:square;stroke-linejoin:miter;stroke-width:1.25;"/>
   </g>
   <g id="patch_7">
    <path d="M 373.308082 286.109277 
L 373.308082 58.944 
" style="fill:none;stroke:#262626;stroke-linecap:square;stroke-linejoin:miter;stroke-width:1.25;"/>
   </g>
   <g id="patch_8">
    <path d="M 89.944 286.109277 
L 373.308082 286.109277 
" style="fill:none;stroke:#262626;stroke-linecap:square;stroke-linejoin:miter;stroke-width:1.25;"/>
   </g>
   <g id="patch_9">
    <path d="M 89.944 58.944 
L 373.308082 58.944 
" style="fill:none;stroke:#262626;stroke-linecap:square;stroke-linejoin:miter;stroke-width:1.25;"/>
   </g>
   <g id="PathCollection_1">
    <defs>
     <path d="M 0 4 
C 1.060812 4 2.078319 3.578535 2.828427 2.828427 
C 3.578535 2.078319 4 1.060812 4 0 
C 4 -1.060812 3.578535 -2.078319 2.828427 -2.828427 
C 2.078319 -3.578535 1.060812 -4 0 -4 
C -1.060812 -4 -2.078319 -3.578535 -2.828427 -2.828427 
C -3.578535 -2.078319 -4 -1.060812 -4 0 
C -4 1.060812 -3.578535 2.078319 -2.828427 2.828427 
C -2.078319 3.578535 -1.060812 4 0 4 
z
" id="C0_0_2378f4d3f7"/>
    </defs>
    <g clip-path="url(#pef9ba6f644)">
     <use style="fill:#0072b2;" x="142.905416" xlink:href="#C0_0_2378f4d3f7" y="154.914807"/>
    </g>
    <g clip-path="url(#pef9ba6f644)">
     <use style="fill:#0072b2;" x="134.32142" xlink:href="#C0_0_2378f4d3f7" y="155.298698"/>
    </g>
    <g clip-path="url(#pef9ba6f644)">
     <use style="fill:#0072b2;" x="143.087813" xlink:href="#C0_0_2378f4d3f7" y="151.163678"/>
    </g>
    <g clip-path="url(#pef9ba6f644)">
     <use style="fill:#0072b2;" x="126.182922" xlink:href="#C0_0_2378f4d3f7" y="151.514002"/>
    </g>
   </g>
   <g id="PathCollection_2">
    <defs>
     <path d="M 0 4 
C 1.060812 4 2.078319 3.578535 2.828427 2.828427 
C 3.578535 2.078319 4 1.060812 4 0 
C 4 -1.060812 3.578535 -2.078319 2.828427 -2.828427 
C 2.078319 -3.578535 1.060812 -4 0 -4 
C -1.060812 -4 -2.078319 -3.578535 -2.828427 -2.828427 
C -3.578535 -2.078319 -4 -1.060812 -4 0 
C -4 1.060812 -3.578535 2.078319 -2.828427 2.828427 
C -2.078319 3.578535 -1.060812 4 0 4 
z
" id="C1_0_6397962dca"/>
    </defs>
    <g clip-path="url(#pef9ba6f644)">
     <use style="fill:#0072b2;" x="237.66829" xlink:href="#C1_0_6397962dca" y="144.644889"/>
    </g>
    <g clip-path="url(#pef9ba6f644)">
     <use style="fill:#0072b2;" x="232.745269" xlink:href="#C1_0_6397962dca" y="144.40624"/>
    </g>
    <g clip-path="url(#pef9ba6f644)">
     <use style="fill:#0072b2;" x="241.015607" xlink:href="#C1_0_6397962dca" y="140.936269"/>
    </g>
    <g clip-path="url(#pef9ba6f644)">
     <use style="fill:#0072b2;" x="216.277412" xlink:href="#C1_0_6397962dca" y="141.026231"/>
    </g>
   </g>
   <g id="PathCollection_3">
    <defs>
     <path d="M 0 4 
C 1.060812 4 2.078319 3.578535 2.828427 2.828427 
C 3.578535 2.078319 4 1.060812 4 0 
C 4 -1.060812 3.578535 -2.078319 2.828427 -2.828427 
C 2.078319 -3.578535 1.060812 -4 0 -4 
C -1.060812 -4 -2.078319 -3.578535 -2.828427 -2.828427 
C -3.578535 -2.078319 -4 -1.060812 -4 0 
C -4 1.060812 -3.578535 2.078319 -2.828427 2.828427 
C -2.078319 3.578535 -1.060812 4 0 4 
z
" id="C2_0_de35749db5"/>
    </defs>
    <g clip-path="url(#pef9ba6f644)">
     <use style="fill:#0072b2;" x="336.830505" xlink:href="#C2_0_de35749db5" y="70.915777"/>
    </g>
    <g clip-path="url(#pef9ba6f644)">
     <use style="fill:#0072b2;" x="333.155091" xlink:href="#C2_0_de35749db5" y="71.307282"/>
    </g>
    <g clip-path="url(#pef9ba6f644)">
     <use style="fill:#0072b2;" x="333.451167" xlink:href="#C2_0_de35749db5" y="70.535488"/>
    </g>
    <g clip-path="url(#pef9ba6f644)">
     <use style="fill:#0072b2;" x="325.962346" xlink:href="#C2_0_de35749db5" y="70.945747"/>
    </g>
   </g>
   <g id="text_11">
    <text style="fill:#262626;font-family:DejaVu Sans;font-size:16.8px;font-style:normal;font-weight:normal;" transform="translate(182.722291 34.131675)">Arabidopsis</text>
    <text style="fill:#262626;font-family:DejaVu Sans;font-size:16.8px;font-style:normal;font-weight:normal;" transform="translate(107.869104 52.944)">(TAIR10 + AtRTD2 reference)</text>
   </g>
  </g>
  <g id="axes_2">
   <g id="patch_10">
    <path d="M 418.491918 286.109277 
L 701.856 286.109277 
L 701.856 58.944 
L 418.491918 58.944 
z
" style="fill:#ffffff;"/>
   </g>
   <g id="matplotlib.axis_3">
    <g id="xtick_4">
     <g id="line2d_28">
      <g>
       <use style="fill:#262626;stroke:#262626;stroke-width:1.25;" x="465.719265" xlink:href="#mf94a41971a" y="286.109277"/>
      </g>
     </g>
     <g id="text_12">
      <text style="fill:#262626;font-family:DejaVu Sans;font-size:15.4px;font-style:normal;font-weight:normal;" transform="translate(402.187265 341.498826)rotate(-30)">One pass</text>
     </g>
    </g>
    <g id="xtick_5">
     <g id="line2d_29">
      <g>
       <use style="fill:#262626;stroke:#262626;stroke-width:1.25;" x="560.173959" xlink:href="#mf94a41971a" y="286.109277"/>
      </g>
     </g>
     <g id="text_13">
      <text style="fill:#262626;font-family:DejaVu Sans;font-size:15.4px;font-style:normal;font-weight:normal;" transform="translate(483.758122 343.959217)rotate(-30)">Two pass,</text>
      <text style="fill:#262626;font-family:DejaVu Sans;font-size:15.4px;font-style:normal;font-weight:normal;" transform="translate(486.074636 362.534162)rotate(-30)">no filtering</text>
     </g>
    </g>
    <g id="xtick_6">
     <g id="line2d_30">
      <g>
       <use style="fill:#262626;stroke:#262626;stroke-width:1.25;" x="654.628653" xlink:href="#mf94a41971a" y="286.109277"/>
      </g>
     </g>
     <g id="text_14">
      <text style="fill:#262626;font-family:DejaVu Sans;font-size:15.4px;font-style:normal;font-weight:normal;" transform="translate(550.747362 359.816404)rotate(-30)">Annot. guided</text>
      <text style="fill:#262626;font-family:DejaVu Sans;font-size:15.4px;font-style:normal;font-weight:normal;" transform="translate(585.647324 359.579287)rotate(-30)">alignment</text>
     </g>
    </g>
   </g>
   <g id="matplotlib.axis_4">
    <g id="ytick_7">
     <g id="line2d_31">
      <g>
       <use style="fill:#262626;stroke:#262626;stroke-width:1.25;" x="418.491918" xlink:href="#m9f3a0e7906" y="285.560069"/>
      </g>
     </g>
    </g>
    <g id="ytick_8">
     <g id="line2d_32">
      <g>
       <use style="fill:#262626;stroke:#262626;stroke-width:1.25;" x="418.491918" xlink:href="#m9f3a0e7906" y="245.666614"/>
      </g>
     </g>
    </g>
    <g id="ytick_9">
     <g id="line2d_33">
      <g>
       <use style="fill:#262626;stroke:#262626;stroke-width:1.25;" x="418.491918" xlink:href="#m9f3a0e7906" y="205.77316"/>
      </g>
     </g>
    </g>
    <g id="ytick_10">
     <g id="line2d_34">
      <g>
       <use style="fill:#262626;stroke:#262626;stroke-width:1.25;" x="418.491918" xlink:href="#m9f3a0e7906" y="165.879705"/>
      </g>
     </g>
    </g>
    <g id="ytick_11">
     <g id="line2d_35">
      <g>
       <use style="fill:#262626;stroke:#262626;stroke-width:1.25;" x="418.491918" xlink:href="#m9f3a0e7906" y="125.98625"/>
      </g>
     </g>
    </g>
    <g id="ytick_12">
     <g id="line2d_36">
      <g>
       <use style="fill:#262626;stroke:#262626;stroke-width:1.25;" x="418.491918" xlink:href="#m9f3a0e7906" y="86.092795"/>
      </g>
     </g>
    </g>
   </g>
   <g id="patch_11">
    <path clip-path="url(#p678e9836a1)" d="M 427.937387 272.064459 
L 503.501143 272.064459 
L 503.501143 263.104464 
L 427.937387 263.104464 
L 427.937387 272.064459 
z
" style="fill:#eeeeee;stroke:#8f8f8f;stroke-linejoin:miter;stroke-width:1.5;"/>
   </g>
   <g id="patch_12">
    <path clip-path="url(#p678e9836a1)" d="M 522.392081 260.531193 
L 597.955837 260.531193 
L 597.955837 251.600342 
L 522.392081 251.600342 
L 522.392081 260.531193 
z
" style="fill:#eeeeee;stroke:#8f8f8f;stroke-linejoin:miter;stroke-width:1.5;"/>
   </g>
   <g id="patch_13">
    <path clip-path="url(#p678e9836a1)" d="M 616.846775 156.069327 
L 692.410531 156.069327 
L 692.410531 150.192138 
L 616.846775 150.192138 
L 616.846775 156.069327 
z
" style="fill:#eeeeee;stroke:#8f8f8f;stroke-linejoin:miter;stroke-width:1.5;"/>
   </g>
   <g id="line2d_37">
    <path clip-path="url(#p678e9836a1)" d="M 465.719265 272.064459 
L 465.719265 272.788457 
" style="fill:none;stroke:#8f8f8f;stroke-linecap:round;stroke-width:1.5;"/>
   </g>
   <g id="line2d_38">
    <path clip-path="url(#p678e9836a1)" d="M 465.719265 263.104464 
L 465.719265 259.636036 
" style="fill:none;stroke:#8f8f8f;stroke-linecap:round;stroke-width:1.5;"/>
   </g>
   <g id="line2d_39">
    <path clip-path="url(#p678e9836a1)" d="M 446.828326 272.788457 
L 484.610204 272.788457 
" style="fill:none;stroke:#8f8f8f;stroke-linecap:round;stroke-width:1.5;"/>
   </g>
   <g id="line2d_40">
    <path clip-path="url(#p678e9836a1)" d="M 446.828326 259.636036 
L 484.610204 259.636036 
" style="fill:none;stroke:#8f8f8f;stroke-linecap:round;stroke-width:1.5;"/>
   </g>
   <g id="line2d_41"/>
   <g id="line2d_42">
    <path clip-path="url(#p678e9836a1)" d="M 560.173959 260.531193 
L 560.173959 260.72971 
" style="fill:none;stroke:#8f8f8f;stroke-linecap:round;stroke-width:1.5;"/>
   </g>
   <g id="line2d_43">
    <path clip-path="url(#p678e9836a1)" d="M 560.173959 251.600342 
L 560.173959 248.39346 
" style="fill:none;stroke:#8f8f8f;stroke-linecap:round;stroke-width:1.5;"/>
   </g>
   <g id="line2d_44">
    <path clip-path="url(#p678e9836a1)" d="M 541.28302 260.72971 
L 579.064898 260.72971 
" style="fill:none;stroke:#8f8f8f;stroke-linecap:round;stroke-width:1.5;"/>
   </g>
   <g id="line2d_45">
    <path clip-path="url(#p678e9836a1)" d="M 541.28302 248.39346 
L 579.064898 248.39346 
" style="fill:none;stroke:#8f8f8f;stroke-linecap:round;stroke-width:1.5;"/>
   </g>
   <g id="line2d_46"/>
   <g id="line2d_47">
    <path clip-path="url(#p678e9836a1)" d="M 654.628653 156.069327 
L 654.628653 156.302148 
" style="fill:none;stroke:#8f8f8f;stroke-linecap:round;stroke-width:1.5;"/>
   </g>
   <g id="line2d_48">
    <path clip-path="url(#p678e9836a1)" d="M 654.628653 150.192138 
L 654.628653 149.201824 
" style="fill:none;stroke:#8f8f8f;stroke-linecap:round;stroke-width:1.5;"/>
   </g>
   <g id="line2d_49">
    <path clip-path="url(#p678e9836a1)" d="M 635.737714 156.302148 
L 673.519592 156.302148 
" style="fill:none;stroke:#8f8f8f;stroke-linecap:round;stroke-width:1.5;"/>
   </g>
   <g id="line2d_50">
    <path clip-path="url(#p678e9836a1)" d="M 635.737714 149.201824 
L 673.519592 149.201824 
" style="fill:none;stroke:#8f8f8f;stroke-linecap:round;stroke-width:1.5;"/>
   </g>
   <g id="line2d_51"/>
   <g id="line2d_52">
    <path clip-path="url(#p678e9836a1)" d="M 427.937387 268.041866 
L 503.501143 268.041866 
" style="fill:none;stroke:#8f8f8f;stroke-linecap:round;stroke-width:1.5;"/>
   </g>
   <g id="line2d_53">
    <path clip-path="url(#p678e9836a1)" d="M 522.392081 256.567162 
L 597.955837 256.567162 
" style="fill:none;stroke:#8f8f8f;stroke-linecap:round;stroke-width:1.5;"/>
   </g>
   <g id="line2d_54">
    <path clip-path="url(#p678e9836a1)" d="M 616.846775 153.256981 
L 692.410531 153.256981 
" style="fill:none;stroke:#8f8f8f;stroke-linecap:round;stroke-width:1.5;"/>
   </g>
   <g id="patch_14">
    <path d="M 418.491918 286.109277 
L 418.491918 58.944 
" style="fill:none;stroke:#262626;stroke-linecap:square;stroke-linejoin:miter;stroke-width:1.25;"/>
   </g>
   <g id="patch_15">
    <path d="M 701.856 286.109277 
L 701.856 58.944 
" style="fill:none;stroke:#262626;stroke-linecap:square;stroke-linejoin:miter;stroke-width:1.25;"/>
   </g>
   <g id="patch_16">
    <path d="M 418.491918 286.109277 
L 701.856 286.109277 
" style="fill:none;stroke:#262626;stroke-linecap:square;stroke-linejoin:miter;stroke-width:1.25;"/>
   </g>
   <g id="patch_17">
    <path d="M 418.491918 58.944 
L 701.856 58.944 
" style="fill:none;stroke:#262626;stroke-linecap:square;stroke-linejoin:miter;stroke-width:1.25;"/>
   </g>
   <g id="PathCollection_4">
    <defs>
     <path d="M 0 4 
C 1.060812 4 2.078319 3.578535 2.828427 2.828427 
C 3.578535 2.078319 4 1.060812 4 0 
C 4 -1.060812 3.578535 -2.078319 2.828427 -2.828427 
C 2.078319 -3.578535 1.060812 -4 0 -4 
C -1.060812 -4 -2.078319 -3.578535 -2.828427 -2.828427 
C -3.578535 -2.078319 -4 -1.060812 -4 0 
C -4 1.060812 -3.578535 2.078319 -2.828427 2.828427 
C -2.078319 3.578535 -1.060812 4 0 4 
z
" id="C3_0_9452ab1f63"/>
    </defs>
    <g clip-path="url(#p678e9836a1)">
     <use style="fill:#0072b2;" x="483.679301" xlink:href="#C3_0_9452ab1f63" y="271.823126"/>
    </g>
    <g clip-path="url(#p678e9836a1)">
     <use style="fill:#0072b2;" x="454.517982" xlink:href="#C3_0_9452ab1f63" y="264.260606"/>
    </g>
    <g clip-path="url(#p678e9836a1)">
     <use style="fill:#0072b2;" x="458.125879" xlink:href="#C3_0_9452ab1f63" y="259.636036"/>
    </g>
    <g clip-path="url(#p678e9836a1)">
     <use style="fill:#0072b2;" x="455.429593" xlink:href="#C3_0_9452ab1f63" y="272.788457"/>
    </g>
   </g>
   <g id="PathCollection_5">
    <defs>
     <path d="M 0 4 
C 1.060812 4 2.078319 3.578535 2.828427 2.828427 
C 3.578535 2.078319 4 1.060812 4 0 
C 4 -1.060812 3.578535 -2.078319 2.828427 -2.828427 
C 2.078319 -3.578535 1.060812 -4 0 -4 
C -1.060812 -4 -2.078319 -3.578535 -2.828427 -2.828427 
C -3.578535 -2.078319 -4 -1.060812 -4 0 
C -4 1.060812 -3.578535 2.078319 -2.828427 2.828427 
C -2.078319 3.578535 -1.060812 4 0 4 
z
" id="C4_0_643703058a"/>
    </defs>
    <g clip-path="url(#p678e9836a1)">
     <use style="fill:#0072b2;" x="543.102931" xlink:href="#C4_0_643703058a" y="260.465021"/>
    </g>
    <g clip-path="url(#p678e9836a1)">
     <use style="fill:#0072b2;" x="575.436755" xlink:href="#C4_0_643703058a" y="252.669302"/>
    </g>
    <g clip-path="url(#p678e9836a1)">
     <use style="fill:#0072b2;" x="544.309482" xlink:href="#C4_0_643703058a" y="248.39346"/>
    </g>
    <g clip-path="url(#p678e9836a1)">
     <use style="fill:#0072b2;" x="564.224791" xlink:href="#C4_0_643703058a" y="260.72971"/>
    </g>
   </g>
   <g id="PathCollection_6">
    <defs>
     <path d="M 0 4 
C 1.060812 4 2.078319 3.578535 2.828427 2.828427 
C 3.578535 2.078319 4 1.060812 4 0 
C 4 -1.060812 3.578535 -2.078319 2.828427 -2.828427 
C 2.078319 -3.578535 1.060812 -4 0 -4 
C -1.060812 -4 -2.078319 -3.578535 -2.828427 -2.828427 
C -3.578535 -2.078319 -4 -1.060812 -4 0 
C -4 1.060812 -3.578535 2.078319 -2.828427 2.828427 
C -2.078319 3.578535 -1.060812 4 0 4 
z
" id="C5_0_f8da7bd03f"/>
    </defs>
    <g clip-path="url(#p678e9836a1)">
     <use style="fill:#0072b2;" x="659.572287" xlink:href="#C5_0_f8da7bd03f" y="155.99172"/>
    </g>
    <g clip-path="url(#p678e9836a1)">
     <use style="fill:#0072b2;" x="650.01707" xlink:href="#C5_0_f8da7bd03f" y="150.522243"/>
    </g>
    <g clip-path="url(#p678e9836a1)">
     <use style="fill:#0072b2;" x="636.237984" xlink:href="#C5_0_f8da7bd03f" y="149.201824"/>
    </g>
    <g clip-path="url(#p678e9836a1)">
     <use style="fill:#0072b2;" x="667.558345" xlink:href="#C5_0_f8da7bd03f" y="156.302148"/>
    </g>
   </g>
   <g id="text_15">
    <text style="fill:#262626;font-family:DejaVu Sans;font-size:16.8px;font-style:normal;font-weight:normal;text-anchor:middle;" transform="rotate(-0, 560.173959, 52.944)" x="560.173959" y="52.944">Human (GRCh38 reference)</text>
   </g>
  </g>
 </g>
 <defs>
  <clipPath id="pef9ba6f644">
   <rect height="227.165277" width="283.364082" x="89.944" y="58.944"/>
  </clipPath>
  <clipPath id="p678e9836a1">
   <rect height="227.165277" width="283.364082" x="418.491918" y="58.944"/>
  </clipPath>
 </defs>
</svg>
