<?xml version="1.0" encoding="utf-8" standalone="no"?>
<!DOCTYPE svg PUBLIC "-//W3C//DTD SVG 1.1//EN"
  "http://www.w3.org/Graphics/SVG/1.1/DTD/svg11.dtd">
<!-- Created with matplotlib (https://matplotlib.org/) -->
<svg height="396pt" version="1.1" viewBox="0 0 864 396" width="864pt" xmlns="http://www.w3.org/2000/svg" xmlns:xlink="http://www.w3.org/1999/xlink">
 <defs>
  <style type="text/css">
*{stroke-linecap:butt;stroke-linejoin:round;}
  </style>
 </defs>
 <g id="figure_1">
  <g id="patch_1">
   <path d="M 0 396 
L 864 396 
L 864 0 
L 0 0 
z
" style="fill:#ffffff;"/>
  </g>
  <g id="axes_1">
   <g id="patch_2">
    <path d="M 89.944 296.556 
L 454.435955 296.556 
L 454.435955 58.944 
L 89.944 58.944 
z
" style="fill:#ffffff;"/>
   </g>
   <g id="matplotlib.axis_1">
    <g id="xtick_1">
     <g id="line2d_1">
      <defs>
       <path d="M 0 0 
L 0 6 
" id="m36b459e70e" style="stroke:#262626;stroke-width:1.25;"/>
      </defs>
      <g>
       <use style="fill:#262626;stroke:#262626;stroke-width:1.25;" x="135.505494" xlink:href="#m36b459e70e" y="296.556"/>
      </g>
     </g>
     <g id="text_1">
      <text style="fill:#262626;font-family:DejaVu Sans;font-size:15.4px;font-style:normal;font-weight:normal;text-anchor:middle;" transform="rotate(-0, 135.505494, 317.757594)" x="135.505494" y="317.757594">One-pass</text>
     </g>
    </g>
    <g id="xtick_2">
     <g id="line2d_2">
      <g>
       <use style="fill:#262626;stroke:#262626;stroke-width:1.25;" x="226.628483" xlink:href="#m36b459e70e" y="296.556"/>
      </g>
     </g>
     <g id="text_2">
      <text style="fill:#262626;font-family:DejaVu Sans;font-size:15.4px;font-style:normal;font-weight:normal;" transform="translate(188.080358 317.757594)">Two-pass,</text>
      <text style="fill:#262626;font-family:DejaVu Sans;font-size:15.4px;font-style:normal;font-weight:normal;" transform="translate(194.887639 335.002225)">decision</text>
      <text style="fill:#262626;font-family:DejaVu Sans;font-size:15.4px;font-style:normal;font-weight:normal;" transform="translate(203.624733 352.246856)">tree 1</text>
     </g>
    </g>
    <g id="xtick_3">
     <g id="line2d_3">
      <g>
       <use style="fill:#262626;stroke:#262626;stroke-width:1.25;" x="317.751472" xlink:href="#m36b459e70e" y="296.556"/>
      </g>
     </g>
     <g id="text_3">
      <text style="fill:#262626;font-family:DejaVu Sans;font-size:15.4px;font-style:normal;font-weight:normal;" transform="translate(279.203347 317.757594)">Two-pass,</text>
      <text style="fill:#262626;font-family:DejaVu Sans;font-size:15.4px;font-style:normal;font-weight:normal;" transform="translate(286.010628 335.002225)">decision</text>
      <text style="fill:#262626;font-family:DejaVu Sans;font-size:15.4px;font-style:normal;font-weight:normal;" transform="translate(294.747722 352.246856)">tree 2</text>
     </g>
    </g>
    <g id="xtick_4">
     <g id="line2d_4">
      <g>
       <use style="fill:#262626;stroke:#262626;stroke-width:1.25;" x="408.87446" xlink:href="#m36b459e70e" y="296.556"/>
      </g>
     </g>
     <g id="text_4">
      <text style="fill:#262626;font-family:DejaVu Sans;font-size:15.4px;font-style:normal;font-weight:normal;" transform="translate(369.590023 317.757594)">Reference</text>
      <text style="fill:#262626;font-family:DejaVu Sans;font-size:15.4px;font-style:normal;font-weight:normal;" transform="translate(382.452632 335.002225)">guided</text>
     </g>
    </g>
    <g id="text_5">
     <text style="fill:#262626;font-family:DejaVu Sans;font-size:16.8px;font-style:normal;font-weight:normal;text-anchor:middle;" transform="rotate(-0, 272.189977, 372.21495)" x="272.189977" y="372.21495">Alignment strategy</text>
    </g>
   </g>
   <g id="matplotlib.axis_2">
    <g id="ytick_1">
     <g id="line2d_5">
      <defs>
       <path d="M 0 0 
L -6 0 
" id="mb9f817018f" style="stroke:#262626;stroke-width:1.25;"/>
      </defs>
      <g>
       <use style="fill:#262626;stroke:#262626;stroke-width:1.25;" x="89.944" xlink:href="#mb9f817018f" y="295.981535"/>
      </g>
     </g>
     <g id="text_6">
      <text style="fill:#262626;font-family:DejaVu Sans;font-size:15.4px;font-style:normal;font-weight:normal;text-anchor:end;" transform="rotate(-0, 80.444, 301.832332)" x="80.444" y="301.832332">40</text>
     </g>
    </g>
    <g id="ytick_2">
     <g id="line2d_6">
      <g>
       <use style="fill:#262626;stroke:#262626;stroke-width:1.25;" x="89.944" xlink:href="#mb9f817018f" y="254.253488"/>
      </g>
     </g>
     <g id="text_7">
      <text style="fill:#262626;font-family:DejaVu Sans;font-size:15.4px;font-style:normal;font-weight:normal;text-anchor:end;" transform="rotate(-0, 80.444, 260.104284)" x="80.444" y="260.104284">50</text>
     </g>
    </g>
    <g id="ytick_3">
     <g id="line2d_7">
      <g>
       <use style="fill:#262626;stroke:#262626;stroke-width:1.25;" x="89.944" xlink:href="#mb9f817018f" y="212.52544"/>
      </g>
     </g>
     <g id="text_8">
      <text style="fill:#262626;font-family:DejaVu Sans;font-size:15.4px;font-style:normal;font-weight:normal;text-anchor:end;" transform="rotate(-0, 80.444, 218.376236)" x="80.444" y="218.376236">60</text>
     </g>
    </g>
    <g id="ytick_4">
     <g id="line2d_8">
      <g>
       <use style="fill:#262626;stroke:#262626;stroke-width:1.25;" x="89.944" xlink:href="#mb9f817018f" y="170.797392"/>
      </g>
     </g>
     <g id="text_9">
      <text style="fill:#262626;font-family:DejaVu Sans;font-size:15.4px;font-style:normal;font-weight:normal;text-anchor:end;" transform="rotate(-0, 80.444, 176.648189)" x="80.444" y="176.648189">70</text>
     </g>
    </g>
    <g id="ytick_5">
     <g id="line2d_9">
      <g>
       <use style="fill:#262626;stroke:#262626;stroke-width:1.25;" x="89.944" xlink:href="#mb9f817018f" y="129.069344"/>
      </g>
     </g>
     <g id="text_10">
      <text style="fill:#262626;font-family:DejaVu Sans;font-size:15.4px;font-style:normal;font-weight:normal;text-anchor:end;" transform="rotate(-0, 80.444, 134.920141)" x="80.444" y="134.920141">80</text>
     </g>
    </g>
    <g id="ytick_6">
     <g id="line2d_10">
      <g>
       <use style="fill:#262626;stroke:#262626;stroke-width:1.25;" x="89.944" xlink:href="#mb9f817018f" y="87.341296"/>
      </g>
     </g>
     <g id="text_11">
      <text style="fill:#262626;font-family:DejaVu Sans;font-size:15.4px;font-style:normal;font-weight:normal;text-anchor:end;" transform="rotate(-0, 80.444, 93.192093)" x="80.444" y="93.192093">90</text>
     </g>
    </g>
    <g id="text_12">
     <text style="fill:#262626;font-family:DejaVu Sans;font-size:16.8px;font-style:normal;font-weight:normal;" transform="translate(34.5413 249.6855)rotate(-90)">Correctly aligned</text>
     <text style="fill:#262626;font-family:DejaVu Sans;font-size:16.8px;font-style:normal;font-weight:normal;" transform="translate(53.353625 250.596375)rotate(-90)">spliced reads (%)</text>
    </g>
   </g>
   <g id="patch_3">
    <path clip-path="url(#p10ac3b9b54)" d="M 99.056299 159.428634 
L 171.95469 159.428634 
L 171.95469 155.67944 
L 99.056299 155.67944 
L 99.056299 159.428634 
z
" style="fill:#eeeeee;stroke:#8f8f8f;stroke-linejoin:miter;stroke-width:1.5;"/>
   </g>
   <g id="patch_4">
    <path clip-path="url(#p10ac3b9b54)" d="M 190.179287 95.811454 
L 263.077678 95.811454 
L 263.077678 93.442252 
L 190.179287 93.442252 
L 190.179287 95.811454 
z
" style="fill:#eeeeee;stroke:#8f8f8f;stroke-linejoin:miter;stroke-width:1.5;"/>
   </g>
   <g id="patch_5">
    <path clip-path="url(#p10ac3b9b54)" d="M 281.302276 91.086676 
L 354.200667 91.086676 
L 354.200667 89.418469 
L 281.302276 89.418469 
L 281.302276 91.086676 
z
" style="fill:#eeeeee;stroke:#8f8f8f;stroke-linejoin:miter;stroke-width:1.5;"/>
   </g>
   <g id="patch_6">
    <path clip-path="url(#p10ac3b9b54)" d="M 372.425265 71.592215 
L 445.323656 71.592215 
L 445.323656 71.366882 
L 372.425265 71.366882 
L 372.425265 71.592215 
z
" style="fill:#eeeeee;stroke:#8f8f8f;stroke-linejoin:miter;stroke-width:1.5;"/>
   </g>
   <g id="line2d_11">
    <path clip-path="url(#p10ac3b9b54)" d="M 135.505494 159.428634 
L 135.505494 159.729793 
" style="fill:none;stroke:#8f8f8f;stroke-linecap:round;stroke-width:1.5;"/>
   </g>
   <g id="line2d_12">
    <path clip-path="url(#p10ac3b9b54)" d="M 135.505494 155.67944 
L 135.505494 155.404615 
" style="fill:none;stroke:#8f8f8f;stroke-linecap:round;stroke-width:1.5;"/>
   </g>
   <g id="line2d_13">
    <path clip-path="url(#p10ac3b9b54)" d="M 117.280897 159.729793 
L 153.730092 159.729793 
" style="fill:none;stroke:#8f8f8f;stroke-linecap:round;stroke-width:1.5;"/>
   </g>
   <g id="line2d_14">
    <path clip-path="url(#p10ac3b9b54)" d="M 117.280897 155.404615 
L 153.730092 155.404615 
" style="fill:none;stroke:#8f8f8f;stroke-linecap:round;stroke-width:1.5;"/>
   </g>
   <g id="line2d_15"/>
   <g id="line2d_16">
    <path clip-path="url(#p10ac3b9b54)" d="M 226.628483 95.811454 
L 226.628483 95.956995 
" style="fill:none;stroke:#8f8f8f;stroke-linecap:round;stroke-width:1.5;"/>
   </g>
   <g id="line2d_17">
    <path clip-path="url(#p10ac3b9b54)" d="M 226.628483 93.442252 
L 226.628483 92.001982 
" style="fill:none;stroke:#8f8f8f;stroke-linecap:round;stroke-width:1.5;"/>
   </g>
   <g id="line2d_18">
    <path clip-path="url(#p10ac3b9b54)" d="M 208.403885 95.956995 
L 244.853081 95.956995 
" style="fill:none;stroke:#8f8f8f;stroke-linecap:round;stroke-width:1.5;"/>
   </g>
   <g id="line2d_19">
    <path clip-path="url(#p10ac3b9b54)" d="M 208.403885 92.001982 
L 244.853081 92.001982 
" style="fill:none;stroke:#8f8f8f;stroke-linecap:round;stroke-width:1.5;"/>
   </g>
   <g id="line2d_20"/>
   <g id="line2d_21">
    <path clip-path="url(#p10ac3b9b54)" d="M 317.751472 91.086676 
L 317.751472 91.498019 
" style="fill:none;stroke:#8f8f8f;stroke-linecap:round;stroke-width:1.5;"/>
   </g>
   <g id="line2d_22">
    <path clip-path="url(#p10ac3b9b54)" d="M 317.751472 89.418469 
L 317.751472 89.148989 
" style="fill:none;stroke:#8f8f8f;stroke-linecap:round;stroke-width:1.5;"/>
   </g>
   <g id="line2d_23">
    <path clip-path="url(#p10ac3b9b54)" d="M 299.526874 91.498019 
L 335.976069 91.498019 
" style="fill:none;stroke:#8f8f8f;stroke-linecap:round;stroke-width:1.5;"/>
   </g>
   <g id="line2d_24">
    <path clip-path="url(#p10ac3b9b54)" d="M 299.526874 89.148989 
L 335.976069 89.148989 
" style="fill:none;stroke:#8f8f8f;stroke-linecap:round;stroke-width:1.5;"/>
   </g>
   <g id="line2d_25"/>
   <g id="line2d_26">
    <path clip-path="url(#p10ac3b9b54)" d="M 408.87446 71.592215 
L 408.87446 71.875836 
" style="fill:none;stroke:#8f8f8f;stroke-linecap:round;stroke-width:1.5;"/>
   </g>
   <g id="line2d_27">
    <path clip-path="url(#p10ac3b9b54)" d="M 408.87446 71.366882 
L 408.87446 71.068549 
" style="fill:none;stroke:#8f8f8f;stroke-linecap:round;stroke-width:1.5;"/>
   </g>
   <g id="line2d_28">
    <path clip-path="url(#p10ac3b9b54)" d="M 390.649862 71.875836 
L 427.099058 71.875836 
" style="fill:none;stroke:#8f8f8f;stroke-linecap:round;stroke-width:1.5;"/>
   </g>
   <g id="line2d_29">
    <path clip-path="url(#p10ac3b9b54)" d="M 390.649862 71.068549 
L 427.099058 71.068549 
" style="fill:none;stroke:#8f8f8f;stroke-linecap:round;stroke-width:1.5;"/>
   </g>
   <g id="line2d_30"/>
   <g id="line2d_31">
    <path clip-path="url(#p10ac3b9b54)" d="M 181.066989 296.556 
L 181.066989 58.944 
" style="fill:none;stroke:#555555;stroke-dasharray:5.55,2.4;stroke-dashoffset:0;stroke-width:1.5;"/>
   </g>
   <g id="line2d_32">
    <path clip-path="url(#p10ac3b9b54)" d="M 272.189977 296.556 
L 272.189977 58.944 
" style="fill:none;stroke:#555555;stroke-dasharray:5.55,2.4;stroke-dashoffset:0;stroke-width:1.5;"/>
   </g>
   <g id="line2d_33">
    <path clip-path="url(#p10ac3b9b54)" d="M 363.312966 296.556 
L 363.312966 58.944 
" style="fill:none;stroke:#555555;stroke-dasharray:5.55,2.4;stroke-dashoffset:0;stroke-width:1.5;"/>
   </g>
   <g id="line2d_34">
    <path clip-path="url(#p10ac3b9b54)" d="M 99.056299 157.549648 
L 171.95469 157.549648 
" style="fill:none;stroke:#8f8f8f;stroke-linecap:round;stroke-width:1.5;"/>
   </g>
   <g id="line2d_35">
    <path clip-path="url(#p10ac3b9b54)" d="M 190.179287 94.842641 
L 263.077678 94.842641 
" style="fill:none;stroke:#8f8f8f;stroke-linecap:round;stroke-width:1.5;"/>
   </g>
   <g id="line2d_36">
    <path clip-path="url(#p10ac3b9b54)" d="M 281.302276 90.228929 
L 354.200667 90.228929 
" style="fill:none;stroke:#8f8f8f;stroke-linecap:round;stroke-width:1.5;"/>
   </g>
   <g id="line2d_37">
    <path clip-path="url(#p10ac3b9b54)" d="M 372.425265 71.482001 
L 445.323656 71.482001 
" style="fill:none;stroke:#8f8f8f;stroke-linecap:round;stroke-width:1.5;"/>
   </g>
   <g id="patch_7">
    <path d="M 89.944 296.556 
L 89.944 58.944 
" style="fill:none;stroke:#262626;stroke-linecap:square;stroke-linejoin:miter;stroke-width:1.25;"/>
   </g>
   <g id="patch_8">
    <path d="M 454.435955 296.556 
L 454.435955 58.944 
" style="fill:none;stroke:#262626;stroke-linecap:square;stroke-linejoin:miter;stroke-width:1.25;"/>
   </g>
   <g id="patch_9">
    <path d="M 89.944 296.556 
L 454.435955 296.556 
" style="fill:none;stroke:#262626;stroke-linecap:square;stroke-linejoin:miter;stroke-width:1.25;"/>
   </g>
   <g id="patch_10">
    <path d="M 89.944 58.944 
L 454.435955 58.944 
" style="fill:none;stroke:#262626;stroke-linecap:square;stroke-linejoin:miter;stroke-width:1.25;"/>
   </g>
   <g id="PathCollection_1">
    <defs>
     <path d="M 0 4 
C 1.060812 4 2.078319 3.578535 2.828427 2.828427 
C 3.578535 2.078319 4 1.060812 4 0 
C 4 -1.060812 3.578535 -2.078319 2.828427 -2.828427 
C 2.078319 -3.578535 1.060812 -4 0 -4 
C -1.060812 -4 -2.078319 -3.578535 -2.828427 -2.828427 
C -3.578535 -2.078319 -4 -1.060812 -4 0 
C -4 1.060812 -3.578535 2.078319 -2.828427 2.828427 
C -2.078319 3.578535 -1.060812 4 0 4 
z
" id="C0_0_d3974abff3"/>
    </defs>
    <g clip-path="url(#p10ac3b9b54)">
     <use style="fill:#0072b2;" x="131.311568" xlink:href="#C0_0_d3974abff3" y="159.328248"/>
    </g>
    <g clip-path="url(#p10ac3b9b54)">
     <use style="fill:#0072b2;" x="137.388673" xlink:href="#C0_0_d3974abff3" y="159.729793"/>
    </g>
    <g clip-path="url(#p10ac3b9b54)">
     <use style="fill:#0072b2;" x="143.17944" xlink:href="#C0_0_d3974abff3" y="155.404615"/>
    </g>
    <g clip-path="url(#p10ac3b9b54)">
     <use style="fill:#0072b2;" x="141.894267" xlink:href="#C0_0_d3974abff3" y="155.771049"/>
    </g>
   </g>
   <g id="PathCollection_2">
    <defs>
     <path d="M 0 4 
C 1.060812 4 2.078319 3.578535 2.828427 2.828427 
C 3.578535 2.078319 4 1.060812 4 0 
C 4 -1.060812 3.578535 -2.078319 2.828427 -2.828427 
C 2.078319 -3.578535 1.060812 -4 0 -4 
C -1.060812 -4 -2.078319 -3.578535 -2.828427 -2.828427 
C -3.578535 -2.078319 -4 -1.060812 -4 0 
C -4 1.060812 -3.578535 2.078319 -2.828427 2.828427 
C -2.078319 3.578535 -1.060812 4 0 4 
z
" id="C1_0_bac467aa9c"/>
    </defs>
    <g clip-path="url(#p10ac3b9b54)">
     <use style="fill:#0072b2;" x="233.720208" xlink:href="#C1_0_bac467aa9c" y="95.956995"/>
    </g>
    <g clip-path="url(#p10ac3b9b54)">
     <use style="fill:#0072b2;" x="220.886159" xlink:href="#C1_0_bac467aa9c" y="95.762941"/>
    </g>
    <g clip-path="url(#p10ac3b9b54)">
     <use style="fill:#0072b2;" x="223.435189" xlink:href="#C1_0_bac467aa9c" y="93.922342"/>
    </g>
    <g clip-path="url(#p10ac3b9b54)">
     <use style="fill:#0072b2;" x="217.144073" xlink:href="#C1_0_bac467aa9c" y="92.001982"/>
    </g>
   </g>
   <g id="PathCollection_3">
    <defs>
     <path d="M 0 4 
C 1.060812 4 2.078319 3.578535 2.828427 2.828427 
C 3.578535 2.078319 4 1.060812 4 0 
C 4 -1.060812 3.578535 -2.078319 2.828427 -2.828427 
C 2.078319 -3.578535 1.060812 -4 0 -4 
C -1.060812 -4 -2.078319 -3.578535 -2.828427 -2.828427 
C -3.578535 -2.078319 -4 -1.060812 -4 0 
C -4 1.060812 -3.578535 2.078319 -2.828427 2.828427 
C -2.078319 3.578535 -1.060812 4 0 4 
z
" id="C2_0_95413bc4b0"/>
    </defs>
    <g clip-path="url(#p10ac3b9b54)">
     <use style="fill:#0072b2;" x="334.840166" xlink:href="#C2_0_95413bc4b0" y="90.949562"/>
    </g>
    <g clip-path="url(#p10ac3b9b54)">
     <use style="fill:#0072b2;" x="310.044545" xlink:href="#C2_0_95413bc4b0" y="91.498019"/>
    </g>
    <g clip-path="url(#p10ac3b9b54)">
     <use style="fill:#0072b2;" x="304.896264" xlink:href="#C2_0_95413bc4b0" y="89.508296"/>
    </g>
    <g clip-path="url(#p10ac3b9b54)">
     <use style="fill:#0072b2;" x="304.241229" xlink:href="#C2_0_95413bc4b0" y="89.148989"/>
    </g>
   </g>
   <g id="PathCollection_4">
    <defs>
     <path d="M 0 4 
C 1.060812 4 2.078319 3.578535 2.828427 2.828427 
C 3.578535 2.078319 4 1.060812 4 0 
C 4 -1.060812 3.578535 -2.078319 2.828427 -2.828427 
C 2.078319 -3.578535 1.060812 -4 0 -4 
C -1.060812 -4 -2.078319 -3.578535 -2.828427 -2.828427 
C -3.578535 -2.078319 -4 -1.060812 -4 0 
C -4 1.060812 -3.578535 2.078319 -2.828427 2.828427 
C -2.078319 3.578535 -1.060812 4 0 4 
z
" id="C3_0_1b5f083ed1"/>
    </defs>
    <g clip-path="url(#p10ac3b9b54)">
     <use style="fill:#0072b2;" x="425.059946" xlink:href="#C3_0_1b5f083ed1" y="71.466327"/>
    </g>
    <g clip-path="url(#p10ac3b9b54)">
     <use style="fill:#0072b2;" x="403.459359" xlink:href="#C3_0_1b5f083ed1" y="71.875836"/>
    </g>
    <g clip-path="url(#p10ac3b9b54)">
     <use style="fill:#0072b2;" x="417.387812" xlink:href="#C3_0_1b5f083ed1" y="71.068549"/>
    </g>
    <g clip-path="url(#p10ac3b9b54)">
     <use style="fill:#0072b2;" x="423.9604" xlink:href="#C3_0_1b5f083ed1" y="71.497675"/>
    </g>
   </g>
   <g id="text_13">
    <text style="fill:#262626;font-family:DejaVu Sans;font-size:16.8px;font-style:normal;font-weight:normal;" transform="translate(223.286227 34.131675)">Arabidopsis</text>
    <text style="fill:#262626;font-family:DejaVu Sans;font-size:16.8px;font-style:normal;font-weight:normal;" transform="translate(148.43304 52.944)">(TAIR10 + AtRTD2 reference)</text>
   </g>
  </g>
  <g id="axes_2">
   <g id="patch_11">
    <path d="M 479.972 296.556 
L 844.463955 296.556 
L 844.463955 58.944 
L 479.972 58.944 
z
" style="fill:#ffffff;"/>
   </g>
   <g id="matplotlib.axis_3">
    <g id="xtick_5">
     <g id="line2d_38">
      <g>
       <use style="fill:#262626;stroke:#262626;stroke-width:1.25;" x="525.533494" xlink:href="#m36b459e70e" y="296.556"/>
      </g>
     </g>
     <g id="text_14">
      <text style="fill:#262626;font-family:DejaVu Sans;font-size:15.4px;font-style:normal;font-weight:normal;text-anchor:middle;" transform="rotate(-0, 525.533494, 317.757594)" x="525.533494" y="317.757594">One-pass</text>
     </g>
    </g>
    <g id="xtick_6">
     <g id="line2d_39">
      <g>
       <use style="fill:#262626;stroke:#262626;stroke-width:1.25;" x="616.656483" xlink:href="#m36b459e70e" y="296.556"/>
      </g>
     </g>
     <g id="text_15">
      <text style="fill:#262626;font-family:DejaVu Sans;font-size:15.4px;font-style:normal;font-weight:normal;" transform="translate(578.108358 317.757594)">Two-pass,</text>
      <text style="fill:#262626;font-family:DejaVu Sans;font-size:15.4px;font-style:normal;font-weight:normal;" transform="translate(584.915639 335.002225)">decision</text>
      <text style="fill:#262626;font-family:DejaVu Sans;font-size:15.4px;font-style:normal;font-weight:normal;" transform="translate(593.652733 352.246856)">tree 1</text>
     </g>
    </g>
    <g id="xtick_7">
     <g id="line2d_40">
      <g>
       <use style="fill:#262626;stroke:#262626;stroke-width:1.25;" x="707.779472" xlink:href="#m36b459e70e" y="296.556"/>
      </g>
     </g>
     <g id="text_16">
      <text style="fill:#262626;font-family:DejaVu Sans;font-size:15.4px;font-style:normal;font-weight:normal;" transform="translate(669.231347 317.757594)">Two-pass,</text>
      <text style="fill:#262626;font-family:DejaVu Sans;font-size:15.4px;font-style:normal;font-weight:normal;" transform="translate(676.038628 335.002225)">decision</text>
      <text style="fill:#262626;font-family:DejaVu Sans;font-size:15.4px;font-style:normal;font-weight:normal;" transform="translate(684.775722 352.246856)">tree 2</text>
     </g>
    </g>
    <g id="xtick_8">
     <g id="line2d_41">
      <g>
       <use style="fill:#262626;stroke:#262626;stroke-width:1.25;" x="798.90246" xlink:href="#m36b459e70e" y="296.556"/>
      </g>
     </g>
     <g id="text_17">
      <text style="fill:#262626;font-family:DejaVu Sans;font-size:15.4px;font-style:normal;font-weight:normal;" transform="translate(759.618023 317.757594)">Reference</text>
      <text style="fill:#262626;font-family:DejaVu Sans;font-size:15.4px;font-style:normal;font-weight:normal;" transform="translate(772.480632 335.002225)">guided</text>
     </g>
    </g>
    <g id="text_18">
     <text style="fill:#262626;font-family:DejaVu Sans;font-size:16.8px;font-style:normal;font-weight:normal;text-anchor:middle;" transform="rotate(-0, 662.217977, 372.21495)" x="662.217977" y="372.21495">Alignment strategy</text>
    </g>
   </g>
   <g id="matplotlib.axis_4">
    <g id="ytick_7">
     <g id="line2d_42">
      <g>
       <use style="fill:#262626;stroke:#262626;stroke-width:1.25;" x="479.972" xlink:href="#mb9f817018f" y="295.981535"/>
      </g>
     </g>
    </g>
    <g id="ytick_8">
     <g id="line2d_43">
      <g>
       <use style="fill:#262626;stroke:#262626;stroke-width:1.25;" x="479.972" xlink:href="#mb9f817018f" y="254.253488"/>
      </g>
     </g>
    </g>
    <g id="ytick_9">
     <g id="line2d_44">
      <g>
       <use style="fill:#262626;stroke:#262626;stroke-width:1.25;" x="479.972" xlink:href="#mb9f817018f" y="212.52544"/>
      </g>
     </g>
    </g>
    <g id="ytick_10">
     <g id="line2d_45">
      <g>
       <use style="fill:#262626;stroke:#262626;stroke-width:1.25;" x="479.972" xlink:href="#mb9f817018f" y="170.797392"/>
      </g>
     </g>
    </g>
    <g id="ytick_11">
     <g id="line2d_46">
      <g>
       <use style="fill:#262626;stroke:#262626;stroke-width:1.25;" x="479.972" xlink:href="#mb9f817018f" y="129.069344"/>
      </g>
     </g>
    </g>
    <g id="ytick_12">
     <g id="line2d_47">
      <g>
       <use style="fill:#262626;stroke:#262626;stroke-width:1.25;" x="479.972" xlink:href="#mb9f817018f" y="87.341296"/>
      </g>
     </g>
    </g>
   </g>
   <g id="patch_12">
    <path clip-path="url(#p9de97bf1d4)" d="M 489.084299 281.865298 
L 561.98269 281.865298 
L 561.98269 272.493257 
L 489.084299 272.493257 
L 489.084299 281.865298 
z
" style="fill:#eeeeee;stroke:#8f8f8f;stroke-linejoin:miter;stroke-width:1.5;"/>
   </g>
   <g id="patch_13">
    <path clip-path="url(#p9de97bf1d4)" d="M 580.207288 199.972848 
L 653.105678 199.972848 
L 653.105678 189.863652 
L 580.207288 189.863652 
L 580.207288 199.972848 
z
" style="fill:#eeeeee;stroke:#8f8f8f;stroke-linejoin:miter;stroke-width:1.5;"/>
   </g>
   <g id="patch_14">
    <path clip-path="url(#p9de97bf1d4)" d="M 671.330276 193.515613 
L 744.228667 193.515613 
L 744.228667 184.408446 
L 671.330276 184.408446 
L 671.330276 193.515613 
z
" style="fill:#eeeeee;stroke:#8f8f8f;stroke-linejoin:miter;stroke-width:1.5;"/>
   </g>
   <g id="patch_15">
    <path clip-path="url(#p9de97bf1d4)" d="M 762.453265 160.535861 
L 835.351656 160.535861 
L 835.351656 154.388396 
L 762.453265 154.388396 
L 762.453265 160.535861 
z
" style="fill:#eeeeee;stroke:#8f8f8f;stroke-linejoin:miter;stroke-width:1.5;"/>
   </g>
   <g id="line2d_48">
    <path clip-path="url(#p9de97bf1d4)" d="M 525.533494 281.865298 
L 525.533494 282.622591 
" style="fill:none;stroke:#8f8f8f;stroke-linecap:round;stroke-width:1.5;"/>
   </g>
   <g id="line2d_49">
    <path clip-path="url(#p9de97bf1d4)" d="M 525.533494 272.493257 
L 525.533494 268.865326 
" style="fill:none;stroke:#8f8f8f;stroke-linecap:round;stroke-width:1.5;"/>
   </g>
   <g id="line2d_50">
    <path clip-path="url(#p9de97bf1d4)" d="M 507.308897 282.622591 
L 543.758092 282.622591 
" style="fill:none;stroke:#8f8f8f;stroke-linecap:round;stroke-width:1.5;"/>
   </g>
   <g id="line2d_51">
    <path clip-path="url(#p9de97bf1d4)" d="M 507.308897 268.865326 
L 543.758092 268.865326 
" style="fill:none;stroke:#8f8f8f;stroke-linecap:round;stroke-width:1.5;"/>
   </g>
   <g id="line2d_52"/>
   <g id="line2d_53">
    <path clip-path="url(#p9de97bf1d4)" d="M 616.656483 199.972848 
L 616.656483 202.742188 
" style="fill:none;stroke:#8f8f8f;stroke-linecap:round;stroke-width:1.5;"/>
   </g>
   <g id="line2d_54">
    <path clip-path="url(#p9de97bf1d4)" d="M 616.656483 189.863652 
L 616.656483 188.455998 
" style="fill:none;stroke:#8f8f8f;stroke-linecap:round;stroke-width:1.5;"/>
   </g>
   <g id="line2d_55">
    <path clip-path="url(#p9de97bf1d4)" d="M 598.431885 202.742188 
L 634.881081 202.742188 
" style="fill:none;stroke:#8f8f8f;stroke-linecap:round;stroke-width:1.5;"/>
   </g>
   <g id="line2d_56">
    <path clip-path="url(#p9de97bf1d4)" d="M 598.431885 188.455998 
L 634.881081 188.455998 
" style="fill:none;stroke:#8f8f8f;stroke-linecap:round;stroke-width:1.5;"/>
   </g>
   <g id="line2d_57"/>
   <g id="line2d_58">
    <path clip-path="url(#p9de97bf1d4)" d="M 707.779472 193.515613 
L 707.779472 195.78354 
" style="fill:none;stroke:#8f8f8f;stroke-linecap:round;stroke-width:1.5;"/>
   </g>
   <g id="line2d_59">
    <path clip-path="url(#p9de97bf1d4)" d="M 707.779472 184.408446 
L 707.779472 182.515064 
" style="fill:none;stroke:#8f8f8f;stroke-linecap:round;stroke-width:1.5;"/>
   </g>
   <g id="line2d_60">
    <path clip-path="url(#p9de97bf1d4)" d="M 689.554874 195.78354 
L 726.004069 195.78354 
" style="fill:none;stroke:#8f8f8f;stroke-linecap:round;stroke-width:1.5;"/>
   </g>
   <g id="line2d_61">
    <path clip-path="url(#p9de97bf1d4)" d="M 689.554874 182.515064 
L 726.004069 182.515064 
" style="fill:none;stroke:#8f8f8f;stroke-linecap:round;stroke-width:1.5;"/>
   </g>
   <g id="line2d_62"/>
   <g id="line2d_63">
    <path clip-path="url(#p9de97bf1d4)" d="M 798.90246 160.535861 
L 798.90246 160.779389 
" style="fill:none;stroke:#8f8f8f;stroke-linecap:round;stroke-width:1.5;"/>
   </g>
   <g id="line2d_64">
    <path clip-path="url(#p9de97bf1d4)" d="M 798.90246 154.388396 
L 798.90246 153.35254 
" style="fill:none;stroke:#8f8f8f;stroke-linecap:round;stroke-width:1.5;"/>
   </g>
   <g id="line2d_65">
    <path clip-path="url(#p9de97bf1d4)" d="M 780.677862 160.779389 
L 817.127058 160.779389 
" style="fill:none;stroke:#8f8f8f;stroke-linecap:round;stroke-width:1.5;"/>
   </g>
   <g id="line2d_66">
    <path clip-path="url(#p9de97bf1d4)" d="M 780.677862 153.35254 
L 817.127058 153.35254 
" style="fill:none;stroke:#8f8f8f;stroke-linecap:round;stroke-width:1.5;"/>
   </g>
   <g id="line2d_67"/>
   <g id="line2d_68">
    <path clip-path="url(#p9de97bf1d4)" d="M 571.094989 296.556 
L 571.094989 58.944 
" style="fill:none;stroke:#555555;stroke-dasharray:5.55,2.4;stroke-dashoffset:0;stroke-width:1.5;"/>
   </g>
   <g id="line2d_69">
    <path clip-path="url(#p9de97bf1d4)" d="M 662.217977 296.556 
L 662.217977 58.944 
" style="fill:none;stroke:#555555;stroke-dasharray:5.55,2.4;stroke-dashoffset:0;stroke-width:1.5;"/>
   </g>
   <g id="line2d_70">
    <path clip-path="url(#p9de97bf1d4)" d="M 753.340966 296.556 
L 753.340966 58.944 
" style="fill:none;stroke:#555555;stroke-dasharray:5.55,2.4;stroke-dashoffset:0;stroke-width:1.5;"/>
   </g>
   <g id="line2d_71">
    <path clip-path="url(#p9de97bf1d4)" d="M 489.084299 277.657718 
L 561.98269 277.657718 
" style="fill:none;stroke:#8f8f8f;stroke-linecap:round;stroke-width:1.5;"/>
   </g>
   <g id="line2d_72">
    <path clip-path="url(#p9de97bf1d4)" d="M 580.207288 194.691302 
L 653.105678 194.691302 
" style="fill:none;stroke:#8f8f8f;stroke-linecap:round;stroke-width:1.5;"/>
   </g>
   <g id="line2d_73">
    <path clip-path="url(#p9de97bf1d4)" d="M 671.330276 188.899606 
L 744.228667 188.899606 
" style="fill:none;stroke:#8f8f8f;stroke-linecap:round;stroke-width:1.5;"/>
   </g>
   <g id="line2d_74">
    <path clip-path="url(#p9de97bf1d4)" d="M 762.453265 157.594183 
L 835.351656 157.594183 
" style="fill:none;stroke:#8f8f8f;stroke-linecap:round;stroke-width:1.5;"/>
   </g>
   <g id="patch_16">
    <path d="M 479.972 296.556 
L 479.972 58.944 
" style="fill:none;stroke:#262626;stroke-linecap:square;stroke-linejoin:miter;stroke-width:1.25;"/>
   </g>
   <g id="patch_17">
    <path d="M 844.463955 296.556 
L 844.463955 58.944 
" style="fill:none;stroke:#262626;stroke-linecap:square;stroke-linejoin:miter;stroke-width:1.25;"/>
   </g>
   <g id="patch_18">
    <path d="M 479.972 296.556 
L 844.463955 296.556 
" style="fill:none;stroke:#262626;stroke-linecap:square;stroke-linejoin:miter;stroke-width:1.25;"/>
   </g>
   <g id="patch_19">
    <path d="M 479.972 58.944 
L 844.463955 58.944 
" style="fill:none;stroke:#262626;stroke-linecap:square;stroke-linejoin:miter;stroke-width:1.25;"/>
   </g>
   <g id="PathCollection_5">
    <defs>
     <path d="M 0 4 
C 1.060812 4 2.078319 3.578535 2.828427 2.828427 
C 3.578535 2.078319 4 1.060812 4 0 
C 4 -1.060812 3.578535 -2.078319 2.828427 -2.828427 
C 2.078319 -3.578535 1.060812 -4 0 -4 
C -1.060812 -4 -2.078319 -3.578535 -2.828427 -2.828427 
C -3.578535 -2.078319 -4 -1.060812 -4 0 
C -4 1.060812 -3.578535 2.078319 -2.828427 2.828427 
C -2.078319 3.578535 -1.060812 4 0 4 
z
" id="C4_0_930f5ff1a4"/>
    </defs>
    <g clip-path="url(#p9de97bf1d4)">
     <use style="fill:#0072b2;" x="532.859327" xlink:href="#C4_0_930f5ff1a4" y="281.612867"/>
    </g>
    <g clip-path="url(#p9de97bf1d4)">
     <use style="fill:#0072b2;" x="521.470549" xlink:href="#C4_0_930f5ff1a4" y="273.702568"/>
    </g>
    <g clip-path="url(#p9de97bf1d4)">
     <use style="fill:#0072b2;" x="541.65349" xlink:href="#C4_0_930f5ff1a4" y="268.865326"/>
    </g>
    <g clip-path="url(#p9de97bf1d4)">
     <use style="fill:#0072b2;" x="534.153413" xlink:href="#C4_0_930f5ff1a4" y="282.622591"/>
    </g>
   </g>
   <g id="PathCollection_6">
    <defs>
     <path d="M 0 4 
C 1.060812 4 2.078319 3.578535 2.828427 2.828427 
C 3.578535 2.078319 4 1.060812 4 0 
C 4 -1.060812 3.578535 -2.078319 2.828427 -2.828427 
C 2.078319 -3.578535 1.060812 -4 0 -4 
C -1.060812 -4 -2.078319 -3.578535 -2.828427 -2.828427 
C -3.578535 -2.078319 -4 -1.060812 -4 0 
C -4 1.060812 -3.578535 2.078319 -2.828427 2.828427 
C -2.078319 3.578535 -1.060812 4 0 4 
z
" id="C5_0_330b4038b1"/>
    </defs>
    <g clip-path="url(#p9de97bf1d4)">
     <use style="fill:#0072b2;" x="607.12372" xlink:href="#C5_0_330b4038b1" y="202.742188"/>
    </g>
    <g clip-path="url(#p9de97bf1d4)">
     <use style="fill:#0072b2;" x="628.457775" xlink:href="#C5_0_330b4038b1" y="190.332869"/>
    </g>
    <g clip-path="url(#p9de97bf1d4)">
     <use style="fill:#0072b2;" x="626.155633" xlink:href="#C5_0_330b4038b1" y="188.455998"/>
    </g>
    <g clip-path="url(#p9de97bf1d4)">
     <use style="fill:#0072b2;" x="612.818713" xlink:href="#C5_0_330b4038b1" y="199.049735"/>
    </g>
   </g>
   <g id="PathCollection_7">
    <defs>
     <path d="M 0 4 
C 1.060812 4 2.078319 3.578535 2.828427 2.828427 
C 3.578535 2.078319 4 1.060812 4 0 
C 4 -1.060812 3.578535 -2.078319 2.828427 -2.828427 
C 2.078319 -3.578535 1.060812 -4 0 -4 
C -1.060812 -4 -2.078319 -3.578535 -2.828427 -2.828427 
C -3.578535 -2.078319 -4 -1.060812 -4 0 
C -4 1.060812 -3.578535 2.078319 -2.828427 2.828427 
C -2.078319 3.578535 -1.060812 4 0 4 
z
" id="C6_0_4acd59e752"/>
    </defs>
    <g clip-path="url(#p9de97bf1d4)">
     <use style="fill:#0072b2;" x="696.851562" xlink:href="#C6_0_4acd59e752" y="195.78354"/>
    </g>
    <g clip-path="url(#p9de97bf1d4)">
     <use style="fill:#0072b2;" x="715.528442" xlink:href="#C6_0_4acd59e752" y="185.039574"/>
    </g>
    <g clip-path="url(#p9de97bf1d4)">
     <use style="fill:#0072b2;" x="720.365703" xlink:href="#C6_0_4acd59e752" y="182.515064"/>
    </g>
    <g clip-path="url(#p9de97bf1d4)">
     <use style="fill:#0072b2;" x="702.991744" xlink:href="#C6_0_4acd59e752" y="192.759638"/>
    </g>
   </g>
   <g id="PathCollection_8">
    <defs>
     <path d="M 0 4 
C 1.060812 4 2.078319 3.578535 2.828427 2.828427 
C 3.578535 2.078319 4 1.060812 4 0 
C 4 -1.060812 3.578535 -2.078319 2.828427 -2.828427 
C 2.078319 -3.578535 1.060812 -4 0 -4 
C -1.060812 -4 -2.078319 -3.578535 -2.828427 -2.828427 
C -3.578535 -2.078319 -4 -1.060812 -4 0 
C -4 1.060812 -3.578535 2.078319 -2.828427 2.828427 
C -2.078319 3.578535 -1.060812 4 0 4 
z
" id="C7_0_7f8aef14d5"/>
    </defs>
    <g clip-path="url(#p9de97bf1d4)">
     <use style="fill:#0072b2;" x="796.605436" xlink:href="#C7_0_7f8aef14d5" y="160.454685"/>
    </g>
    <g clip-path="url(#p9de97bf1d4)">
     <use style="fill:#0072b2;" x="793.67556" xlink:href="#C7_0_7f8aef14d5" y="154.733681"/>
    </g>
    <g clip-path="url(#p9de97bf1d4)">
     <use style="fill:#0072b2;" x="789.416098" xlink:href="#C7_0_7f8aef14d5" y="153.35254"/>
    </g>
    <g clip-path="url(#p9de97bf1d4)">
     <use style="fill:#0072b2;" x="804.49297" xlink:href="#C7_0_7f8aef14d5" y="160.779389"/>
    </g>
   </g>
   <g id="text_19">
    <text style="fill:#262626;font-family:DejaVu Sans;font-size:16.8px;font-style:normal;font-weight:normal;text-anchor:middle;" transform="rotate(-0, 662.217977, 52.944)" x="662.217977" y="52.944">Human (GRCh38 reference)</text>
   </g>
  </g>
 </g>
 <defs>
  <clipPath id="p10ac3b9b54">
   <rect height="237.612" width="364.491955" x="89.944" y="58.944"/>
  </clipPath>
  <clipPath id="p9de97bf1d4">
   <rect height="237.612" width="364.491955" x="479.972" y="58.944"/>
  </clipPath>
 </defs>
</svg>
