<?xml version="1.0" encoding="utf-8" standalone="no"?>
<!DOCTYPE svg PUBLIC "-//W3C//DTD SVG 1.1//EN"
  "http://www.w3.org/Graphics/SVG/1.1/DTD/svg11.dtd">
<!-- Created with matplotlib (https://matplotlib.org/) -->
<svg height="396pt" version="1.1" viewBox="0 0 864 396" width="864pt" xmlns="http://www.w3.org/2000/svg" xmlns:xlink="http://www.w3.org/1999/xlink">
 <defs>
  <style type="text/css">
*{stroke-linecap:butt;stroke-linejoin:round;}
  </style>
 </defs>
 <g id="figure_1">
  <g id="patch_1">
   <path d="M 0 396 
L 864 396 
L 864 0 
L 0 0 
z
" style="fill:#ffffff;"/>
  </g>
  <g id="axes_1">
   <g id="patch_2">
    <path d="M 89.944 313.956 
L 455.828 313.956 
L 455.828 58.944 
L 89.944 58.944 
z
" style="fill:#ffffff;"/>
   </g>
   <g id="matplotlib.axis_1">
    <g id="xtick_1">
     <g id="line2d_1">
      <defs>
       <path d="M 0 0 
L 0 6 
" id="m3a1473a225" style="stroke:#262626;stroke-width:1.25;"/>
      </defs>
      <g>
       <use style="fill:#262626;stroke:#262626;stroke-width:1.25;" x="150.924667" xlink:href="#m3a1473a225" y="313.956"/>
      </g>
     </g>
     <g id="text_1">
      <text style="fill:#262626;font-family:DejaVu Sans;font-size:15.4px;font-style:normal;font-weight:normal;text-anchor:middle;" transform="rotate(-0, 150.924667, 335.157594)" x="150.924667" y="335.157594">Unguided</text>
     </g>
    </g>
    <g id="xtick_2">
     <g id="line2d_2">
      <g>
       <use style="fill:#262626;stroke:#262626;stroke-width:1.25;" x="272.886" xlink:href="#m3a1473a225" y="313.956"/>
      </g>
     </g>
     <g id="text_2">
      <text style="fill:#262626;font-family:DejaVu Sans;font-size:15.4px;font-style:normal;font-weight:normal;" transform="translate(251.275469 335.157594)">FLAIR</text>
      <text style="fill:#262626;font-family:DejaVu Sans;font-size:15.4px;font-style:normal;font-weight:normal;" transform="translate(235.996984 352.402225)">corrected</text>
     </g>
    </g>
    <g id="xtick_3">
     <g id="line2d_3">
      <g>
       <use style="fill:#262626;stroke:#262626;stroke-width:1.25;" x="394.847333" xlink:href="#m3a1473a225" y="313.956"/>
      </g>
     </g>
     <g id="text_3">
      <text style="fill:#262626;font-family:DejaVu Sans;font-size:15.4px;font-style:normal;font-weight:normal;" transform="translate(355.562896 335.157594)">Reference</text>
      <text style="fill:#262626;font-family:DejaVu Sans;font-size:15.4px;font-style:normal;font-weight:normal;" transform="translate(368.425505 352.402225)">guided</text>
     </g>
    </g>
    <g id="text_4">
     <text style="fill:#262626;font-family:DejaVu Sans;font-size:16.8px;font-style:normal;font-weight:normal;text-anchor:middle;" transform="rotate(-0, 272.886, 372.370319)" x="272.886" y="372.370319">Alignment strategy</text>
    </g>
   </g>
   <g id="matplotlib.axis_2">
    <g id="ytick_1">
     <g id="line2d_4">
      <defs>
       <path d="M 0 0 
L -6 0 
" id="m6bc9a573ba" style="stroke:#262626;stroke-width:1.25;"/>
      </defs>
      <g>
       <use style="fill:#262626;stroke:#262626;stroke-width:1.25;" x="89.944" xlink:href="#m6bc9a573ba" y="313.339468"/>
      </g>
     </g>
     <g id="text_5">
      <text style="fill:#262626;font-family:DejaVu Sans;font-size:15.4px;font-style:normal;font-weight:normal;text-anchor:end;" transform="rotate(-0, 80.444, 319.190265)" x="80.444" y="319.190265">40</text>
     </g>
    </g>
    <g id="ytick_2">
     <g id="line2d_5">
      <g>
       <use style="fill:#262626;stroke:#262626;stroke-width:1.25;" x="89.944" xlink:href="#m6bc9a573ba" y="268.555733"/>
      </g>
     </g>
     <g id="text_6">
      <text style="fill:#262626;font-family:DejaVu Sans;font-size:15.4px;font-style:normal;font-weight:normal;text-anchor:end;" transform="rotate(-0, 80.444, 274.40653)" x="80.444" y="274.40653">50</text>
     </g>
    </g>
    <g id="ytick_3">
     <g id="line2d_6">
      <g>
       <use style="fill:#262626;stroke:#262626;stroke-width:1.25;" x="89.944" xlink:href="#m6bc9a573ba" y="223.771997"/>
      </g>
     </g>
     <g id="text_7">
      <text style="fill:#262626;font-family:DejaVu Sans;font-size:15.4px;font-style:normal;font-weight:normal;text-anchor:end;" transform="rotate(-0, 80.444, 229.622794)" x="80.444" y="229.622794">60</text>
     </g>
    </g>
    <g id="ytick_4">
     <g id="line2d_7">
      <g>
       <use style="fill:#262626;stroke:#262626;stroke-width:1.25;" x="89.944" xlink:href="#m6bc9a573ba" y="178.988262"/>
      </g>
     </g>
     <g id="text_8">
      <text style="fill:#262626;font-family:DejaVu Sans;font-size:15.4px;font-style:normal;font-weight:normal;text-anchor:end;" transform="rotate(-0, 80.444, 184.839059)" x="80.444" y="184.839059">70</text>
     </g>
    </g>
    <g id="ytick_5">
     <g id="line2d_8">
      <g>
       <use style="fill:#262626;stroke:#262626;stroke-width:1.25;" x="89.944" xlink:href="#m6bc9a573ba" y="134.204526"/>
      </g>
     </g>
     <g id="text_9">
      <text style="fill:#262626;font-family:DejaVu Sans;font-size:15.4px;font-style:normal;font-weight:normal;text-anchor:end;" transform="rotate(-0, 80.444, 140.055323)" x="80.444" y="140.055323">80</text>
     </g>
    </g>
    <g id="ytick_6">
     <g id="line2d_9">
      <g>
       <use style="fill:#262626;stroke:#262626;stroke-width:1.25;" x="89.944" xlink:href="#m6bc9a573ba" y="89.420791"/>
      </g>
     </g>
     <g id="text_10">
      <text style="fill:#262626;font-family:DejaVu Sans;font-size:15.4px;font-style:normal;font-weight:normal;text-anchor:end;" transform="rotate(-0, 80.444, 95.271588)" x="80.444" y="95.271588">90</text>
     </g>
    </g>
    <g id="text_11">
     <text style="fill:#262626;font-family:DejaVu Sans;font-size:16.8px;font-style:normal;font-weight:normal;" transform="translate(34.5413 258.3855)rotate(-90)">Correctly aligned</text>
     <text style="fill:#262626;font-family:DejaVu Sans;font-size:16.8px;font-style:normal;font-weight:normal;" transform="translate(53.353625 259.296375)rotate(-90)">spliced reads (%)</text>
    </g>
   </g>
   <g id="patch_3">
    <path clip-path="url(#p645bad5e00)" d="M 102.140133 166.786986 
L 199.7092 166.786986 
L 199.7092 162.763244 
L 102.140133 162.763244 
L 102.140133 166.786986 
z
" style="fill:#eeeeee;stroke:#8f8f8f;stroke-linejoin:miter;stroke-width:1.5;"/>
   </g>
   <g id="patch_4">
    <path clip-path="url(#p645bad5e00)" d="M 224.101467 99.64119 
L 321.670533 99.64119 
L 321.670533 97.917609 
L 224.101467 97.917609 
L 224.101467 99.64119 
z
" style="fill:#eeeeee;stroke:#8f8f8f;stroke-linejoin:miter;stroke-width:1.5;"/>
   </g>
   <g id="patch_5">
    <path clip-path="url(#p645bad5e00)" d="M 346.0628 72.518427 
L 443.631867 72.518427 
L 443.631867 72.276593 
L 346.0628 72.276593 
L 346.0628 72.518427 
z
" style="fill:#eeeeee;stroke:#8f8f8f;stroke-linejoin:miter;stroke-width:1.5;"/>
   </g>
   <g id="line2d_10">
    <path clip-path="url(#p645bad5e00)" d="M 150.924667 166.786986 
L 150.924667 167.110198 
" style="fill:none;stroke:#8f8f8f;stroke-linecap:round;stroke-width:1.5;"/>
   </g>
   <g id="line2d_11">
    <path clip-path="url(#p645bad5e00)" d="M 150.924667 162.763244 
L 150.924667 162.468293 
" style="fill:none;stroke:#8f8f8f;stroke-linecap:round;stroke-width:1.5;"/>
   </g>
   <g id="line2d_12">
    <path clip-path="url(#p645bad5e00)" d="M 126.5324 167.110198 
L 175.316933 167.110198 
" style="fill:none;stroke:#8f8f8f;stroke-linecap:round;stroke-width:1.5;"/>
   </g>
   <g id="line2d_13">
    <path clip-path="url(#p645bad5e00)" d="M 126.5324 162.468293 
L 175.316933 162.468293 
" style="fill:none;stroke:#8f8f8f;stroke-linecap:round;stroke-width:1.5;"/>
   </g>
   <g id="line2d_14"/>
   <g id="line2d_15">
    <path clip-path="url(#p645bad5e00)" d="M 272.886 99.64119 
L 272.886 100.545764 
" style="fill:none;stroke:#8f8f8f;stroke-linecap:round;stroke-width:1.5;"/>
   </g>
   <g id="line2d_16">
    <path clip-path="url(#p645bad5e00)" d="M 272.886 97.917609 
L 272.886 97.569225 
" style="fill:none;stroke:#8f8f8f;stroke-linecap:round;stroke-width:1.5;"/>
   </g>
   <g id="line2d_17">
    <path clip-path="url(#p645bad5e00)" d="M 248.493733 100.545764 
L 297.278267 100.545764 
" style="fill:none;stroke:#8f8f8f;stroke-linecap:round;stroke-width:1.5;"/>
   </g>
   <g id="line2d_18">
    <path clip-path="url(#p645bad5e00)" d="M 248.493733 97.569225 
L 297.278267 97.569225 
" style="fill:none;stroke:#8f8f8f;stroke-linecap:round;stroke-width:1.5;"/>
   </g>
   <g id="line2d_19"/>
   <g id="line2d_20">
    <path clip-path="url(#p645bad5e00)" d="M 394.847333 72.518427 
L 394.847333 72.822816 
" style="fill:none;stroke:#8f8f8f;stroke-linecap:round;stroke-width:1.5;"/>
   </g>
   <g id="line2d_21">
    <path clip-path="url(#p645bad5e00)" d="M 394.847333 72.276593 
L 394.847333 71.956413 
" style="fill:none;stroke:#8f8f8f;stroke-linecap:round;stroke-width:1.5;"/>
   </g>
   <g id="line2d_22">
    <path clip-path="url(#p645bad5e00)" d="M 370.455067 72.822816 
L 419.2396 72.822816 
" style="fill:none;stroke:#8f8f8f;stroke-linecap:round;stroke-width:1.5;"/>
   </g>
   <g id="line2d_23">
    <path clip-path="url(#p645bad5e00)" d="M 370.455067 71.956413 
L 419.2396 71.956413 
" style="fill:none;stroke:#8f8f8f;stroke-linecap:round;stroke-width:1.5;"/>
   </g>
   <g id="line2d_24"/>
   <g id="line2d_25">
    <path clip-path="url(#p645bad5e00)" d="M 211.905333 313.956 
L 211.905333 58.944 
" style="fill:none;stroke:#555555;stroke-dasharray:5.55,2.4;stroke-dashoffset:0;stroke-width:1.5;"/>
   </g>
   <g id="line2d_26">
    <path clip-path="url(#p645bad5e00)" d="M 333.866667 313.956 
L 333.866667 58.944 
" style="fill:none;stroke:#555555;stroke-dasharray:5.55,2.4;stroke-dashoffset:0;stroke-width:1.5;"/>
   </g>
   <g id="line2d_27">
    <path clip-path="url(#p645bad5e00)" d="M 102.140133 164.770404 
L 199.7092 164.770404 
" style="fill:none;stroke:#8f8f8f;stroke-linecap:round;stroke-width:1.5;"/>
   </g>
   <g id="line2d_28">
    <path clip-path="url(#p645bad5e00)" d="M 224.101467 98.686701 
L 321.670533 98.686701 
" style="fill:none;stroke:#8f8f8f;stroke-linecap:round;stroke-width:1.5;"/>
   </g>
   <g id="line2d_29">
    <path clip-path="url(#p645bad5e00)" d="M 346.0628 72.400141 
L 443.631867 72.400141 
" style="fill:none;stroke:#8f8f8f;stroke-linecap:round;stroke-width:1.5;"/>
   </g>
   <g id="patch_6">
    <path d="M 89.944 313.956 
L 89.944 58.944 
" style="fill:none;stroke:#262626;stroke-linecap:square;stroke-linejoin:miter;stroke-width:1.25;"/>
   </g>
   <g id="patch_7">
    <path d="M 455.828 313.956 
L 455.828 58.944 
" style="fill:none;stroke:#262626;stroke-linecap:square;stroke-linejoin:miter;stroke-width:1.25;"/>
   </g>
   <g id="patch_8">
    <path d="M 89.944 313.956 
L 455.828 313.956 
" style="fill:none;stroke:#262626;stroke-linecap:square;stroke-linejoin:miter;stroke-width:1.25;"/>
   </g>
   <g id="patch_9">
    <path d="M 89.944 58.944 
L 455.828 58.944 
" style="fill:none;stroke:#262626;stroke-linecap:square;stroke-linejoin:miter;stroke-width:1.25;"/>
   </g>
   <g id="PathCollection_1">
    <defs>
     <path d="M 0 4 
C 1.060812 4 2.078319 3.578535 2.828427 2.828427 
C 3.578535 2.078319 4 1.060812 4 0 
C 4 -1.060812 3.578535 -2.078319 2.828427 -2.828427 
C 2.078319 -3.578535 1.060812 -4 0 -4 
C -1.060812 -4 -2.078319 -3.578535 -2.828427 -2.828427 
C -3.578535 -2.078319 -4 -1.060812 -4 0 
C -4 1.060812 -3.578535 2.078319 -2.828427 2.828427 
C -2.078319 3.578535 -1.060812 4 0 4 
z
" id="C0_0_3c15ea42a1"/>
    </defs>
    <g clip-path="url(#p645bad5e00)">
     <use style="fill:#0072b2;" x="151.724666" xlink:href="#C0_0_3c15ea42a1" y="166.679248"/>
    </g>
    <g clip-path="url(#p645bad5e00)">
     <use style="fill:#0072b2;" x="154.372152" xlink:href="#C0_0_3c15ea42a1" y="167.110198"/>
    </g>
    <g clip-path="url(#p645bad5e00)">
     <use style="fill:#0072b2;" x="127.921502" xlink:href="#C0_0_3c15ea42a1" y="162.468293"/>
    </g>
    <g clip-path="url(#p645bad5e00)">
     <use style="fill:#0072b2;" x="134.900004" xlink:href="#C0_0_3c15ea42a1" y="162.86156"/>
    </g>
   </g>
   <g id="PathCollection_2">
    <defs>
     <path d="M 0 4 
C 1.060812 4 2.078319 3.578535 2.828427 2.828427 
C 3.578535 2.078319 4 1.060812 4 0 
C 4 -1.060812 3.578535 -2.078319 2.828427 -2.828427 
C 2.078319 -3.578535 1.060812 -4 0 -4 
C -1.060812 -4 -2.078319 -3.578535 -2.828427 -2.828427 
C -3.578535 -2.078319 -4 -1.060812 -4 0 
C -4 1.060812 -3.578535 2.078319 -2.828427 2.828427 
C -2.078319 3.578535 -1.060812 4 0 4 
z
" id="C1_0_2891efda6e"/>
    </defs>
    <g clip-path="url(#p645bad5e00)">
     <use style="fill:#0072b2;" x="281.924651" xlink:href="#C1_0_2891efda6e" y="99.339665"/>
    </g>
    <g clip-path="url(#p645bad5e00)">
     <use style="fill:#0072b2;" x="289.175003" xlink:href="#C1_0_2891efda6e" y="100.545764"/>
    </g>
    <g clip-path="url(#p645bad5e00)">
     <use style="fill:#0072b2;" x="263.468937" xlink:href="#C1_0_2891efda6e" y="97.569225"/>
    </g>
    <g clip-path="url(#p645bad5e00)">
     <use style="fill:#0072b2;" x="292.08823" xlink:href="#C1_0_2891efda6e" y="98.033737"/>
    </g>
   </g>
   <g id="PathCollection_3">
    <defs>
     <path d="M 0 4 
C 1.060812 4 2.078319 3.578535 2.828427 2.828427 
C 3.578535 2.078319 4 1.060812 4 0 
C 4 -1.060812 3.578535 -2.078319 2.828427 -2.828427 
C 2.078319 -3.578535 1.060812 -4 0 -4 
C -1.060812 -4 -2.078319 -3.578535 -2.828427 -2.828427 
C -3.578535 -2.078319 -4 -1.060812 -4 0 
C -4 1.060812 -3.578535 2.078319 -2.828427 2.828427 
C -2.078319 3.578535 -1.060812 4 0 4 
z
" id="C2_0_4b5c4e0b59"/>
    </defs>
    <g clip-path="url(#p645bad5e00)">
     <use style="fill:#0072b2;" x="405.655247" xlink:href="#C2_0_4b5c4e0b59" y="72.383319"/>
    </g>
    <g clip-path="url(#p645bad5e00)">
     <use style="fill:#0072b2;" x="379.72115" xlink:href="#C2_0_4b5c4e0b59" y="72.822816"/>
    </g>
    <g clip-path="url(#p645bad5e00)">
     <use style="fill:#0072b2;" x="397.492801" xlink:href="#C2_0_4b5c4e0b59" y="71.956413"/>
    </g>
    <g clip-path="url(#p645bad5e00)">
     <use style="fill:#0072b2;" x="387.63366" xlink:href="#C2_0_4b5c4e0b59" y="72.416963"/>
    </g>
   </g>
   <g id="text_12">
    <text style="fill:#262626;font-family:DejaVu Sans;font-size:16.8px;font-style:normal;font-weight:normal;" transform="translate(223.98225 34.131675)">Arabidopsis</text>
    <text style="fill:#262626;font-family:DejaVu Sans;font-size:16.8px;font-style:normal;font-weight:normal;" transform="translate(149.129063 52.944)">(TAIR10 + AtRTD2 reference)</text>
   </g>
  </g>
  <g id="axes_2">
   <g id="patch_10">
    <path d="M 479.972 313.956 
L 845.856 313.956 
L 845.856 58.944 
L 479.972 58.944 
z
" style="fill:#ffffff;"/>
   </g>
   <g id="matplotlib.axis_3">
    <g id="xtick_4">
     <g id="line2d_30">
      <g>
       <use style="fill:#262626;stroke:#262626;stroke-width:1.25;" x="540.952667" xlink:href="#m3a1473a225" y="313.956"/>
      </g>
     </g>
     <g id="text_13">
      <text style="fill:#262626;font-family:DejaVu Sans;font-size:15.4px;font-style:normal;font-weight:normal;text-anchor:middle;" transform="rotate(-0, 540.952667, 335.157594)" x="540.952667" y="335.157594">Unguided</text>
     </g>
    </g>
    <g id="xtick_5">
     <g id="line2d_31">
      <g>
       <use style="fill:#262626;stroke:#262626;stroke-width:1.25;" x="662.914" xlink:href="#m3a1473a225" y="313.956"/>
      </g>
     </g>
     <g id="text_14">
      <text style="fill:#262626;font-family:DejaVu Sans;font-size:15.4px;font-style:normal;font-weight:normal;" transform="translate(641.303469 335.157594)">FLAIR</text>
      <text style="fill:#262626;font-family:DejaVu Sans;font-size:15.4px;font-style:normal;font-weight:normal;" transform="translate(626.024984 352.402225)">corrected</text>
     </g>
    </g>
    <g id="xtick_6">
     <g id="line2d_32">
      <g>
       <use style="fill:#262626;stroke:#262626;stroke-width:1.25;" x="784.875333" xlink:href="#m3a1473a225" y="313.956"/>
      </g>
     </g>
     <g id="text_15">
      <text style="fill:#262626;font-family:DejaVu Sans;font-size:15.4px;font-style:normal;font-weight:normal;" transform="translate(745.590896 335.157594)">Reference</text>
      <text style="fill:#262626;font-family:DejaVu Sans;font-size:15.4px;font-style:normal;font-weight:normal;" transform="translate(758.453505 352.402225)">guided</text>
     </g>
    </g>
    <g id="text_16">
     <text style="fill:#262626;font-family:DejaVu Sans;font-size:16.8px;font-style:normal;font-weight:normal;text-anchor:middle;" transform="rotate(-0, 662.914, 372.370319)" x="662.914" y="372.370319">Alignment strategy</text>
    </g>
   </g>
   <g id="matplotlib.axis_4">
    <g id="ytick_7">
     <g id="line2d_33">
      <g>
       <use style="fill:#262626;stroke:#262626;stroke-width:1.25;" x="479.972" xlink:href="#m6bc9a573ba" y="313.339468"/>
      </g>
     </g>
    </g>
    <g id="ytick_8">
     <g id="line2d_34">
      <g>
       <use style="fill:#262626;stroke:#262626;stroke-width:1.25;" x="479.972" xlink:href="#m6bc9a573ba" y="268.555733"/>
      </g>
     </g>
    </g>
    <g id="ytick_9">
     <g id="line2d_35">
      <g>
       <use style="fill:#262626;stroke:#262626;stroke-width:1.25;" x="479.972" xlink:href="#m6bc9a573ba" y="223.771997"/>
      </g>
     </g>
    </g>
    <g id="ytick_10">
     <g id="line2d_36">
      <g>
       <use style="fill:#262626;stroke:#262626;stroke-width:1.25;" x="479.972" xlink:href="#m6bc9a573ba" y="178.988262"/>
      </g>
     </g>
    </g>
    <g id="ytick_11">
     <g id="line2d_37">
      <g>
       <use style="fill:#262626;stroke:#262626;stroke-width:1.25;" x="479.972" xlink:href="#m6bc9a573ba" y="134.204526"/>
      </g>
     </g>
    </g>
    <g id="ytick_12">
     <g id="line2d_38">
      <g>
       <use style="fill:#262626;stroke:#262626;stroke-width:1.25;" x="479.972" xlink:href="#m6bc9a573ba" y="89.420791"/>
      </g>
     </g>
    </g>
   </g>
   <g id="patch_11">
    <path clip-path="url(#p6b2cb3d8da)" d="M 492.168133 298.189519 
L 589.7372 298.189519 
L 589.7372 288.131176 
L 492.168133 288.131176 
L 492.168133 298.189519 
z
" style="fill:#eeeeee;stroke:#8f8f8f;stroke-linejoin:miter;stroke-width:1.5;"/>
   </g>
   <g id="patch_12">
    <path clip-path="url(#p6b2cb3d8da)" d="M 614.129467 211.928252 
L 711.698533 211.928252 
L 711.698533 202.219399 
L 614.129467 202.219399 
L 614.129467 211.928252 
z
" style="fill:#eeeeee;stroke:#8f8f8f;stroke-linejoin:miter;stroke-width:1.5;"/>
   </g>
   <g id="patch_13">
    <path clip-path="url(#p6b2cb3d8da)" d="M 736.0908 167.975294 
L 833.659867 167.975294 
L 833.659867 161.377657 
L 736.0908 161.377657 
L 736.0908 167.975294 
z
" style="fill:#eeeeee;stroke:#8f8f8f;stroke-linejoin:miter;stroke-width:1.5;"/>
   </g>
   <g id="line2d_39">
    <path clip-path="url(#p6b2cb3d8da)" d="M 540.952667 298.189519 
L 540.952667 299.002267 
" style="fill:none;stroke:#8f8f8f;stroke-linecap:round;stroke-width:1.5;"/>
   </g>
   <g id="line2d_40">
    <path clip-path="url(#p6b2cb3d8da)" d="M 540.952667 288.131176 
L 540.952667 284.237576 
" style="fill:none;stroke:#8f8f8f;stroke-linecap:round;stroke-width:1.5;"/>
   </g>
   <g id="line2d_41">
    <path clip-path="url(#p6b2cb3d8da)" d="M 516.5604 299.002267 
L 565.344933 299.002267 
" style="fill:none;stroke:#8f8f8f;stroke-linecap:round;stroke-width:1.5;"/>
   </g>
   <g id="line2d_42">
    <path clip-path="url(#p6b2cb3d8da)" d="M 516.5604 284.237576 
L 565.344933 284.237576 
" style="fill:none;stroke:#8f8f8f;stroke-linecap:round;stroke-width:1.5;"/>
   </g>
   <g id="line2d_43"/>
   <g id="line2d_44">
    <path clip-path="url(#p6b2cb3d8da)" d="M 662.914 211.928252 
L 662.914 212.525934 
" style="fill:none;stroke:#8f8f8f;stroke-linecap:round;stroke-width:1.5;"/>
   </g>
   <g id="line2d_45">
    <path clip-path="url(#p6b2cb3d8da)" d="M 662.914 202.219399 
L 662.914 199.34313 
" style="fill:none;stroke:#8f8f8f;stroke-linecap:round;stroke-width:1.5;"/>
   </g>
   <g id="line2d_46">
    <path clip-path="url(#p6b2cb3d8da)" d="M 638.521733 212.525934 
L 687.306267 212.525934 
" style="fill:none;stroke:#8f8f8f;stroke-linecap:round;stroke-width:1.5;"/>
   </g>
   <g id="line2d_47">
    <path clip-path="url(#p6b2cb3d8da)" d="M 638.521733 199.34313 
L 687.306267 199.34313 
" style="fill:none;stroke:#8f8f8f;stroke-linecap:round;stroke-width:1.5;"/>
   </g>
   <g id="line2d_48"/>
   <g id="line2d_49">
    <path clip-path="url(#p6b2cb3d8da)" d="M 784.875333 167.975294 
L 784.875333 168.236655 
" style="fill:none;stroke:#8f8f8f;stroke-linecap:round;stroke-width:1.5;"/>
   </g>
   <g id="line2d_50">
    <path clip-path="url(#p6b2cb3d8da)" d="M 784.875333 161.377657 
L 784.875333 160.265947 
" style="fill:none;stroke:#8f8f8f;stroke-linecap:round;stroke-width:1.5;"/>
   </g>
   <g id="line2d_51">
    <path clip-path="url(#p6b2cb3d8da)" d="M 760.483067 168.236655 
L 809.2676 168.236655 
" style="fill:none;stroke:#8f8f8f;stroke-linecap:round;stroke-width:1.5;"/>
   </g>
   <g id="line2d_52">
    <path clip-path="url(#p6b2cb3d8da)" d="M 760.483067 160.265947 
L 809.2676 160.265947 
" style="fill:none;stroke:#8f8f8f;stroke-linecap:round;stroke-width:1.5;"/>
   </g>
   <g id="line2d_53"/>
   <g id="line2d_54">
    <path clip-path="url(#p6b2cb3d8da)" d="M 601.933333 313.956 
L 601.933333 58.944 
" style="fill:none;stroke:#555555;stroke-dasharray:5.55,2.4;stroke-dashoffset:0;stroke-width:1.5;"/>
   </g>
   <g id="line2d_55">
    <path clip-path="url(#p6b2cb3d8da)" d="M 723.894667 313.956 
L 723.894667 58.944 
" style="fill:none;stroke:#555555;stroke-dasharray:5.55,2.4;stroke-dashoffset:0;stroke-width:1.5;"/>
   </g>
   <g id="line2d_56">
    <path clip-path="url(#p6b2cb3d8da)" d="M 492.168133 293.673822 
L 589.7372 293.673822 
" style="fill:none;stroke:#8f8f8f;stroke-linecap:round;stroke-width:1.5;"/>
   </g>
   <g id="line2d_57">
    <path clip-path="url(#p6b2cb3d8da)" d="M 614.129467 207.45359 
L 711.698533 207.45359 
" style="fill:none;stroke:#8f8f8f;stroke-linecap:round;stroke-width:1.5;"/>
   </g>
   <g id="line2d_58">
    <path clip-path="url(#p6b2cb3d8da)" d="M 736.0908 164.8182 
L 833.659867 164.8182 
" style="fill:none;stroke:#8f8f8f;stroke-linecap:round;stroke-width:1.5;"/>
   </g>
   <g id="patch_14">
    <path d="M 479.972 313.956 
L 479.972 58.944 
" style="fill:none;stroke:#262626;stroke-linecap:square;stroke-linejoin:miter;stroke-width:1.25;"/>
   </g>
   <g id="patch_15">
    <path d="M 845.856 313.956 
L 845.856 58.944 
" style="fill:none;stroke:#262626;stroke-linecap:square;stroke-linejoin:miter;stroke-width:1.25;"/>
   </g>
   <g id="patch_16">
    <path d="M 479.972 313.956 
L 845.856 313.956 
" style="fill:none;stroke:#262626;stroke-linecap:square;stroke-linejoin:miter;stroke-width:1.25;"/>
   </g>
   <g id="patch_17">
    <path d="M 479.972 58.944 
L 845.856 58.944 
" style="fill:none;stroke:#262626;stroke-linecap:square;stroke-linejoin:miter;stroke-width:1.25;"/>
   </g>
   <g id="PathCollection_4">
    <defs>
     <path d="M 0 4 
C 1.060812 4 2.078319 3.578535 2.828427 2.828427 
C 3.578535 2.078319 4 1.060812 4 0 
C 4 -1.060812 3.578535 -2.078319 2.828427 -2.828427 
C 2.078319 -3.578535 1.060812 -4 0 -4 
C -1.060812 -4 -2.078319 -3.578535 -2.828427 -2.828427 
C -3.578535 -2.078319 -4 -1.060812 -4 0 
C -4 1.060812 -3.578535 2.078319 -2.828427 2.828427 
C -2.078319 3.578535 -1.060812 4 0 4 
z
" id="C3_0_0668b4b129"/>
    </defs>
    <g clip-path="url(#p6b2cb3d8da)">
     <use style="fill:#0072b2;" x="525.433936" xlink:href="#C3_0_0668b4b129" y="297.918602"/>
    </g>
    <g clip-path="url(#p6b2cb3d8da)">
     <use style="fill:#0072b2;" x="554.885615" xlink:href="#C3_0_0668b4b129" y="289.429042"/>
    </g>
    <g clip-path="url(#p6b2cb3d8da)">
     <use style="fill:#0072b2;" x="563.661048" xlink:href="#C3_0_0668b4b129" y="284.237576"/>
    </g>
    <g clip-path="url(#p6b2cb3d8da)">
     <use style="fill:#0072b2;" x="527.895665" xlink:href="#C3_0_0668b4b129" y="299.002267"/>
    </g>
   </g>
   <g id="PathCollection_5">
    <defs>
     <path d="M 0 4 
C 1.060812 4 2.078319 3.578535 2.828427 2.828427 
C 3.578535 2.078319 4 1.060812 4 0 
C 4 -1.060812 3.578535 -2.078319 2.828427 -2.828427 
C 2.078319 -3.578535 1.060812 -4 0 -4 
C -1.060812 -4 -2.078319 -3.578535 -2.828427 -2.828427 
C -3.578535 -2.078319 -4 -1.060812 -4 0 
C -4 1.060812 -3.578535 2.078319 -2.828427 2.828427 
C -2.078319 3.578535 -1.060812 4 0 4 
z
" id="C4_0_fb819e7dfc"/>
    </defs>
    <g clip-path="url(#p6b2cb3d8da)">
     <use style="fill:#0072b2;" x="642.598239" xlink:href="#C4_0_fb819e7dfc" y="211.729024"/>
    </g>
    <g clip-path="url(#p6b2cb3d8da)">
     <use style="fill:#0072b2;" x="667.965561" xlink:href="#C4_0_fb819e7dfc" y="203.178156"/>
    </g>
    <g clip-path="url(#p6b2cb3d8da)">
     <use style="fill:#0072b2;" x="674.085305" xlink:href="#C4_0_fb819e7dfc" y="199.34313"/>
    </g>
    <g clip-path="url(#p6b2cb3d8da)">
     <use style="fill:#0072b2;" x="651.997916" xlink:href="#C4_0_fb819e7dfc" y="212.525934"/>
    </g>
   </g>
   <g id="PathCollection_6">
    <defs>
     <path d="M 0 4 
C 1.060812 4 2.078319 3.578535 2.828427 2.828427 
C 3.578535 2.078319 4 1.060812 4 0 
C 4 -1.060812 3.578535 -2.078319 2.828427 -2.828427 
C 2.078319 -3.578535 1.060812 -4 0 -4 
C -1.060812 -4 -2.078319 -3.578535 -2.828427 -2.828427 
C -3.578535 -2.078319 -4 -1.060812 -4 0 
C -4 1.060812 -3.578535 2.078319 -2.828427 2.828427 
C -2.078319 3.578535 -1.060812 4 0 4 
z
" id="C5_0_da7f830101"/>
    </defs>
    <g clip-path="url(#p6b2cb3d8da)">
     <use style="fill:#0072b2;" x="793.915416" xlink:href="#C5_0_da7f830101" y="167.888173"/>
    </g>
    <g clip-path="url(#p6b2cb3d8da)">
     <use style="fill:#0072b2;" x="785.74699" xlink:href="#C5_0_da7f830101" y="161.748227"/>
    </g>
    <g clip-path="url(#p6b2cb3d8da)">
     <use style="fill:#0072b2;" x="762.848362" xlink:href="#C5_0_da7f830101" y="160.265947"/>
    </g>
    <g clip-path="url(#p6b2cb3d8da)">
     <use style="fill:#0072b2;" x="767.208953" xlink:href="#C5_0_da7f830101" y="168.236655"/>
    </g>
   </g>
   <g id="text_17">
    <text style="fill:#262626;font-family:DejaVu Sans;font-size:16.8px;font-style:normal;font-weight:normal;text-anchor:middle;" transform="rotate(-0, 662.914, 52.944)" x="662.914" y="52.944">Human (GRCh38 reference)</text>
   </g>
  </g>
 </g>
 <defs>
  <clipPath id="p645bad5e00">
   <rect height="255.012" width="365.884" x="89.944" y="58.944"/>
  </clipPath>
  <clipPath id="p6b2cb3d8da">
   <rect height="255.012" width="365.884" x="479.972" y="58.944"/>
  </clipPath>
 </defs>
</svg>
