<?xml version="1.0" encoding="utf-8" standalone="no"?>
<!DOCTYPE svg PUBLIC "-//W3C//DTD SVG 1.1//EN"
  "http://www.w3.org/Graphics/SVG/1.1/DTD/svg11.dtd">
<!-- Created with matplotlib (https://matplotlib.org/) -->
<svg height="360pt" version="1.1" viewBox="0 0 432 360" width="432pt" xmlns="http://www.w3.org/2000/svg" xmlns:xlink="http://www.w3.org/1999/xlink">
 <defs>
  <style type="text/css">
*{stroke-linecap:butt;stroke-linejoin:round;}
  </style>
 </defs>
 <g id="figure_1">
  <g id="patch_1">
   <path d="M 0 360 
L 432 360 
L 432 0 
L 0 0 
z
" style="fill:#ffffff;"/>
  </g>
  <g id="axes_1">
   <g id="patch_2">
    <path d="M 98.394 274.998431 
L 221.553 274.998431 
L 221.553 21.869 
L 98.394 21.869 
z
" style="fill:#ffffff;"/>
   </g>
   <g id="matplotlib.axis_1">
    <g id="xtick_1">
     <g id="line2d_1">
      <defs>
       <path d="M 0 0 
L 0 6 
" id="m9cff2d0add" style="stroke:#262626;stroke-width:1.25;"/>
      </defs>
      <g>
       <use style="fill:#262626;stroke:#262626;stroke-width:1.25;" x="118.9205" xlink:href="#m9cff2d0add" y="274.998431"/>
      </g>
     </g>
     <g id="text_1">
      <text style="fill:#262626;font-family:DejaVu Sans;font-size:15.4px;font-style:normal;font-weight:normal;" transform="translate(54.815435 330.71884)rotate(-30)">One-pass</text>
     </g>
    </g>
    <g id="xtick_2">
     <g id="line2d_2">
      <g>
       <use style="fill:#262626;stroke:#262626;stroke-width:1.25;" x="159.9735" xlink:href="#m9cff2d0add" y="274.998431"/>
      </g>
     </g>
     <g id="text_2">
      <text style="fill:#262626;font-family:DejaVu Sans;font-size:15.4px;font-style:normal;font-weight:normal;" transform="translate(95.843429 330.733278)rotate(-30)">Two-pass</text>
     </g>
    </g>
    <g id="xtick_3">
     <g id="line2d_3">
      <g>
       <use style="fill:#262626;stroke:#262626;stroke-width:1.25;" x="201.0265" xlink:href="#m9cff2d0add" y="274.998431"/>
      </g>
     </g>
     <g id="text_3">
      <text style="fill:#262626;font-family:DejaVu Sans;font-size:15.4px;font-style:normal;font-weight:normal;" transform="translate(123.038669 338.734059)rotate(-30)">Ref. guided</text>
     </g>
    </g>
   </g>
   <g id="matplotlib.axis_2">
    <g id="ytick_1">
     <g id="line2d_4">
      <defs>
       <path d="M 0 0 
L -6 0 
" id="m594676c436" style="stroke:#262626;stroke-width:1.25;"/>
      </defs>
      <g>
       <use style="fill:#262626;stroke:#262626;stroke-width:1.25;" x="98.394" xlink:href="#m594676c436" y="249.21209"/>
      </g>
     </g>
     <g id="text_4">
      <text style="fill:#262626;font-family:DejaVu Sans;font-size:15.4px;font-style:normal;font-weight:normal;text-anchor:end;" transform="rotate(-0, 88.894, 255.062886)" x="88.894" y="255.062886">6000</text>
     </g>
    </g>
    <g id="ytick_2">
     <g id="line2d_5">
      <g>
       <use style="fill:#262626;stroke:#262626;stroke-width:1.25;" x="98.394" xlink:href="#m594676c436" y="212.408738"/>
      </g>
     </g>
     <g id="text_5">
      <text style="fill:#262626;font-family:DejaVu Sans;font-size:15.4px;font-style:normal;font-weight:normal;text-anchor:end;" transform="rotate(-0, 88.894, 218.259535)" x="88.894" y="218.259535">7000</text>
     </g>
    </g>
    <g id="ytick_3">
     <g id="line2d_6">
      <g>
       <use style="fill:#262626;stroke:#262626;stroke-width:1.25;" x="98.394" xlink:href="#m594676c436" y="175.605387"/>
      </g>
     </g>
     <g id="text_6">
      <text style="fill:#262626;font-family:DejaVu Sans;font-size:15.4px;font-style:normal;font-weight:normal;text-anchor:end;" transform="rotate(-0, 88.894, 181.456184)" x="88.894" y="181.456184">8000</text>
     </g>
    </g>
    <g id="ytick_4">
     <g id="line2d_7">
      <g>
       <use style="fill:#262626;stroke:#262626;stroke-width:1.25;" x="98.394" xlink:href="#m594676c436" y="138.802036"/>
      </g>
     </g>
     <g id="text_7">
      <text style="fill:#262626;font-family:DejaVu Sans;font-size:15.4px;font-style:normal;font-weight:normal;text-anchor:end;" transform="rotate(-0, 88.894, 144.652833)" x="88.894" y="144.652833">9000</text>
     </g>
    </g>
    <g id="ytick_5">
     <g id="line2d_8">
      <g>
       <use style="fill:#262626;stroke:#262626;stroke-width:1.25;" x="98.394" xlink:href="#m594676c436" y="101.998684"/>
      </g>
     </g>
     <g id="text_8">
      <text style="fill:#262626;font-family:DejaVu Sans;font-size:15.4px;font-style:normal;font-weight:normal;text-anchor:end;" transform="rotate(-0, 88.894, 107.849481)" x="88.894" y="107.849481">10000</text>
     </g>
    </g>
    <g id="ytick_6">
     <g id="line2d_9">
      <g>
       <use style="fill:#262626;stroke:#262626;stroke-width:1.25;" x="98.394" xlink:href="#m594676c436" y="65.195333"/>
      </g>
     </g>
     <g id="text_9">
      <text style="fill:#262626;font-family:DejaVu Sans;font-size:15.4px;font-style:normal;font-weight:normal;text-anchor:end;" transform="rotate(-0, 88.894, 71.04613)" x="88.894" y="71.04613">11000</text>
     </g>
    </g>
    <g id="ytick_7">
     <g id="line2d_10">
      <g>
       <use style="fill:#262626;stroke:#262626;stroke-width:1.25;" x="98.394" xlink:href="#m594676c436" y="28.391982"/>
      </g>
     </g>
     <g id="text_10">
      <text style="fill:#262626;font-family:DejaVu Sans;font-size:15.4px;font-style:normal;font-weight:normal;text-anchor:end;" transform="rotate(-0, 88.894, 34.242779)" x="88.894" y="34.242779">12000</text>
     </g>
    </g>
    <g id="text_11">
     <text style="fill:#262626;font-family:DejaVu Sans;font-size:16.8px;font-style:normal;font-weight:normal;text-anchor:middle;" transform="rotate(-90, 32.408875, 148.433716)" x="32.408875" y="148.433716">Annotated transcripts assembled</text>
    </g>
   </g>
   <g id="patch_3">
    <path clip-path="url(#pe020d1ebe3)" d="M 102.4993 217.275982 
L 135.3417 217.275982 
L 135.3417 142.924011 
L 102.4993 142.924011 
L 102.4993 217.275982 
z
" style="fill:#eeeeee;stroke:#8f8f8f;stroke-linejoin:miter;stroke-width:1.5;"/>
   </g>
   <g id="patch_4">
    <path clip-path="url(#pe020d1ebe3)" d="M 143.5523 214.101692 
L 176.3947 214.101692 
L 176.3947 134.882479 
L 143.5523 134.882479 
L 143.5523 214.101692 
z
" style="fill:#eeeeee;stroke:#8f8f8f;stroke-linejoin:miter;stroke-width:1.5;"/>
   </g>
   <g id="patch_5">
    <path clip-path="url(#pe020d1ebe3)" d="M 184.6053 201.974988 
L 217.4477 201.974988 
L 217.4477 113.426125 
L 184.6053 113.426125 
L 184.6053 201.974988 
z
" style="fill:#eeeeee;stroke:#8f8f8f;stroke-linejoin:miter;stroke-width:1.5;"/>
   </g>
   <g id="PathCollection_1"/>
   <g id="PathCollection_2"/>
   <g id="PathCollection_3"/>
   <g id="PathCollection_4"/>
   <g id="PathCollection_5"/>
   <g id="PathCollection_6"/>
   <g id="line2d_11">
    <path clip-path="url(#pe020d1ebe3)" d="M 118.9205 217.275982 
L 118.9205 259.885061 
" style="fill:none;stroke:#8f8f8f;stroke-linecap:round;stroke-width:1.5;"/>
   </g>
   <g id="line2d_12">
    <path clip-path="url(#pe020d1ebe3)" d="M 118.9205 142.924011 
L 118.9205 81.241594 
" style="fill:none;stroke:#8f8f8f;stroke-linecap:round;stroke-width:1.5;"/>
   </g>
   <g id="line2d_13">
    <path clip-path="url(#pe020d1ebe3)" d="M 110.7099 259.885061 
L 127.1311 259.885061 
" style="fill:none;stroke:#8f8f8f;stroke-linecap:round;stroke-width:1.5;"/>
   </g>
   <g id="line2d_14">
    <path clip-path="url(#pe020d1ebe3)" d="M 110.7099 81.241594 
L 127.1311 81.241594 
" style="fill:none;stroke:#8f8f8f;stroke-linecap:round;stroke-width:1.5;"/>
   </g>
   <g id="line2d_15"/>
   <g id="line2d_16">
    <path clip-path="url(#pe020d1ebe3)" d="M 159.9735 214.101692 
L 159.9735 248.181596 
" style="fill:none;stroke:#8f8f8f;stroke-linecap:round;stroke-width:1.5;"/>
   </g>
   <g id="line2d_17">
    <path clip-path="url(#pe020d1ebe3)" d="M 159.9735 134.882479 
L 159.9735 63.355165 
" style="fill:none;stroke:#8f8f8f;stroke-linecap:round;stroke-width:1.5;"/>
   </g>
   <g id="line2d_18">
    <path clip-path="url(#pe020d1ebe3)" d="M 151.7629 248.181596 
L 168.1841 248.181596 
" style="fill:none;stroke:#8f8f8f;stroke-linecap:round;stroke-width:1.5;"/>
   </g>
   <g id="line2d_19">
    <path clip-path="url(#pe020d1ebe3)" d="M 151.7629 63.355165 
L 168.1841 63.355165 
" style="fill:none;stroke:#8f8f8f;stroke-linecap:round;stroke-width:1.5;"/>
   </g>
   <g id="line2d_20"/>
   <g id="line2d_21">
    <path clip-path="url(#pe020d1ebe3)" d="M 201.0265 201.974988 
L 201.0265 235.447636 
" style="fill:none;stroke:#8f8f8f;stroke-linecap:round;stroke-width:1.5;"/>
   </g>
   <g id="line2d_22">
    <path clip-path="url(#pe020d1ebe3)" d="M 201.0265 113.426125 
L 201.0265 37.040769 
" style="fill:none;stroke:#8f8f8f;stroke-linecap:round;stroke-width:1.5;"/>
   </g>
   <g id="line2d_23">
    <path clip-path="url(#pe020d1ebe3)" d="M 192.8159 235.447636 
L 209.2371 235.447636 
" style="fill:none;stroke:#8f8f8f;stroke-linecap:round;stroke-width:1.5;"/>
   </g>
   <g id="line2d_24">
    <path clip-path="url(#pe020d1ebe3)" d="M 192.8159 37.040769 
L 209.2371 37.040769 
" style="fill:none;stroke:#8f8f8f;stroke-linecap:round;stroke-width:1.5;"/>
   </g>
   <g id="line2d_25"/>
   <g id="line2d_26">
    <path clip-path="url(#pe020d1ebe3)" d="M 102.4993 196.28887 
L 135.3417 196.28887 
" style="fill:none;stroke:#8f8f8f;stroke-linecap:round;stroke-width:1.5;"/>
   </g>
   <g id="line2d_27">
    <path clip-path="url(#pe020d1ebe3)" d="M 143.5523 187.106434 
L 176.3947 187.106434 
" style="fill:none;stroke:#8f8f8f;stroke-linecap:round;stroke-width:1.5;"/>
   </g>
   <g id="line2d_28">
    <path clip-path="url(#pe020d1ebe3)" d="M 184.6053 168.907177 
L 217.4477 168.907177 
" style="fill:none;stroke:#8f8f8f;stroke-linecap:round;stroke-width:1.5;"/>
   </g>
   <g id="patch_6">
    <path d="M 98.394 274.998431 
L 98.394 21.869 
" style="fill:none;stroke:#262626;stroke-linecap:square;stroke-linejoin:miter;stroke-width:1.25;"/>
   </g>
   <g id="patch_7">
    <path d="M 221.553 274.998431 
L 221.553 21.869 
" style="fill:none;stroke:#262626;stroke-linecap:square;stroke-linejoin:miter;stroke-width:1.25;"/>
   </g>
   <g id="patch_8">
    <path d="M 98.394 274.998431 
L 221.553 274.998431 
" style="fill:none;stroke:#262626;stroke-linecap:square;stroke-linejoin:miter;stroke-width:1.25;"/>
   </g>
   <g id="patch_9">
    <path d="M 98.394 21.869 
L 221.553 21.869 
" style="fill:none;stroke:#262626;stroke-linecap:square;stroke-linejoin:miter;stroke-width:1.25;"/>
   </g>
   <g id="PathCollection_7">
    <defs>
     <path d="M 0 4 
C 1.060812 4 2.078319 3.578535 2.828427 2.828427 
C 3.578535 2.078319 4 1.060812 4 0 
C 4 -1.060812 3.578535 -2.078319 2.828427 -2.828427 
C 2.078319 -3.578535 1.060812 -4 0 -4 
C -1.060812 -4 -2.078319 -3.578535 -2.828427 -2.828427 
C -3.578535 -2.078319 -4 -1.060812 -4 0 
C -4 1.060812 -3.578535 2.078319 -2.828427 2.828427 
C -2.078319 3.578535 -1.060812 4 0 4 
z
" id="mb3822d4f5e"/>
    </defs>
    <g clip-path="url(#pe020d1ebe3)">
     <use style="fill:#0072b2;" x="105.087831" xlink:href="#mb3822d4f5e" y="259.885061"/>
    </g>
   </g>
   <g id="PathCollection_8">
    <defs>
     <path d="M 0 4 
C 1.060812 4 2.078319 3.578535 2.828427 2.828427 
C 3.578535 2.078319 4 1.060812 4 0 
C 4 -1.060812 3.578535 -2.078319 2.828427 -2.828427 
C 2.078319 -3.578535 1.060812 -4 0 -4 
C -1.060812 -4 -2.078319 -3.578535 -2.828427 -2.828427 
C -3.578535 -2.078319 -4 -1.060812 -4 0 
C -4 1.060812 -3.578535 2.078319 -2.828427 2.828427 
C -2.078319 3.578535 -1.060812 4 0 4 
z
" id="m436e72535e"/>
    </defs>
    <g clip-path="url(#pe020d1ebe3)">
     <use style="fill:#d55e00;" x="109.424146" xlink:href="#m436e72535e" y="81.241594"/>
    </g>
   </g>
   <g id="PathCollection_9">
    <defs>
     <path d="M 0 4 
C 1.060812 4 2.078319 3.578535 2.828427 2.828427 
C 3.578535 2.078319 4 1.060812 4 0 
C 4 -1.060812 3.578535 -2.078319 2.828427 -2.828427 
C 2.078319 -3.578535 1.060812 -4 0 -4 
C -1.060812 -4 -2.078319 -3.578535 -2.828427 -2.828427 
C -3.578535 -2.078319 -4 -1.060812 -4 0 
C -4 1.060812 -3.578535 2.078319 -2.828427 2.828427 
C -2.078319 3.578535 -1.060812 4 0 4 
z
" id="m2ac4d5a587"/>
    </defs>
    <g clip-path="url(#pe020d1ebe3)">
     <use style="fill:#009e73;" x="115.46092" xlink:href="#m2ac4d5a587" y="223.52335"/>
    </g>
   </g>
   <g id="PathCollection_10">
    <defs>
     <path d="M 0 4 
C 1.060812 4 2.078319 3.578535 2.828427 2.828427 
C 3.578535 2.078319 4 1.060812 4 0 
C 4 -1.060812 3.578535 -2.078319 2.828427 -2.828427 
C 2.078319 -3.578535 1.060812 -4 0 -4 
C -1.060812 -4 -2.078319 -3.578535 -2.828427 -2.828427 
C -3.578535 -2.078319 -4 -1.060812 -4 0 
C -4 1.060812 -3.578535 2.078319 -2.828427 2.828427 
C -2.078319 3.578535 -1.060812 4 0 4 
z
" id="mb5b33b2d9f"/>
    </defs>
    <g clip-path="url(#pe020d1ebe3)">
     <use style="fill:#f0e442;" x="122.589372" xlink:href="#mb5b33b2d9f" y="198.533875"/>
    </g>
   </g>
   <g id="PathCollection_11">
    <defs>
     <path d="M 0 4 
C 1.060812 4 2.078319 3.578535 2.828427 2.828427 
C 3.578535 2.078319 4 1.060812 4 0 
C 4 -1.060812 3.578535 -2.078319 2.828427 -2.828427 
C 2.078319 -3.578535 1.060812 -4 0 -4 
C -1.060812 -4 -2.078319 -3.578535 -2.828427 -2.828427 
C -3.578535 -2.078319 -4 -1.060812 -4 0 
C -4 1.060812 -3.578535 2.078319 -2.828427 2.828427 
C -2.078319 3.578535 -1.060812 4 0 4 
z
" id="mcaba74aab5"/>
    </defs>
    <g clip-path="url(#pe020d1ebe3)">
     <use style="fill:#cc79a7;" x="127.005362" xlink:href="#mcaba74aab5" y="194.043866"/>
    </g>
   </g>
   <g id="PathCollection_12">
    <defs>
     <path d="M 0 4 
C 1.060812 4 2.078319 3.578535 2.828427 2.828427 
C 3.578535 2.078319 4 1.060812 4 0 
C 4 -1.060812 3.578535 -2.078319 2.828427 -2.828427 
C 2.078319 -3.578535 1.060812 -4 0 -4 
C -1.060812 -4 -2.078319 -3.578535 -2.828427 -2.828427 
C -3.578535 -2.078319 -4 -1.060812 -4 0 
C -4 1.060812 -3.578535 2.078319 -2.828427 2.828427 
C -2.078319 3.578535 -1.060812 4 0 4 
z
" id="m82531f2b7d"/>
    </defs>
    <g clip-path="url(#pe020d1ebe3)">
     <use style="fill:#56b4e9;" x="131.52814" xlink:href="#m82531f2b7d" y="125.884059"/>
    </g>
   </g>
   <g id="PathCollection_13">
    <g clip-path="url(#pe020d1ebe3)">
     <use style="fill:#0072b2;" x="145.998874" xlink:href="#mb3822d4f5e" y="248.181596"/>
    </g>
   </g>
   <g id="PathCollection_14">
    <g clip-path="url(#pe020d1ebe3)">
     <use style="fill:#d55e00;" x="151.795751" xlink:href="#m436e72535e" y="63.355165"/>
    </g>
   </g>
   <g id="PathCollection_15">
    <g clip-path="url(#pe020d1ebe3)">
     <use style="fill:#009e73;" x="157.895024" xlink:href="#m2ac4d5a587" y="220.836706"/>
    </g>
   </g>
   <g id="PathCollection_16">
    <g clip-path="url(#pe020d1ebe3)">
     <use style="fill:#f0e442;" x="162.202669" xlink:href="#mb5b33b2d9f" y="193.896653"/>
    </g>
   </g>
   <g id="PathCollection_17">
    <g clip-path="url(#pe020d1ebe3)">
     <use style="fill:#cc79a7;" x="169.063201" xlink:href="#mcaba74aab5" y="180.316216"/>
    </g>
   </g>
   <g id="PathCollection_18">
    <g clip-path="url(#pe020d1ebe3)">
     <use style="fill:#56b4e9;" x="173.087135" xlink:href="#m82531f2b7d" y="119.7379"/>
    </g>
   </g>
   <g id="PathCollection_19">
    <g clip-path="url(#pe020d1ebe3)">
     <use style="fill:#0072b2;" x="186.291149" xlink:href="#mb3822d4f5e" y="235.447636"/>
    </g>
   </g>
   <g id="PathCollection_20">
    <g clip-path="url(#pe020d1ebe3)">
     <use style="fill:#d55e00;" x="194.033564" xlink:href="#m436e72535e" y="37.040769"/>
    </g>
   </g>
   <g id="PathCollection_21">
    <g clip-path="url(#pe020d1ebe3)">
     <use style="fill:#009e73;" x="197.036426" xlink:href="#m2ac4d5a587" y="210.237341"/>
    </g>
   </g>
   <g id="PathCollection_22">
    <g clip-path="url(#pe020d1ebe3)">
     <use style="fill:#f0e442;" x="204.057041" xlink:href="#mb5b33b2d9f" y="177.187931"/>
    </g>
   </g>
   <g id="PathCollection_23">
    <g clip-path="url(#pe020d1ebe3)">
     <use style="fill:#cc79a7;" x="210.404018" xlink:href="#mcaba74aab5" y="160.626423"/>
    </g>
   </g>
   <g id="PathCollection_24">
    <g clip-path="url(#pe020d1ebe3)">
     <use style="fill:#56b4e9;" x="214.600126" xlink:href="#m82531f2b7d" y="97.692692"/>
    </g>
   </g>
  </g>
  <g id="axes_2">
   <g id="patch_10">
    <path d="M 290.697 274.998431 
L 413.856 274.998431 
L 413.856 21.869 
L 290.697 21.869 
z
" style="fill:#ffffff;"/>
   </g>
   <g id="matplotlib.axis_3">
    <g id="xtick_4">
     <g id="line2d_29">
      <g>
       <use style="fill:#262626;stroke:#262626;stroke-width:1.25;" x="311.2235" xlink:href="#m9cff2d0add" y="274.998431"/>
      </g>
     </g>
     <g id="text_12">
      <text style="fill:#262626;font-family:DejaVu Sans;font-size:15.4px;font-style:normal;font-weight:normal;" transform="translate(247.118435 330.71884)rotate(-30)">One-pass</text>
     </g>
    </g>
    <g id="xtick_5">
     <g id="line2d_30">
      <g>
       <use style="fill:#262626;stroke:#262626;stroke-width:1.25;" x="352.2765" xlink:href="#m9cff2d0add" y="274.998431"/>
      </g>
     </g>
     <g id="text_13">
      <text style="fill:#262626;font-family:DejaVu Sans;font-size:15.4px;font-style:normal;font-weight:normal;" transform="translate(288.146429 330.733278)rotate(-30)">Two-pass</text>
     </g>
    </g>
    <g id="xtick_6">
     <g id="line2d_31">
      <g>
       <use style="fill:#262626;stroke:#262626;stroke-width:1.25;" x="393.3295" xlink:href="#m9cff2d0add" y="274.998431"/>
      </g>
     </g>
     <g id="text_14">
      <text style="fill:#262626;font-family:DejaVu Sans;font-size:15.4px;font-style:normal;font-weight:normal;" transform="translate(315.341669 338.734059)rotate(-30)">Ref. guided</text>
     </g>
    </g>
   </g>
   <g id="matplotlib.axis_4">
    <g id="ytick_8">
     <g id="line2d_32">
      <g>
       <use style="fill:#262626;stroke:#262626;stroke-width:1.25;" x="290.697" xlink:href="#m594676c436" y="231.168014"/>
      </g>
     </g>
     <g id="text_15">
      <text style="fill:#262626;font-family:DejaVu Sans;font-size:15.4px;font-style:normal;font-weight:normal;text-anchor:end;" transform="rotate(-0, 281.197, 237.01881)" x="281.197" y="237.01881">25</text>
     </g>
    </g>
    <g id="ytick_9">
     <g id="line2d_33">
      <g>
       <use style="fill:#262626;stroke:#262626;stroke-width:1.25;" x="290.697" xlink:href="#m594676c436" y="173.733918"/>
      </g>
     </g>
     <g id="text_16">
      <text style="fill:#262626;font-family:DejaVu Sans;font-size:15.4px;font-style:normal;font-weight:normal;text-anchor:end;" transform="rotate(-0, 281.197, 179.584714)" x="281.197" y="179.584714">30</text>
     </g>
    </g>
    <g id="ytick_10">
     <g id="line2d_34">
      <g>
       <use style="fill:#262626;stroke:#262626;stroke-width:1.25;" x="290.697" xlink:href="#m594676c436" y="116.299822"/>
      </g>
     </g>
     <g id="text_17">
      <text style="fill:#262626;font-family:DejaVu Sans;font-size:15.4px;font-style:normal;font-weight:normal;text-anchor:end;" transform="rotate(-0, 281.197, 122.150619)" x="281.197" y="122.150619">35</text>
     </g>
    </g>
    <g id="ytick_11">
     <g id="line2d_35">
      <g>
       <use style="fill:#262626;stroke:#262626;stroke-width:1.25;" x="290.697" xlink:href="#m594676c436" y="58.865726"/>
      </g>
     </g>
     <g id="text_18">
      <text style="fill:#262626;font-family:DejaVu Sans;font-size:15.4px;font-style:normal;font-weight:normal;text-anchor:end;" transform="rotate(-0, 281.197, 64.716523)" x="281.197" y="64.716523">40</text>
     </g>
    </g>
    <g id="text_19">
     <text style="fill:#262626;font-family:DejaVu Sans;font-size:16.8px;font-style:normal;font-weight:normal;text-anchor:middle;" transform="rotate(-90, 254.106625, 148.433716)" x="254.106625" y="148.433716">Precision (%)</text>
    </g>
   </g>
   <g id="patch_11">
    <path clip-path="url(#p40ee392dc9)" d="M 294.8023 212.501932 
L 327.6447 212.501932 
L 327.6447 105.100173 
L 294.8023 105.100173 
L 294.8023 212.501932 
z
" style="fill:#eeeeee;stroke:#8f8f8f;stroke-linejoin:miter;stroke-width:1.5;"/>
   </g>
   <g id="patch_12">
    <path clip-path="url(#p40ee392dc9)" d="M 335.8553 184.646396 
L 368.6977 184.646396 
L 368.6977 95.910718 
L 335.8553 95.910718 
L 335.8553 184.646396 
z
" style="fill:#eeeeee;stroke:#8f8f8f;stroke-linejoin:miter;stroke-width:1.5;"/>
   </g>
   <g id="patch_13">
    <path clip-path="url(#p40ee392dc9)" d="M 376.9083 161.959928 
L 409.7507 161.959928 
L 409.7507 72.075568 
L 376.9083 72.075568 
L 376.9083 161.959928 
z
" style="fill:#eeeeee;stroke:#8f8f8f;stroke-linejoin:miter;stroke-width:1.5;"/>
   </g>
   <g id="PathCollection_25"/>
   <g id="PathCollection_26"/>
   <g id="PathCollection_27"/>
   <g id="PathCollection_28"/>
   <g id="PathCollection_29"/>
   <g id="PathCollection_30"/>
   <g id="line2d_36">
    <path clip-path="url(#p40ee392dc9)" d="M 311.2235 212.501932 
L 311.2235 259.885061 
" style="fill:none;stroke:#8f8f8f;stroke-linecap:round;stroke-width:1.5;"/>
   </g>
   <g id="line2d_37">
    <path clip-path="url(#p40ee392dc9)" d="M 311.2235 105.100173 
L 311.2235 74.947273 
" style="fill:none;stroke:#8f8f8f;stroke-linecap:round;stroke-width:1.5;"/>
   </g>
   <g id="line2d_38">
    <path clip-path="url(#p40ee392dc9)" d="M 303.0129 259.885061 
L 319.4341 259.885061 
" style="fill:none;stroke:#8f8f8f;stroke-linecap:round;stroke-width:1.5;"/>
   </g>
   <g id="line2d_39">
    <path clip-path="url(#p40ee392dc9)" d="M 303.0129 74.947273 
L 319.4341 74.947273 
" style="fill:none;stroke:#8f8f8f;stroke-linecap:round;stroke-width:1.5;"/>
   </g>
   <g id="line2d_40"/>
   <g id="line2d_41">
    <path clip-path="url(#p40ee392dc9)" d="M 352.2765 184.646396 
L 352.2765 239.208787 
" style="fill:none;stroke:#8f8f8f;stroke-linecap:round;stroke-width:1.5;"/>
   </g>
   <g id="line2d_42">
    <path clip-path="url(#p40ee392dc9)" d="M 352.2765 95.910718 
L 352.2765 64.609135 
" style="fill:none;stroke:#8f8f8f;stroke-linecap:round;stroke-width:1.5;"/>
   </g>
   <g id="line2d_43">
    <path clip-path="url(#p40ee392dc9)" d="M 344.0659 239.208787 
L 360.4871 239.208787 
" style="fill:none;stroke:#8f8f8f;stroke-linecap:round;stroke-width:1.5;"/>
   </g>
   <g id="line2d_44">
    <path clip-path="url(#p40ee392dc9)" d="M 344.0659 64.609135 
L 360.4871 64.609135 
" style="fill:none;stroke:#8f8f8f;stroke-linecap:round;stroke-width:1.5;"/>
   </g>
   <g id="line2d_45"/>
   <g id="line2d_46">
    <path clip-path="url(#p40ee392dc9)" d="M 393.3295 161.959928 
L 393.3295 221.978558 
" style="fill:none;stroke:#8f8f8f;stroke-linecap:round;stroke-width:1.5;"/>
   </g>
   <g id="line2d_47">
    <path clip-path="url(#p40ee392dc9)" d="M 393.3295 72.075568 
L 393.3295 37.040769 
" style="fill:none;stroke:#8f8f8f;stroke-linecap:round;stroke-width:1.5;"/>
   </g>
   <g id="line2d_48">
    <path clip-path="url(#p40ee392dc9)" d="M 385.1189 221.978558 
L 401.5401 221.978558 
" style="fill:none;stroke:#8f8f8f;stroke-linecap:round;stroke-width:1.5;"/>
   </g>
   <g id="line2d_49">
    <path clip-path="url(#p40ee392dc9)" d="M 385.1189 37.040769 
L 401.5401 37.040769 
" style="fill:none;stroke:#8f8f8f;stroke-linecap:round;stroke-width:1.5;"/>
   </g>
   <g id="line2d_50"/>
   <g id="line2d_51">
    <path clip-path="url(#p40ee392dc9)" d="M 294.8023 172.585236 
L 327.6447 172.585236 
" style="fill:none;stroke:#8f8f8f;stroke-linecap:round;stroke-width:1.5;"/>
   </g>
   <g id="line2d_52">
    <path clip-path="url(#p40ee392dc9)" d="M 335.8553 155.355007 
L 368.6977 155.355007 
" style="fill:none;stroke:#8f8f8f;stroke-linecap:round;stroke-width:1.5;"/>
   </g>
   <g id="line2d_53">
    <path clip-path="url(#p40ee392dc9)" d="M 376.9083 134.678732 
L 409.7507 134.678732 
" style="fill:none;stroke:#8f8f8f;stroke-linecap:round;stroke-width:1.5;"/>
   </g>
   <g id="patch_14">
    <path d="M 290.697 274.998431 
L 290.697 21.869 
" style="fill:none;stroke:#262626;stroke-linecap:square;stroke-linejoin:miter;stroke-width:1.25;"/>
   </g>
   <g id="patch_15">
    <path d="M 413.856 274.998431 
L 413.856 21.869 
" style="fill:none;stroke:#262626;stroke-linecap:square;stroke-linejoin:miter;stroke-width:1.25;"/>
   </g>
   <g id="patch_16">
    <path d="M 290.697 274.998431 
L 413.856 274.998431 
" style="fill:none;stroke:#262626;stroke-linecap:square;stroke-linejoin:miter;stroke-width:1.25;"/>
   </g>
   <g id="patch_17">
    <path d="M 290.697 21.869 
L 413.856 21.869 
" style="fill:none;stroke:#262626;stroke-linecap:square;stroke-linejoin:miter;stroke-width:1.25;"/>
   </g>
   <g id="PathCollection_31">
    <g clip-path="url(#p40ee392dc9)">
     <use style="fill:#0072b2;" x="298.601985" xlink:href="#mb3822d4f5e" y="259.885061"/>
    </g>
   </g>
   <g id="PathCollection_32">
    <g clip-path="url(#p40ee392dc9)">
     <use style="fill:#d55e00;" x="304.121774" xlink:href="#m436e72535e" y="219.681194"/>
    </g>
   </g>
   <g id="PathCollection_33">
    <g clip-path="url(#p40ee392dc9)">
     <use style="fill:#009e73;" x="309.195776" xlink:href="#m2ac4d5a587" y="154.206325"/>
    </g>
   </g>
   <g id="PathCollection_34">
    <g clip-path="url(#p40ee392dc9)">
     <use style="fill:#f0e442;" x="312.646704" xlink:href="#mb5b33b2d9f" y="74.947273"/>
    </g>
   </g>
   <g id="PathCollection_35">
    <g clip-path="url(#p40ee392dc9)">
     <use style="fill:#cc79a7;" x="320.669916" xlink:href="#mcaba74aab5" y="190.964146"/>
    </g>
   </g>
   <g id="PathCollection_36">
    <g clip-path="url(#p40ee392dc9)">
     <use style="fill:#56b4e9;" x="324.574447" xlink:href="#m82531f2b7d" y="88.731456"/>
    </g>
   </g>
   <g id="PathCollection_37">
    <g clip-path="url(#p40ee392dc9)">
     <use style="fill:#0072b2;" x="339.242549" xlink:href="#mb3822d4f5e" y="239.208787"/>
    </g>
   </g>
   <g id="PathCollection_38">
    <g clip-path="url(#p40ee392dc9)">
     <use style="fill:#d55e00;" x="343.246097" xlink:href="#m436e72535e" y="192.112828"/>
    </g>
   </g>
   <g id="PathCollection_39">
    <g clip-path="url(#p40ee392dc9)">
     <use style="fill:#009e73;" x="349.936248" xlink:href="#m2ac4d5a587" y="148.462915"/>
    </g>
   </g>
   <g id="PathCollection_40">
    <g clip-path="url(#p40ee392dc9)">
     <use style="fill:#f0e442;" x="354.579669" xlink:href="#mb5b33b2d9f" y="64.609135"/>
    </g>
   </g>
   <g id="PathCollection_41">
    <g clip-path="url(#p40ee392dc9)">
     <use style="fill:#cc79a7;" x="361.071468" xlink:href="#mcaba74aab5" y="162.247098"/>
    </g>
   </g>
   <g id="PathCollection_42">
    <g clip-path="url(#p40ee392dc9)">
     <use style="fill:#56b4e9;" x="366.196759" xlink:href="#m82531f2b7d" y="78.393318"/>
    </g>
   </g>
   <g id="PathCollection_43">
    <g clip-path="url(#p40ee392dc9)">
     <use style="fill:#0072b2;" x="378.88298" xlink:href="#mb3822d4f5e" y="221.978558"/>
    </g>
   </g>
   <g id="PathCollection_44">
    <g clip-path="url(#p40ee392dc9)">
     <use style="fill:#d55e00;" x="386.166018" xlink:href="#m436e72535e" y="170.287872"/>
    </g>
   </g>
   <g id="PathCollection_45">
    <g clip-path="url(#p40ee392dc9)">
     <use style="fill:#009e73;" x="390.001574" xlink:href="#m2ac4d5a587" y="132.381369"/>
    </g>
   </g>
   <g id="PathCollection_46">
    <g clip-path="url(#p40ee392dc9)">
     <use style="fill:#f0e442;" x="394.84293" xlink:href="#mb5b33b2d9f" y="37.040769"/>
    </g>
   </g>
   <g id="PathCollection_47">
    <g clip-path="url(#p40ee392dc9)">
     <use style="fill:#cc79a7;" x="401.335022" xlink:href="#mcaba74aab5" y="136.976096"/>
    </g>
   </g>
   <g id="PathCollection_48">
    <g clip-path="url(#p40ee392dc9)">
     <use style="fill:#56b4e9;" x="407.870595" xlink:href="#m82531f2b7d" y="51.973634"/>
    </g>
   </g>
  </g>
  <g id="text_20">
   <text style="fill:#262626;font-family:DejaVu Sans;font-size:20.16px;font-style:normal;font-weight:normal;text-anchor:middle;" transform="rotate(-0, 216, 22.51845)" x="216" y="22.51845">Human PacBio IsoSeq (GRCh38)</text>
  </g>
 </g>
 <defs>
  <clipPath id="pe020d1ebe3">
   <rect height="253.129431" width="123.159" x="98.394" y="21.869"/>
  </clipPath>
  <clipPath id="p40ee392dc9">
   <rect height="253.129431" width="123.159" x="290.697" y="21.869"/>
  </clipPath>
 </defs>
</svg>
