<?xml version="1.0" encoding="utf-8" standalone="no"?>
<!DOCTYPE svg PUBLIC "-//W3C//DTD SVG 1.1//EN"
  "http://www.w3.org/Graphics/SVG/1.1/DTD/svg11.dtd">
<!-- Created with matplotlib (https://matplotlib.org/) -->
<svg height="360pt" version="1.1" viewBox="0 0 432 360" width="432pt" xmlns="http://www.w3.org/2000/svg" xmlns:xlink="http://www.w3.org/1999/xlink">
 <defs>
  <style type="text/css">
*{stroke-linecap:butt;stroke-linejoin:round;}
  </style>
 </defs>
 <g id="figure_1">
  <g id="patch_1">
   <path d="M 0 360 
L 432 360 
L 432 0 
L 0 0 
z
" style="fill:#ffffff;"/>
  </g>
  <g id="axes_1">
   <g id="patch_2">
    <path d="M 98.394 274.998431 
L 221.553 274.998431 
L 221.553 21.869 
L 98.394 21.869 
z
" style="fill:#ffffff;"/>
   </g>
   <g id="matplotlib.axis_1">
    <g id="xtick_1">
     <g id="line2d_1">
      <defs>
       <path d="M 0 0 
L 0 6 
" id="m013b32e75b" style="stroke:#262626;stroke-width:1.25;"/>
      </defs>
      <g>
       <use style="fill:#262626;stroke:#262626;stroke-width:1.25;" x="118.9205" xlink:href="#m013b32e75b" y="274.998431"/>
      </g>
     </g>
     <g id="text_1">
      <text style="fill:#262626;font-family:DejaVu Sans;font-size:15.4px;font-style:normal;font-weight:normal;" transform="translate(54.815435 330.71884)rotate(-30)">One-pass</text>
     </g>
    </g>
    <g id="xtick_2">
     <g id="line2d_2">
      <g>
       <use style="fill:#262626;stroke:#262626;stroke-width:1.25;" x="159.9735" xlink:href="#m013b32e75b" y="274.998431"/>
      </g>
     </g>
     <g id="text_2">
      <text style="fill:#262626;font-family:DejaVu Sans;font-size:15.4px;font-style:normal;font-weight:normal;" transform="translate(95.843429 330.733278)rotate(-30)">Two-pass</text>
     </g>
    </g>
    <g id="xtick_3">
     <g id="line2d_3">
      <g>
       <use style="fill:#262626;stroke:#262626;stroke-width:1.25;" x="201.0265" xlink:href="#m013b32e75b" y="274.998431"/>
      </g>
     </g>
     <g id="text_3">
      <text style="fill:#262626;font-family:DejaVu Sans;font-size:15.4px;font-style:normal;font-weight:normal;" transform="translate(123.038669 338.734059)rotate(-30)">Ref. guided</text>
     </g>
    </g>
   </g>
   <g id="matplotlib.axis_2">
    <g id="ytick_1">
     <g id="line2d_4">
      <defs>
       <path d="M 0 0 
L -6 0 
" id="ma63e69e51f" style="stroke:#262626;stroke-width:1.25;"/>
      </defs>
      <g>
       <use style="fill:#262626;stroke:#262626;stroke-width:1.25;" x="98.394" xlink:href="#ma63e69e51f" y="236.915048"/>
      </g>
     </g>
     <g id="text_4">
      <text style="fill:#262626;font-family:DejaVu Sans;font-size:15.4px;font-style:normal;font-weight:normal;text-anchor:end;" transform="rotate(-0, 88.894, 242.765845)" x="88.894" y="242.765845">8000</text>
     </g>
    </g>
    <g id="ytick_2">
     <g id="line2d_5">
      <g>
       <use style="fill:#262626;stroke:#262626;stroke-width:1.25;" x="98.394" xlink:href="#ma63e69e51f" y="178.318074"/>
      </g>
     </g>
     <g id="text_5">
      <text style="fill:#262626;font-family:DejaVu Sans;font-size:15.4px;font-style:normal;font-weight:normal;text-anchor:end;" transform="rotate(-0, 88.894, 184.168871)" x="88.894" y="184.168871">9000</text>
     </g>
    </g>
    <g id="ytick_3">
     <g id="line2d_6">
      <g>
       <use style="fill:#262626;stroke:#262626;stroke-width:1.25;" x="98.394" xlink:href="#ma63e69e51f" y="119.7211"/>
      </g>
     </g>
     <g id="text_6">
      <text style="fill:#262626;font-family:DejaVu Sans;font-size:15.4px;font-style:normal;font-weight:normal;text-anchor:end;" transform="rotate(-0, 88.894, 125.571897)" x="88.894" y="125.571897">10000</text>
     </g>
    </g>
    <g id="ytick_4">
     <g id="line2d_7">
      <g>
       <use style="fill:#262626;stroke:#262626;stroke-width:1.25;" x="98.394" xlink:href="#ma63e69e51f" y="61.124126"/>
      </g>
     </g>
     <g id="text_7">
      <text style="fill:#262626;font-family:DejaVu Sans;font-size:15.4px;font-style:normal;font-weight:normal;text-anchor:end;" transform="rotate(-0, 88.894, 66.974922)" x="88.894" y="66.974922">11000</text>
     </g>
    </g>
    <g id="text_8">
     <text style="fill:#262626;font-family:DejaVu Sans;font-size:16.8px;font-style:normal;font-weight:normal;text-anchor:middle;" transform="rotate(-90, 32.408875, 148.433716)" x="32.408875" y="148.433716">Annotated transcripts assembled</text>
    </g>
   </g>
   <g id="patch_3">
    <path clip-path="url(#p15d5f49dbe)" d="M 102.4993 249.029972 
L 135.3417 249.029972 
L 135.3417 123.456657 
L 102.4993 123.456657 
L 102.4993 249.029972 
z
" style="fill:#eeeeee;stroke:#8f8f8f;stroke-linejoin:miter;stroke-width:1.5;"/>
   </g>
   <g id="patch_4">
    <path clip-path="url(#p15d5f49dbe)" d="M 143.5523 216.523301 
L 176.3947 216.523301 
L 176.3947 81.589119 
L 143.5523 81.589119 
L 143.5523 216.523301 
z
" style="fill:#eeeeee;stroke:#8f8f8f;stroke-linejoin:miter;stroke-width:1.5;"/>
   </g>
   <g id="patch_5">
    <path clip-path="url(#p15d5f49dbe)" d="M 184.6053 181.760646 
L 217.4477 181.760646 
L 217.4477 38.227358 
L 184.6053 38.227358 
L 184.6053 181.760646 
z
" style="fill:#eeeeee;stroke:#8f8f8f;stroke-linejoin:miter;stroke-width:1.5;"/>
   </g>
   <g id="PathCollection_1"/>
   <g id="PathCollection_2"/>
   <g id="PathCollection_3"/>
   <g id="PathCollection_4"/>
   <g id="line2d_8">
    <path clip-path="url(#p15d5f49dbe)" d="M 118.9205 249.029972 
L 118.9205 259.885061 
" style="fill:none;stroke:#8f8f8f;stroke-linecap:round;stroke-width:1.5;"/>
   </g>
   <g id="line2d_9">
    <path clip-path="url(#p15d5f49dbe)" d="M 118.9205 123.456657 
L 118.9205 120.775845 
" style="fill:none;stroke:#8f8f8f;stroke-linecap:round;stroke-width:1.5;"/>
   </g>
   <g id="line2d_10">
    <path clip-path="url(#p15d5f49dbe)" d="M 110.7099 259.885061 
L 127.1311 259.885061 
" style="fill:none;stroke:#8f8f8f;stroke-linecap:round;stroke-width:1.5;"/>
   </g>
   <g id="line2d_11">
    <path clip-path="url(#p15d5f49dbe)" d="M 110.7099 120.775845 
L 127.1311 120.775845 
" style="fill:none;stroke:#8f8f8f;stroke-linecap:round;stroke-width:1.5;"/>
   </g>
   <g id="line2d_12"/>
   <g id="line2d_13">
    <path clip-path="url(#p15d5f49dbe)" d="M 159.9735 216.523301 
L 159.9735 227.77392 
" style="fill:none;stroke:#8f8f8f;stroke-linecap:round;stroke-width:1.5;"/>
   </g>
   <g id="line2d_14">
    <path clip-path="url(#p15d5f49dbe)" d="M 159.9735 81.589119 
L 159.9735 80.40253 
" style="fill:none;stroke:#8f8f8f;stroke-linecap:round;stroke-width:1.5;"/>
   </g>
   <g id="line2d_15">
    <path clip-path="url(#p15d5f49dbe)" d="M 151.7629 227.77392 
L 168.1841 227.77392 
" style="fill:none;stroke:#8f8f8f;stroke-linecap:round;stroke-width:1.5;"/>
   </g>
   <g id="line2d_16">
    <path clip-path="url(#p15d5f49dbe)" d="M 151.7629 80.40253 
L 168.1841 80.40253 
" style="fill:none;stroke:#8f8f8f;stroke-linecap:round;stroke-width:1.5;"/>
   </g>
   <g id="line2d_17"/>
   <g id="line2d_18">
    <path clip-path="url(#p15d5f49dbe)" d="M 201.0265 181.760646 
L 201.0265 194.022063 
" style="fill:none;stroke:#8f8f8f;stroke-linecap:round;stroke-width:1.5;"/>
   </g>
   <g id="line2d_19">
    <path clip-path="url(#p15d5f49dbe)" d="M 201.0265 38.227358 
L 201.0265 37.040769 
" style="fill:none;stroke:#8f8f8f;stroke-linecap:round;stroke-width:1.5;"/>
   </g>
   <g id="line2d_20">
    <path clip-path="url(#p15d5f49dbe)" d="M 192.8159 194.022063 
L 209.2371 194.022063 
" style="fill:none;stroke:#8f8f8f;stroke-linecap:round;stroke-width:1.5;"/>
   </g>
   <g id="line2d_21">
    <path clip-path="url(#p15d5f49dbe)" d="M 192.8159 37.040769 
L 209.2371 37.040769 
" style="fill:none;stroke:#8f8f8f;stroke-linecap:round;stroke-width:1.5;"/>
   </g>
   <g id="line2d_22"/>
   <g id="line2d_23">
    <path clip-path="url(#p15d5f49dbe)" d="M 102.4993 184.880935 
L 135.3417 184.880935 
" style="fill:none;stroke:#8f8f8f;stroke-linecap:round;stroke-width:1.5;"/>
   </g>
   <g id="line2d_24">
    <path clip-path="url(#p15d5f49dbe)" d="M 143.5523 147.378871 
L 176.3947 147.378871 
" style="fill:none;stroke:#8f8f8f;stroke-linecap:round;stroke-width:1.5;"/>
   </g>
   <g id="line2d_25">
    <path clip-path="url(#p15d5f49dbe)" d="M 184.6053 108.148197 
L 217.4477 108.148197 
" style="fill:none;stroke:#8f8f8f;stroke-linecap:round;stroke-width:1.5;"/>
   </g>
   <g id="patch_6">
    <path d="M 98.394 274.998431 
L 98.394 21.869 
" style="fill:none;stroke:#262626;stroke-linecap:square;stroke-linejoin:miter;stroke-width:1.25;"/>
   </g>
   <g id="patch_7">
    <path d="M 221.553 274.998431 
L 221.553 21.869 
" style="fill:none;stroke:#262626;stroke-linecap:square;stroke-linejoin:miter;stroke-width:1.25;"/>
   </g>
   <g id="patch_8">
    <path d="M 98.394 274.998431 
L 221.553 274.998431 
" style="fill:none;stroke:#262626;stroke-linecap:square;stroke-linejoin:miter;stroke-width:1.25;"/>
   </g>
   <g id="patch_9">
    <path d="M 98.394 21.869 
L 221.553 21.869 
" style="fill:none;stroke:#262626;stroke-linecap:square;stroke-linejoin:miter;stroke-width:1.25;"/>
   </g>
   <g id="PathCollection_5">
    <defs>
     <path d="M 0 4 
C 1.060812 4 2.078319 3.578535 2.828427 2.828427 
C 3.578535 2.078319 4 1.060812 4 0 
C 4 -1.060812 3.578535 -2.078319 2.828427 -2.828427 
C 2.078319 -3.578535 1.060812 -4 0 -4 
C -1.060812 -4 -2.078319 -3.578535 -2.828427 -2.828427 
C -3.578535 -2.078319 -4 -1.060812 -4 0 
C -4 1.060812 -3.578535 2.078319 -2.828427 2.828427 
C -2.078319 3.578535 -1.060812 4 0 4 
z
" id="m5c44912bdc"/>
    </defs>
    <g clip-path="url(#p15d5f49dbe)">
     <use style="fill:#0072b2;" x="105.128909" xlink:href="#m5c44912bdc" y="245.411609"/>
    </g>
   </g>
   <g id="PathCollection_6">
    <defs>
     <path d="M 0 4 
C 1.060812 4 2.078319 3.578535 2.828427 2.828427 
C 3.578535 2.078319 4 1.060812 4 0 
C 4 -1.060812 3.578535 -2.078319 2.828427 -2.828427 
C 2.078319 -3.578535 1.060812 -4 0 -4 
C -1.060812 -4 -2.078319 -3.578535 -2.828427 -2.828427 
C -3.578535 -2.078319 -4 -1.060812 -4 0 
C -4 1.060812 -3.578535 2.078319 -2.828427 2.828427 
C -2.078319 3.578535 -1.060812 4 0 4 
z
" id="m135a1d35e0"/>
    </defs>
    <g clip-path="url(#p15d5f49dbe)">
     <use style="fill:#d55e00;" x="115.865291" xlink:href="#m135a1d35e0" y="259.885061"/>
    </g>
   </g>
   <g id="PathCollection_7">
    <defs>
     <path d="M 0 4 
C 1.060812 4 2.078319 3.578535 2.828427 2.828427 
C 3.578535 2.078319 4 1.060812 4 0 
C 4 -1.060812 3.578535 -2.078319 2.828427 -2.828427 
C 2.078319 -3.578535 1.060812 -4 0 -4 
C -1.060812 -4 -2.078319 -3.578535 -2.828427 -2.828427 
C -3.578535 -2.078319 -4 -1.060812 -4 0 
C -4 1.060812 -3.578535 2.078319 -2.828427 2.828427 
C -2.078319 3.578535 -1.060812 4 0 4 
z
" id="m010ab37a0c"/>
    </defs>
    <g clip-path="url(#p15d5f49dbe)">
     <use style="fill:#009e73;" x="121.684874" xlink:href="#m010ab37a0c" y="124.350261"/>
    </g>
   </g>
   <g id="PathCollection_8">
    <defs>
     <path d="M 0 4 
C 1.060812 4 2.078319 3.578535 2.828427 2.828427 
C 3.578535 2.078319 4 1.060812 4 0 
C 4 -1.060812 3.578535 -2.078319 2.828427 -2.828427 
C 2.078319 -3.578535 1.060812 -4 0 -4 
C -1.060812 -4 -2.078319 -3.578535 -2.828427 -2.828427 
C -3.578535 -2.078319 -4 -1.060812 -4 0 
C -4 1.060812 -3.578535 2.078319 -2.828427 2.828427 
C -2.078319 3.578535 -1.060812 4 0 4 
z
" id="mc52367e5ff"/>
    </defs>
    <g clip-path="url(#p15d5f49dbe)">
     <use style="fill:#f0e442;" x="132.982292" xlink:href="#mc52367e5ff" y="120.775845"/>
    </g>
   </g>
   <g id="PathCollection_9">
    <g clip-path="url(#p15d5f49dbe)">
     <use style="fill:#0072b2;" x="145.865579" xlink:href="#m5c44912bdc" y="212.773094"/>
    </g>
   </g>
   <g id="PathCollection_10">
    <g clip-path="url(#p15d5f49dbe)">
     <use style="fill:#d55e00;" x="155.636879" xlink:href="#m135a1d35e0" y="227.77392"/>
    </g>
   </g>
   <g id="PathCollection_11">
    <g clip-path="url(#p15d5f49dbe)">
     <use style="fill:#009e73;" x="164.181504" xlink:href="#m010ab37a0c" y="80.40253"/>
    </g>
   </g>
   <g id="PathCollection_12">
    <g clip-path="url(#p15d5f49dbe)">
     <use style="fill:#f0e442;" x="172.686491" xlink:href="#mc52367e5ff" y="81.984648"/>
    </g>
   </g>
   <g id="PathCollection_13">
    <g clip-path="url(#p15d5f49dbe)">
     <use style="fill:#0072b2;" x="190.396936" xlink:href="#m5c44912bdc" y="177.673507"/>
    </g>
   </g>
   <g id="PathCollection_14">
    <g clip-path="url(#p15d5f49dbe)">
     <use style="fill:#d55e00;" x="197.622303" xlink:href="#m135a1d35e0" y="194.022063"/>
    </g>
   </g>
   <g id="PathCollection_15">
    <g clip-path="url(#p15d5f49dbe)">
     <use style="fill:#009e73;" x="204.899692" xlink:href="#m010ab37a0c" y="37.040769"/>
    </g>
   </g>
   <g id="PathCollection_16">
    <g clip-path="url(#p15d5f49dbe)">
     <use style="fill:#f0e442;" x="214.095178" xlink:href="#mc52367e5ff" y="38.622888"/>
    </g>
   </g>
  </g>
  <g id="axes_2">
   <g id="patch_10">
    <path d="M 290.697 274.998431 
L 413.856 274.998431 
L 413.856 21.869 
L 290.697 21.869 
z
" style="fill:#ffffff;"/>
   </g>
   <g id="matplotlib.axis_3">
    <g id="xtick_4">
     <g id="line2d_26">
      <g>
       <use style="fill:#262626;stroke:#262626;stroke-width:1.25;" x="311.2235" xlink:href="#m013b32e75b" y="274.998431"/>
      </g>
     </g>
     <g id="text_9">
      <text style="fill:#262626;font-family:DejaVu Sans;font-size:15.4px;font-style:normal;font-weight:normal;" transform="translate(247.118435 330.71884)rotate(-30)">One-pass</text>
     </g>
    </g>
    <g id="xtick_5">
     <g id="line2d_27">
      <g>
       <use style="fill:#262626;stroke:#262626;stroke-width:1.25;" x="352.2765" xlink:href="#m013b32e75b" y="274.998431"/>
      </g>
     </g>
     <g id="text_10">
      <text style="fill:#262626;font-family:DejaVu Sans;font-size:15.4px;font-style:normal;font-weight:normal;" transform="translate(288.146429 330.733278)rotate(-30)">Two-pass</text>
     </g>
    </g>
    <g id="xtick_6">
     <g id="line2d_28">
      <g>
       <use style="fill:#262626;stroke:#262626;stroke-width:1.25;" x="393.3295" xlink:href="#m013b32e75b" y="274.998431"/>
      </g>
     </g>
     <g id="text_11">
      <text style="fill:#262626;font-family:DejaVu Sans;font-size:15.4px;font-style:normal;font-weight:normal;" transform="translate(315.341669 338.734059)rotate(-30)">Ref. guided</text>
     </g>
    </g>
   </g>
   <g id="matplotlib.axis_4">
    <g id="ytick_5">
     <g id="line2d_29">
      <g>
       <use style="fill:#262626;stroke:#262626;stroke-width:1.25;" x="290.697" xlink:href="#ma63e69e51f" y="265.992808"/>
      </g>
     </g>
     <g id="text_12">
      <text style="fill:#262626;font-family:DejaVu Sans;font-size:15.4px;font-style:normal;font-weight:normal;text-anchor:end;" transform="rotate(-0, 281.197, 271.843605)" x="281.197" y="271.843605">36</text>
     </g>
    </g>
    <g id="ytick_6">
     <g id="line2d_30">
      <g>
       <use style="fill:#262626;stroke:#262626;stroke-width:1.25;" x="290.697" xlink:href="#ma63e69e51f" y="225.108515"/>
      </g>
     </g>
     <g id="text_13">
      <text style="fill:#262626;font-family:DejaVu Sans;font-size:15.4px;font-style:normal;font-weight:normal;text-anchor:end;" transform="rotate(-0, 281.197, 230.959312)" x="281.197" y="230.959312">38</text>
     </g>
    </g>
    <g id="ytick_7">
     <g id="line2d_31">
      <g>
       <use style="fill:#262626;stroke:#262626;stroke-width:1.25;" x="290.697" xlink:href="#ma63e69e51f" y="184.224223"/>
      </g>
     </g>
     <g id="text_14">
      <text style="fill:#262626;font-family:DejaVu Sans;font-size:15.4px;font-style:normal;font-weight:normal;text-anchor:end;" transform="rotate(-0, 281.197, 190.07502)" x="281.197" y="190.07502">40</text>
     </g>
    </g>
    <g id="ytick_8">
     <g id="line2d_32">
      <g>
       <use style="fill:#262626;stroke:#262626;stroke-width:1.25;" x="290.697" xlink:href="#ma63e69e51f" y="143.33993"/>
      </g>
     </g>
     <g id="text_15">
      <text style="fill:#262626;font-family:DejaVu Sans;font-size:15.4px;font-style:normal;font-weight:normal;text-anchor:end;" transform="rotate(-0, 281.197, 149.190727)" x="281.197" y="149.190727">42</text>
     </g>
    </g>
    <g id="ytick_9">
     <g id="line2d_33">
      <g>
       <use style="fill:#262626;stroke:#262626;stroke-width:1.25;" x="290.697" xlink:href="#ma63e69e51f" y="102.455638"/>
      </g>
     </g>
     <g id="text_16">
      <text style="fill:#262626;font-family:DejaVu Sans;font-size:15.4px;font-style:normal;font-weight:normal;text-anchor:end;" transform="rotate(-0, 281.197, 108.306434)" x="281.197" y="108.306434">44</text>
     </g>
    </g>
    <g id="ytick_10">
     <g id="line2d_34">
      <g>
       <use style="fill:#262626;stroke:#262626;stroke-width:1.25;" x="290.697" xlink:href="#ma63e69e51f" y="61.571345"/>
      </g>
     </g>
     <g id="text_17">
      <text style="fill:#262626;font-family:DejaVu Sans;font-size:15.4px;font-style:normal;font-weight:normal;text-anchor:end;" transform="rotate(-0, 281.197, 67.422142)" x="281.197" y="67.422142">46</text>
     </g>
    </g>
    <g id="text_18">
     <text style="fill:#262626;font-family:DejaVu Sans;font-size:16.8px;font-style:normal;font-weight:normal;text-anchor:middle;" transform="rotate(-90, 254.106625, 148.433716)" x="254.106625" y="148.433716">Precision (%)</text>
    </g>
   </g>
   <g id="patch_11">
    <path clip-path="url(#p5d9a3265c8)" d="M 294.8023 258.327003 
L 327.6447 258.327003 
L 327.6447 205.177423 
L 294.8023 205.177423 
L 294.8023 258.327003 
z
" style="fill:#eeeeee;stroke:#8f8f8f;stroke-linejoin:miter;stroke-width:1.5;"/>
   </g>
   <g id="patch_12">
    <path clip-path="url(#p5d9a3265c8)" d="M 335.8553 168.892613 
L 368.6977 168.892613 
L 368.6977 135.674125 
L 335.8553 135.674125 
L 335.8553 168.892613 
z
" style="fill:#eeeeee;stroke:#8f8f8f;stroke-linejoin:miter;stroke-width:1.5;"/>
   </g>
   <g id="patch_13">
    <path clip-path="url(#p5d9a3265c8)" d="M 376.9083 101.944584 
L 409.7507 101.944584 
L 409.7507 63.104506 
L 376.9083 63.104506 
L 376.9083 101.944584 
z
" style="fill:#eeeeee;stroke:#8f8f8f;stroke-linejoin:miter;stroke-width:1.5;"/>
   </g>
   <g id="PathCollection_17"/>
   <g id="PathCollection_18"/>
   <g id="PathCollection_19"/>
   <g id="PathCollection_20"/>
   <g id="line2d_35">
    <path clip-path="url(#p5d9a3265c8)" d="M 311.2235 258.327003 
L 311.2235 259.860164 
" style="fill:none;stroke:#8f8f8f;stroke-linecap:round;stroke-width:1.5;"/>
   </g>
   <g id="line2d_36">
    <path clip-path="url(#p5d9a3265c8)" d="M 311.2235 205.177423 
L 311.2235 182.180008 
" style="fill:none;stroke:#8f8f8f;stroke-linecap:round;stroke-width:1.5;"/>
   </g>
   <g id="line2d_37">
    <path clip-path="url(#p5d9a3265c8)" d="M 303.0129 259.860164 
L 319.4341 259.860164 
" style="fill:none;stroke:#8f8f8f;stroke-linecap:round;stroke-width:1.5;"/>
   </g>
   <g id="line2d_38">
    <path clip-path="url(#p5d9a3265c8)" d="M 303.0129 182.180008 
L 319.4341 182.180008 
" style="fill:none;stroke:#8f8f8f;stroke-linecap:round;stroke-width:1.5;"/>
   </g>
   <g id="line2d_39"/>
   <g id="line2d_40">
    <path clip-path="url(#p5d9a3265c8)" d="M 352.2765 168.892613 
L 352.2765 171.958935 
" style="fill:none;stroke:#8f8f8f;stroke-linecap:round;stroke-width:1.5;"/>
   </g>
   <g id="line2d_41">
    <path clip-path="url(#p5d9a3265c8)" d="M 352.2765 135.674125 
L 352.2765 112.676711 
" style="fill:none;stroke:#8f8f8f;stroke-linecap:round;stroke-width:1.5;"/>
   </g>
   <g id="line2d_42">
    <path clip-path="url(#p5d9a3265c8)" d="M 344.0659 171.958935 
L 360.4871 171.958935 
" style="fill:none;stroke:#8f8f8f;stroke-linecap:round;stroke-width:1.5;"/>
   </g>
   <g id="line2d_43">
    <path clip-path="url(#p5d9a3265c8)" d="M 344.0659 112.676711 
L 360.4871 112.676711 
" style="fill:none;stroke:#8f8f8f;stroke-linecap:round;stroke-width:1.5;"/>
   </g>
   <g id="line2d_44"/>
   <g id="line2d_45">
    <path clip-path="url(#p5d9a3265c8)" d="M 393.3295 101.944584 
L 393.3295 106.544067 
" style="fill:none;stroke:#8f8f8f;stroke-linecap:round;stroke-width:1.5;"/>
   </g>
   <g id="line2d_46">
    <path clip-path="url(#p5d9a3265c8)" d="M 393.3295 63.104506 
L 393.3295 37.040769 
" style="fill:none;stroke:#8f8f8f;stroke-linecap:round;stroke-width:1.5;"/>
   </g>
   <g id="line2d_47">
    <path clip-path="url(#p5d9a3265c8)" d="M 385.1189 106.544067 
L 401.5401 106.544067 
" style="fill:none;stroke:#8f8f8f;stroke-linecap:round;stroke-width:1.5;"/>
   </g>
   <g id="line2d_48">
    <path clip-path="url(#p5d9a3265c8)" d="M 385.1189 37.040769 
L 401.5401 37.040769 
" style="fill:none;stroke:#8f8f8f;stroke-linecap:round;stroke-width:1.5;"/>
   </g>
   <g id="line2d_49"/>
   <g id="line2d_50">
    <path clip-path="url(#p5d9a3265c8)" d="M 294.8023 235.329589 
L 327.6447 235.329589 
" style="fill:none;stroke:#8f8f8f;stroke-linecap:round;stroke-width:1.5;"/>
   </g>
   <g id="line2d_51">
    <path clip-path="url(#p5d9a3265c8)" d="M 335.8553 155.605218 
L 368.6977 155.605218 
" style="fill:none;stroke:#8f8f8f;stroke-linecap:round;stroke-width:1.5;"/>
   </g>
   <g id="line2d_52">
    <path clip-path="url(#p5d9a3265c8)" d="M 376.9083 86.10192 
L 409.7507 86.10192 
" style="fill:none;stroke:#8f8f8f;stroke-linecap:round;stroke-width:1.5;"/>
   </g>
   <g id="patch_14">
    <path d="M 290.697 274.998431 
L 290.697 21.869 
" style="fill:none;stroke:#262626;stroke-linecap:square;stroke-linejoin:miter;stroke-width:1.25;"/>
   </g>
   <g id="patch_15">
    <path d="M 413.856 274.998431 
L 413.856 21.869 
" style="fill:none;stroke:#262626;stroke-linecap:square;stroke-linejoin:miter;stroke-width:1.25;"/>
   </g>
   <g id="patch_16">
    <path d="M 290.697 274.998431 
L 413.856 274.998431 
" style="fill:none;stroke:#262626;stroke-linecap:square;stroke-linejoin:miter;stroke-width:1.25;"/>
   </g>
   <g id="patch_17">
    <path d="M 290.697 21.869 
L 413.856 21.869 
" style="fill:none;stroke:#262626;stroke-linecap:square;stroke-linejoin:miter;stroke-width:1.25;"/>
   </g>
   <g id="PathCollection_21">
    <g clip-path="url(#p5d9a3265c8)">
     <use style="fill:#0072b2;" x="298.20257" xlink:href="#m5c44912bdc" y="212.843228"/>
    </g>
   </g>
   <g id="PathCollection_22">
    <g clip-path="url(#p5d9a3265c8)">
     <use style="fill:#d55e00;" x="306.29005" xlink:href="#m135a1d35e0" y="182.180008"/>
    </g>
   </g>
   <g id="PathCollection_23">
    <g clip-path="url(#p5d9a3265c8)">
     <use style="fill:#009e73;" x="313.831029" xlink:href="#m010ab37a0c" y="257.81595"/>
    </g>
   </g>
   <g id="PathCollection_24">
    <g clip-path="url(#p5d9a3265c8)">
     <use style="fill:#f0e442;" x="324.105751" xlink:href="#mc52367e5ff" y="259.860164"/>
    </g>
   </g>
   <g id="PathCollection_25">
    <g clip-path="url(#p5d9a3265c8)">
     <use style="fill:#0072b2;" x="339.967419" xlink:href="#m5c44912bdc" y="143.33993"/>
    </g>
   </g>
   <g id="PathCollection_26">
    <g clip-path="url(#p5d9a3265c8)">
     <use style="fill:#d55e00;" x="349.992322" xlink:href="#m135a1d35e0" y="112.676711"/>
    </g>
   </g>
   <g id="PathCollection_27">
    <g clip-path="url(#p5d9a3265c8)">
     <use style="fill:#009e73;" x="356.869761" xlink:href="#m010ab37a0c" y="167.870506"/>
    </g>
   </g>
   <g id="PathCollection_28">
    <g clip-path="url(#p5d9a3265c8)">
     <use style="fill:#f0e442;" x="365.145131" xlink:href="#mc52367e5ff" y="171.958935"/>
    </g>
   </g>
   <g id="PathCollection_29">
    <g clip-path="url(#p5d9a3265c8)">
     <use style="fill:#0072b2;" x="379.478815" xlink:href="#m5c44912bdc" y="71.792418"/>
    </g>
   </g>
   <g id="PathCollection_30">
    <g clip-path="url(#p5d9a3265c8)">
     <use style="fill:#d55e00;" x="387.175442" xlink:href="#m135a1d35e0" y="37.040769"/>
    </g>
   </g>
   <g id="PathCollection_31">
    <g clip-path="url(#p5d9a3265c8)">
     <use style="fill:#009e73;" x="398.422082" xlink:href="#m010ab37a0c" y="100.411423"/>
    </g>
   </g>
   <g id="PathCollection_32">
    <g clip-path="url(#p5d9a3265c8)">
     <use style="fill:#f0e442;" x="405.495776" xlink:href="#mc52367e5ff" y="106.544067"/>
    </g>
   </g>
  </g>
  <g id="text_19">
   <text style="fill:#262626;font-family:DejaVu Sans;font-size:20.16px;font-style:normal;font-weight:normal;text-anchor:middle;" transform="rotate(-0, 216, 22.51845)" x="216" y="22.51845">Human Nanopore cDNA</text>
  </g>
 </g>
 <defs>
  <clipPath id="p15d5f49dbe">
   <rect height="253.129431" width="123.159" x="98.394" y="21.869"/>
  </clipPath>
  <clipPath id="p5d9a3265c8">
   <rect height="253.129431" width="123.159" x="290.697" y="21.869"/>
  </clipPath>
 </defs>
</svg>
