<?xml version="1.0" encoding="utf-8" standalone="no"?>
<!DOCTYPE svg PUBLIC "-//W3C//DTD SVG 1.1//EN"
  "http://www.w3.org/Graphics/SVG/1.1/DTD/svg11.dtd">
<!-- Created with matplotlib (https://matplotlib.org/) -->
<svg height="396pt" version="1.1" viewBox="0 0 720 396" width="720pt" xmlns="http://www.w3.org/2000/svg" xmlns:xlink="http://www.w3.org/1999/xlink">
 <defs>
  <style type="text/css">
*{stroke-linecap:butt;stroke-linejoin:round;}
  </style>
 </defs>
 <g id="figure_1">
  <g id="patch_1">
   <path d="M 0 396 
L 720 396 
L 720 0 
L 0 0 
z
" style="fill:#ffffff;"/>
  </g>
  <g id="axes_1">
   <g id="patch_2">
    <path d="M 89.944 281.977935 
L 373.308082 281.977935 
L 373.308082 58.944 
L 89.944 58.944 
z
" style="fill:#ffffff;"/>
   </g>
   <g id="matplotlib.axis_1">
    <g id="xtick_1">
     <g id="line2d_1">
      <defs>
       <path d="M 0 0 
L 0 6 
" id="m6f3ea0f4f7" style="stroke:#262626;stroke-width:1.25;"/>
      </defs>
      <g>
       <use style="fill:#262626;stroke:#262626;stroke-width:1.25;" x="148.283664" xlink:href="#m6f3ea0f4f7" y="281.977935"/>
      </g>
     </g>
     <g id="text_1">
      <text style="fill:#262626;font-family:DejaVu Sans;font-size:15.4px;font-style:normal;font-weight:normal;" transform="translate(84.751664 337.367484)rotate(-30)">One pass</text>
     </g>
    </g>
    <g id="xtick_2">
     <g id="line2d_2">
      <g>
       <use style="fill:#262626;stroke:#262626;stroke-width:1.25;" x="231.626041" xlink:href="#m6f3ea0f4f7" y="281.977935"/>
      </g>
     </g>
     <g id="text_2">
      <text style="fill:#262626;font-family:DejaVu Sans;font-size:15.4px;font-style:normal;font-weight:normal;" transform="translate(137.495948 345.077109)rotate(-30)">FLAIR post-</text>
      <text style="fill:#262626;font-family:DejaVu Sans;font-size:15.4px;font-style:normal;font-weight:normal;" transform="translate(154.022396 355.447945)rotate(-30)">alignment</text>
      <text style="fill:#262626;font-family:DejaVu Sans;font-size:15.4px;font-style:normal;font-weight:normal;" transform="translate(162.486337 370.473671)rotate(-30)">correction</text>
     </g>
    </g>
    <g id="xtick_3">
     <g id="line2d_3">
      <g>
       <use style="fill:#262626;stroke:#262626;stroke-width:1.25;" x="314.968418" xlink:href="#m6f3ea0f4f7" y="281.977935"/>
      </g>
     </g>
     <g id="text_3">
      <text style="fill:#262626;font-family:DejaVu Sans;font-size:15.4px;font-style:normal;font-weight:normal;" transform="translate(211.087127 355.685062)rotate(-30)">Annot. guided</text>
      <text style="fill:#262626;font-family:DejaVu Sans;font-size:15.4px;font-style:normal;font-weight:normal;" transform="translate(245.987089 355.447945)rotate(-30)">alignment</text>
     </g>
    </g>
   </g>
   <g id="matplotlib.axis_2">
    <g id="ytick_1">
     <g id="line2d_4">
      <defs>
       <path d="M 0 0 
L -6 0 
" id="md02fbe47bf" style="stroke:#262626;stroke-width:1.25;"/>
      </defs>
      <g>
       <use style="fill:#262626;stroke:#262626;stroke-width:1.25;" x="89.944" xlink:href="#md02fbe47bf" y="277.415533"/>
      </g>
     </g>
     <g id="text_4">
      <text style="fill:#262626;font-family:DejaVu Sans;font-size:15.4px;font-style:normal;font-weight:normal;text-anchor:end;" transform="rotate(-0, 80.444, 283.26633)" x="80.444" y="283.26633">0</text>
     </g>
    </g>
    <g id="ytick_2">
     <g id="line2d_5">
      <g>
       <use style="fill:#262626;stroke:#262626;stroke-width:1.25;" x="89.944" xlink:href="#md02fbe47bf" y="238.606352"/>
      </g>
     </g>
     <g id="text_5">
      <text style="fill:#262626;font-family:DejaVu Sans;font-size:15.4px;font-style:normal;font-weight:normal;text-anchor:end;" transform="rotate(-0, 80.444, 244.457149)" x="80.444" y="244.457149">10</text>
     </g>
    </g>
    <g id="ytick_3">
     <g id="line2d_6">
      <g>
       <use style="fill:#262626;stroke:#262626;stroke-width:1.25;" x="89.944" xlink:href="#md02fbe47bf" y="199.797171"/>
      </g>
     </g>
     <g id="text_6">
      <text style="fill:#262626;font-family:DejaVu Sans;font-size:15.4px;font-style:normal;font-weight:normal;text-anchor:end;" transform="rotate(-0, 80.444, 205.647968)" x="80.444" y="205.647968">20</text>
     </g>
    </g>
    <g id="ytick_4">
     <g id="line2d_7">
      <g>
       <use style="fill:#262626;stroke:#262626;stroke-width:1.25;" x="89.944" xlink:href="#md02fbe47bf" y="160.987991"/>
      </g>
     </g>
     <g id="text_7">
      <text style="fill:#262626;font-family:DejaVu Sans;font-size:15.4px;font-style:normal;font-weight:normal;text-anchor:end;" transform="rotate(-0, 80.444, 166.838788)" x="80.444" y="166.838788">30</text>
     </g>
    </g>
    <g id="ytick_5">
     <g id="line2d_8">
      <g>
       <use style="fill:#262626;stroke:#262626;stroke-width:1.25;" x="89.944" xlink:href="#md02fbe47bf" y="122.17881"/>
      </g>
     </g>
     <g id="text_8">
      <text style="fill:#262626;font-family:DejaVu Sans;font-size:15.4px;font-style:normal;font-weight:normal;text-anchor:end;" transform="rotate(-0, 80.444, 128.029607)" x="80.444" y="128.029607">40</text>
     </g>
    </g>
    <g id="ytick_6">
     <g id="line2d_9">
      <g>
       <use style="fill:#262626;stroke:#262626;stroke-width:1.25;" x="89.944" xlink:href="#md02fbe47bf" y="83.369629"/>
      </g>
     </g>
     <g id="text_9">
      <text style="fill:#262626;font-family:DejaVu Sans;font-size:15.4px;font-style:normal;font-weight:normal;text-anchor:end;" transform="rotate(-0, 80.444, 89.220426)" x="80.444" y="89.220426">50</text>
     </g>
    </g>
    <g id="text_10">
     <text style="fill:#262626;font-family:DejaVu Sans;font-size:16.8px;font-style:normal;font-weight:normal;" transform="translate(34.5413 248.951092)rotate(-90)">Incorrectly aligned</text>
     <text style="fill:#262626;font-family:DejaVu Sans;font-size:16.8px;font-style:normal;font-weight:normal;" transform="translate(53.353625 243.307342)rotate(-90)">spliced reads (%)</text>
    </g>
   </g>
   <g id="patch_3">
    <path clip-path="url(#p8d0e752366)" d="M 115.280083 270.472423 
L 147.950294 270.472423 
L 147.950294 270.436292 
L 115.280083 270.436292 
L 115.280083 270.472423 
z
" style="fill:#f2f2f2;stroke:#8f8f8f;stroke-linejoin:miter;stroke-width:1.5;"/>
   </g>
   <g id="patch_4">
    <path clip-path="url(#p8d0e752366)" d="M 148.617033 182.011745 
L 181.287245 182.011745 
L 181.287245 178.513322 
L 148.617033 178.513322 
L 148.617033 182.011745 
z
" style="fill:#eeeeee;stroke:#8f8f8f;stroke-linejoin:miter;stroke-width:1.5;"/>
   </g>
   <g id="patch_5">
    <path clip-path="url(#p8d0e752366)" d="M 198.62246 267.291148 
L 231.292672 267.291148 
L 231.292672 267.191805 
L 198.62246 267.191805 
L 198.62246 267.291148 
z
" style="fill:#f2f2f2;stroke:#8f8f8f;stroke-linejoin:miter;stroke-width:1.5;"/>
   </g>
   <g id="patch_6">
    <path clip-path="url(#p8d0e752366)" d="M 231.959411 241.367471 
L 264.629622 241.367471 
L 264.629622 239.973175 
L 231.959411 239.973175 
L 231.959411 241.367471 
z
" style="fill:#eeeeee;stroke:#8f8f8f;stroke-linejoin:miter;stroke-width:1.5;"/>
   </g>
   <g id="patch_7">
    <path clip-path="url(#p8d0e752366)" d="M 281.964837 267.337758 
L 314.635049 267.337758 
L 314.635049 267.141051 
L 281.964837 267.141051 
L 281.964837 267.337758 
z
" style="fill:#f2f2f2;stroke:#8f8f8f;stroke-linejoin:miter;stroke-width:1.5;"/>
   </g>
   <g id="patch_8">
    <path clip-path="url(#p8d0e752366)" d="M 315.301788 263.629463 
L 347.971999 263.629463 
L 347.971999 263.480842 
L 315.301788 263.480842 
L 315.301788 263.629463 
z
" style="fill:#eeeeee;stroke:#8f8f8f;stroke-linejoin:miter;stroke-width:1.5;"/>
   </g>
   <g id="PathCollection_1"/>
   <g id="PathCollection_2"/>
   <g id="PathCollection_3"/>
   <g id="PathCollection_4"/>
   <g id="patch_9">
    <path clip-path="url(#p8d0e752366)" d="M 148.283664 277.415533 
L 148.283664 277.415533 
L 148.283664 277.415533 
L 148.283664 277.415533 
z
" style="fill:#f2f2f2;stroke:#8f8f8f;stroke-linejoin:miter;stroke-width:0.75;"/>
   </g>
   <g id="patch_10">
    <path clip-path="url(#p8d0e752366)" d="M 148.283664 277.415533 
L 148.283664 277.415533 
L 148.283664 277.415533 
L 148.283664 277.415533 
z
" style="fill:#eeeeee;stroke:#8f8f8f;stroke-linejoin:miter;stroke-width:0.75;"/>
   </g>
   <g id="line2d_10">
    <path clip-path="url(#p8d0e752366)" d="M 131.615189 270.472423 
L 131.615189 270.483276 
" style="fill:none;stroke:#8f8f8f;stroke-linecap:round;stroke-width:1.5;"/>
   </g>
   <g id="line2d_11">
    <path clip-path="url(#p8d0e752366)" d="M 131.615189 270.436292 
L 131.615189 270.405041 
" style="fill:none;stroke:#8f8f8f;stroke-linecap:round;stroke-width:1.5;"/>
   </g>
   <g id="line2d_12">
    <path clip-path="url(#p8d0e752366)" d="M 123.447636 270.483276 
L 139.782741 270.483276 
" style="fill:none;stroke:#8f8f8f;stroke-linecap:round;stroke-width:1.5;"/>
   </g>
   <g id="line2d_13">
    <path clip-path="url(#p8d0e752366)" d="M 123.447636 270.405041 
L 139.782741 270.405041 
" style="fill:none;stroke:#8f8f8f;stroke-linecap:round;stroke-width:1.5;"/>
   </g>
   <g id="line2d_14"/>
   <g id="line2d_15">
    <path clip-path="url(#p8d0e752366)" d="M 164.952139 182.011745 
L 164.952139 182.250774 
" style="fill:none;stroke:#8f8f8f;stroke-linecap:round;stroke-width:1.5;"/>
   </g>
   <g id="line2d_16">
    <path clip-path="url(#p8d0e752366)" d="M 164.952139 178.513322 
L 164.952139 178.291906 
" style="fill:none;stroke:#8f8f8f;stroke-linecap:round;stroke-width:1.5;"/>
   </g>
   <g id="line2d_17">
    <path clip-path="url(#p8d0e752366)" d="M 156.784586 182.250774 
L 173.119692 182.250774 
" style="fill:none;stroke:#8f8f8f;stroke-linecap:round;stroke-width:1.5;"/>
   </g>
   <g id="line2d_18">
    <path clip-path="url(#p8d0e752366)" d="M 156.784586 178.291906 
L 173.119692 178.291906 
" style="fill:none;stroke:#8f8f8f;stroke-linecap:round;stroke-width:1.5;"/>
   </g>
   <g id="line2d_19"/>
   <g id="line2d_20">
    <path clip-path="url(#p8d0e752366)" d="M 214.957566 267.291148 
L 214.957566 267.351681 
" style="fill:none;stroke:#8f8f8f;stroke-linecap:round;stroke-width:1.5;"/>
   </g>
   <g id="line2d_21">
    <path clip-path="url(#p8d0e752366)" d="M 214.957566 267.191805 
L 214.957566 267.191805 
" style="fill:none;stroke:#8f8f8f;stroke-linecap:round;stroke-width:1.5;"/>
   </g>
   <g id="line2d_22">
    <path clip-path="url(#p8d0e752366)" d="M 206.790013 267.351681 
L 223.125119 267.351681 
" style="fill:none;stroke:#8f8f8f;stroke-linecap:round;stroke-width:1.5;"/>
   </g>
   <g id="line2d_23">
    <path clip-path="url(#p8d0e752366)" d="M 206.790013 267.191805 
L 223.125119 267.191805 
" style="fill:none;stroke:#8f8f8f;stroke-linecap:round;stroke-width:1.5;"/>
   </g>
   <g id="line2d_24"/>
   <g id="line2d_25">
    <path clip-path="url(#p8d0e752366)" d="M 248.294516 241.367471 
L 248.294516 241.608845 
" style="fill:none;stroke:#8f8f8f;stroke-linecap:round;stroke-width:1.5;"/>
   </g>
   <g id="line2d_26">
    <path clip-path="url(#p8d0e752366)" d="M 248.294516 239.973175 
L 248.294516 239.35865 
" style="fill:none;stroke:#8f8f8f;stroke-linecap:round;stroke-width:1.5;"/>
   </g>
   <g id="line2d_27">
    <path clip-path="url(#p8d0e752366)" d="M 240.126963 241.608845 
L 256.462069 241.608845 
" style="fill:none;stroke:#8f8f8f;stroke-linecap:round;stroke-width:1.5;"/>
   </g>
   <g id="line2d_28">
    <path clip-path="url(#p8d0e752366)" d="M 240.126963 239.35865 
L 256.462069 239.35865 
" style="fill:none;stroke:#8f8f8f;stroke-linecap:round;stroke-width:1.5;"/>
   </g>
   <g id="line2d_29"/>
   <g id="line2d_30">
    <path clip-path="url(#p8d0e752366)" d="M 298.299943 267.337758 
L 298.299943 267.347974 
" style="fill:none;stroke:#8f8f8f;stroke-linecap:round;stroke-width:1.5;"/>
   </g>
   <g id="line2d_31">
    <path clip-path="url(#p8d0e752366)" d="M 298.299943 267.141051 
L 298.299943 266.900842 
" style="fill:none;stroke:#8f8f8f;stroke-linecap:round;stroke-width:1.5;"/>
   </g>
   <g id="line2d_32">
    <path clip-path="url(#p8d0e752366)" d="M 290.13239 267.347974 
L 306.467496 267.347974 
" style="fill:none;stroke:#8f8f8f;stroke-linecap:round;stroke-width:1.5;"/>
   </g>
   <g id="line2d_33">
    <path clip-path="url(#p8d0e752366)" d="M 290.13239 266.900842 
L 306.467496 266.900842 
" style="fill:none;stroke:#8f8f8f;stroke-linecap:round;stroke-width:1.5;"/>
   </g>
   <g id="line2d_34"/>
   <g id="line2d_35">
    <path clip-path="url(#p8d0e752366)" d="M 331.636894 263.629463 
L 331.636894 263.822004 
" style="fill:none;stroke:#8f8f8f;stroke-linecap:round;stroke-width:1.5;"/>
   </g>
   <g id="line2d_36">
    <path clip-path="url(#p8d0e752366)" d="M 331.636894 263.480842 
L 331.636894 263.409274 
" style="fill:none;stroke:#8f8f8f;stroke-linecap:round;stroke-width:1.5;"/>
   </g>
   <g id="line2d_37">
    <path clip-path="url(#p8d0e752366)" d="M 323.469341 263.822004 
L 339.804446 263.822004 
" style="fill:none;stroke:#8f8f8f;stroke-linecap:round;stroke-width:1.5;"/>
   </g>
   <g id="line2d_38">
    <path clip-path="url(#p8d0e752366)" d="M 323.469341 263.409274 
L 339.804446 263.409274 
" style="fill:none;stroke:#8f8f8f;stroke-linecap:round;stroke-width:1.5;"/>
   </g>
   <g id="line2d_39"/>
   <g id="line2d_40">
    <path clip-path="url(#p8d0e752366)" d="M 115.280083 270.457757 
L 147.950294 270.457757 
" style="fill:none;stroke:#8f8f8f;stroke-linecap:round;stroke-width:1.5;"/>
   </g>
   <g id="line2d_41">
    <path clip-path="url(#p8d0e752366)" d="M 148.617033 180.259598 
L 181.287245 180.259598 
" style="fill:none;stroke:#8f8f8f;stroke-linecap:round;stroke-width:1.5;"/>
   </g>
   <g id="line2d_42">
    <path clip-path="url(#p8d0e752366)" d="M 198.62246 267.259616 
L 231.292672 267.259616 
" style="fill:none;stroke:#8f8f8f;stroke-linecap:round;stroke-width:1.5;"/>
   </g>
   <g id="line2d_43">
    <path clip-path="url(#p8d0e752366)" d="M 231.959411 240.732515 
L 264.629622 240.732515 
" style="fill:none;stroke:#8f8f8f;stroke-linecap:round;stroke-width:1.5;"/>
   </g>
   <g id="line2d_44">
    <path clip-path="url(#p8d0e752366)" d="M 281.964837 267.277737 
L 314.635049 267.277737 
" style="fill:none;stroke:#8f8f8f;stroke-linecap:round;stroke-width:1.5;"/>
   </g>
   <g id="line2d_45">
    <path clip-path="url(#p8d0e752366)" d="M 315.301788 263.53499 
L 347.971999 263.53499 
" style="fill:none;stroke:#8f8f8f;stroke-linecap:round;stroke-width:1.5;"/>
   </g>
   <g id="patch_11">
    <path d="M 89.944 281.977935 
L 89.944 58.944 
" style="fill:none;stroke:#262626;stroke-linecap:square;stroke-linejoin:miter;stroke-width:1.25;"/>
   </g>
   <g id="patch_12">
    <path d="M 373.308082 281.977935 
L 373.308082 58.944 
" style="fill:none;stroke:#262626;stroke-linecap:square;stroke-linejoin:miter;stroke-width:1.25;"/>
   </g>
   <g id="patch_13">
    <path d="M 89.944 281.977935 
L 373.308082 281.977935 
" style="fill:none;stroke:#262626;stroke-linecap:square;stroke-linejoin:miter;stroke-width:1.25;"/>
   </g>
   <g id="patch_14">
    <path d="M 89.944 58.944 
L 373.308082 58.944 
" style="fill:none;stroke:#262626;stroke-linecap:square;stroke-linejoin:miter;stroke-width:1.25;"/>
   </g>
   <g id="PathCollection_5">
    <defs>
     <path d="M 0 4 
C 1.060812 4 2.078319 3.578535 2.828427 2.828427 
C 3.578535 2.078319 4 1.060812 4 0 
C 4 -1.060812 3.578535 -2.078319 2.828427 -2.828427 
C 2.078319 -3.578535 1.060812 -4 0 -4 
C -1.060812 -4 -2.078319 -3.578535 -2.828427 -2.828427 
C -3.578535 -2.078319 -4 -1.060812 -4 0 
C -4 1.060812 -3.578535 2.078319 -2.828427 2.828427 
C -2.078319 3.578535 -1.060812 4 0 4 
z
" id="C0_0_30624c0e0d"/>
    </defs>
    <g clip-path="url(#p8d0e752366)">
     <use style="fill:#d55e00;" x="126.397413" xlink:href="#C0_0_30624c0e0d" y="270.483276"/>
    </g>
    <g clip-path="url(#p8d0e752366)">
     <use style="fill:#d55e00;" x="139.854714" xlink:href="#C0_0_30624c0e0d" y="270.405041"/>
    </g>
    <g clip-path="url(#p8d0e752366)">
     <use style="fill:#d55e00;" x="131.959649" xlink:href="#C0_0_30624c0e0d" y="270.468805"/>
    </g>
    <g clip-path="url(#p8d0e752366)">
     <use style="fill:#d55e00;" x="132.92849" xlink:href="#C0_0_30624c0e0d" y="270.446709"/>
    </g>
   </g>
   <g id="PathCollection_6">
    <defs>
     <path d="M 0 4 
C 1.060812 4 2.078319 3.578535 2.828427 2.828427 
C 3.578535 2.078319 4 1.060812 4 0 
C 4 -1.060812 3.578535 -2.078319 2.828427 -2.828427 
C 2.078319 -3.578535 1.060812 -4 0 -4 
C -1.060812 -4 -2.078319 -3.578535 -2.828427 -2.828427 
C -3.578535 -2.078319 -4 -1.060812 -4 0 
C -4 1.060812 -3.578535 2.078319 -2.828427 2.828427 
C -2.078319 3.578535 -1.060812 4 0 4 
z
" id="C1_0_f35331f181"/>
    </defs>
    <g clip-path="url(#p8d0e752366)">
     <use style="fill:#009e73;" x="168.866215" xlink:href="#C1_0_f35331f181" y="178.587127"/>
    </g>
    <g clip-path="url(#p8d0e752366)">
     <use style="fill:#009e73;" x="165.651578" xlink:href="#C1_0_f35331f181" y="178.291906"/>
    </g>
    <g clip-path="url(#p8d0e752366)">
     <use style="fill:#009e73;" x="171.838779" xlink:href="#C1_0_f35331f181" y="182.250774"/>
    </g>
    <g clip-path="url(#p8d0e752366)">
     <use style="fill:#009e73;" x="170.084699" xlink:href="#C1_0_f35331f181" y="181.932068"/>
    </g>
   </g>
   <g id="PathCollection_7">
    <defs>
     <path d="M 0 4 
C 1.060812 4 2.078319 3.578535 2.828427 2.828427 
C 3.578535 2.078319 4 1.060812 4 0 
C 4 -1.060812 3.578535 -2.078319 2.828427 -2.828427 
C 2.078319 -3.578535 1.060812 -4 0 -4 
C -1.060812 -4 -2.078319 -3.578535 -2.828427 -2.828427 
C -3.578535 -2.078319 -4 -1.060812 -4 0 
C -4 1.060812 -3.578535 2.078319 -2.828427 2.828427 
C -2.078319 3.578535 -1.060812 4 0 4 
z
" id="C2_0_2ce44c2c26"/>
    </defs>
    <g clip-path="url(#p8d0e752366)">
     <use style="fill:#d55e00;" x="213.340687" xlink:href="#C2_0_2ce44c2c26" y="267.248262"/>
    </g>
    <g clip-path="url(#p8d0e752366)">
     <use style="fill:#d55e00;" x="212.577713" xlink:href="#C2_0_2ce44c2c26" y="267.022433"/>
    </g>
    <g clip-path="url(#p8d0e752366)">
     <use style="fill:#d55e00;" x="222.50633" xlink:href="#C2_0_2ce44c2c26" y="267.351681"/>
    </g>
    <g clip-path="url(#p8d0e752366)">
     <use style="fill:#d55e00;" x="212.351142" xlink:href="#C2_0_2ce44c2c26" y="267.270971"/>
    </g>
   </g>
   <g id="PathCollection_8">
    <defs>
     <path d="M 0 4 
C 1.060812 4 2.078319 3.578535 2.828427 2.828427 
C 3.578535 2.078319 4 1.060812 4 0 
C 4 -1.060812 3.578535 -2.078319 2.828427 -2.828427 
C 2.078319 -3.578535 1.060812 -4 0 -4 
C -1.060812 -4 -2.078319 -3.578535 -2.828427 -2.828427 
C -3.578535 -2.078319 -4 -1.060812 -4 0 
C -4 1.060812 -3.578535 2.078319 -2.828427 2.828427 
C -2.078319 3.578535 -1.060812 4 0 4 
z
" id="C3_0_420f046087"/>
    </defs>
    <g clip-path="url(#p8d0e752366)">
     <use style="fill:#009e73;" x="254.380174" xlink:href="#C3_0_420f046087" y="240.178016"/>
    </g>
    <g clip-path="url(#p8d0e752366)">
     <use style="fill:#009e73;" x="253.799742" xlink:href="#C3_0_420f046087" y="239.35865"/>
    </g>
    <g clip-path="url(#p8d0e752366)">
     <use style="fill:#009e73;" x="248.93061" xlink:href="#C3_0_420f046087" y="241.608845"/>
    </g>
    <g clip-path="url(#p8d0e752366)">
     <use style="fill:#009e73;" x="255.336437" xlink:href="#C3_0_420f046087" y="241.287013"/>
    </g>
   </g>
   <g id="PathCollection_9">
    <defs>
     <path d="M 0 4 
C 1.060812 4 2.078319 3.578535 2.828427 2.828427 
C 3.578535 2.078319 4 1.060812 4 0 
C 4 -1.060812 3.578535 -2.078319 2.828427 -2.828427 
C 2.078319 -3.578535 1.060812 -4 0 -4 
C -1.060812 -4 -2.078319 -3.578535 -2.828427 -2.828427 
C -3.578535 -2.078319 -4 -1.060812 -4 0 
C -4 1.060812 -3.578535 2.078319 -2.828427 2.828427 
C -2.078319 3.578535 -1.060812 4 0 4 
z
" id="C4_0_8de36f65bf"/>
    </defs>
    <g clip-path="url(#p8d0e752366)">
     <use style="fill:#d55e00;" x="291.584989" xlink:href="#C4_0_8de36f65bf" y="267.221121"/>
    </g>
    <g clip-path="url(#p8d0e752366)">
     <use style="fill:#d55e00;" x="291.680016" xlink:href="#C4_0_8de36f65bf" y="266.900842"/>
    </g>
    <g clip-path="url(#p8d0e752366)">
     <use style="fill:#d55e00;" x="301.658762" xlink:href="#C4_0_8de36f65bf" y="267.334352"/>
    </g>
    <g clip-path="url(#p8d0e752366)">
     <use style="fill:#d55e00;" x="304.808647" xlink:href="#C4_0_8de36f65bf" y="267.347974"/>
    </g>
   </g>
   <g id="PathCollection_10">
    <defs>
     <path d="M 0 4 
C 1.060812 4 2.078319 3.578535 2.828427 2.828427 
C 3.578535 2.078319 4 1.060812 4 0 
C 4 -1.060812 3.578535 -2.078319 2.828427 -2.828427 
C 2.078319 -3.578535 1.060812 -4 0 -4 
C -1.060812 -4 -2.078319 -3.578535 -2.828427 -2.828427 
C -3.578535 -2.078319 -4 -1.060812 -4 0 
C -4 1.060812 -3.578535 2.078319 -2.828427 2.828427 
C -2.078319 3.578535 -1.060812 4 0 4 
z
" id="C5_0_1f9460dfda"/>
    </defs>
    <g clip-path="url(#p8d0e752366)">
     <use style="fill:#009e73;" x="325.962283" xlink:href="#C5_0_1f9460dfda" y="263.565283"/>
    </g>
    <g clip-path="url(#p8d0e752366)">
     <use style="fill:#009e73;" x="327.89603" xlink:href="#C5_0_1f9460dfda" y="263.504698"/>
    </g>
    <g clip-path="url(#p8d0e752366)">
     <use style="fill:#009e73;" x="334.512064" xlink:href="#C5_0_1f9460dfda" y="263.822004"/>
    </g>
    <g clip-path="url(#p8d0e752366)">
     <use style="fill:#009e73;" x="326.041338" xlink:href="#C5_0_1f9460dfda" y="263.409274"/>
    </g>
   </g>
   <g id="text_11">
    <text style="fill:#262626;font-family:DejaVu Sans;font-size:16.8px;font-style:normal;font-weight:normal;" transform="translate(182.722291 34.131675)">Arabidopsis</text>
    <text style="fill:#262626;font-family:DejaVu Sans;font-size:16.8px;font-style:normal;font-weight:normal;" transform="translate(107.869104 52.944)">(TAIR10 + AtRTD2 reference)</text>
   </g>
  </g>
  <g id="axes_2">
   <g id="patch_15">
    <path d="M 418.491918 281.977935 
L 701.856 281.977935 
L 701.856 58.944 
L 418.491918 58.944 
z
" style="fill:#ffffff;"/>
   </g>
   <g id="matplotlib.axis_3">
    <g id="xtick_4">
     <g id="line2d_46">
      <g>
       <use style="fill:#262626;stroke:#262626;stroke-width:1.25;" x="465.719265" xlink:href="#m6f3ea0f4f7" y="281.977935"/>
      </g>
     </g>
     <g id="text_12">
      <text style="fill:#262626;font-family:DejaVu Sans;font-size:15.4px;font-style:normal;font-weight:normal;" transform="translate(402.187265 337.367484)rotate(-30)">One pass</text>
     </g>
    </g>
    <g id="xtick_5">
     <g id="line2d_47">
      <g>
       <use style="fill:#262626;stroke:#262626;stroke-width:1.25;" x="560.173959" xlink:href="#m6f3ea0f4f7" y="281.977935"/>
      </g>
     </g>
     <g id="text_13">
      <text style="fill:#262626;font-family:DejaVu Sans;font-size:15.4px;font-style:normal;font-weight:normal;" transform="translate(466.043866 345.077109)rotate(-30)">FLAIR post-</text>
      <text style="fill:#262626;font-family:DejaVu Sans;font-size:15.4px;font-style:normal;font-weight:normal;" transform="translate(482.570314 355.447945)rotate(-30)">alignment</text>
      <text style="fill:#262626;font-family:DejaVu Sans;font-size:15.4px;font-style:normal;font-weight:normal;" transform="translate(491.034255 370.473671)rotate(-30)">correction</text>
     </g>
    </g>
    <g id="xtick_6">
     <g id="line2d_48">
      <g>
       <use style="fill:#262626;stroke:#262626;stroke-width:1.25;" x="654.628653" xlink:href="#m6f3ea0f4f7" y="281.977935"/>
      </g>
     </g>
     <g id="text_14">
      <text style="fill:#262626;font-family:DejaVu Sans;font-size:15.4px;font-style:normal;font-weight:normal;" transform="translate(550.747362 355.685062)rotate(-30)">Annot. guided</text>
      <text style="fill:#262626;font-family:DejaVu Sans;font-size:15.4px;font-style:normal;font-weight:normal;" transform="translate(585.647324 355.447945)rotate(-30)">alignment</text>
     </g>
    </g>
   </g>
   <g id="matplotlib.axis_4">
    <g id="ytick_7">
     <g id="line2d_49">
      <g>
       <use style="fill:#262626;stroke:#262626;stroke-width:1.25;" x="418.491918" xlink:href="#md02fbe47bf" y="277.415533"/>
      </g>
     </g>
    </g>
    <g id="ytick_8">
     <g id="line2d_50">
      <g>
       <use style="fill:#262626;stroke:#262626;stroke-width:1.25;" x="418.491918" xlink:href="#md02fbe47bf" y="238.606352"/>
      </g>
     </g>
    </g>
    <g id="ytick_9">
     <g id="line2d_51">
      <g>
       <use style="fill:#262626;stroke:#262626;stroke-width:1.25;" x="418.491918" xlink:href="#md02fbe47bf" y="199.797171"/>
      </g>
     </g>
    </g>
    <g id="ytick_10">
     <g id="line2d_52">
      <g>
       <use style="fill:#262626;stroke:#262626;stroke-width:1.25;" x="418.491918" xlink:href="#md02fbe47bf" y="160.987991"/>
      </g>
     </g>
    </g>
    <g id="ytick_11">
     <g id="line2d_53">
      <g>
       <use style="fill:#262626;stroke:#262626;stroke-width:1.25;" x="418.491918" xlink:href="#md02fbe47bf" y="122.17881"/>
      </g>
     </g>
    </g>
    <g id="ytick_12">
     <g id="line2d_54">
      <g>
       <use style="fill:#262626;stroke:#262626;stroke-width:1.25;" x="418.491918" xlink:href="#md02fbe47bf" y="83.369629"/>
      </g>
     </g>
    </g>
   </g>
   <g id="patch_16">
    <path clip-path="url(#p029726bcca)" d="M 428.315206 262.621305 
L 465.341446 262.621305 
L 465.341446 262.199761 
L 428.315206 262.199761 
L 428.315206 262.621305 
z
" style="fill:#f2f2f2;stroke:#8f8f8f;stroke-linejoin:miter;stroke-width:1.5;"/>
   </g>
   <g id="patch_17">
    <path clip-path="url(#p029726bcca)" d="M 466.097084 81.199955 
L 503.123324 81.199955 
L 503.123324 73.261327 
L 466.097084 73.261327 
L 466.097084 81.199955 
z
" style="fill:#eeeeee;stroke:#8f8f8f;stroke-linejoin:miter;stroke-width:1.5;"/>
   </g>
   <g id="patch_18">
    <path clip-path="url(#p029726bcca)" d="M 522.7699 256.688334 
L 559.79614 256.688334 
L 559.79614 255.911025 
L 522.7699 255.911025 
L 522.7699 256.688334 
z
" style="fill:#f2f2f2;stroke:#8f8f8f;stroke-linejoin:miter;stroke-width:1.5;"/>
   </g>
   <g id="patch_19">
    <path clip-path="url(#p029726bcca)" d="M 560.551778 161.583295 
L 597.578018 161.583295 
L 597.578018 154.367777 
L 560.551778 154.367777 
L 560.551778 161.583295 
z
" style="fill:#eeeeee;stroke:#8f8f8f;stroke-linejoin:miter;stroke-width:1.5;"/>
   </g>
   <g id="patch_20">
    <path clip-path="url(#p029726bcca)" d="M 617.224594 256.653576 
L 654.250834 256.653576 
L 654.250834 255.643515 
L 617.224594 255.643515 
L 617.224594 256.653576 
z
" style="fill:#f2f2f2;stroke:#8f8f8f;stroke-linejoin:miter;stroke-width:1.5;"/>
   </g>
   <g id="patch_21">
    <path clip-path="url(#p029726bcca)" d="M 655.006472 197.011138 
L 692.032712 197.011138 
L 692.032712 192.728265 
L 655.006472 192.728265 
L 655.006472 197.011138 
z
" style="fill:#eeeeee;stroke:#8f8f8f;stroke-linejoin:miter;stroke-width:1.5;"/>
   </g>
   <g id="PathCollection_11"/>
   <g id="PathCollection_12"/>
   <g id="patch_22">
    <path clip-path="url(#p029726bcca)" d="M 465.719265 277.415533 
L 465.719265 277.415533 
L 465.719265 277.415533 
L 465.719265 277.415533 
z
" style="fill:#f2f2f2;stroke:#8f8f8f;stroke-linejoin:miter;stroke-width:0.75;"/>
   </g>
   <g id="patch_23">
    <path clip-path="url(#p029726bcca)" d="M 465.719265 277.415533 
L 465.719265 277.415533 
L 465.719265 277.415533 
L 465.719265 277.415533 
z
" style="fill:#eeeeee;stroke:#8f8f8f;stroke-linejoin:miter;stroke-width:0.75;"/>
   </g>
   <g id="line2d_55">
    <path clip-path="url(#p029726bcca)" d="M 446.828326 262.621305 
L 446.828326 263.106097 
" style="fill:none;stroke:#8f8f8f;stroke-linecap:round;stroke-width:1.5;"/>
   </g>
   <g id="line2d_56">
    <path clip-path="url(#p029726bcca)" d="M 446.828326 262.199761 
L 446.828326 261.665315 
" style="fill:none;stroke:#8f8f8f;stroke-linecap:round;stroke-width:1.5;"/>
   </g>
   <g id="line2d_57">
    <path clip-path="url(#p029726bcca)" d="M 437.571766 263.106097 
L 456.084886 263.106097 
" style="fill:none;stroke:#8f8f8f;stroke-linecap:round;stroke-width:1.5;"/>
   </g>
   <g id="line2d_58">
    <path clip-path="url(#p029726bcca)" d="M 437.571766 261.665315 
L 456.084886 261.665315 
" style="fill:none;stroke:#8f8f8f;stroke-linecap:round;stroke-width:1.5;"/>
   </g>
   <g id="line2d_59"/>
   <g id="line2d_60">
    <path clip-path="url(#p029726bcca)" d="M 484.610204 81.199955 
L 484.610204 84.089322 
" style="fill:none;stroke:#8f8f8f;stroke-linecap:round;stroke-width:1.5;"/>
   </g>
   <g id="line2d_61">
    <path clip-path="url(#p029726bcca)" d="M 484.610204 73.261327 
L 484.610204 72.022561 
" style="fill:none;stroke:#8f8f8f;stroke-linecap:round;stroke-width:1.5;"/>
   </g>
   <g id="line2d_62">
    <path clip-path="url(#p029726bcca)" d="M 475.353644 84.089322 
L 493.866764 84.089322 
" style="fill:none;stroke:#8f8f8f;stroke-linecap:round;stroke-width:1.5;"/>
   </g>
   <g id="line2d_63">
    <path clip-path="url(#p029726bcca)" d="M 475.353644 72.022561 
L 493.866764 72.022561 
" style="fill:none;stroke:#8f8f8f;stroke-linecap:round;stroke-width:1.5;"/>
   </g>
   <g id="line2d_64"/>
   <g id="line2d_65">
    <path clip-path="url(#p029726bcca)" d="M 541.28302 256.688334 
L 541.28302 257.63337 
" style="fill:none;stroke:#8f8f8f;stroke-linecap:round;stroke-width:1.5;"/>
   </g>
   <g id="line2d_66">
    <path clip-path="url(#p029726bcca)" d="M 541.28302 255.911025 
L 541.28302 255.27986 
" style="fill:none;stroke:#8f8f8f;stroke-linecap:round;stroke-width:1.5;"/>
   </g>
   <g id="line2d_67">
    <path clip-path="url(#p029726bcca)" d="M 532.02646 257.63337 
L 550.53958 257.63337 
" style="fill:none;stroke:#8f8f8f;stroke-linecap:round;stroke-width:1.5;"/>
   </g>
   <g id="line2d_68">
    <path clip-path="url(#p029726bcca)" d="M 532.02646 255.27986 
L 550.53958 255.27986 
" style="fill:none;stroke:#8f8f8f;stroke-linecap:round;stroke-width:1.5;"/>
   </g>
   <g id="line2d_69"/>
   <g id="line2d_70">
    <path clip-path="url(#p029726bcca)" d="M 579.064898 161.583295 
L 579.064898 163.130808 
" style="fill:none;stroke:#8f8f8f;stroke-linecap:round;stroke-width:1.5;"/>
   </g>
   <g id="line2d_71">
    <path clip-path="url(#p029726bcca)" d="M 579.064898 154.367777 
L 579.064898 153.218666 
" style="fill:none;stroke:#8f8f8f;stroke-linecap:round;stroke-width:1.5;"/>
   </g>
   <g id="line2d_72">
    <path clip-path="url(#p029726bcca)" d="M 569.808338 163.130808 
L 588.321458 163.130808 
" style="fill:none;stroke:#8f8f8f;stroke-linecap:round;stroke-width:1.5;"/>
   </g>
   <g id="line2d_73">
    <path clip-path="url(#p029726bcca)" d="M 569.808338 153.218666 
L 588.321458 153.218666 
" style="fill:none;stroke:#8f8f8f;stroke-linecap:round;stroke-width:1.5;"/>
   </g>
   <g id="line2d_74"/>
   <g id="line2d_75">
    <path clip-path="url(#p029726bcca)" d="M 635.737714 256.653576 
L 635.737714 257.529763 
" style="fill:none;stroke:#8f8f8f;stroke-linecap:round;stroke-width:1.5;"/>
   </g>
   <g id="line2d_76">
    <path clip-path="url(#p029726bcca)" d="M 635.737714 255.643515 
L 635.737714 255.006739 
" style="fill:none;stroke:#8f8f8f;stroke-linecap:round;stroke-width:1.5;"/>
   </g>
   <g id="line2d_77">
    <path clip-path="url(#p029726bcca)" d="M 626.481154 257.529763 
L 644.994274 257.529763 
" style="fill:none;stroke:#8f8f8f;stroke-linecap:round;stroke-width:1.5;"/>
   </g>
   <g id="line2d_78">
    <path clip-path="url(#p029726bcca)" d="M 626.481154 255.006739 
L 644.994274 255.006739 
" style="fill:none;stroke:#8f8f8f;stroke-linecap:round;stroke-width:1.5;"/>
   </g>
   <g id="line2d_79"/>
   <g id="line2d_80">
    <path clip-path="url(#p029726bcca)" d="M 673.519592 197.011138 
L 673.519592 197.098349 
" style="fill:none;stroke:#8f8f8f;stroke-linecap:round;stroke-width:1.5;"/>
   </g>
   <g id="line2d_81">
    <path clip-path="url(#p029726bcca)" d="M 673.519592 192.728265 
L 673.519592 191.864996 
" style="fill:none;stroke:#8f8f8f;stroke-linecap:round;stroke-width:1.5;"/>
   </g>
   <g id="line2d_82">
    <path clip-path="url(#p029726bcca)" d="M 664.263032 197.098349 
L 682.776152 197.098349 
" style="fill:none;stroke:#8f8f8f;stroke-linecap:round;stroke-width:1.5;"/>
   </g>
   <g id="line2d_83">
    <path clip-path="url(#p029726bcca)" d="M 664.263032 191.864996 
L 682.776152 191.864996 
" style="fill:none;stroke:#8f8f8f;stroke-linecap:round;stroke-width:1.5;"/>
   </g>
   <g id="line2d_84"/>
   <g id="line2d_85">
    <path clip-path="url(#p029726bcca)" d="M 428.315206 262.418809 
L 465.341446 262.418809 
" style="fill:none;stroke:#8f8f8f;stroke-linecap:round;stroke-width:1.5;"/>
   </g>
   <g id="line2d_86">
    <path clip-path="url(#p029726bcca)" d="M 466.097084 76.955541 
L 503.123324 76.955541 
" style="fill:none;stroke:#8f8f8f;stroke-linecap:round;stroke-width:1.5;"/>
   </g>
   <g id="line2d_87">
    <path clip-path="url(#p029726bcca)" d="M 522.7699 256.247368 
L 559.79614 256.247368 
" style="fill:none;stroke:#8f8f8f;stroke-linecap:round;stroke-width:1.5;"/>
   </g>
   <g id="line2d_88">
    <path clip-path="url(#p029726bcca)" d="M 560.551778 157.909136 
L 597.578018 157.909136 
" style="fill:none;stroke:#8f8f8f;stroke-linecap:round;stroke-width:1.5;"/>
   </g>
   <g id="line2d_89">
    <path clip-path="url(#p029726bcca)" d="M 617.224594 256.108643 
L 654.250834 256.108643 
" style="fill:none;stroke:#8f8f8f;stroke-linecap:round;stroke-width:1.5;"/>
   </g>
   <g id="line2d_90">
    <path clip-path="url(#p029726bcca)" d="M 655.006472 194.999045 
L 692.032712 194.999045 
" style="fill:none;stroke:#8f8f8f;stroke-linecap:round;stroke-width:1.5;"/>
   </g>
   <g id="patch_24">
    <path d="M 418.491918 281.977935 
L 418.491918 58.944 
" style="fill:none;stroke:#262626;stroke-linecap:square;stroke-linejoin:miter;stroke-width:1.25;"/>
   </g>
   <g id="patch_25">
    <path d="M 701.856 281.977935 
L 701.856 58.944 
" style="fill:none;stroke:#262626;stroke-linecap:square;stroke-linejoin:miter;stroke-width:1.25;"/>
   </g>
   <g id="patch_26">
    <path d="M 418.491918 281.977935 
L 701.856 281.977935 
" style="fill:none;stroke:#262626;stroke-linecap:square;stroke-linejoin:miter;stroke-width:1.25;"/>
   </g>
   <g id="patch_27">
    <path d="M 418.491918 58.944 
L 701.856 58.944 
" style="fill:none;stroke:#262626;stroke-linecap:square;stroke-linejoin:miter;stroke-width:1.25;"/>
   </g>
   <g id="PathCollection_13">
    <defs>
     <path d="M 0 4 
C 1.060812 4 2.078319 3.578535 2.828427 2.828427 
C 3.578535 2.078319 4 1.060812 4 0 
C 4 -1.060812 3.578535 -2.078319 2.828427 -2.828427 
C 2.078319 -3.578535 1.060812 -4 0 -4 
C -1.060812 -4 -2.078319 -3.578535 -2.828427 -2.828427 
C -3.578535 -2.078319 -4 -1.060812 -4 0 
C -4 1.060812 -3.578535 2.078319 -2.828427 2.828427 
C -2.078319 3.578535 -1.060812 4 0 4 
z
" id="C6_0_e5c3a9d97f"/>
    </defs>
    <g clip-path="url(#p029726bcca)">
     <use style="fill:#d55e00;" x="450.632416" xlink:href="#C6_0_e5c3a9d97f" y="261.665315"/>
    </g>
    <g clip-path="url(#p029726bcca)">
     <use style="fill:#d55e00;" x="446.594744" xlink:href="#C6_0_e5c3a9d97f" y="262.459708"/>
    </g>
    <g clip-path="url(#p029726bcca)">
     <use style="fill:#d55e00;" x="450.241499" xlink:href="#C6_0_e5c3a9d97f" y="263.106097"/>
    </g>
    <g clip-path="url(#p029726bcca)">
     <use style="fill:#d55e00;" x="447.235392" xlink:href="#C6_0_e5c3a9d97f" y="262.37791"/>
    </g>
   </g>
   <g id="PathCollection_14">
    <defs>
     <path d="M 0 4 
C 1.060812 4 2.078319 3.578535 2.828427 2.828427 
C 3.578535 2.078319 4 1.060812 4 0 
C 4 -1.060812 3.578535 -2.078319 2.828427 -2.828427 
C 2.078319 -3.578535 1.060812 -4 0 -4 
C -1.060812 -4 -2.078319 -3.578535 -2.828427 -2.828427 
C -3.578535 -2.078319 -4 -1.060812 -4 0 
C -4 1.060812 -3.578535 2.078319 -2.828427 2.828427 
C -2.078319 3.578535 -1.060812 4 0 4 
z
" id="C7_0_aae5807c1e"/>
    </defs>
    <g clip-path="url(#p029726bcca)">
     <use style="fill:#009e73;" x="475.984539" xlink:href="#C7_0_aae5807c1e" y="73.67425"/>
    </g>
    <g clip-path="url(#p029726bcca)">
     <use style="fill:#009e73;" x="479.395107" xlink:href="#C7_0_aae5807c1e" y="80.236833"/>
    </g>
    <g clip-path="url(#p029726bcca)">
     <use style="fill:#009e73;" x="486.030898" xlink:href="#C7_0_aae5807c1e" y="84.089322"/>
    </g>
    <g clip-path="url(#p029726bcca)">
     <use style="fill:#009e73;" x="477.439839" xlink:href="#C7_0_aae5807c1e" y="72.022561"/>
    </g>
   </g>
   <g id="PathCollection_15">
    <defs>
     <path d="M 0 4 
C 1.060812 4 2.078319 3.578535 2.828427 2.828427 
C 3.578535 2.078319 4 1.060812 4 0 
C 4 -1.060812 3.578535 -2.078319 2.828427 -2.828427 
C 2.078319 -3.578535 1.060812 -4 0 -4 
C -1.060812 -4 -2.078319 -3.578535 -2.828427 -2.828427 
C -3.578535 -2.078319 -4 -1.060812 -4 0 
C -4 1.060812 -3.578535 2.078319 -2.828427 2.828427 
C -2.078319 3.578535 -1.060812 4 0 4 
z
" id="C8_0_740802dfc4"/>
    </defs>
    <g clip-path="url(#p029726bcca)">
     <use style="fill:#d55e00;" x="541.285225" xlink:href="#C8_0_740802dfc4" y="255.27986"/>
    </g>
    <g clip-path="url(#p029726bcca)">
     <use style="fill:#d55e00;" x="534.444681" xlink:href="#C8_0_740802dfc4" y="256.373322"/>
    </g>
    <g clip-path="url(#p029726bcca)">
     <use style="fill:#d55e00;" x="532.835151" xlink:href="#C8_0_740802dfc4" y="257.63337"/>
    </g>
    <g clip-path="url(#p029726bcca)">
     <use style="fill:#d55e00;" x="535.205369" xlink:href="#C8_0_740802dfc4" y="256.121413"/>
    </g>
   </g>
   <g id="PathCollection_16">
    <defs>
     <path d="M 0 4 
C 1.060812 4 2.078319 3.578535 2.828427 2.828427 
C 3.578535 2.078319 4 1.060812 4 0 
C 4 -1.060812 3.578535 -2.078319 2.828427 -2.828427 
C 2.078319 -3.578535 1.060812 -4 0 -4 
C -1.060812 -4 -2.078319 -3.578535 -2.828427 -2.828427 
C -3.578535 -2.078319 -4 -1.060812 -4 0 
C -4 1.060812 -3.578535 2.078319 -2.828427 2.828427 
C -2.078319 3.578535 -1.060812 4 0 4 
z
" id="C9_0_dfacddbc85"/>
    </defs>
    <g clip-path="url(#p029726bcca)">
     <use style="fill:#009e73;" x="577.976178" xlink:href="#C9_0_dfacddbc85" y="154.750814"/>
    </g>
    <g clip-path="url(#p029726bcca)">
     <use style="fill:#009e73;" x="586.197877" xlink:href="#C9_0_dfacddbc85" y="161.067458"/>
    </g>
    <g clip-path="url(#p029726bcca)">
     <use style="fill:#009e73;" x="587.551919" xlink:href="#C9_0_dfacddbc85" y="163.130808"/>
    </g>
    <g clip-path="url(#p029726bcca)">
     <use style="fill:#009e73;" x="578.65246" xlink:href="#C9_0_dfacddbc85" y="153.218666"/>
    </g>
   </g>
   <g id="PathCollection_17">
    <defs>
     <path d="M 0 4 
C 1.060812 4 2.078319 3.578535 2.828427 2.828427 
C 3.578535 2.078319 4 1.060812 4 0 
C 4 -1.060812 3.578535 -2.078319 2.828427 -2.828427 
C 2.078319 -3.578535 1.060812 -4 0 -4 
C -1.060812 -4 -2.078319 -3.578535 -2.828427 -2.828427 
C -3.578535 -2.078319 -4 -1.060812 -4 0 
C -4 1.060812 -3.578535 2.078319 -2.828427 2.828427 
C -2.078319 3.578535 -1.060812 4 0 4 
z
" id="Ca_0_1c134229e5"/>
    </defs>
    <g clip-path="url(#p029726bcca)">
     <use style="fill:#d55e00;" x="635.003222" xlink:href="#Ca_0_1c134229e5" y="255.006739"/>
    </g>
    <g clip-path="url(#p029726bcca)">
     <use style="fill:#d55e00;" x="638.331233" xlink:href="#Ca_0_1c134229e5" y="256.361513"/>
    </g>
    <g clip-path="url(#p029726bcca)">
     <use style="fill:#d55e00;" x="632.424395" xlink:href="#Ca_0_1c134229e5" y="257.529763"/>
    </g>
    <g clip-path="url(#p029726bcca)">
     <use style="fill:#d55e00;" x="628.513405" xlink:href="#Ca_0_1c134229e5" y="255.855773"/>
    </g>
   </g>
   <g id="PathCollection_18">
    <defs>
     <path d="M 0 4 
C 1.060812 4 2.078319 3.578535 2.828427 2.828427 
C 3.578535 2.078319 4 1.060812 4 0 
C 4 -1.060812 3.578535 -2.078319 2.828427 -2.828427 
C 2.078319 -3.578535 1.060812 -4 0 -4 
C -1.060812 -4 -2.078319 -3.578535 -2.828427 -2.828427 
C -3.578535 -2.078319 -4 -1.060812 -4 0 
C -4 1.060812 -3.578535 2.078319 -2.828427 2.828427 
C -2.078319 3.578535 -1.060812 4 0 4 
z
" id="Cb_0_3b6c338bba"/>
    </defs>
    <g clip-path="url(#p029726bcca)">
     <use style="fill:#009e73;" x="665.039468" xlink:href="#Cb_0_3b6c338bba" y="193.016021"/>
    </g>
    <g clip-path="url(#p029726bcca)">
     <use style="fill:#009e73;" x="676.120093" xlink:href="#Cb_0_3b6c338bba" y="196.982068"/>
    </g>
    <g clip-path="url(#p029726bcca)">
     <use style="fill:#009e73;" x="679.418588" xlink:href="#Cb_0_3b6c338bba" y="197.098349"/>
    </g>
    <g clip-path="url(#p029726bcca)">
     <use style="fill:#009e73;" x="676.735971" xlink:href="#Cb_0_3b6c338bba" y="191.864996"/>
    </g>
   </g>
   <g id="text_15">
    <text style="fill:#262626;font-family:DejaVu Sans;font-size:16.8px;font-style:normal;font-weight:normal;text-anchor:middle;" transform="rotate(-0, 560.173959, 52.944)" x="560.173959" y="52.944">Human (GRCh38 reference)</text>
   </g>
   <g id="legend_1">
    <g id="patch_28">
     <path d="M 518.762031 133.717256 
L 691.076 133.717256 
Q 694.156 133.717256 694.156 130.637256 
L 694.156 69.724 
Q 694.156 66.644 691.076 66.644 
L 518.762031 66.644 
Q 515.682031 66.644 515.682031 69.724 
L 515.682031 130.637256 
Q 515.682031 133.717256 518.762031 133.717256 
z
" style="fill:#ffffff;opacity:0.8;stroke:#cccccc;stroke-linejoin:miter;"/>
    </g>
    <g id="PathCollection_19">
     <defs>
      <path d="M 0 2.95804 
C 0.784481 2.95804 1.536938 2.646362 2.09165 2.09165 
C 2.646362 1.536938 2.95804 0.784481 2.95804 0 
C 2.95804 -0.784481 2.646362 -1.536938 2.09165 -2.09165 
C 1.536938 -2.646362 0.784481 -2.95804 0 -2.95804 
C -0.784481 -2.95804 -1.536938 -2.646362 -2.09165 -2.09165 
C -2.646362 -1.536938 -2.95804 -0.784481 -2.95804 0 
C -2.95804 0.784481 -2.646362 1.536938 -2.09165 2.09165 
C -1.536938 2.646362 -0.784481 2.95804 0 2.95804 
z
" id="m06437bf0e6" style="stroke:#d55e00;"/>
     </defs>
     <g>
      <use style="fill:#d55e00;stroke:#d55e00;" x="537.242031" xlink:href="#m06437bf0e6" y="80.463094"/>
     </g>
    </g>
    <g id="text_16">
     <text style="fill:#262626;font-family:DejaVu Sans;font-size:15.4px;font-style:normal;font-weight:normal;text-anchor:start;" transform="rotate(-0, 564.962031, 84.505594)" x="564.962031" y="84.505594">Not in annot.</text>
    </g>
    <g id="PathCollection_20">
     <defs>
      <path d="M 0 2.95804 
C 0.784481 2.95804 1.536938 2.646362 2.09165 2.09165 
C 2.646362 1.536938 2.95804 0.784481 2.95804 0 
C 2.95804 -0.784481 2.646362 -1.536938 2.09165 -2.09165 
C 1.536938 -2.646362 0.784481 -2.95804 0 -2.95804 
C -0.784481 -2.95804 -1.536938 -2.646362 -2.09165 -2.09165 
C -2.646362 -1.536938 -2.95804 -0.784481 -2.95804 0 
C -2.95804 0.784481 -2.646362 1.536938 -2.09165 2.09165 
C -1.536938 2.646362 -0.784481 2.95804 0 2.95804 
z
" id="meed94cced6" style="stroke:#009e73;"/>
     </defs>
     <g>
      <use style="fill:#009e73;stroke:#009e73;" x="537.242031" xlink:href="#meed94cced6" y="113.291081"/>
     </g>
    </g>
    <g id="text_17">
     <text style="fill:#262626;font-family:DejaVu Sans;font-size:15.4px;font-style:normal;font-weight:normal;" transform="translate(564.962031 107.109906)">Incorrect annot.</text>
     <text style="fill:#262626;font-family:DejaVu Sans;font-size:15.4px;font-style:normal;font-weight:normal;" transform="translate(564.962031 124.354538)">transcipt</text>
    </g>
   </g>
  </g>
 </g>
 <defs>
  <clipPath id="p8d0e752366">
   <rect height="223.033935" width="283.364082" x="89.944" y="58.944"/>
  </clipPath>
  <clipPath id="p029726bcca">
   <rect height="223.033935" width="283.364082" x="418.491918" y="58.944"/>
  </clipPath>
 </defs>
</svg>
