<?xml version="1.0" encoding="utf-8" standalone="no"?>
<!DOCTYPE svg PUBLIC "-//W3C//DTD SVG 1.1//EN"
  "http://www.w3.org/Graphics/SVG/1.1/DTD/svg11.dtd">
<!-- Created with matplotlib (https://matplotlib.org/) -->
<svg height="396pt" version="1.1" viewBox="0 0 864 396" width="864pt" xmlns="http://www.w3.org/2000/svg" xmlns:xlink="http://www.w3.org/1999/xlink">
 <defs>
  <style type="text/css">
*{stroke-linecap:butt;stroke-linejoin:round;}
  </style>
 </defs>
 <g id="figure_1">
  <g id="patch_1">
   <path d="M 0 396 
L 864 396 
L 864 0 
L 0 0 
z
" style="fill:#ffffff;"/>
  </g>
  <g id="axes_1">
   <g id="patch_2">
    <path d="M 89.944 313.956 
L 455.828 313.956 
L 455.828 58.944 
L 89.944 58.944 
z
" style="fill:#ffffff;"/>
   </g>
   <g id="matplotlib.axis_1">
    <g id="xtick_1">
     <g id="line2d_1">
      <defs>
       <path d="M 0 0 
L 0 6 
" id="mbc92227e57" style="stroke:#262626;stroke-width:1.25;"/>
      </defs>
      <g>
       <use style="fill:#262626;stroke:#262626;stroke-width:1.25;" x="150.924667" xlink:href="#mbc92227e57" y="313.956"/>
      </g>
     </g>
     <g id="text_1">
      <text style="fill:#262626;font-family:DejaVu Sans;font-size:15.4px;font-style:normal;font-weight:normal;text-anchor:middle;" transform="rotate(-0, 150.924667, 335.157594)" x="150.924667" y="335.157594">Unguided</text>
     </g>
    </g>
    <g id="xtick_2">
     <g id="line2d_2">
      <g>
       <use style="fill:#262626;stroke:#262626;stroke-width:1.25;" x="272.886" xlink:href="#mbc92227e57" y="313.956"/>
      </g>
     </g>
     <g id="text_2">
      <text style="fill:#262626;font-family:DejaVu Sans;font-size:15.4px;font-style:normal;font-weight:normal;" transform="translate(251.275469 335.157594)">FLAIR</text>
      <text style="fill:#262626;font-family:DejaVu Sans;font-size:15.4px;font-style:normal;font-weight:normal;" transform="translate(235.996984 352.402225)">corrected</text>
     </g>
    </g>
    <g id="xtick_3">
     <g id="line2d_3">
      <g>
       <use style="fill:#262626;stroke:#262626;stroke-width:1.25;" x="394.847333" xlink:href="#mbc92227e57" y="313.956"/>
      </g>
     </g>
     <g id="text_3">
      <text style="fill:#262626;font-family:DejaVu Sans;font-size:15.4px;font-style:normal;font-weight:normal;" transform="translate(355.562896 335.157594)">Reference</text>
      <text style="fill:#262626;font-family:DejaVu Sans;font-size:15.4px;font-style:normal;font-weight:normal;" transform="translate(368.425505 352.402225)">guided</text>
     </g>
    </g>
    <g id="text_4">
     <text style="fill:#262626;font-family:DejaVu Sans;font-size:16.8px;font-style:normal;font-weight:normal;text-anchor:middle;" transform="rotate(-0, 272.886, 372.370319)" x="272.886" y="372.370319">Alignment strategy</text>
    </g>
   </g>
   <g id="matplotlib.axis_2">
    <g id="ytick_1">
     <g id="line2d_4">
      <defs>
       <path d="M 0 0 
L -6 0 
" id="m9782e14ee4" style="stroke:#262626;stroke-width:1.25;"/>
      </defs>
      <g>
       <use style="fill:#262626;stroke:#262626;stroke-width:1.25;" x="89.944" xlink:href="#m9782e14ee4" y="308.739452"/>
      </g>
     </g>
     <g id="text_5">
      <text style="fill:#262626;font-family:DejaVu Sans;font-size:15.4px;font-style:normal;font-weight:normal;text-anchor:end;" transform="rotate(-0, 80.444, 314.590249)" x="80.444" y="314.590249">0</text>
     </g>
    </g>
    <g id="ytick_2">
     <g id="line2d_5">
      <g>
       <use style="fill:#262626;stroke:#262626;stroke-width:1.25;" x="89.944" xlink:href="#m9782e14ee4" y="264.365905"/>
      </g>
     </g>
     <g id="text_6">
      <text style="fill:#262626;font-family:DejaVu Sans;font-size:15.4px;font-style:normal;font-weight:normal;text-anchor:end;" transform="rotate(-0, 80.444, 270.216702)" x="80.444" y="270.216702">10</text>
     </g>
    </g>
    <g id="ytick_3">
     <g id="line2d_6">
      <g>
       <use style="fill:#262626;stroke:#262626;stroke-width:1.25;" x="89.944" xlink:href="#m9782e14ee4" y="219.992358"/>
      </g>
     </g>
     <g id="text_7">
      <text style="fill:#262626;font-family:DejaVu Sans;font-size:15.4px;font-style:normal;font-weight:normal;text-anchor:end;" transform="rotate(-0, 80.444, 225.843155)" x="80.444" y="225.843155">20</text>
     </g>
    </g>
    <g id="ytick_4">
     <g id="line2d_7">
      <g>
       <use style="fill:#262626;stroke:#262626;stroke-width:1.25;" x="89.944" xlink:href="#m9782e14ee4" y="175.618811"/>
      </g>
     </g>
     <g id="text_8">
      <text style="fill:#262626;font-family:DejaVu Sans;font-size:15.4px;font-style:normal;font-weight:normal;text-anchor:end;" transform="rotate(-0, 80.444, 181.469608)" x="80.444" y="181.469608">30</text>
     </g>
    </g>
    <g id="ytick_5">
     <g id="line2d_8">
      <g>
       <use style="fill:#262626;stroke:#262626;stroke-width:1.25;" x="89.944" xlink:href="#m9782e14ee4" y="131.245264"/>
      </g>
     </g>
     <g id="text_9">
      <text style="fill:#262626;font-family:DejaVu Sans;font-size:15.4px;font-style:normal;font-weight:normal;text-anchor:end;" transform="rotate(-0, 80.444, 137.096061)" x="80.444" y="137.096061">40</text>
     </g>
    </g>
    <g id="ytick_6">
     <g id="line2d_9">
      <g>
       <use style="fill:#262626;stroke:#262626;stroke-width:1.25;" x="89.944" xlink:href="#m9782e14ee4" y="86.871717"/>
      </g>
     </g>
     <g id="text_10">
      <text style="fill:#262626;font-family:DejaVu Sans;font-size:15.4px;font-style:normal;font-weight:normal;text-anchor:end;" transform="rotate(-0, 80.444, 92.722514)" x="80.444" y="92.722514">50</text>
     </g>
    </g>
    <g id="text_11">
     <text style="fill:#262626;font-family:DejaVu Sans;font-size:16.8px;font-style:normal;font-weight:normal;" transform="translate(34.5413 264.940125)rotate(-90)">Incorrectly aligned</text>
     <text style="fill:#262626;font-family:DejaVu Sans;font-size:16.8px;font-style:normal;font-weight:normal;" transform="translate(53.353625 259.296375)rotate(-90)">spliced reads (%)</text>
    </g>
   </g>
   <g id="patch_3">
    <path clip-path="url(#pba4094b949)" d="M 102.627979 300.800856 
L 150.436821 300.800856 
L 150.436821 300.759544 
L 102.627979 300.759544 
L 102.627979 300.800856 
z
" style="fill:#f2f2f2;stroke:#8f8f8f;stroke-linejoin:miter;stroke-width:1.5;"/>
   </g>
   <g id="patch_4">
    <path clip-path="url(#pba4094b949)" d="M 151.412512 199.6569 
L 199.221355 199.6569 
L 199.221355 195.656882 
L 151.412512 195.656882 
L 151.412512 199.6569 
z
" style="fill:#eeeeee;stroke:#8f8f8f;stroke-linejoin:miter;stroke-width:1.5;"/>
   </g>
   <g id="patch_5">
    <path clip-path="url(#pba4094b949)" d="M 224.589312 297.163458 
L 272.398155 297.163458 
L 272.398155 297.04987 
L 224.589312 297.04987 
L 224.589312 297.163458 
z
" style="fill:#f2f2f2;stroke:#8f8f8f;stroke-linejoin:miter;stroke-width:1.5;"/>
   </g>
   <g id="patch_6">
    <path clip-path="url(#pba4094b949)" d="M 273.373845 267.522906 
L 321.182688 267.522906 
L 321.182688 265.928699 
L 273.373845 265.928699 
L 273.373845 267.522906 
z
" style="fill:#eeeeee;stroke:#8f8f8f;stroke-linejoin:miter;stroke-width:1.5;"/>
   </g>
   <g id="patch_7">
    <path clip-path="url(#pba4094b949)" d="M 346.550645 297.21675 
L 394.359488 297.21675 
L 394.359488 296.99184 
L 346.550645 296.99184 
L 346.550645 297.21675 
z
" style="fill:#f2f2f2;stroke:#8f8f8f;stroke-linejoin:miter;stroke-width:1.5;"/>
   </g>
   <g id="patch_8">
    <path clip-path="url(#pba4094b949)" d="M 395.335179 292.976769 
L 443.144021 292.976769 
L 443.144021 292.806838 
L 395.335179 292.806838 
L 395.335179 292.976769 
z
" style="fill:#eeeeee;stroke:#8f8f8f;stroke-linejoin:miter;stroke-width:1.5;"/>
   </g>
   <g id="PathCollection_1"/>
   <g id="PathCollection_2"/>
   <g id="PathCollection_3"/>
   <g id="PathCollection_4"/>
   <g id="patch_9">
    <path clip-path="url(#pba4094b949)" d="M 150.924667 308.739452 
L 150.924667 308.739452 
L 150.924667 308.739452 
L 150.924667 308.739452 
z
" style="fill:#f2f2f2;stroke:#8f8f8f;stroke-linejoin:miter;stroke-width:0.75;"/>
   </g>
   <g id="patch_10">
    <path clip-path="url(#pba4094b949)" d="M 150.924667 308.739452 
L 150.924667 308.739452 
L 150.924667 308.739452 
L 150.924667 308.739452 
z
" style="fill:#eeeeee;stroke:#8f8f8f;stroke-linejoin:miter;stroke-width:0.75;"/>
   </g>
   <g id="line2d_10">
    <path clip-path="url(#pba4094b949)" d="M 126.5324 300.800856 
L 126.5324 300.813264 
" style="fill:none;stroke:#8f8f8f;stroke-linecap:round;stroke-width:1.5;"/>
   </g>
   <g id="line2d_11">
    <path clip-path="url(#pba4094b949)" d="M 126.5324 300.759544 
L 126.5324 300.723812 
" style="fill:none;stroke:#8f8f8f;stroke-linecap:round;stroke-width:1.5;"/>
   </g>
   <g id="line2d_12">
    <path clip-path="url(#pba4094b949)" d="M 114.580189 300.813264 
L 138.484611 300.813264 
" style="fill:none;stroke:#8f8f8f;stroke-linecap:round;stroke-width:1.5;"/>
   </g>
   <g id="line2d_13">
    <path clip-path="url(#pba4094b949)" d="M 114.580189 300.723812 
L 138.484611 300.723812 
" style="fill:none;stroke:#8f8f8f;stroke-linecap:round;stroke-width:1.5;"/>
   </g>
   <g id="line2d_14"/>
   <g id="line2d_15">
    <path clip-path="url(#pba4094b949)" d="M 175.316933 199.6569 
L 175.316933 199.930201 
" style="fill:none;stroke:#8f8f8f;stroke-linecap:round;stroke-width:1.5;"/>
   </g>
   <g id="line2d_16">
    <path clip-path="url(#pba4094b949)" d="M 175.316933 195.656882 
L 175.316933 195.403719 
" style="fill:none;stroke:#8f8f8f;stroke-linecap:round;stroke-width:1.5;"/>
   </g>
   <g id="line2d_17">
    <path clip-path="url(#pba4094b949)" d="M 163.364723 199.930201 
L 187.269144 199.930201 
" style="fill:none;stroke:#8f8f8f;stroke-linecap:round;stroke-width:1.5;"/>
   </g>
   <g id="line2d_18">
    <path clip-path="url(#pba4094b949)" d="M 163.364723 195.403719 
L 187.269144 195.403719 
" style="fill:none;stroke:#8f8f8f;stroke-linecap:round;stroke-width:1.5;"/>
   </g>
   <g id="line2d_19"/>
   <g id="line2d_20">
    <path clip-path="url(#pba4094b949)" d="M 248.493733 297.163458 
L 248.493733 297.232669 
" style="fill:none;stroke:#8f8f8f;stroke-linecap:round;stroke-width:1.5;"/>
   </g>
   <g id="line2d_21">
    <path clip-path="url(#pba4094b949)" d="M 248.493733 297.04987 
L 248.493733 297.04987 
" style="fill:none;stroke:#8f8f8f;stroke-linecap:round;stroke-width:1.5;"/>
   </g>
   <g id="line2d_22">
    <path clip-path="url(#pba4094b949)" d="M 236.541523 297.232669 
L 260.445944 297.232669 
" style="fill:none;stroke:#8f8f8f;stroke-linecap:round;stroke-width:1.5;"/>
   </g>
   <g id="line2d_23">
    <path clip-path="url(#pba4094b949)" d="M 236.541523 297.04987 
L 260.445944 297.04987 
" style="fill:none;stroke:#8f8f8f;stroke-linecap:round;stroke-width:1.5;"/>
   </g>
   <g id="line2d_24"/>
   <g id="line2d_25">
    <path clip-path="url(#pba4094b949)" d="M 297.278267 267.522906 
L 297.278267 267.798887 
" style="fill:none;stroke:#8f8f8f;stroke-linecap:round;stroke-width:1.5;"/>
   </g>
   <g id="line2d_26">
    <path clip-path="url(#pba4094b949)" d="M 297.278267 265.928699 
L 297.278267 265.226065 
" style="fill:none;stroke:#8f8f8f;stroke-linecap:round;stroke-width:1.5;"/>
   </g>
   <g id="line2d_27">
    <path clip-path="url(#pba4094b949)" d="M 285.326056 267.798887 
L 309.230477 267.798887 
" style="fill:none;stroke:#8f8f8f;stroke-linecap:round;stroke-width:1.5;"/>
   </g>
   <g id="line2d_28">
    <path clip-path="url(#pba4094b949)" d="M 285.326056 265.226065 
L 309.230477 265.226065 
" style="fill:none;stroke:#8f8f8f;stroke-linecap:round;stroke-width:1.5;"/>
   </g>
   <g id="line2d_29"/>
   <g id="line2d_30">
    <path clip-path="url(#pba4094b949)" d="M 370.455067 297.21675 
L 370.455067 297.228431 
" style="fill:none;stroke:#8f8f8f;stroke-linecap:round;stroke-width:1.5;"/>
   </g>
   <g id="line2d_31">
    <path clip-path="url(#pba4094b949)" d="M 370.455067 296.99184 
L 370.455067 296.71719 
" style="fill:none;stroke:#8f8f8f;stroke-linecap:round;stroke-width:1.5;"/>
   </g>
   <g id="line2d_32">
    <path clip-path="url(#pba4094b949)" d="M 358.502856 297.228431 
L 382.407277 297.228431 
" style="fill:none;stroke:#8f8f8f;stroke-linecap:round;stroke-width:1.5;"/>
   </g>
   <g id="line2d_33">
    <path clip-path="url(#pba4094b949)" d="M 358.502856 296.71719 
L 382.407277 296.71719 
" style="fill:none;stroke:#8f8f8f;stroke-linecap:round;stroke-width:1.5;"/>
   </g>
   <g id="line2d_34"/>
   <g id="line2d_35">
    <path clip-path="url(#pba4094b949)" d="M 419.2396 292.976769 
L 419.2396 293.196916 
" style="fill:none;stroke:#8f8f8f;stroke-linecap:round;stroke-width:1.5;"/>
   </g>
   <g id="line2d_36">
    <path clip-path="url(#pba4094b949)" d="M 419.2396 292.806838 
L 419.2396 292.72501 
" style="fill:none;stroke:#8f8f8f;stroke-linecap:round;stroke-width:1.5;"/>
   </g>
   <g id="line2d_37">
    <path clip-path="url(#pba4094b949)" d="M 407.287389 293.196916 
L 431.191811 293.196916 
" style="fill:none;stroke:#8f8f8f;stroke-linecap:round;stroke-width:1.5;"/>
   </g>
   <g id="line2d_38">
    <path clip-path="url(#pba4094b949)" d="M 407.287389 292.72501 
L 431.191811 292.72501 
" style="fill:none;stroke:#8f8f8f;stroke-linecap:round;stroke-width:1.5;"/>
   </g>
   <g id="line2d_39"/>
   <g id="line2d_40">
    <path clip-path="url(#pba4094b949)" d="M 211.905333 313.956 
L 211.905333 58.944 
" style="fill:none;stroke:#555555;stroke-dasharray:5.55,2.4;stroke-dashoffset:0;stroke-width:1.5;"/>
   </g>
   <g id="line2d_41">
    <path clip-path="url(#pba4094b949)" d="M 333.866667 313.956 
L 333.866667 58.944 
" style="fill:none;stroke:#555555;stroke-dasharray:5.55,2.4;stroke-dashoffset:0;stroke-width:1.5;"/>
   </g>
   <g id="line2d_42">
    <path clip-path="url(#pba4094b949)" d="M 102.627979 300.784087 
L 150.436821 300.784087 
" style="fill:none;stroke:#8f8f8f;stroke-linecap:round;stroke-width:1.5;"/>
   </g>
   <g id="line2d_43">
    <path clip-path="url(#pba4094b949)" d="M 151.412512 197.653534 
L 199.221355 197.653534 
" style="fill:none;stroke:#8f8f8f;stroke-linecap:round;stroke-width:1.5;"/>
   </g>
   <g id="line2d_44">
    <path clip-path="url(#pba4094b949)" d="M 224.589312 297.127405 
L 272.398155 297.127405 
" style="fill:none;stroke:#8f8f8f;stroke-linecap:round;stroke-width:1.5;"/>
   </g>
   <g id="line2d_45">
    <path clip-path="url(#pba4094b949)" d="M 273.373845 266.796911 
L 321.182688 266.796911 
" style="fill:none;stroke:#8f8f8f;stroke-linecap:round;stroke-width:1.5;"/>
   </g>
   <g id="line2d_46">
    <path clip-path="url(#pba4094b949)" d="M 346.550645 297.148123 
L 394.359488 297.148123 
" style="fill:none;stroke:#8f8f8f;stroke-linecap:round;stroke-width:1.5;"/>
   </g>
   <g id="line2d_47">
    <path clip-path="url(#pba4094b949)" d="M 395.335179 292.86875 
L 443.144021 292.86875 
" style="fill:none;stroke:#8f8f8f;stroke-linecap:round;stroke-width:1.5;"/>
   </g>
   <g id="patch_11">
    <path d="M 89.944 313.956 
L 89.944 58.944 
" style="fill:none;stroke:#262626;stroke-linecap:square;stroke-linejoin:miter;stroke-width:1.25;"/>
   </g>
   <g id="patch_12">
    <path d="M 455.828 313.956 
L 455.828 58.944 
" style="fill:none;stroke:#262626;stroke-linecap:square;stroke-linejoin:miter;stroke-width:1.25;"/>
   </g>
   <g id="patch_13">
    <path d="M 89.944 313.956 
L 455.828 313.956 
" style="fill:none;stroke:#262626;stroke-linecap:square;stroke-linejoin:miter;stroke-width:1.25;"/>
   </g>
   <g id="patch_14">
    <path d="M 89.944 58.944 
L 455.828 58.944 
" style="fill:none;stroke:#262626;stroke-linecap:square;stroke-linejoin:miter;stroke-width:1.25;"/>
   </g>
   <g id="PathCollection_5">
    <defs>
     <path d="M 0 4 
C 1.060812 4 2.078319 3.578535 2.828427 2.828427 
C 3.578535 2.078319 4 1.060812 4 0 
C 4 -1.060812 3.578535 -2.078319 2.828427 -2.828427 
C 2.078319 -3.578535 1.060812 -4 0 -4 
C -1.060812 -4 -2.078319 -3.578535 -2.828427 -2.828427 
C -3.578535 -2.078319 -4 -1.060812 -4 0 
C -4 1.060812 -3.578535 2.078319 -2.828427 2.828427 
C -2.078319 3.578535 -1.060812 4 0 4 
z
" id="C0_0_bb8399cac1"/>
    </defs>
    <g clip-path="url(#pba4094b949)">
     <use style="fill:#d55e00;" x="118.896826" xlink:href="#C0_0_bb8399cac1" y="300.813264"/>
    </g>
    <g clip-path="url(#pba4094b949)">
     <use style="fill:#d55e00;" x="138.589934" xlink:href="#C0_0_bb8399cac1" y="300.723812"/>
    </g>
    <g clip-path="url(#pba4094b949)">
     <use style="fill:#d55e00;" x="127.036476" xlink:href="#C0_0_bb8399cac1" y="300.796719"/>
    </g>
    <g clip-path="url(#pba4094b949)">
     <use style="fill:#d55e00;" x="128.454255" xlink:href="#C0_0_bb8399cac1" y="300.771455"/>
    </g>
   </g>
   <g id="PathCollection_6">
    <defs>
     <path d="M 0 4 
C 1.060812 4 2.078319 3.578535 2.828427 2.828427 
C 3.578535 2.078319 4 1.060812 4 0 
C 4 -1.060812 3.578535 -2.078319 2.828427 -2.828427 
C 2.078319 -3.578535 1.060812 -4 0 -4 
C -1.060812 -4 -2.078319 -3.578535 -2.828427 -2.828427 
C -3.578535 -2.078319 -4 -1.060812 -4 0 
C -4 1.060812 -3.578535 2.078319 -2.828427 2.828427 
C -2.078319 3.578535 -1.060812 4 0 4 
z
" id="C1_0_615395c3eb"/>
    </defs>
    <g clip-path="url(#pba4094b949)">
     <use style="fill:#009e73;" x="181.044702" xlink:href="#C1_0_615395c3eb" y="195.741269"/>
    </g>
    <g clip-path="url(#pba4094b949)">
     <use style="fill:#009e73;" x="176.340476" xlink:href="#C1_0_615395c3eb" y="195.403719"/>
    </g>
    <g clip-path="url(#pba4094b949)">
     <use style="fill:#009e73;" x="185.394685" xlink:href="#C1_0_615395c3eb" y="199.930201"/>
    </g>
    <g clip-path="url(#pba4094b949)">
     <use style="fill:#009e73;" x="182.827804" xlink:href="#C1_0_615395c3eb" y="199.565799"/>
    </g>
   </g>
   <g id="PathCollection_7">
    <defs>
     <path d="M 0 4 
C 1.060812 4 2.078319 3.578535 2.828427 2.828427 
C 3.578535 2.078319 4 1.060812 4 0 
C 4 -1.060812 3.578535 -2.078319 2.828427 -2.828427 
C 2.078319 -3.578535 1.060812 -4 0 -4 
C -1.060812 -4 -2.078319 -3.578535 -2.828427 -2.828427 
C -3.578535 -2.078319 -4 -1.060812 -4 0 
C -4 1.060812 -3.578535 2.078319 -2.828427 2.828427 
C -2.078319 3.578535 -1.060812 4 0 4 
z
" id="C2_0_726e473618"/>
    </defs>
    <g clip-path="url(#pba4094b949)">
     <use style="fill:#d55e00;" x="246.127631" xlink:href="#C2_0_726e473618" y="297.114422"/>
    </g>
    <g clip-path="url(#pba4094b949)">
     <use style="fill:#d55e00;" x="245.011111" xlink:href="#C2_0_726e473618" y="296.856215"/>
    </g>
    <g clip-path="url(#pba4094b949)">
     <use style="fill:#d55e00;" x="259.540423" xlink:href="#C2_0_726e473618" y="297.232669"/>
    </g>
    <g clip-path="url(#pba4094b949)">
     <use style="fill:#d55e00;" x="244.679553" xlink:href="#C2_0_726e473618" y="297.140387"/>
    </g>
   </g>
   <g id="PathCollection_8">
    <defs>
     <path d="M 0 4 
C 1.060812 4 2.078319 3.578535 2.828427 2.828427 
C 3.578535 2.078319 4 1.060812 4 0 
C 4 -1.060812 3.578535 -2.078319 2.828427 -2.828427 
C 2.078319 -3.578535 1.060812 -4 0 -4 
C -1.060812 -4 -2.078319 -3.578535 -2.828427 -2.828427 
C -3.578535 -2.078319 -4 -1.060812 -4 0 
C -4 1.060812 -3.578535 2.078319 -2.828427 2.828427 
C -2.078319 3.578535 -1.060812 4 0 4 
z
" id="C3_0_35c05cd614"/>
    </defs>
    <g clip-path="url(#pba4094b949)">
     <use style="fill:#009e73;" x="306.183879" xlink:href="#C3_0_35c05cd614" y="266.16291"/>
    </g>
    <g clip-path="url(#pba4094b949)">
     <use style="fill:#009e73;" x="305.334489" xlink:href="#C3_0_35c05cd614" y="265.226065"/>
    </g>
    <g clip-path="url(#pba4094b949)">
     <use style="fill:#009e73;" x="298.209111" xlink:href="#C3_0_35c05cd614" y="267.798887"/>
    </g>
    <g clip-path="url(#pba4094b949)">
     <use style="fill:#009e73;" x="307.583252" xlink:href="#C3_0_35c05cd614" y="267.430912"/>
    </g>
   </g>
   <g id="PathCollection_9">
    <defs>
     <path d="M 0 4 
C 1.060812 4 2.078319 3.578535 2.828427 2.828427 
C 3.578535 2.078319 4 1.060812 4 0 
C 4 -1.060812 3.578535 -2.078319 2.828427 -2.828427 
C 2.078319 -3.578535 1.060812 -4 0 -4 
C -1.060812 -4 -2.078319 -3.578535 -2.828427 -2.828427 
C -3.578535 -2.078319 -4 -1.060812 -4 0 
C -4 1.060812 -3.578535 2.078319 -2.828427 2.828427 
C -2.078319 3.578535 -1.060812 4 0 4 
z
" id="C4_0_7cb32e18fa"/>
    </defs>
    <g clip-path="url(#pba4094b949)">
     <use style="fill:#d55e00;" x="360.628556" xlink:href="#C4_0_7cb32e18fa" y="297.08339"/>
    </g>
    <g clip-path="url(#pba4094b949)">
     <use style="fill:#d55e00;" x="360.767617" xlink:href="#C4_0_7cb32e18fa" y="296.71719"/>
    </g>
    <g clip-path="url(#pba4094b949)">
     <use style="fill:#d55e00;" x="375.370286" xlink:href="#C4_0_7cb32e18fa" y="297.212856"/>
    </g>
    <g clip-path="url(#pba4094b949)">
     <use style="fill:#d55e00;" x="379.979756" xlink:href="#C4_0_7cb32e18fa" y="297.228431"/>
    </g>
   </g>
   <g id="PathCollection_10">
    <defs>
     <path d="M 0 4 
C 1.060812 4 2.078319 3.578535 2.828427 2.828427 
C 3.578535 2.078319 4 1.060812 4 0 
C 4 -1.060812 3.578535 -2.078319 2.828427 -2.828427 
C 2.078319 -3.578535 1.060812 -4 0 -4 
C -1.060812 -4 -2.078319 -3.578535 -2.828427 -2.828427 
C -3.578535 -2.078319 -4 -1.060812 -4 0 
C -4 1.060812 -3.578535 2.078319 -2.828427 2.828427 
C -2.078319 3.578535 -1.060812 4 0 4 
z
" id="C5_0_42fd3f917e"/>
    </defs>
    <g clip-path="url(#pba4094b949)">
     <use style="fill:#009e73;" x="410.935504" xlink:href="#C5_0_42fd3f917e" y="292.903386"/>
    </g>
    <g clip-path="url(#pba4094b949)">
     <use style="fill:#009e73;" x="413.765306" xlink:href="#C5_0_42fd3f917e" y="292.834115"/>
    </g>
    <g clip-path="url(#pba4094b949)">
     <use style="fill:#009e73;" x="423.447059" xlink:href="#C5_0_42fd3f917e" y="293.196916"/>
    </g>
    <g clip-path="url(#pba4094b949)">
     <use style="fill:#009e73;" x="411.051192" xlink:href="#C5_0_42fd3f917e" y="292.72501"/>
    </g>
   </g>
   <g id="text_12">
    <text style="fill:#262626;font-family:DejaVu Sans;font-size:16.8px;font-style:normal;font-weight:normal;" transform="translate(223.98225 34.131675)">Arabidopsis</text>
    <text style="fill:#262626;font-family:DejaVu Sans;font-size:16.8px;font-style:normal;font-weight:normal;" transform="translate(149.129063 52.944)">(TAIR10 + AtRTD2 reference)</text>
   </g>
  </g>
  <g id="axes_2">
   <g id="patch_15">
    <path d="M 479.972 313.956 
L 845.856 313.956 
L 845.856 58.944 
L 479.972 58.944 
z
" style="fill:#ffffff;"/>
   </g>
   <g id="matplotlib.axis_3">
    <g id="xtick_4">
     <g id="line2d_48">
      <g>
       <use style="fill:#262626;stroke:#262626;stroke-width:1.25;" x="540.952667" xlink:href="#mbc92227e57" y="313.956"/>
      </g>
     </g>
     <g id="text_13">
      <text style="fill:#262626;font-family:DejaVu Sans;font-size:15.4px;font-style:normal;font-weight:normal;text-anchor:middle;" transform="rotate(-0, 540.952667, 335.157594)" x="540.952667" y="335.157594">Unguided</text>
     </g>
    </g>
    <g id="xtick_5">
     <g id="line2d_49">
      <g>
       <use style="fill:#262626;stroke:#262626;stroke-width:1.25;" x="662.914" xlink:href="#mbc92227e57" y="313.956"/>
      </g>
     </g>
     <g id="text_14">
      <text style="fill:#262626;font-family:DejaVu Sans;font-size:15.4px;font-style:normal;font-weight:normal;" transform="translate(641.303469 335.157594)">FLAIR</text>
      <text style="fill:#262626;font-family:DejaVu Sans;font-size:15.4px;font-style:normal;font-weight:normal;" transform="translate(626.024984 352.402225)">corrected</text>
     </g>
    </g>
    <g id="xtick_6">
     <g id="line2d_50">
      <g>
       <use style="fill:#262626;stroke:#262626;stroke-width:1.25;" x="784.875333" xlink:href="#mbc92227e57" y="313.956"/>
      </g>
     </g>
     <g id="text_15">
      <text style="fill:#262626;font-family:DejaVu Sans;font-size:15.4px;font-style:normal;font-weight:normal;" transform="translate(745.590896 335.157594)">Reference</text>
      <text style="fill:#262626;font-family:DejaVu Sans;font-size:15.4px;font-style:normal;font-weight:normal;" transform="translate(758.453505 352.402225)">guided</text>
     </g>
    </g>
    <g id="text_16">
     <text style="fill:#262626;font-family:DejaVu Sans;font-size:16.8px;font-style:normal;font-weight:normal;text-anchor:middle;" transform="rotate(-0, 662.914, 372.370319)" x="662.914" y="372.370319">Alignment strategy</text>
    </g>
   </g>
   <g id="matplotlib.axis_4">
    <g id="ytick_7">
     <g id="line2d_51">
      <g>
       <use style="fill:#262626;stroke:#262626;stroke-width:1.25;" x="479.972" xlink:href="#m9782e14ee4" y="308.739452"/>
      </g>
     </g>
    </g>
    <g id="ytick_8">
     <g id="line2d_52">
      <g>
       <use style="fill:#262626;stroke:#262626;stroke-width:1.25;" x="479.972" xlink:href="#m9782e14ee4" y="264.365905"/>
      </g>
     </g>
    </g>
    <g id="ytick_9">
     <g id="line2d_53">
      <g>
       <use style="fill:#262626;stroke:#262626;stroke-width:1.25;" x="479.972" xlink:href="#m9782e14ee4" y="219.992358"/>
      </g>
     </g>
    </g>
    <g id="ytick_10">
     <g id="line2d_54">
      <g>
       <use style="fill:#262626;stroke:#262626;stroke-width:1.25;" x="479.972" xlink:href="#m9782e14ee4" y="175.618811"/>
      </g>
     </g>
    </g>
    <g id="ytick_11">
     <g id="line2d_55">
      <g>
       <use style="fill:#262626;stroke:#262626;stroke-width:1.25;" x="479.972" xlink:href="#m9782e14ee4" y="131.245264"/>
      </g>
     </g>
    </g>
    <g id="ytick_12">
     <g id="line2d_56">
      <g>
       <use style="fill:#262626;stroke:#262626;stroke-width:1.25;" x="479.972" xlink:href="#m9782e14ee4" y="86.871717"/>
      </g>
     </g>
    </g>
   </g>
   <g id="patch_16">
    <path clip-path="url(#p7ba75cb0f1)" d="M 492.655979 291.824063 
L 540.464821 291.824063 
L 540.464821 291.34208 
L 492.655979 291.34208 
L 492.655979 291.824063 
z
" style="fill:#f2f2f2;stroke:#8f8f8f;stroke-linejoin:miter;stroke-width:1.5;"/>
   </g>
   <g id="patch_17">
    <path clip-path="url(#p7ba75cb0f1)" d="M 541.440512 84.39096 
L 589.249355 84.39096 
L 589.249355 75.314111 
L 541.440512 75.314111 
L 541.440512 84.39096 
z
" style="fill:#eeeeee;stroke:#8f8f8f;stroke-linejoin:miter;stroke-width:1.5;"/>
   </g>
   <g id="patch_18">
    <path clip-path="url(#p7ba75cb0f1)" d="M 614.617312 285.040437 
L 662.426155 285.040437 
L 662.426155 284.15168 
L 614.617312 284.15168 
L 614.617312 285.040437 
z
" style="fill:#f2f2f2;stroke:#8f8f8f;stroke-linejoin:miter;stroke-width:1.5;"/>
   </g>
   <g id="patch_19">
    <path clip-path="url(#p7ba75cb0f1)" d="M 663.401845 176.299469 
L 711.210688 176.299469 
L 711.210688 168.049407 
L 663.401845 168.049407 
L 663.401845 176.299469 
z
" style="fill:#eeeeee;stroke:#8f8f8f;stroke-linejoin:miter;stroke-width:1.5;"/>
   </g>
   <g id="patch_20">
    <path clip-path="url(#p7ba75cb0f1)" d="M 736.578645 285.000696 
L 784.387488 285.000696 
L 784.387488 283.845814 
L 736.578645 283.845814 
L 736.578645 285.000696 
z
" style="fill:#f2f2f2;stroke:#8f8f8f;stroke-linejoin:miter;stroke-width:1.5;"/>
   </g>
   <g id="patch_21">
    <path clip-path="url(#p7ba75cb0f1)" d="M 785.363179 216.80687 
L 833.172021 216.80687 
L 833.172021 211.909929 
L 785.363179 211.909929 
L 785.363179 216.80687 
z
" style="fill:#eeeeee;stroke:#8f8f8f;stroke-linejoin:miter;stroke-width:1.5;"/>
   </g>
   <g id="PathCollection_11"/>
   <g id="PathCollection_12"/>
   <g id="patch_22">
    <path clip-path="url(#p7ba75cb0f1)" d="M 540.952667 308.739452 
L 540.952667 308.739452 
L 540.952667 308.739452 
L 540.952667 308.739452 
z
" style="fill:#f2f2f2;stroke:#8f8f8f;stroke-linejoin:miter;stroke-width:0.75;"/>
   </g>
   <g id="patch_23">
    <path clip-path="url(#p7ba75cb0f1)" d="M 540.952667 308.739452 
L 540.952667 308.739452 
L 540.952667 308.739452 
L 540.952667 308.739452 
z
" style="fill:#eeeeee;stroke:#8f8f8f;stroke-linejoin:miter;stroke-width:0.75;"/>
   </g>
   <g id="line2d_57">
    <path clip-path="url(#p7ba75cb0f1)" d="M 516.5604 291.824063 
L 516.5604 292.378363 
" style="fill:none;stroke:#8f8f8f;stroke-linecap:round;stroke-width:1.5;"/>
   </g>
   <g id="line2d_58">
    <path clip-path="url(#p7ba75cb0f1)" d="M 516.5604 291.34208 
L 516.5604 290.731006 
" style="fill:none;stroke:#8f8f8f;stroke-linecap:round;stroke-width:1.5;"/>
   </g>
   <g id="line2d_59">
    <path clip-path="url(#p7ba75cb0f1)" d="M 504.608189 292.378363 
L 528.512611 292.378363 
" style="fill:none;stroke:#8f8f8f;stroke-linecap:round;stroke-width:1.5;"/>
   </g>
   <g id="line2d_60">
    <path clip-path="url(#p7ba75cb0f1)" d="M 504.608189 290.731006 
L 528.512611 290.731006 
" style="fill:none;stroke:#8f8f8f;stroke-linecap:round;stroke-width:1.5;"/>
   </g>
   <g id="line2d_61"/>
   <g id="line2d_62">
    <path clip-path="url(#p7ba75cb0f1)" d="M 565.344933 84.39096 
L 565.344933 87.694597 
" style="fill:none;stroke:#8f8f8f;stroke-linecap:round;stroke-width:1.5;"/>
   </g>
   <g id="line2d_63">
    <path clip-path="url(#p7ba75cb0f1)" d="M 565.344933 75.314111 
L 565.344933 73.897733 
" style="fill:none;stroke:#8f8f8f;stroke-linecap:round;stroke-width:1.5;"/>
   </g>
   <g id="line2d_64">
    <path clip-path="url(#p7ba75cb0f1)" d="M 553.392723 87.694597 
L 577.297144 87.694597 
" style="fill:none;stroke:#8f8f8f;stroke-linecap:round;stroke-width:1.5;"/>
   </g>
   <g id="line2d_65">
    <path clip-path="url(#p7ba75cb0f1)" d="M 553.392723 73.897733 
L 577.297144 73.897733 
" style="fill:none;stroke:#8f8f8f;stroke-linecap:round;stroke-width:1.5;"/>
   </g>
   <g id="line2d_66"/>
   <g id="line2d_67">
    <path clip-path="url(#p7ba75cb0f1)" d="M 638.521733 285.040437 
L 638.521733 286.12097 
" style="fill:none;stroke:#8f8f8f;stroke-linecap:round;stroke-width:1.5;"/>
   </g>
   <g id="line2d_68">
    <path clip-path="url(#p7ba75cb0f1)" d="M 638.521733 284.15168 
L 638.521733 283.43002 
" style="fill:none;stroke:#8f8f8f;stroke-linecap:round;stroke-width:1.5;"/>
   </g>
   <g id="line2d_69">
    <path clip-path="url(#p7ba75cb0f1)" d="M 626.569523 286.12097 
L 650.473944 286.12097 
" style="fill:none;stroke:#8f8f8f;stroke-linecap:round;stroke-width:1.5;"/>
   </g>
   <g id="line2d_70">
    <path clip-path="url(#p7ba75cb0f1)" d="M 626.569523 283.43002 
L 650.473944 283.43002 
" style="fill:none;stroke:#8f8f8f;stroke-linecap:round;stroke-width:1.5;"/>
   </g>
   <g id="line2d_71"/>
   <g id="line2d_72">
    <path clip-path="url(#p7ba75cb0f1)" d="M 687.306267 176.299469 
L 687.306267 178.068861 
" style="fill:none;stroke:#8f8f8f;stroke-linecap:round;stroke-width:1.5;"/>
   </g>
   <g id="line2d_73">
    <path clip-path="url(#p7ba75cb0f1)" d="M 687.306267 168.049407 
L 687.306267 166.735539 
" style="fill:none;stroke:#8f8f8f;stroke-linecap:round;stroke-width:1.5;"/>
   </g>
   <g id="line2d_74">
    <path clip-path="url(#p7ba75cb0f1)" d="M 675.354056 178.068861 
L 699.258477 178.068861 
" style="fill:none;stroke:#8f8f8f;stroke-linecap:round;stroke-width:1.5;"/>
   </g>
   <g id="line2d_75">
    <path clip-path="url(#p7ba75cb0f1)" d="M 675.354056 166.735539 
L 699.258477 166.735539 
" style="fill:none;stroke:#8f8f8f;stroke-linecap:round;stroke-width:1.5;"/>
   </g>
   <g id="line2d_76"/>
   <g id="line2d_77">
    <path clip-path="url(#p7ba75cb0f1)" d="M 760.483067 285.000696 
L 760.483067 286.002509 
" style="fill:none;stroke:#8f8f8f;stroke-linecap:round;stroke-width:1.5;"/>
   </g>
   <g id="line2d_78">
    <path clip-path="url(#p7ba75cb0f1)" d="M 760.483067 283.845814 
L 760.483067 283.117739 
" style="fill:none;stroke:#8f8f8f;stroke-linecap:round;stroke-width:1.5;"/>
   </g>
   <g id="line2d_79">
    <path clip-path="url(#p7ba75cb0f1)" d="M 748.530856 286.002509 
L 772.435277 286.002509 
" style="fill:none;stroke:#8f8f8f;stroke-linecap:round;stroke-width:1.5;"/>
   </g>
   <g id="line2d_80">
    <path clip-path="url(#p7ba75cb0f1)" d="M 748.530856 283.117739 
L 772.435277 283.117739 
" style="fill:none;stroke:#8f8f8f;stroke-linecap:round;stroke-width:1.5;"/>
   </g>
   <g id="line2d_81"/>
   <g id="line2d_82">
    <path clip-path="url(#p7ba75cb0f1)" d="M 809.2676 216.80687 
L 809.2676 216.906584 
" style="fill:none;stroke:#8f8f8f;stroke-linecap:round;stroke-width:1.5;"/>
   </g>
   <g id="line2d_83">
    <path clip-path="url(#p7ba75cb0f1)" d="M 809.2676 211.909929 
L 809.2676 210.922886 
" style="fill:none;stroke:#8f8f8f;stroke-linecap:round;stroke-width:1.5;"/>
   </g>
   <g id="line2d_84">
    <path clip-path="url(#p7ba75cb0f1)" d="M 797.315389 216.906584 
L 821.219811 216.906584 
" style="fill:none;stroke:#8f8f8f;stroke-linecap:round;stroke-width:1.5;"/>
   </g>
   <g id="line2d_85">
    <path clip-path="url(#p7ba75cb0f1)" d="M 797.315389 210.922886 
L 821.219811 210.922886 
" style="fill:none;stroke:#8f8f8f;stroke-linecap:round;stroke-width:1.5;"/>
   </g>
   <g id="line2d_86"/>
   <g id="line2d_87">
    <path clip-path="url(#p7ba75cb0f1)" d="M 601.933333 313.956 
L 601.933333 58.944 
" style="fill:none;stroke:#555555;stroke-dasharray:5.55,2.4;stroke-dashoffset:0;stroke-width:1.5;"/>
   </g>
   <g id="line2d_88">
    <path clip-path="url(#p7ba75cb0f1)" d="M 723.894667 313.956 
L 723.894667 58.944 
" style="fill:none;stroke:#555555;stroke-dasharray:5.55,2.4;stroke-dashoffset:0;stroke-width:1.5;"/>
   </g>
   <g id="line2d_89">
    <path clip-path="url(#p7ba75cb0f1)" d="M 492.655979 291.592534 
L 540.464821 291.592534 
" style="fill:none;stroke:#8f8f8f;stroke-linecap:round;stroke-width:1.5;"/>
   </g>
   <g id="line2d_90">
    <path clip-path="url(#p7ba75cb0f1)" d="M 541.440512 79.537992 
L 589.249355 79.537992 
" style="fill:none;stroke:#8f8f8f;stroke-linecap:round;stroke-width:1.5;"/>
   </g>
   <g id="line2d_91">
    <path clip-path="url(#p7ba75cb0f1)" d="M 614.617312 284.536247 
L 662.426155 284.536247 
" style="fill:none;stroke:#8f8f8f;stroke-linecap:round;stroke-width:1.5;"/>
   </g>
   <g id="line2d_92">
    <path clip-path="url(#p7ba75cb0f1)" d="M 663.401845 172.098517 
L 711.210688 172.098517 
" style="fill:none;stroke:#8f8f8f;stroke-linecap:round;stroke-width:1.5;"/>
   </g>
   <g id="line2d_93">
    <path clip-path="url(#p7ba75cb0f1)" d="M 736.578645 284.377632 
L 784.387488 284.377632 
" style="fill:none;stroke:#8f8f8f;stroke-linecap:round;stroke-width:1.5;"/>
   </g>
   <g id="line2d_94">
    <path clip-path="url(#p7ba75cb0f1)" d="M 785.363179 214.506287 
L 833.172021 214.506287 
" style="fill:none;stroke:#8f8f8f;stroke-linecap:round;stroke-width:1.5;"/>
   </g>
   <g id="patch_24">
    <path d="M 479.972 313.956 
L 479.972 58.944 
" style="fill:none;stroke:#262626;stroke-linecap:square;stroke-linejoin:miter;stroke-width:1.25;"/>
   </g>
   <g id="patch_25">
    <path d="M 845.856 313.956 
L 845.856 58.944 
" style="fill:none;stroke:#262626;stroke-linecap:square;stroke-linejoin:miter;stroke-width:1.25;"/>
   </g>
   <g id="patch_26">
    <path d="M 479.972 313.956 
L 845.856 313.956 
" style="fill:none;stroke:#262626;stroke-linecap:square;stroke-linejoin:miter;stroke-width:1.25;"/>
   </g>
   <g id="patch_27">
    <path d="M 479.972 58.944 
L 845.856 58.944 
" style="fill:none;stroke:#262626;stroke-linecap:square;stroke-linejoin:miter;stroke-width:1.25;"/>
   </g>
   <g id="PathCollection_13">
    <defs>
     <path d="M 0 4 
C 1.060812 4 2.078319 3.578535 2.828427 2.828427 
C 3.578535 2.078319 4 1.060812 4 0 
C 4 -1.060812 3.578535 -2.078319 2.828427 -2.828427 
C 2.078319 -3.578535 1.060812 -4 0 -4 
C -1.060812 -4 -2.078319 -3.578535 -2.828427 -2.828427 
C -3.578535 -2.078319 -4 -1.060812 -4 0 
C -4 1.060812 -3.578535 2.078319 -2.828427 2.828427 
C -2.078319 3.578535 -1.060812 4 0 4 
z
" id="C6_0_f5c5034b6f"/>
    </defs>
    <g clip-path="url(#p7ba75cb0f1)">
     <use style="fill:#d55e00;" x="521.472298" xlink:href="#C6_0_f5c5034b6f" y="290.731006"/>
    </g>
    <g clip-path="url(#p7ba75cb0f1)">
     <use style="fill:#d55e00;" x="516.258795" xlink:href="#C6_0_f5c5034b6f" y="291.639297"/>
    </g>
    <g clip-path="url(#p7ba75cb0f1)">
     <use style="fill:#d55e00;" x="520.96754" xlink:href="#C6_0_f5c5034b6f" y="292.378363"/>
    </g>
    <g clip-path="url(#p7ba75cb0f1)">
     <use style="fill:#d55e00;" x="517.086009" xlink:href="#C6_0_f5c5034b6f" y="291.545771"/>
    </g>
   </g>
   <g id="PathCollection_14">
    <defs>
     <path d="M 0 4 
C 1.060812 4 2.078319 3.578535 2.828427 2.828427 
C 3.578535 2.078319 4 1.060812 4 0 
C 4 -1.060812 3.578535 -2.078319 2.828427 -2.828427 
C 2.078319 -3.578535 1.060812 -4 0 -4 
C -1.060812 -4 -2.078319 -3.578535 -2.828427 -2.828427 
C -3.578535 -2.078319 -4 -1.060812 -4 0 
C -4 1.060812 -3.578535 2.078319 -2.828427 2.828427 
C -2.078319 3.578535 -1.060812 4 0 4 
z
" id="C7_0_c8d45b9039"/>
    </defs>
    <g clip-path="url(#p7ba75cb0f1)">
     <use style="fill:#009e73;" x="554.207344" xlink:href="#C7_0_c8d45b9039" y="75.786237"/>
    </g>
    <g clip-path="url(#p7ba75cb0f1)">
     <use style="fill:#009e73;" x="558.611121" xlink:href="#C7_0_c8d45b9039" y="83.289748"/>
    </g>
    <g clip-path="url(#p7ba75cb0f1)">
     <use style="fill:#009e73;" x="567.179356" xlink:href="#C7_0_c8d45b9039" y="87.694597"/>
    </g>
    <g clip-path="url(#p7ba75cb0f1)">
     <use style="fill:#009e73;" x="556.08645" xlink:href="#C7_0_c8d45b9039" y="73.897733"/>
    </g>
   </g>
   <g id="PathCollection_15">
    <defs>
     <path d="M 0 4 
C 1.060812 4 2.078319 3.578535 2.828427 2.828427 
C 3.578535 2.078319 4 1.060812 4 0 
C 4 -1.060812 3.578535 -2.078319 2.828427 -2.828427 
C 2.078319 -3.578535 1.060812 -4 0 -4 
C -1.060812 -4 -2.078319 -3.578535 -2.828427 -2.828427 
C -3.578535 -2.078319 -4 -1.060812 -4 0 
C -4 1.060812 -3.578535 2.078319 -2.828427 2.828427 
C -2.078319 3.578535 -1.060812 4 0 4 
z
" id="C8_0_b589abd2fa"/>
    </defs>
    <g clip-path="url(#p7ba75cb0f1)">
     <use style="fill:#d55e00;" x="638.52458" xlink:href="#C8_0_b589abd2fa" y="283.43002"/>
    </g>
    <g clip-path="url(#p7ba75cb0f1)">
     <use style="fill:#d55e00;" x="629.691966" xlink:href="#C8_0_b589abd2fa" y="284.68026"/>
    </g>
    <g clip-path="url(#p7ba75cb0f1)">
     <use style="fill:#d55e00;" x="627.613717" xlink:href="#C8_0_b589abd2fa" y="286.12097"/>
    </g>
    <g clip-path="url(#p7ba75cb0f1)">
     <use style="fill:#d55e00;" x="630.674178" xlink:href="#C8_0_b589abd2fa" y="284.392233"/>
    </g>
   </g>
   <g id="PathCollection_16">
    <defs>
     <path d="M 0 4 
C 1.060812 4 2.078319 3.578535 2.828427 2.828427 
C 3.578535 2.078319 4 1.060812 4 0 
C 4 -1.060812 3.578535 -2.078319 2.828427 -2.828427 
C 2.078319 -3.578535 1.060812 -4 0 -4 
C -1.060812 -4 -2.078319 -3.578535 -2.828427 -2.828427 
C -3.578535 -2.078319 -4 -1.060812 -4 0 
C -4 1.060812 -3.578535 2.078319 -2.828427 2.828427 
C -2.078319 3.578535 -1.060812 4 0 4 
z
" id="C9_0_7b08db40ce"/>
    </defs>
    <g clip-path="url(#p7ba75cb0f1)">
     <use style="fill:#009e73;" x="685.900495" xlink:href="#C9_0_7b08db40ce" y="168.487363"/>
    </g>
    <g clip-path="url(#p7ba75cb0f1)">
     <use style="fill:#009e73;" x="696.516477" xlink:href="#C9_0_7b08db40ce" y="175.709671"/>
    </g>
    <g clip-path="url(#p7ba75cb0f1)">
     <use style="fill:#009e73;" x="698.264837" xlink:href="#C9_0_7b08db40ce" y="178.068861"/>
    </g>
    <g clip-path="url(#p7ba75cb0f1)">
     <use style="fill:#009e73;" x="686.77372" xlink:href="#C9_0_7b08db40ce" y="166.735539"/>
    </g>
   </g>
   <g id="PathCollection_17">
    <defs>
     <path d="M 0 4 
C 1.060812 4 2.078319 3.578535 2.828427 2.828427 
C 3.578535 2.078319 4 1.060812 4 0 
C 4 -1.060812 3.578535 -2.078319 2.828427 -2.828427 
C 2.078319 -3.578535 1.060812 -4 0 -4 
C -1.060812 -4 -2.078319 -3.578535 -2.828427 -2.828427 
C -3.578535 -2.078319 -4 -1.060812 -4 0 
C -4 1.060812 -3.578535 2.078319 -2.828427 2.828427 
C -2.078319 3.578535 -1.060812 4 0 4 
z
" id="Ca_0_b586fb35dc"/>
    </defs>
    <g clip-path="url(#p7ba75cb0f1)">
     <use style="fill:#d55e00;" x="759.534679" xlink:href="#Ca_0_b586fb35dc" y="283.117739"/>
    </g>
    <g clip-path="url(#p7ba75cb0f1)">
     <use style="fill:#d55e00;" x="763.831857" xlink:href="#Ca_0_b586fb35dc" y="284.666758"/>
    </g>
    <g clip-path="url(#p7ba75cb0f1)">
     <use style="fill:#d55e00;" x="756.204858" xlink:href="#Ca_0_b586fb35dc" y="286.002509"/>
    </g>
    <g clip-path="url(#p7ba75cb0f1)">
     <use style="fill:#d55e00;" x="751.15493" xlink:href="#Ca_0_b586fb35dc" y="284.088506"/>
    </g>
   </g>
   <g id="PathCollection_18">
    <defs>
     <path d="M 0 4 
C 1.060812 4 2.078319 3.578535 2.828427 2.828427 
C 3.578535 2.078319 4 1.060812 4 0 
C 4 -1.060812 3.578535 -2.078319 2.828427 -2.828427 
C 2.078319 -3.578535 1.060812 -4 0 -4 
C -1.060812 -4 -2.078319 -3.578535 -2.828427 -2.828427 
C -3.578535 -2.078319 -4 -1.060812 -4 0 
C -4 1.060812 -3.578535 2.078319 -2.828427 2.828427 
C -2.078319 3.578535 -1.060812 4 0 4 
z
" id="Cb_0_42441b252c"/>
    </defs>
    <g clip-path="url(#p7ba75cb0f1)">
     <use style="fill:#009e73;" x="798.317936" xlink:href="#Cb_0_42441b252c" y="212.238943"/>
    </g>
    <g clip-path="url(#p7ba75cb0f1)">
     <use style="fill:#009e73;" x="812.625407" xlink:href="#Cb_0_42441b252c" y="216.773632"/>
    </g>
    <g clip-path="url(#p7ba75cb0f1)">
     <use style="fill:#009e73;" x="816.884473" xlink:href="#Cb_0_42441b252c" y="216.906584"/>
    </g>
    <g clip-path="url(#p7ba75cb0f1)">
     <use style="fill:#009e73;" x="813.420638" xlink:href="#Cb_0_42441b252c" y="210.922886"/>
    </g>
   </g>
   <g id="text_17">
    <text style="fill:#262626;font-family:DejaVu Sans;font-size:16.8px;font-style:normal;font-weight:normal;text-anchor:middle;" transform="rotate(-0, 662.914, 52.944)" x="662.914" y="52.944">Human (GRCh38 reference)</text>
   </g>
   <g id="legend_1">
    <g id="patch_28">
     <path d="M 662.762031 133.717256 
L 835.076 133.717256 
Q 838.156 133.717256 838.156 130.637256 
L 838.156 69.724 
Q 838.156 66.644 835.076 66.644 
L 662.762031 66.644 
Q 659.682031 66.644 659.682031 69.724 
L 659.682031 130.637256 
Q 659.682031 133.717256 662.762031 133.717256 
z
" style="fill:#ffffff;opacity:0.8;stroke:#cccccc;stroke-linejoin:miter;"/>
    </g>
    <g id="PathCollection_19">
     <defs>
      <path d="M 0 2.95804 
C 0.784481 2.95804 1.536938 2.646362 2.09165 2.09165 
C 2.646362 1.536938 2.95804 0.784481 2.95804 0 
C 2.95804 -0.784481 2.646362 -1.536938 2.09165 -2.09165 
C 1.536938 -2.646362 0.784481 -2.95804 0 -2.95804 
C -0.784481 -2.95804 -1.536938 -2.646362 -2.09165 -2.09165 
C -2.646362 -1.536938 -2.95804 -0.784481 -2.95804 0 
C -2.95804 0.784481 -2.646362 1.536938 -2.09165 2.09165 
C -1.536938 2.646362 -0.784481 2.95804 0 2.95804 
z
" id="mc87318db62" style="stroke:#d55e00;"/>
     </defs>
     <g>
      <use style="fill:#d55e00;stroke:#d55e00;" x="681.242031" xlink:href="#mc87318db62" y="80.463094"/>
     </g>
    </g>
    <g id="text_18">
     <text style="fill:#262626;font-family:DejaVu Sans;font-size:15.4px;font-style:normal;font-weight:normal;text-anchor:start;" transform="rotate(-0, 708.962031, 84.505594)" x="708.962031" y="84.505594">Not in annot.</text>
    </g>
    <g id="PathCollection_20">
     <defs>
      <path d="M 0 2.95804 
C 0.784481 2.95804 1.536938 2.646362 2.09165 2.09165 
C 2.646362 1.536938 2.95804 0.784481 2.95804 0 
C 2.95804 -0.784481 2.646362 -1.536938 2.09165 -2.09165 
C 1.536938 -2.646362 0.784481 -2.95804 0 -2.95804 
C -0.784481 -2.95804 -1.536938 -2.646362 -2.09165 -2.09165 
C -2.646362 -1.536938 -2.95804 -0.784481 -2.95804 0 
C -2.95804 0.784481 -2.646362 1.536938 -2.09165 2.09165 
C -1.536938 2.646362 -0.784481 2.95804 0 2.95804 
z
" id="m676cb77f86" style="stroke:#009e73;"/>
     </defs>
     <g>
      <use style="fill:#009e73;stroke:#009e73;" x="681.242031" xlink:href="#m676cb77f86" y="113.291081"/>
     </g>
    </g>
    <g id="text_19">
     <text style="fill:#262626;font-family:DejaVu Sans;font-size:15.4px;font-style:normal;font-weight:normal;" transform="translate(708.962031 107.109906)">Incorrect annot.</text>
     <text style="fill:#262626;font-family:DejaVu Sans;font-size:15.4px;font-style:normal;font-weight:normal;" transform="translate(708.962031 124.354538)">transcipt</text>
    </g>
   </g>
  </g>
 </g>
 <defs>
  <clipPath id="pba4094b949">
   <rect height="255.012" width="365.884" x="89.944" y="58.944"/>
  </clipPath>
  <clipPath id="p7ba75cb0f1">
   <rect height="255.012" width="365.884" x="479.972" y="58.944"/>
  </clipPath>
 </defs>
</svg>
