<?xml version="1.0" encoding="utf-8" standalone="no"?>
<!DOCTYPE svg PUBLIC "-//W3C//DTD SVG 1.1//EN"
  "http://www.w3.org/Graphics/SVG/1.1/DTD/svg11.dtd">
<!-- Created with matplotlib (https://matplotlib.org/) -->
<svg height="396pt" version="1.1" viewBox="0 0 720 396" width="720pt" xmlns="http://www.w3.org/2000/svg" xmlns:xlink="http://www.w3.org/1999/xlink">
 <defs>
  <style type="text/css">
*{stroke-linecap:butt;stroke-linejoin:round;}
  </style>
 </defs>
 <g id="figure_1">
  <g id="patch_1">
   <path d="M 0 396 
L 720 396 
L 720 0 
L 0 0 
z
" style="fill:#ffffff;"/>
  </g>
  <g id="axes_1">
   <g id="patch_2">
    <path d="M 93.519 282.984277 
L 369.811491 282.984277 
L 369.811491 58.944 
L 93.519 58.944 
z
" style="fill:#ffffff;"/>
   </g>
   <g id="matplotlib.axis_1">
    <g id="xtick_1">
     <g id="line2d_1">
      <defs>
       <path d="M 0 0 
L 0 6 
" id="mfd6a70a698" style="stroke:#262626;stroke-width:1.25;"/>
      </defs>
      <g>
       <use style="fill:#262626;stroke:#262626;stroke-width:1.25;" x="128.055561" xlink:href="#mfd6a70a698" y="282.984277"/>
      </g>
     </g>
     <g id="text_1">
      <text style="fill:#262626;font-family:DejaVu Sans;font-size:15.4px;font-style:normal;font-weight:normal;" transform="translate(64.523562 338.373826)rotate(-30)">One pass</text>
     </g>
    </g>
    <g id="xtick_2">
     <g id="line2d_2">
      <g>
       <use style="fill:#262626;stroke:#262626;stroke-width:1.25;" x="197.128684" xlink:href="#mfd6a70a698" y="282.984277"/>
      </g>
     </g>
     <g id="text_2">
      <text style="fill:#262626;font-family:DejaVu Sans;font-size:15.4px;font-style:normal;font-weight:normal;" transform="translate(120.712847 340.834217)rotate(-30)">Two pass,</text>
      <text style="fill:#262626;font-family:DejaVu Sans;font-size:15.4px;font-style:normal;font-weight:normal;" transform="translate(96.468308 374.744193)rotate(-30)">decision tree 1</text>
     </g>
    </g>
    <g id="xtick_3">
     <g id="line2d_3">
      <g>
       <use style="fill:#262626;stroke:#262626;stroke-width:1.25;" x="266.201807" xlink:href="#mfd6a70a698" y="282.984277"/>
      </g>
     </g>
     <g id="text_3">
      <text style="fill:#262626;font-family:DejaVu Sans;font-size:15.4px;font-style:normal;font-weight:normal;" transform="translate(189.78597 340.834217)rotate(-30)">Two pass,</text>
      <text style="fill:#262626;font-family:DejaVu Sans;font-size:15.4px;font-style:normal;font-weight:normal;" transform="translate(165.541431 374.744193)rotate(-30)">decision tree 2</text>
     </g>
    </g>
    <g id="xtick_4">
     <g id="line2d_4">
      <g>
       <use style="fill:#262626;stroke:#262626;stroke-width:1.25;" x="335.27493" xlink:href="#mfd6a70a698" y="282.984277"/>
      </g>
     </g>
     <g id="text_4">
      <text style="fill:#262626;font-family:DejaVu Sans;font-size:15.4px;font-style:normal;font-weight:normal;" transform="translate(231.393638 356.691404)rotate(-30)">Annot. guided</text>
      <text style="fill:#262626;font-family:DejaVu Sans;font-size:15.4px;font-style:normal;font-weight:normal;" transform="translate(266.2936 356.454287)rotate(-30)">alignment</text>
     </g>
    </g>
   </g>
   <g id="matplotlib.axis_2">
    <g id="ytick_1">
     <g id="line2d_5">
      <defs>
       <path d="M 0 0 
L -6 0 
" id="m7976a9ace1" style="stroke:#262626;stroke-width:1.25;"/>
      </defs>
      <g>
       <use style="fill:#262626;stroke:#262626;stroke-width:1.25;" x="93.519" xlink:href="#m7976a9ace1" y="244.110161"/>
      </g>
     </g>
     <g id="text_5">
      <text style="fill:#262626;font-family:DejaVu Sans;font-size:15.4px;font-style:normal;font-weight:normal;text-anchor:end;" transform="rotate(-0, 84.019, 249.960958)" x="84.019" y="249.960958">0.80</text>
     </g>
    </g>
    <g id="ytick_2">
     <g id="line2d_6">
      <g>
       <use style="fill:#262626;stroke:#262626;stroke-width:1.25;" x="93.519" xlink:href="#m7976a9ace1" y="191.754757"/>
      </g>
     </g>
     <g id="text_6">
      <text style="fill:#262626;font-family:DejaVu Sans;font-size:15.4px;font-style:normal;font-weight:normal;text-anchor:end;" transform="rotate(-0, 84.019, 197.605554)" x="84.019" y="197.605554">0.85</text>
     </g>
    </g>
    <g id="ytick_3">
     <g id="line2d_7">
      <g>
       <use style="fill:#262626;stroke:#262626;stroke-width:1.25;" x="93.519" xlink:href="#m7976a9ace1" y="139.399353"/>
      </g>
     </g>
     <g id="text_7">
      <text style="fill:#262626;font-family:DejaVu Sans;font-size:15.4px;font-style:normal;font-weight:normal;text-anchor:end;" transform="rotate(-0, 84.019, 145.25015)" x="84.019" y="145.25015">0.90</text>
     </g>
    </g>
    <g id="ytick_4">
     <g id="line2d_8">
      <g>
       <use style="fill:#262626;stroke:#262626;stroke-width:1.25;" x="93.519" xlink:href="#m7976a9ace1" y="87.043949"/>
      </g>
     </g>
     <g id="text_8">
      <text style="fill:#262626;font-family:DejaVu Sans;font-size:15.4px;font-style:normal;font-weight:normal;text-anchor:end;" transform="rotate(-0, 84.019, 92.894746)" x="84.019" y="92.894746">0.95</text>
     </g>
    </g>
    <g id="text_9">
     <text style="fill:#262626;font-family:DejaVu Sans;font-size:16.8px;font-style:normal;font-weight:normal;text-anchor:middle;" transform="rotate(-90, 42.236063, 170.964138)" x="42.236063" y="170.964138">Spearman correlation</text>
    </g>
   </g>
   <g id="patch_3">
    <path clip-path="url(#padcf11eb01)" d="M 100.426312 166.420766 
L 155.684811 166.420766 
L 155.684811 163.829094 
L 100.426312 163.829094 
L 100.426312 166.420766 
z
" style="fill:#eeeeee;stroke:#8f8f8f;stroke-linejoin:miter;stroke-width:1.5;"/>
   </g>
   <g id="patch_4">
    <path clip-path="url(#padcf11eb01)" d="M 169.499435 124.085554 
L 224.757933 124.085554 
L 224.757933 123.025737 
L 169.499435 123.025737 
L 169.499435 124.085554 
z
" style="fill:#eeeeee;stroke:#8f8f8f;stroke-linejoin:miter;stroke-width:1.5;"/>
   </g>
   <g id="patch_5">
    <path clip-path="url(#padcf11eb01)" d="M 238.572558 123.241713 
L 293.831056 123.241713 
L 293.831056 122.44332 
L 238.572558 122.44332 
L 238.572558 123.241713 
z
" style="fill:#eeeeee;stroke:#8f8f8f;stroke-linejoin:miter;stroke-width:1.5;"/>
   </g>
   <g id="patch_6">
    <path clip-path="url(#padcf11eb01)" d="M 307.645681 71.724361 
L 362.904179 71.724361 
L 362.904179 71.263424 
L 307.645681 71.263424 
L 307.645681 71.724361 
z
" style="fill:#eeeeee;stroke:#8f8f8f;stroke-linejoin:miter;stroke-width:1.5;"/>
   </g>
   <g id="line2d_9">
    <path clip-path="url(#padcf11eb01)" d="M 128.055561 166.420766 
L 128.055561 167.638662 
" style="fill:none;stroke:#8f8f8f;stroke-linecap:round;stroke-width:1.5;"/>
   </g>
   <g id="line2d_10">
    <path clip-path="url(#padcf11eb01)" d="M 128.055561 163.829094 
L 128.055561 163.471583 
" style="fill:none;stroke:#8f8f8f;stroke-linecap:round;stroke-width:1.5;"/>
   </g>
   <g id="line2d_11">
    <path clip-path="url(#padcf11eb01)" d="M 114.240937 167.638662 
L 141.870186 167.638662 
" style="fill:none;stroke:#8f8f8f;stroke-linecap:round;stroke-width:1.5;"/>
   </g>
   <g id="line2d_12">
    <path clip-path="url(#padcf11eb01)" d="M 114.240937 163.471583 
L 141.870186 163.471583 
" style="fill:none;stroke:#8f8f8f;stroke-linecap:round;stroke-width:1.5;"/>
   </g>
   <g id="line2d_13"/>
   <g id="line2d_14">
    <path clip-path="url(#padcf11eb01)" d="M 197.128684 124.085554 
L 197.128684 124.742275 
" style="fill:none;stroke:#8f8f8f;stroke-linecap:round;stroke-width:1.5;"/>
   </g>
   <g id="line2d_15">
    <path clip-path="url(#padcf11eb01)" d="M 197.128684 123.025737 
L 197.128684 122.624652 
" style="fill:none;stroke:#8f8f8f;stroke-linecap:round;stroke-width:1.5;"/>
   </g>
   <g id="line2d_16">
    <path clip-path="url(#padcf11eb01)" d="M 183.31406 124.742275 
L 210.943309 124.742275 
" style="fill:none;stroke:#8f8f8f;stroke-linecap:round;stroke-width:1.5;"/>
   </g>
   <g id="line2d_17">
    <path clip-path="url(#padcf11eb01)" d="M 183.31406 122.624652 
L 210.943309 122.624652 
" style="fill:none;stroke:#8f8f8f;stroke-linecap:round;stroke-width:1.5;"/>
   </g>
   <g id="line2d_18"/>
   <g id="line2d_19">
    <path clip-path="url(#padcf11eb01)" d="M 266.201807 123.241713 
L 266.201807 124.379871 
" style="fill:none;stroke:#8f8f8f;stroke-linecap:round;stroke-width:1.5;"/>
   </g>
   <g id="line2d_20">
    <path clip-path="url(#padcf11eb01)" d="M 266.201807 122.44332 
L 266.201807 121.615649 
" style="fill:none;stroke:#8f8f8f;stroke-linecap:round;stroke-width:1.5;"/>
   </g>
   <g id="line2d_21">
    <path clip-path="url(#padcf11eb01)" d="M 252.387182 124.379871 
L 280.016432 124.379871 
" style="fill:none;stroke:#8f8f8f;stroke-linecap:round;stroke-width:1.5;"/>
   </g>
   <g id="line2d_22">
    <path clip-path="url(#padcf11eb01)" d="M 252.387182 121.615649 
L 280.016432 121.615649 
" style="fill:none;stroke:#8f8f8f;stroke-linecap:round;stroke-width:1.5;"/>
   </g>
   <g id="line2d_23"/>
   <g id="line2d_24">
    <path clip-path="url(#padcf11eb01)" d="M 335.27493 71.724361 
L 335.27493 72.208378 
" style="fill:none;stroke:#8f8f8f;stroke-linecap:round;stroke-width:1.5;"/>
   </g>
   <g id="line2d_25">
    <path clip-path="url(#padcf11eb01)" d="M 335.27493 71.263424 
L 335.27493 70.577097 
" style="fill:none;stroke:#8f8f8f;stroke-linecap:round;stroke-width:1.5;"/>
   </g>
   <g id="line2d_26">
    <path clip-path="url(#padcf11eb01)" d="M 321.460305 72.208378 
L 349.089554 72.208378 
" style="fill:none;stroke:#8f8f8f;stroke-linecap:round;stroke-width:1.5;"/>
   </g>
   <g id="line2d_27">
    <path clip-path="url(#padcf11eb01)" d="M 321.460305 70.577097 
L 349.089554 70.577097 
" style="fill:none;stroke:#8f8f8f;stroke-linecap:round;stroke-width:1.5;"/>
   </g>
   <g id="line2d_28"/>
   <g id="line2d_29">
    <path clip-path="url(#padcf11eb01)" d="M 100.426312 164.981532 
L 155.684811 164.981532 
" style="fill:none;stroke:#8f8f8f;stroke-linecap:round;stroke-width:1.5;"/>
   </g>
   <g id="line2d_30">
    <path clip-path="url(#padcf11eb01)" d="M 169.499435 123.513039 
L 224.757933 123.513039 
" style="fill:none;stroke:#8f8f8f;stroke-linecap:round;stroke-width:1.5;"/>
   </g>
   <g id="line2d_31">
    <path clip-path="url(#padcf11eb01)" d="M 238.572558 122.790768 
L 293.831056 122.790768 
" style="fill:none;stroke:#8f8f8f;stroke-linecap:round;stroke-width:1.5;"/>
   </g>
   <g id="line2d_32">
    <path clip-path="url(#padcf11eb01)" d="M 307.645681 71.527611 
L 362.904179 71.527611 
" style="fill:none;stroke:#8f8f8f;stroke-linecap:round;stroke-width:1.5;"/>
   </g>
   <g id="patch_7">
    <path d="M 93.519 282.984277 
L 93.519 58.944 
" style="fill:none;stroke:#262626;stroke-linecap:square;stroke-linejoin:miter;stroke-width:1.25;"/>
   </g>
   <g id="patch_8">
    <path d="M 369.811491 282.984277 
L 369.811491 58.944 
" style="fill:none;stroke:#262626;stroke-linecap:square;stroke-linejoin:miter;stroke-width:1.25;"/>
   </g>
   <g id="patch_9">
    <path d="M 93.519 282.984277 
L 369.811491 282.984277 
" style="fill:none;stroke:#262626;stroke-linecap:square;stroke-linejoin:miter;stroke-width:1.25;"/>
   </g>
   <g id="patch_10">
    <path d="M 93.519 58.944 
L 369.811491 58.944 
" style="fill:none;stroke:#262626;stroke-linecap:square;stroke-linejoin:miter;stroke-width:1.25;"/>
   </g>
   <g id="PathCollection_1">
    <defs>
     <path d="M 0 4 
C 1.060812 4 2.078319 3.578535 2.828427 2.828427 
C 3.578535 2.078319 4 1.060812 4 0 
C 4 -1.060812 3.578535 -2.078319 2.828427 -2.828427 
C 2.078319 -3.578535 1.060812 -4 0 -4 
C -1.060812 -4 -2.078319 -3.578535 -2.828427 -2.828427 
C -3.578535 -2.078319 -4 -1.060812 -4 0 
C -4 1.060812 -3.578535 2.078319 -2.828427 2.828427 
C -2.078319 3.578535 -1.060812 4 0 4 
z
" id="C0_0_aa3d2ca9f4"/>
    </defs>
    <g clip-path="url(#padcf11eb01)">
     <use style="fill:#0072b2;" x="122.902123" xlink:href="#C0_0_aa3d2ca9f4" y="163.948265"/>
    </g>
    <g clip-path="url(#padcf11eb01)">
     <use style="fill:#0072b2;" x="124.76718" xlink:href="#C0_0_aa3d2ca9f4" y="167.638662"/>
    </g>
    <g clip-path="url(#padcf11eb01)">
     <use style="fill:#0072b2;" x="132.00135" xlink:href="#C0_0_aa3d2ca9f4" y="166.0148"/>
    </g>
    <g clip-path="url(#padcf11eb01)">
     <use style="fill:#0072b2;" x="136.524824" xlink:href="#C0_0_aa3d2ca9f4" y="163.471583"/>
    </g>
   </g>
   <g id="PathCollection_2">
    <defs>
     <path d="M 0 4 
C 1.060812 4 2.078319 3.578535 2.828427 2.828427 
C 3.578535 2.078319 4 1.060812 4 0 
C 4 -1.060812 3.578535 -2.078319 2.828427 -2.828427 
C 2.078319 -3.578535 1.060812 -4 0 -4 
C -1.060812 -4 -2.078319 -3.578535 -2.828427 -2.828427 
C -3.578535 -2.078319 -4 -1.060812 -4 0 
C -4 1.060812 -3.578535 2.078319 -2.828427 2.828427 
C -2.078319 3.578535 -1.060812 4 0 4 
z
" id="C1_0_4923a80217"/>
    </defs>
    <g clip-path="url(#padcf11eb01)">
     <use style="fill:#0072b2;" x="186.920443" xlink:href="#C1_0_4923a80217" y="123.866646"/>
    </g>
    <g clip-path="url(#padcf11eb01)">
     <use style="fill:#0072b2;" x="203.499026" xlink:href="#C1_0_4923a80217" y="124.742275"/>
    </g>
    <g clip-path="url(#padcf11eb01)">
     <use style="fill:#0072b2;" x="183.464311" xlink:href="#C1_0_4923a80217" y="123.159432"/>
    </g>
    <g clip-path="url(#padcf11eb01)">
     <use style="fill:#0072b2;" x="201.291343" xlink:href="#C1_0_4923a80217" y="122.624652"/>
    </g>
   </g>
   <g id="PathCollection_3">
    <defs>
     <path d="M 0 4 
C 1.060812 4 2.078319 3.578535 2.828427 2.828427 
C 3.578535 2.078319 4 1.060812 4 0 
C 4 -1.060812 3.578535 -2.078319 2.828427 -2.828427 
C 2.078319 -3.578535 1.060812 -4 0 -4 
C -1.060812 -4 -2.078319 -3.578535 -2.828427 -2.828427 
C -3.578535 -2.078319 -4 -1.060812 -4 0 
C -4 1.060812 -3.578535 2.078319 -2.828427 2.828427 
C -2.078319 3.578535 -1.060812 4 0 4 
z
" id="C2_0_f6b22a9685"/>
    </defs>
    <g clip-path="url(#padcf11eb01)">
     <use style="fill:#0072b2;" x="264.904574" xlink:href="#C2_0_f6b22a9685" y="122.719211"/>
    </g>
    <g clip-path="url(#padcf11eb01)">
     <use style="fill:#0072b2;" x="257.930859" xlink:href="#C2_0_f6b22a9685" y="124.379871"/>
    </g>
    <g clip-path="url(#padcf11eb01)">
     <use style="fill:#0072b2;" x="269.824802" xlink:href="#C2_0_f6b22a9685" y="122.862326"/>
    </g>
    <g clip-path="url(#padcf11eb01)">
     <use style="fill:#0072b2;" x="252.878742" xlink:href="#C2_0_f6b22a9685" y="121.615649"/>
    </g>
   </g>
   <g id="PathCollection_4">
    <defs>
     <path d="M 0 4 
C 1.060812 4 2.078319 3.578535 2.828427 2.828427 
C 3.578535 2.078319 4 1.060812 4 0 
C 4 -1.060812 3.578535 -2.078319 2.828427 -2.828427 
C 2.078319 -3.578535 1.060812 -4 0 -4 
C -1.060812 -4 -2.078319 -3.578535 -2.828427 -2.828427 
C -3.578535 -2.078319 -4 -1.060812 -4 0 
C -4 1.060812 -3.578535 2.078319 -2.828427 2.828427 
C -2.078319 3.578535 -1.060812 4 0 4 
z
" id="C3_0_e3263b1f3c"/>
    </defs>
    <g clip-path="url(#padcf11eb01)">
     <use style="fill:#0072b2;" x="344.62883" xlink:href="#C3_0_e3263b1f3c" y="71.563023"/>
    </g>
    <g clip-path="url(#padcf11eb01)">
     <use style="fill:#0072b2;" x="335.980747" xlink:href="#C3_0_e3263b1f3c" y="72.208378"/>
    </g>
    <g clip-path="url(#padcf11eb01)">
     <use style="fill:#0072b2;" x="331.709041" xlink:href="#C3_0_e3263b1f3c" y="71.4922"/>
    </g>
    <g clip-path="url(#padcf11eb01)">
     <use style="fill:#0072b2;" x="333.223445" xlink:href="#C3_0_e3263b1f3c" y="70.577097"/>
    </g>
   </g>
   <g id="text_10">
    <text style="fill:#262626;font-family:DejaVu Sans;font-size:16.8px;font-style:normal;font-weight:normal;" transform="translate(182.761496 34.131675)">Arabidopsis</text>
    <text style="fill:#262626;font-family:DejaVu Sans;font-size:16.8px;font-style:normal;font-weight:normal;" transform="translate(107.908308 52.944)">(TAIR10 + AtRTD2 reference)</text>
   </g>
  </g>
  <g id="axes_2">
   <g id="patch_11">
    <path d="M 425.563509 282.984277 
L 701.856 282.984277 
L 701.856 58.944 
L 425.563509 58.944 
z
" style="fill:#ffffff;"/>
   </g>
   <g id="matplotlib.axis_3">
    <g id="xtick_5">
     <g id="line2d_33">
      <g>
       <use style="fill:#262626;stroke:#262626;stroke-width:1.25;" x="460.10007" xlink:href="#mfd6a70a698" y="282.984277"/>
      </g>
     </g>
     <g id="text_11">
      <text style="fill:#262626;font-family:DejaVu Sans;font-size:15.4px;font-style:normal;font-weight:normal;" transform="translate(396.568071 338.373826)rotate(-30)">One pass</text>
     </g>
    </g>
    <g id="xtick_6">
     <g id="line2d_34">
      <g>
       <use style="fill:#262626;stroke:#262626;stroke-width:1.25;" x="529.173193" xlink:href="#mfd6a70a698" y="282.984277"/>
      </g>
     </g>
     <g id="text_12">
      <text style="fill:#262626;font-family:DejaVu Sans;font-size:15.4px;font-style:normal;font-weight:normal;" transform="translate(452.757356 340.834217)rotate(-30)">Two pass,</text>
      <text style="fill:#262626;font-family:DejaVu Sans;font-size:15.4px;font-style:normal;font-weight:normal;" transform="translate(428.512817 374.744193)rotate(-30)">decision tree 1</text>
     </g>
    </g>
    <g id="xtick_7">
     <g id="line2d_35">
      <g>
       <use style="fill:#262626;stroke:#262626;stroke-width:1.25;" x="598.246316" xlink:href="#mfd6a70a698" y="282.984277"/>
      </g>
     </g>
     <g id="text_13">
      <text style="fill:#262626;font-family:DejaVu Sans;font-size:15.4px;font-style:normal;font-weight:normal;" transform="translate(521.830479 340.834217)rotate(-30)">Two pass,</text>
      <text style="fill:#262626;font-family:DejaVu Sans;font-size:15.4px;font-style:normal;font-weight:normal;" transform="translate(497.58594 374.744193)rotate(-30)">decision tree 2</text>
     </g>
    </g>
    <g id="xtick_8">
     <g id="line2d_36">
      <g>
       <use style="fill:#262626;stroke:#262626;stroke-width:1.25;" x="667.319439" xlink:href="#mfd6a70a698" y="282.984277"/>
      </g>
     </g>
     <g id="text_14">
      <text style="fill:#262626;font-family:DejaVu Sans;font-size:15.4px;font-style:normal;font-weight:normal;" transform="translate(563.438147 356.691404)rotate(-30)">Annot. guided</text>
      <text style="fill:#262626;font-family:DejaVu Sans;font-size:15.4px;font-style:normal;font-weight:normal;" transform="translate(598.338109 356.454287)rotate(-30)">alignment</text>
     </g>
    </g>
   </g>
   <g id="matplotlib.axis_4">
    <g id="ytick_5">
     <g id="line2d_37">
      <g>
       <use style="fill:#262626;stroke:#262626;stroke-width:1.25;" x="425.563509" xlink:href="#m7976a9ace1" y="244.110161"/>
      </g>
     </g>
    </g>
    <g id="ytick_6">
     <g id="line2d_38">
      <g>
       <use style="fill:#262626;stroke:#262626;stroke-width:1.25;" x="425.563509" xlink:href="#m7976a9ace1" y="191.754757"/>
      </g>
     </g>
    </g>
    <g id="ytick_7">
     <g id="line2d_39">
      <g>
       <use style="fill:#262626;stroke:#262626;stroke-width:1.25;" x="425.563509" xlink:href="#m7976a9ace1" y="139.399353"/>
      </g>
     </g>
    </g>
    <g id="ytick_8">
     <g id="line2d_40">
      <g>
       <use style="fill:#262626;stroke:#262626;stroke-width:1.25;" x="425.563509" xlink:href="#m7976a9ace1" y="87.043949"/>
      </g>
     </g>
    </g>
   </g>
   <g id="patch_12">
    <path clip-path="url(#p4ec78b6c49)" d="M 432.470821 267.621329 
L 487.729319 267.621329 
L 487.729319 262.210067 
L 432.470821 262.210067 
L 432.470821 267.621329 
z
" style="fill:#eeeeee;stroke:#8f8f8f;stroke-linejoin:miter;stroke-width:1.5;"/>
   </g>
   <g id="patch_13">
    <path clip-path="url(#p4ec78b6c49)" d="M 501.543944 189.191756 
L 556.802442 189.191756 
L 556.802442 184.749407 
L 501.543944 184.749407 
L 501.543944 189.191756 
z
" style="fill:#eeeeee;stroke:#8f8f8f;stroke-linejoin:miter;stroke-width:1.5;"/>
   </g>
   <g id="patch_14">
    <path clip-path="url(#p4ec78b6c49)" d="M 570.617067 183.691112 
L 625.875565 183.691112 
L 625.875565 179.299776 
L 570.617067 179.299776 
L 570.617067 183.691112 
z
" style="fill:#eeeeee;stroke:#8f8f8f;stroke-linejoin:miter;stroke-width:1.5;"/>
   </g>
   <g id="patch_15">
    <path clip-path="url(#p4ec78b6c49)" d="M 639.690189 124.343522 
L 694.948688 124.343522 
L 694.948688 118.387586 
L 639.690189 118.387586 
L 639.690189 124.343522 
z
" style="fill:#eeeeee;stroke:#8f8f8f;stroke-linejoin:miter;stroke-width:1.5;"/>
   </g>
   <g id="line2d_41">
    <path clip-path="url(#p4ec78b6c49)" d="M 460.10007 267.621329 
L 460.10007 269.846705 
" style="fill:none;stroke:#8f8f8f;stroke-linecap:round;stroke-width:1.5;"/>
   </g>
   <g id="line2d_42">
    <path clip-path="url(#p4ec78b6c49)" d="M 460.10007 262.210067 
L 460.10007 262.210067 
" style="fill:none;stroke:#8f8f8f;stroke-linecap:round;stroke-width:1.5;"/>
   </g>
   <g id="line2d_43">
    <path clip-path="url(#p4ec78b6c49)" d="M 446.285446 269.846705 
L 473.914695 269.846705 
" style="fill:none;stroke:#8f8f8f;stroke-linecap:round;stroke-width:1.5;"/>
   </g>
   <g id="line2d_44">
    <path clip-path="url(#p4ec78b6c49)" d="M 446.285446 262.210067 
L 473.914695 262.210067 
" style="fill:none;stroke:#8f8f8f;stroke-linecap:round;stroke-width:1.5;"/>
   </g>
   <g id="line2d_45"/>
   <g id="line2d_46">
    <path clip-path="url(#p4ec78b6c49)" d="M 529.173193 189.191756 
L 529.173193 193.039441 
" style="fill:none;stroke:#8f8f8f;stroke-linecap:round;stroke-width:1.5;"/>
   </g>
   <g id="line2d_47">
    <path clip-path="url(#p4ec78b6c49)" d="M 529.173193 184.749407 
L 529.173193 180.081528 
" style="fill:none;stroke:#8f8f8f;stroke-linecap:round;stroke-width:1.5;"/>
   </g>
   <g id="line2d_48">
    <path clip-path="url(#p4ec78b6c49)" d="M 515.358568 193.039441 
L 542.987818 193.039441 
" style="fill:none;stroke:#8f8f8f;stroke-linecap:round;stroke-width:1.5;"/>
   </g>
   <g id="line2d_49">
    <path clip-path="url(#p4ec78b6c49)" d="M 515.358568 180.081528 
L 542.987818 180.081528 
" style="fill:none;stroke:#8f8f8f;stroke-linecap:round;stroke-width:1.5;"/>
   </g>
   <g id="line2d_50"/>
   <g id="line2d_51">
    <path clip-path="url(#p4ec78b6c49)" d="M 598.246316 183.691112 
L 598.246316 186.098204 
" style="fill:none;stroke:#8f8f8f;stroke-linecap:round;stroke-width:1.5;"/>
   </g>
   <g id="line2d_52">
    <path clip-path="url(#p4ec78b6c49)" d="M 598.246316 179.299776 
L 598.246316 174.501711 
" style="fill:none;stroke:#8f8f8f;stroke-linecap:round;stroke-width:1.5;"/>
   </g>
   <g id="line2d_53">
    <path clip-path="url(#p4ec78b6c49)" d="M 584.431691 186.098204 
L 612.06094 186.098204 
" style="fill:none;stroke:#8f8f8f;stroke-linecap:round;stroke-width:1.5;"/>
   </g>
   <g id="line2d_54">
    <path clip-path="url(#p4ec78b6c49)" d="M 584.431691 174.501711 
L 612.06094 174.501711 
" style="fill:none;stroke:#8f8f8f;stroke-linecap:round;stroke-width:1.5;"/>
   </g>
   <g id="line2d_55"/>
   <g id="line2d_56">
    <path clip-path="url(#p4ec78b6c49)" d="M 667.319439 124.343522 
L 667.319439 124.41502 
" style="fill:none;stroke:#8f8f8f;stroke-linecap:round;stroke-width:1.5;"/>
   </g>
   <g id="line2d_57">
    <path clip-path="url(#p4ec78b6c49)" d="M 667.319439 118.387586 
L 667.319439 116.588628 
" style="fill:none;stroke:#8f8f8f;stroke-linecap:round;stroke-width:1.5;"/>
   </g>
   <g id="line2d_58">
    <path clip-path="url(#p4ec78b6c49)" d="M 653.504814 124.41502 
L 681.134063 124.41502 
" style="fill:none;stroke:#8f8f8f;stroke-linecap:round;stroke-width:1.5;"/>
   </g>
   <g id="line2d_59">
    <path clip-path="url(#p4ec78b6c49)" d="M 653.504814 116.588628 
L 681.134063 116.588628 
" style="fill:none;stroke:#8f8f8f;stroke-linecap:round;stroke-width:1.5;"/>
   </g>
   <g id="line2d_60"/>
   <g id="line2d_61">
    <path clip-path="url(#p4ec78b6c49)" d="M 432.470821 266.873504 
L 487.729319 266.873504 
" style="fill:none;stroke:#8f8f8f;stroke-linecap:round;stroke-width:1.5;"/>
   </g>
   <g id="line2d_62">
    <path clip-path="url(#p4ec78b6c49)" d="M 501.543944 187.10728 
L 556.802442 187.10728 
" style="fill:none;stroke:#8f8f8f;stroke-linecap:round;stroke-width:1.5;"/>
   </g>
   <g id="line2d_63">
    <path clip-path="url(#p4ec78b6c49)" d="M 570.617067 181.89394 
L 625.875565 181.89394 
" style="fill:none;stroke:#8f8f8f;stroke-linecap:round;stroke-width:1.5;"/>
   </g>
   <g id="line2d_64">
    <path clip-path="url(#p4ec78b6c49)" d="M 639.690189 121.653464 
L 694.948688 121.653464 
" style="fill:none;stroke:#8f8f8f;stroke-linecap:round;stroke-width:1.5;"/>
   </g>
   <g id="patch_16">
    <path d="M 425.563509 282.984277 
L 425.563509 58.944 
" style="fill:none;stroke:#262626;stroke-linecap:square;stroke-linejoin:miter;stroke-width:1.25;"/>
   </g>
   <g id="patch_17">
    <path d="M 701.856 282.984277 
L 701.856 58.944 
" style="fill:none;stroke:#262626;stroke-linecap:square;stroke-linejoin:miter;stroke-width:1.25;"/>
   </g>
   <g id="patch_18">
    <path d="M 425.563509 282.984277 
L 701.856 282.984277 
" style="fill:none;stroke:#262626;stroke-linecap:square;stroke-linejoin:miter;stroke-width:1.25;"/>
   </g>
   <g id="patch_19">
    <path d="M 425.563509 58.944 
L 701.856 58.944 
" style="fill:none;stroke:#262626;stroke-linecap:square;stroke-linejoin:miter;stroke-width:1.25;"/>
   </g>
   <g id="PathCollection_5">
    <defs>
     <path d="M 0 4 
C 1.060812 4 2.078319 3.578535 2.828427 2.828427 
C 3.578535 2.078319 4 1.060812 4 0 
C 4 -1.060812 3.578535 -2.078319 2.828427 -2.828427 
C 2.078319 -3.578535 1.060812 -4 0 -4 
C -1.060812 -4 -2.078319 -3.578535 -2.828427 -2.828427 
C -3.578535 -2.078319 -4 -1.060812 -4 0 
C -4 1.060812 -3.578535 2.078319 -2.828427 2.828427 
C -2.078319 3.578535 -1.060812 4 0 4 
z
" id="C4_0_c88c2fbee5"/>
    </defs>
    <g clip-path="url(#p4ec78b6c49)">
     <use style="fill:#0072b2;" x="453.609831" xlink:href="#C4_0_c88c2fbee5" y="269.846705"/>
    </g>
    <g clip-path="url(#p4ec78b6c49)">
     <use style="fill:#0072b2;" x="458.619353" xlink:href="#C4_0_c88c2fbee5" y="266.867471"/>
    </g>
    <g clip-path="url(#p4ec78b6c49)">
     <use style="fill:#0072b2;" x="473.435417" xlink:href="#C4_0_c88c2fbee5" y="266.879537"/>
    </g>
    <g clip-path="url(#p4ec78b6c49)">
     <use style="fill:#0072b2;" x="467.064138" xlink:href="#C4_0_c88c2fbee5" y="248.237853"/>
    </g>
   </g>
   <g id="PathCollection_6">
    <defs>
     <path d="M 0 4 
C 1.060812 4 2.078319 3.578535 2.828427 2.828427 
C 3.578535 2.078319 4 1.060812 4 0 
C 4 -1.060812 3.578535 -2.078319 2.828427 -2.828427 
C 2.078319 -3.578535 1.060812 -4 0 -4 
C -1.060812 -4 -2.078319 -3.578535 -2.828427 -2.828427 
C -3.578535 -2.078319 -4 -1.060812 -4 0 
C -4 1.060812 -3.578535 2.078319 -2.828427 2.828427 
C -2.078319 3.578535 -1.060812 4 0 4 
z
" id="C5_0_fff173a9c5"/>
    </defs>
    <g clip-path="url(#p4ec78b6c49)">
     <use style="fill:#0072b2;" x="529.751368" xlink:href="#C5_0_fff173a9c5" y="187.909194"/>
    </g>
    <g clip-path="url(#p4ec78b6c49)">
     <use style="fill:#0072b2;" x="528.133852" xlink:href="#C5_0_fff173a9c5" y="186.305366"/>
    </g>
    <g clip-path="url(#p4ec78b6c49)">
     <use style="fill:#0072b2;" x="517.222347" xlink:href="#C5_0_fff173a9c5" y="193.039441"/>
    </g>
    <g clip-path="url(#p4ec78b6c49)">
     <use style="fill:#0072b2;" x="532.567164" xlink:href="#C5_0_fff173a9c5" y="180.081528"/>
    </g>
   </g>
   <g id="PathCollection_7">
    <defs>
     <path d="M 0 4 
C 1.060812 4 2.078319 3.578535 2.828427 2.828427 
C 3.578535 2.078319 4 1.060812 4 0 
C 4 -1.060812 3.578535 -2.078319 2.828427 -2.828427 
C 2.078319 -3.578535 1.060812 -4 0 -4 
C -1.060812 -4 -2.078319 -3.578535 -2.828427 -2.828427 
C -3.578535 -2.078319 -4 -1.060812 -4 0 
C -4 1.060812 -3.578535 2.078319 -2.828427 2.828427 
C -2.078319 3.578535 -1.060812 4 0 4 
z
" id="C6_0_dc4af4a241"/>
    </defs>
    <g clip-path="url(#p4ec78b6c49)">
     <use style="fill:#0072b2;" x="604.314236" xlink:href="#C6_0_dc4af4a241" y="182.888748"/>
    </g>
    <g clip-path="url(#p4ec78b6c49)">
     <use style="fill:#0072b2;" x="596.885187" xlink:href="#C6_0_dc4af4a241" y="180.899131"/>
    </g>
    <g clip-path="url(#p4ec78b6c49)">
     <use style="fill:#0072b2;" x="603.351576" xlink:href="#C6_0_dc4af4a241" y="186.098204"/>
    </g>
    <g clip-path="url(#p4ec78b6c49)">
     <use style="fill:#0072b2;" x="604.67209" xlink:href="#C6_0_dc4af4a241" y="174.501711"/>
    </g>
   </g>
   <g id="PathCollection_8">
    <defs>
     <path d="M 0 4 
C 1.060812 4 2.078319 3.578535 2.828427 2.828427 
C 3.578535 2.078319 4 1.060812 4 0 
C 4 -1.060812 3.578535 -2.078319 2.828427 -2.828427 
C 2.078319 -3.578535 1.060812 -4 0 -4 
C -1.060812 -4 -2.078319 -3.578535 -2.828427 -2.828427 
C -3.578535 -2.078319 -4 -1.060812 -4 0 
C -4 1.060812 -3.578535 2.078319 -2.828427 2.828427 
C -2.078319 3.578535 -1.060812 4 0 4 
z
" id="C7_0_118f427cf8"/>
    </defs>
    <g clip-path="url(#p4ec78b6c49)">
     <use style="fill:#0072b2;" x="657.643808" xlink:href="#C7_0_118f427cf8" y="124.319689"/>
    </g>
    <g clip-path="url(#p4ec78b6c49)">
     <use style="fill:#0072b2;" x="670.330903" xlink:href="#C7_0_118f427cf8" y="124.41502"/>
    </g>
    <g clip-path="url(#p4ec78b6c49)">
     <use style="fill:#0072b2;" x="677.339293" xlink:href="#C7_0_118f427cf8" y="116.588628"/>
    </g>
    <g clip-path="url(#p4ec78b6c49)">
     <use style="fill:#0072b2;" x="653.825884" xlink:href="#C7_0_118f427cf8" y="118.987238"/>
    </g>
   </g>
   <g id="text_15">
    <text style="fill:#262626;font-family:DejaVu Sans;font-size:16.8px;font-style:normal;font-weight:normal;text-anchor:middle;" transform="rotate(-0, 563.709754, 52.944)" x="563.709754" y="52.944">Human (GRCh38 reference)</text>
   </g>
  </g>
 </g>
 <defs>
  <clipPath id="padcf11eb01">
   <rect height="224.040277" width="276.292491" x="93.519" y="58.944"/>
  </clipPath>
  <clipPath id="p4ec78b6c49">
   <rect height="224.040277" width="276.292491" x="425.563509" y="58.944"/>
  </clipPath>
 </defs>
</svg>
