<?xml version="1.0" encoding="utf-8" standalone="no"?>
<!DOCTYPE svg PUBLIC "-//W3C//DTD SVG 1.1//EN"
  "http://www.w3.org/Graphics/SVG/1.1/DTD/svg11.dtd">
<!-- Created with matplotlib (https://matplotlib.org/) -->
<svg height="360pt" version="1.1" viewBox="0 0 1008 360" width="1008pt" xmlns="http://www.w3.org/2000/svg" xmlns:xlink="http://www.w3.org/1999/xlink">
 <defs>
  <style type="text/css">
*{stroke-linecap:butt;stroke-linejoin:round;}
  </style>
 </defs>
 <g id="figure_1">
  <g id="patch_1">
   <path d="M 0 360 
L 1008 360 
L 1008 0 
L 0 0 
z
" style="fill:#ffffff;"/>
  </g>
  <g id="axes_1">
   <g id="patch_2">
    <path d="M 69.144 295.356 
L 323.842319 295.356 
L 323.842319 58.944 
L 69.144 58.944 
z
" style="fill:#ffffff;"/>
   </g>
   <g id="matplotlib.axis_1">
    <g id="xtick_1">
     <g id="line2d_1">
      <defs>
       <path d="M 0 0 
L 0 6 
" id="m89334a560a" style="stroke:#262626;stroke-width:1.25;"/>
      </defs>
      <g>
       <use style="fill:#262626;stroke:#262626;stroke-width:1.25;" x="85.438218" xlink:href="#m89334a560a" y="295.356"/>
      </g>
     </g>
     <g id="text_1">
      <text style="fill:#262626;font-family:DejaVu Sans;font-size:15.4px;font-style:normal;font-weight:normal;text-anchor:middle;" transform="rotate(-0, 85.438218, 316.557594)" x="85.438218" y="316.557594">54</text>
     </g>
    </g>
    <g id="xtick_2">
     <g id="line2d_2">
      <g>
       <use style="fill:#262626;stroke:#262626;stroke-width:1.25;" x="168.883353" xlink:href="#m89334a560a" y="295.356"/>
      </g>
     </g>
     <g id="text_2">
      <text style="fill:#262626;font-family:DejaVu Sans;font-size:15.4px;font-style:normal;font-weight:normal;text-anchor:middle;" transform="rotate(-0, 168.883353, 316.557594)" x="168.883353" y="316.557594">56</text>
     </g>
    </g>
    <g id="xtick_3">
     <g id="line2d_3">
      <g>
       <use style="fill:#262626;stroke:#262626;stroke-width:1.25;" x="252.328488" xlink:href="#m89334a560a" y="295.356"/>
      </g>
     </g>
     <g id="text_3">
      <text style="fill:#262626;font-family:DejaVu Sans;font-size:15.4px;font-style:normal;font-weight:normal;text-anchor:middle;" transform="rotate(-0, 252.328488, 316.557594)" x="252.328488" y="316.557594">58</text>
     </g>
    </g>
    <g id="text_4">
     <text style="fill:#262626;font-family:DejaVu Sans;font-size:16.8px;font-style:normal;font-weight:normal;text-anchor:middle;" transform="rotate(-0, 196.493159, 336.525688)" x="196.493159" y="336.525688">Recall (%)</text>
    </g>
   </g>
   <g id="matplotlib.axis_2">
    <g id="ytick_1">
     <g id="line2d_4">
      <defs>
       <path d="M 0 0 
L -6 0 
" id="mfbd69e2205" style="stroke:#262626;stroke-width:1.25;"/>
      </defs>
      <g>
       <use style="fill:#262626;stroke:#262626;stroke-width:1.25;" x="69.144" xlink:href="#mfbd69e2205" y="281.490084"/>
      </g>
     </g>
     <g id="text_5">
      <text style="fill:#262626;font-family:DejaVu Sans;font-size:15.4px;font-style:normal;font-weight:normal;text-anchor:end;" transform="rotate(-0, 59.644, 287.340881)" x="59.644" y="287.340881">82.5</text>
     </g>
    </g>
    <g id="ytick_2">
     <g id="line2d_5">
      <g>
       <use style="fill:#262626;stroke:#262626;stroke-width:1.25;" x="69.144" xlink:href="#mfbd69e2205" y="244.530832"/>
      </g>
     </g>
     <g id="text_6">
      <text style="fill:#262626;font-family:DejaVu Sans;font-size:15.4px;font-style:normal;font-weight:normal;text-anchor:end;" transform="rotate(-0, 59.644, 250.381629)" x="59.644" y="250.381629">85.0</text>
     </g>
    </g>
    <g id="ytick_3">
     <g id="line2d_6">
      <g>
       <use style="fill:#262626;stroke:#262626;stroke-width:1.25;" x="69.144" xlink:href="#mfbd69e2205" y="207.57158"/>
      </g>
     </g>
     <g id="text_7">
      <text style="fill:#262626;font-family:DejaVu Sans;font-size:15.4px;font-style:normal;font-weight:normal;text-anchor:end;" transform="rotate(-0, 59.644, 213.422377)" x="59.644" y="213.422377">87.5</text>
     </g>
    </g>
    <g id="ytick_4">
     <g id="line2d_7">
      <g>
       <use style="fill:#262626;stroke:#262626;stroke-width:1.25;" x="69.144" xlink:href="#mfbd69e2205" y="170.612328"/>
      </g>
     </g>
     <g id="text_8">
      <text style="fill:#262626;font-family:DejaVu Sans;font-size:15.4px;font-style:normal;font-weight:normal;text-anchor:end;" transform="rotate(-0, 59.644, 176.463125)" x="59.644" y="176.463125">90.0</text>
     </g>
    </g>
    <g id="ytick_5">
     <g id="line2d_8">
      <g>
       <use style="fill:#262626;stroke:#262626;stroke-width:1.25;" x="69.144" xlink:href="#mfbd69e2205" y="133.653076"/>
      </g>
     </g>
     <g id="text_9">
      <text style="fill:#262626;font-family:DejaVu Sans;font-size:15.4px;font-style:normal;font-weight:normal;text-anchor:end;" transform="rotate(-0, 59.644, 139.503873)" x="59.644" y="139.503873">92.5</text>
     </g>
    </g>
    <g id="ytick_6">
     <g id="line2d_9">
      <g>
       <use style="fill:#262626;stroke:#262626;stroke-width:1.25;" x="69.144" xlink:href="#mfbd69e2205" y="96.693824"/>
      </g>
     </g>
     <g id="text_10">
      <text style="fill:#262626;font-family:DejaVu Sans;font-size:15.4px;font-style:normal;font-weight:normal;text-anchor:end;" transform="rotate(-0, 59.644, 102.544621)" x="59.644" y="102.544621">95.0</text>
     </g>
    </g>
    <g id="ytick_7">
     <g id="line2d_10">
      <g>
       <use style="fill:#262626;stroke:#262626;stroke-width:1.25;" x="69.144" xlink:href="#mfbd69e2205" y="59.734572"/>
      </g>
     </g>
     <g id="text_11">
      <text style="fill:#262626;font-family:DejaVu Sans;font-size:15.4px;font-style:normal;font-weight:normal;text-anchor:end;" transform="rotate(-0, 59.644, 65.585369)" x="59.644" y="65.585369">97.5</text>
     </g>
    </g>
    <g id="text_12">
     <text style="fill:#262626;font-family:DejaVu Sans;font-size:16.8px;font-style:normal;font-weight:normal;text-anchor:middle;" transform="rotate(-90, 17.861063, 177.15)" x="17.861063" y="177.15">Precision (%)</text>
    </g>
   </g>
   <g id="PathCollection_1">
    <defs>
     <path d="M 0 3 
C 0.795609 3 1.55874 2.683901 2.12132 2.12132 
C 2.683901 1.55874 3 0.795609 3 0 
C 3 -0.795609 2.683901 -1.55874 2.12132 -2.12132 
C 1.55874 -2.683901 0.795609 -3 0 -3 
C -0.795609 -3 -1.55874 -2.683901 -2.12132 -2.12132 
C -2.683901 -1.55874 -3 -0.795609 -3 0 
C -3 0.795609 -2.683901 1.55874 -2.12132 2.12132 
C -1.55874 2.683901 -0.795609 3 0 3 
z
" id="m114d783cdc" style="stroke:#0072b2;"/>
    </defs>
    <g clip-path="url(#p47b38f6b43)">
     <use style="fill:#0072b2;stroke:#0072b2;" x="89.610475" xlink:href="#m114d783cdc" y="266.706383"/>
     <use style="fill:#0072b2;stroke:#0072b2;" x="81.265961" xlink:href="#m114d783cdc" y="284.446824"/>
     <use style="fill:#0072b2;stroke:#0072b2;" x="102.127245" xlink:href="#m114d783cdc" y="284.446824"/>
     <use style="fill:#0072b2;stroke:#0072b2;" x="89.610475" xlink:href="#m114d783cdc" y="259.314533"/>
    </g>
   </g>
   <g id="PathCollection_2">
    <defs>
     <path d="M 0 3 
C 0.795609 3 1.55874 2.683901 2.12132 2.12132 
C 2.683901 1.55874 3 0.795609 3 0 
C 3 -0.795609 2.683901 -1.55874 2.12132 -2.12132 
C 1.55874 -2.683901 0.795609 -3 0 -3 
C -0.795609 -3 -1.55874 -2.683901 -2.12132 -2.12132 
C -2.683901 -1.55874 -3 -0.795609 -3 0 
C -3 0.795609 -2.683901 1.55874 -2.12132 2.12132 
C -1.55874 2.683901 -0.795609 3 0 3 
z
" id="mb2afb7e755" style="stroke:#d55e00;"/>
    </defs>
    <g clip-path="url(#p47b38f6b43)">
     <use style="fill:#d55e00;stroke:#d55e00;" x="164.711096" xlink:href="#mb2afb7e755" y="144.001667"/>
     <use style="fill:#d55e00;stroke:#d55e00;" x="164.711096" xlink:href="#mb2afb7e755" y="149.915147"/>
     <use style="fill:#d55e00;stroke:#d55e00;" x="173.05561" xlink:href="#mb2afb7e755" y="145.480037"/>
     <use style="fill:#d55e00;stroke:#d55e00;" x="160.53884" xlink:href="#mb2afb7e755" y="144.001667"/>
    </g>
   </g>
   <g id="PathCollection_3">
    <defs>
     <path d="M 0 3 
C 0.795609 3 1.55874 2.683901 2.12132 2.12132 
C 2.683901 1.55874 3 0.795609 3 0 
C 3 -0.795609 2.683901 -1.55874 2.12132 -2.12132 
C 1.55874 -2.683901 0.795609 -3 0 -3 
C -0.795609 -3 -1.55874 -2.683901 -2.12132 -2.12132 
C -2.683901 -1.55874 -3 -0.795609 -3 0 
C -3 0.795609 -2.683901 1.55874 -2.12132 2.12132 
C -1.55874 2.683901 -0.795609 3 0 3 
z
" id="m1912944eea" style="stroke:#009e73;"/>
    </defs>
    <g clip-path="url(#p47b38f6b43)">
     <use style="fill:#009e73;stroke:#009e73;" x="177.227867" xlink:href="#m1912944eea" y="132.174706"/>
     <use style="fill:#009e73;stroke:#009e73;" x="177.227867" xlink:href="#m1912944eea" y="136.609816"/>
     <use style="fill:#009e73;stroke:#009e73;" x="185.57238" xlink:href="#m1912944eea" y="132.174706"/>
     <use style="fill:#009e73;stroke:#009e73;" x="177.227867" xlink:href="#m1912944eea" y="132.174706"/>
    </g>
   </g>
   <g id="PathCollection_4">
    <defs>
     <path d="M 0 3 
C 0.795609 3 1.55874 2.683901 2.12132 2.12132 
C 2.683901 1.55874 3 0.795609 3 0 
C 3 -0.795609 2.683901 -1.55874 2.12132 -2.12132 
C 1.55874 -2.683901 0.795609 -3 0 -3 
C -0.795609 -3 -1.55874 -2.683901 -2.12132 -2.12132 
C -2.683901 -1.55874 -3 -0.795609 -3 0 
C -3 0.795609 -2.683901 1.55874 -2.12132 2.12132 
C -1.55874 2.683901 -0.795609 3 0 3 
z
" id="ma05b926c09" style="stroke:#f0e442;"/>
    </defs>
    <g clip-path="url(#p47b38f6b43)">
     <use style="fill:#f0e442;stroke:#f0e442;" x="302.39557" xlink:href="#ma05b926c09" y="73.039902"/>
     <use style="fill:#f0e442;stroke:#f0e442;" x="294.051056" xlink:href="#ma05b926c09" y="78.953383"/>
     <use style="fill:#f0e442;stroke:#f0e442;" x="310.740083" xlink:href="#ma05b926c09" y="74.518273"/>
     <use style="fill:#f0e442;stroke:#f0e442;" x="302.39557" xlink:href="#ma05b926c09" y="71.561532"/>
    </g>
   </g>
   <g id="patch_3">
    <path d="M 69.144 295.356 
L 69.144 58.944 
" style="fill:none;stroke:#262626;stroke-linecap:square;stroke-linejoin:miter;stroke-width:1.25;"/>
   </g>
   <g id="patch_4">
    <path d="M 323.842319 295.356 
L 323.842319 58.944 
" style="fill:none;stroke:#262626;stroke-linecap:square;stroke-linejoin:miter;stroke-width:1.25;"/>
   </g>
   <g id="patch_5">
    <path d="M 69.144 295.356 
L 323.842319 295.356 
" style="fill:none;stroke:#262626;stroke-linecap:square;stroke-linejoin:miter;stroke-width:1.25;"/>
   </g>
   <g id="patch_6">
    <path d="M 69.144 58.944 
L 323.842319 58.944 
" style="fill:none;stroke:#262626;stroke-linecap:square;stroke-linejoin:miter;stroke-width:1.25;"/>
   </g>
   <g id="text_13">
    <text style="fill:#262626;font-family:DejaVu Sans;font-size:16.8px;font-style:normal;font-weight:normal;" transform="translate(147.589409 34.131675)">Arabidopsis</text>
    <text style="fill:#262626;font-family:DejaVu Sans;font-size:16.8px;font-style:normal;font-weight:normal;" transform="translate(72.736222 52.944)">(TAIR10 + AtRTD2 reference)</text>
   </g>
  </g>
  <g id="axes_2">
   <g id="patch_7">
    <path d="M 402.150841 295.356 
L 656.849159 295.356 
L 656.849159 58.944 
L 402.150841 58.944 
z
" style="fill:#ffffff;"/>
   </g>
   <g id="matplotlib.axis_3">
    <g id="xtick_4">
     <g id="line2d_11">
      <g>
       <use style="fill:#262626;stroke:#262626;stroke-width:1.25;" x="431.549795" xlink:href="#m89334a560a" y="295.356"/>
      </g>
     </g>
     <g id="text_14">
      <text style="fill:#262626;font-family:DejaVu Sans;font-size:15.4px;font-style:normal;font-weight:normal;text-anchor:middle;" transform="rotate(-0, 431.549795, 316.557594)" x="431.549795" y="316.557594">45</text>
     </g>
    </g>
    <g id="xtick_5">
     <g id="line2d_12">
      <g>
       <use style="fill:#262626;stroke:#262626;stroke-width:1.25;" x="505.007844" xlink:href="#m89334a560a" y="295.356"/>
      </g>
     </g>
     <g id="text_15">
      <text style="fill:#262626;font-family:DejaVu Sans;font-size:15.4px;font-style:normal;font-weight:normal;text-anchor:middle;" transform="rotate(-0, 505.007844, 316.557594)" x="505.007844" y="316.557594">50</text>
     </g>
    </g>
    <g id="xtick_6">
     <g id="line2d_13">
      <g>
       <use style="fill:#262626;stroke:#262626;stroke-width:1.25;" x="578.465894" xlink:href="#m89334a560a" y="295.356"/>
      </g>
     </g>
     <g id="text_16">
      <text style="fill:#262626;font-family:DejaVu Sans;font-size:15.4px;font-style:normal;font-weight:normal;text-anchor:middle;" transform="rotate(-0, 578.465894, 316.557594)" x="578.465894" y="316.557594">55</text>
     </g>
    </g>
    <g id="xtick_7">
     <g id="line2d_14">
      <g>
       <use style="fill:#262626;stroke:#262626;stroke-width:1.25;" x="651.923943" xlink:href="#m89334a560a" y="295.356"/>
      </g>
     </g>
     <g id="text_17">
      <text style="fill:#262626;font-family:DejaVu Sans;font-size:15.4px;font-style:normal;font-weight:normal;text-anchor:middle;" transform="rotate(-0, 651.923943, 316.557594)" x="651.923943" y="316.557594">60</text>
     </g>
    </g>
    <g id="text_18">
     <text style="fill:#262626;font-family:DejaVu Sans;font-size:16.8px;font-style:normal;font-weight:normal;text-anchor:middle;" transform="rotate(-0, 529.5, 336.525688)" x="529.5" y="336.525688">Recall (%)</text>
    </g>
   </g>
   <g id="matplotlib.axis_4">
    <g id="ytick_8">
     <g id="line2d_15">
      <g>
       <use style="fill:#262626;stroke:#262626;stroke-width:1.25;" x="402.150841" xlink:href="#mfbd69e2205" y="292.50157"/>
      </g>
     </g>
     <g id="text_19">
      <text style="fill:#262626;font-family:DejaVu Sans;font-size:15.4px;font-style:normal;font-weight:normal;text-anchor:end;" transform="rotate(-0, 392.650841, 298.352367)" x="392.650841" y="298.352367">70</text>
     </g>
    </g>
    <g id="ytick_9">
     <g id="line2d_16">
      <g>
       <use style="fill:#262626;stroke:#262626;stroke-width:1.25;" x="402.150841" xlink:href="#mfbd69e2205" y="242.489241"/>
      </g>
     </g>
     <g id="text_20">
      <text style="fill:#262626;font-family:DejaVu Sans;font-size:15.4px;font-style:normal;font-weight:normal;text-anchor:end;" transform="rotate(-0, 392.650841, 248.340038)" x="392.650841" y="248.340038">75</text>
     </g>
    </g>
    <g id="ytick_10">
     <g id="line2d_17">
      <g>
       <use style="fill:#262626;stroke:#262626;stroke-width:1.25;" x="402.150841" xlink:href="#mfbd69e2205" y="192.476913"/>
      </g>
     </g>
     <g id="text_21">
      <text style="fill:#262626;font-family:DejaVu Sans;font-size:15.4px;font-style:normal;font-weight:normal;text-anchor:end;" transform="rotate(-0, 392.650841, 198.327709)" x="392.650841" y="198.327709">80</text>
     </g>
    </g>
    <g id="ytick_11">
     <g id="line2d_18">
      <g>
       <use style="fill:#262626;stroke:#262626;stroke-width:1.25;" x="402.150841" xlink:href="#mfbd69e2205" y="142.464584"/>
      </g>
     </g>
     <g id="text_22">
      <text style="fill:#262626;font-family:DejaVu Sans;font-size:15.4px;font-style:normal;font-weight:normal;text-anchor:end;" transform="rotate(-0, 392.650841, 148.315381)" x="392.650841" y="148.315381">85</text>
     </g>
    </g>
    <g id="ytick_12">
     <g id="line2d_19">
      <g>
       <use style="fill:#262626;stroke:#262626;stroke-width:1.25;" x="402.150841" xlink:href="#mfbd69e2205" y="92.452255"/>
      </g>
     </g>
     <g id="text_23">
      <text style="fill:#262626;font-family:DejaVu Sans;font-size:15.4px;font-style:normal;font-weight:normal;text-anchor:end;" transform="rotate(-0, 392.650841, 98.303052)" x="392.650841" y="98.303052">90</text>
     </g>
    </g>
    <g id="text_24">
     <text style="fill:#262626;font-family:DejaVu Sans;font-size:16.8px;font-style:normal;font-weight:normal;text-anchor:middle;" transform="rotate(-90, 365.560466, 177.15)" x="365.560466" y="177.15">Precision (%)</text>
    </g>
   </g>
   <g id="PathCollection_5">
    <g clip-path="url(#pfef3e428cf)">
     <use style="fill:#0072b2;stroke:#0072b2;" x="413.919863" xlink:href="#m114d783cdc" y="284.499598"/>
     <use style="fill:#0072b2;stroke:#0072b2;" x="452.118049" xlink:href="#m114d783cdc" y="266.495159"/>
     <use style="fill:#0072b2;stroke:#0072b2;" x="422.734829" xlink:href="#m114d783cdc" y="248.490721"/>
     <use style="fill:#0072b2;stroke:#0072b2;" x="485.908751" xlink:href="#m114d783cdc" y="246.490228"/>
    </g>
   </g>
   <g id="PathCollection_6">
    <g clip-path="url(#pfef3e428cf)">
     <use style="fill:#d55e00;stroke:#d55e00;" x="477.093785" xlink:href="#mb2afb7e755" y="161.469269"/>
     <use style="fill:#d55e00;stroke:#d55e00;" x="528.51442" xlink:href="#mb2afb7e755" y="163.469762"/>
     <use style="fill:#d55e00;stroke:#d55e00;" x="502.069522" xlink:href="#mb2afb7e755" y="165.470255"/>
     <use style="fill:#d55e00;stroke:#d55e00;" x="553.490157" xlink:href="#mb2afb7e755" y="155.467789"/>
    </g>
   </g>
   <g id="PathCollection_7">
    <g clip-path="url(#pfef3e428cf)">
     <use style="fill:#009e73;stroke:#009e73;" x="485.908751" xlink:href="#m1912944eea" y="146.46557"/>
     <use style="fill:#009e73;stroke:#009e73;" x="538.798547" xlink:href="#m1912944eea" y="145.465324"/>
     <use style="fill:#009e73;stroke:#009e73;" x="512.353649" xlink:href="#m1912944eea" y="148.466063"/>
     <use style="fill:#009e73;stroke:#009e73;" x="562.305123" xlink:href="#m1912944eea" y="141.464337"/>
    </g>
   </g>
   <g id="PathCollection_8">
    <g clip-path="url(#pfef3e428cf)">
     <use style="fill:#f0e442;stroke:#f0e442;" x="556.428479" xlink:href="#ma05b926c09" y="76.44831"/>
     <use style="fill:#f0e442;stroke:#f0e442;" x="619.602401" xlink:href="#ma05b926c09" y="74.447817"/>
     <use style="fill:#f0e442;stroke:#f0e442;" x="603.44163" xlink:href="#ma05b926c09" y="73.44757"/>
     <use style="fill:#f0e442;stroke:#f0e442;" x="643.108977" xlink:href="#ma05b926c09" y="71.447077"/>
    </g>
   </g>
   <g id="patch_8">
    <path d="M 402.150841 295.356 
L 402.150841 58.944 
" style="fill:none;stroke:#262626;stroke-linecap:square;stroke-linejoin:miter;stroke-width:1.25;"/>
   </g>
   <g id="patch_9">
    <path d="M 656.849159 295.356 
L 656.849159 58.944 
" style="fill:none;stroke:#262626;stroke-linecap:square;stroke-linejoin:miter;stroke-width:1.25;"/>
   </g>
   <g id="patch_10">
    <path d="M 402.150841 295.356 
L 656.849159 295.356 
" style="fill:none;stroke:#262626;stroke-linecap:square;stroke-linejoin:miter;stroke-width:1.25;"/>
   </g>
   <g id="patch_11">
    <path d="M 402.150841 58.944 
L 656.849159 58.944 
" style="fill:none;stroke:#262626;stroke-linecap:square;stroke-linejoin:miter;stroke-width:1.25;"/>
   </g>
   <g id="text_25">
    <text style="fill:#262626;font-family:DejaVu Sans;font-size:16.8px;font-style:normal;font-weight:normal;text-anchor:middle;" transform="rotate(-0, 529.5, 52.944)" x="529.5" y="52.944">Human (GRCh38 reference)</text>
   </g>
  </g>
  <g id="axes_3">
   <g id="PathCollection_9"/>
   <g id="PathCollection_10"/>
   <g id="PathCollection_11"/>
   <g id="PathCollection_12"/>
   <g id="legend_1">
    <g id="patch_12">
     <path d="M 745.937681 220.129763 
L 931.524525 220.129763 
Q 934.604525 220.129763 934.604525 217.049763 
L 934.604525 69.724 
Q 934.604525 66.644 931.524525 66.644 
L 745.937681 66.644 
Q 742.857681 66.644 742.857681 69.724 
L 742.857681 217.049763 
Q 742.857681 220.129763 745.937681 220.129763 
z
" style="fill:#ffffff;opacity:0.8;stroke:#cccccc;stroke-linejoin:miter;"/>
    </g>
    <g id="text_26">
     <text style="fill:#262626;font-family:DejaVu Sans;font-size:16.8px;font-style:normal;font-weight:normal;text-anchor:start;" transform="rotate(-0, 757.988728, 85.569375)" x="757.988728" y="85.569375">Alignment strategy</text>
    </g>
    <g id="PathCollection_13">
     <defs>
      <path d="M 0 2.95804 
C 0.784481 2.95804 1.536938 2.646362 2.09165 2.09165 
C 2.646362 1.536938 2.95804 0.784481 2.95804 0 
C 2.95804 -0.784481 2.646362 -1.536938 2.09165 -2.09165 
C 1.536938 -2.646362 0.784481 -2.95804 0 -2.95804 
C -0.784481 -2.95804 -1.536938 -2.646362 -2.09165 -2.09165 
C -2.646362 -1.536938 -2.95804 -0.784481 -2.95804 0 
C -2.95804 0.784481 -2.646362 1.536938 -2.09165 2.09165 
C -1.536938 2.646362 -0.784481 2.95804 0 2.95804 
z
" id="mb7638b0aae" style="stroke:#0072b2;"/>
     </defs>
     <g>
      <use style="fill:#0072b2;stroke:#0072b2;" x="764.417681" xlink:href="#mb7638b0aae" y="104.422344"/>
     </g>
    </g>
    <g id="text_27">
     <text style="fill:#262626;font-family:DejaVu Sans;font-size:15.4px;font-style:normal;font-weight:normal;text-anchor:start;" transform="rotate(-0, 792.137681, 108.464844)" x="792.137681" y="108.464844">One-pass</text>
    </g>
    <g id="PathCollection_14">
     <defs>
      <path d="M 0 2.95804 
C 0.784481 2.95804 1.536938 2.646362 2.09165 2.09165 
C 2.646362 1.536938 2.95804 0.784481 2.95804 0 
C 2.95804 -0.784481 2.646362 -1.536938 2.09165 -2.09165 
C 1.536938 -2.646362 0.784481 -2.95804 0 -2.95804 
C -0.784481 -2.95804 -1.536938 -2.646362 -2.09165 -2.09165 
C -2.646362 -1.536938 -2.95804 -0.784481 -2.95804 0 
C -2.95804 0.784481 -2.646362 1.536938 -2.09165 2.09165 
C -1.536938 2.646362 -0.784481 2.95804 0 2.95804 
z
" id="m3c7a051862" style="stroke:#d55e00;"/>
     </defs>
     <g>
      <use style="fill:#d55e00;stroke:#d55e00;" x="764.417681" xlink:href="#m3c7a051862" y="137.250331"/>
     </g>
    </g>
    <g id="text_28">
     <text style="fill:#262626;font-family:DejaVu Sans;font-size:15.4px;font-style:normal;font-weight:normal;" transform="translate(792.137681 131.069156)">Two-pass,</text>
     <text style="fill:#262626;font-family:DejaVu Sans;font-size:15.4px;font-style:normal;font-weight:normal;" transform="translate(792.137681 148.313788)">decision tree 1</text>
    </g>
    <g id="PathCollection_15">
     <defs>
      <path d="M 0 2.95804 
C 0.784481 2.95804 1.536938 2.646362 2.09165 2.09165 
C 2.646362 1.536938 2.95804 0.784481 2.95804 0 
C 2.95804 -0.784481 2.646362 -1.536938 2.09165 -2.09165 
C 1.536938 -2.646362 0.784481 -2.95804 0 -2.95804 
C -0.784481 -2.95804 -1.536938 -2.646362 -2.09165 -2.09165 
C -2.646362 -1.536938 -2.95804 -0.784481 -2.95804 0 
C -2.95804 0.784481 -2.646362 1.536938 -2.09165 2.09165 
C -1.536938 2.646362 -0.784481 2.95804 0 2.95804 
z
" id="m7f32a417de" style="stroke:#009e73;"/>
     </defs>
     <g>
      <use style="fill:#009e73;stroke:#009e73;" x="764.417681" xlink:href="#m7f32a417de" y="177.099275"/>
     </g>
    </g>
    <g id="text_29">
     <text style="fill:#262626;font-family:DejaVu Sans;font-size:15.4px;font-style:normal;font-weight:normal;" transform="translate(792.137681 170.9181)">Two-pass,</text>
     <text style="fill:#262626;font-family:DejaVu Sans;font-size:15.4px;font-style:normal;font-weight:normal;" transform="translate(792.137681 188.162731)">decision tree 2</text>
    </g>
    <g id="PathCollection_16">
     <defs>
      <path d="M 0 2.95804 
C 0.784481 2.95804 1.536938 2.646362 2.09165 2.09165 
C 2.646362 1.536938 2.95804 0.784481 2.95804 0 
C 2.95804 -0.784481 2.646362 -1.536938 2.09165 -2.09165 
C 1.536938 -2.646362 0.784481 -2.95804 0 -2.95804 
C -0.784481 -2.95804 -1.536938 -2.646362 -2.09165 -2.09165 
C -2.646362 -1.536938 -2.95804 -0.784481 -2.95804 0 
C -2.95804 0.784481 -2.646362 1.536938 -2.09165 2.09165 
C -1.536938 2.646362 -0.784481 2.95804 0 2.95804 
z
" id="mda733037d6" style="stroke:#f0e442;"/>
     </defs>
     <g>
      <use style="fill:#f0e442;stroke:#f0e442;" x="764.417681" xlink:href="#mda733037d6" y="206.724544"/>
     </g>
    </g>
    <g id="text_30">
     <text style="fill:#262626;font-family:DejaVu Sans;font-size:15.4px;font-style:normal;font-weight:normal;text-anchor:start;" transform="rotate(-0, 792.137681, 210.767044)" x="792.137681" y="210.767044">Reference guided</text>
    </g>
   </g>
  </g>
 </g>
 <defs>
  <clipPath id="p47b38f6b43">
   <rect height="236.412" width="254.698319" x="69.144" y="58.944"/>
  </clipPath>
  <clipPath id="pfef3e428cf">
   <rect height="236.412" width="254.698319" x="402.150841" y="58.944"/>
  </clipPath>
 </defs>
</svg>
