<?xml version="1.0" encoding="utf-8" standalone="no"?>
<!DOCTYPE svg PUBLIC "-//W3C//DTD SVG 1.1//EN"
  "http://www.w3.org/Graphics/SVG/1.1/DTD/svg11.dtd">
<!-- Created with matplotlib (https://matplotlib.org/) -->
<svg height="360pt" version="1.1" viewBox="0 0 720 360" width="720pt" xmlns="http://www.w3.org/2000/svg" xmlns:xlink="http://www.w3.org/1999/xlink">
 <defs>
  <style type="text/css">
*{stroke-linecap:butt;stroke-linejoin:round;}
  </style>
 </defs>
 <g id="figure_1">
  <g id="patch_1">
   <path d="M 0 360 
L 720 360 
L 720 0 
L 0 0 
z
" style="fill:#ffffff;"/>
  </g>
  <g id="axes_1">
   <g id="patch_2">
    <path d="M 75.598182 304.437818 
L 350.973818 304.437818 
L 350.973818 29.062182 
L 75.598182 29.062182 
z
" style="fill:#ffffff;"/>
   </g>
   <g id="matplotlib.axis_1">
    <g id="xtick_1">
     <g id="line2d_1">
      <defs>
       <path d="M 0 0 
L 0 6 
" id="ma21e0c7a5c" style="stroke:#262626;stroke-width:1.25;"/>
      </defs>
      <g>
       <use style="fill:#262626;stroke:#262626;stroke-width:1.25;" x="110.020136" xlink:href="#ma21e0c7a5c" y="304.437818"/>
      </g>
     </g>
     <g id="text_1">
      <text style="fill:#262626;font-family:DejaVu Sans;font-size:15.4px;font-style:normal;font-weight:normal;text-anchor:middle;" transform="rotate(-0, 110.020136, 325.639412)" x="110.020136" y="325.639412">A</text>
     </g>
    </g>
    <g id="xtick_2">
     <g id="line2d_2">
      <g>
       <use style="fill:#262626;stroke:#262626;stroke-width:1.25;" x="178.864045" xlink:href="#ma21e0c7a5c" y="304.437818"/>
      </g>
     </g>
     <g id="text_2">
      <text style="fill:#262626;font-family:DejaVu Sans;font-size:15.4px;font-style:normal;font-weight:normal;text-anchor:middle;" transform="rotate(-0, 178.864045, 325.639412)" x="178.864045" y="325.639412">C</text>
     </g>
    </g>
    <g id="xtick_3">
     <g id="line2d_3">
      <g>
       <use style="fill:#262626;stroke:#262626;stroke-width:1.25;" x="247.707955" xlink:href="#ma21e0c7a5c" y="304.437818"/>
      </g>
     </g>
     <g id="text_3">
      <text style="fill:#262626;font-family:DejaVu Sans;font-size:15.4px;font-style:normal;font-weight:normal;text-anchor:middle;" transform="rotate(-0, 247.707955, 325.639412)" x="247.707955" y="325.639412">G</text>
     </g>
    </g>
    <g id="xtick_4">
     <g id="line2d_4">
      <g>
       <use style="fill:#262626;stroke:#262626;stroke-width:1.25;" x="316.551864" xlink:href="#ma21e0c7a5c" y="304.437818"/>
      </g>
     </g>
     <g id="text_4">
      <text style="fill:#262626;font-family:DejaVu Sans;font-size:15.4px;font-style:normal;font-weight:normal;text-anchor:middle;" transform="rotate(-0, 316.551864, 325.639412)" x="316.551864" y="325.639412">T</text>
     </g>
    </g>
    <g id="text_5">
     <text style="fill:#262626;font-family:DejaVu Sans;font-size:16.8px;font-style:normal;font-weight:normal;text-anchor:middle;" transform="rotate(-0, 213.286, 345.607506)" x="213.286" y="345.607506">Reference base</text>
    </g>
   </g>
   <g id="matplotlib.axis_2">
    <g id="ytick_1">
     <g id="line2d_5">
      <defs>
       <path d="M 0 0 
L -6 0 
" id="mb8d2e902f1" style="stroke:#262626;stroke-width:1.25;"/>
      </defs>
      <g>
       <use style="fill:#262626;stroke:#262626;stroke-width:1.25;" x="75.598182" xlink:href="#mb8d2e902f1" y="63.484136"/>
      </g>
     </g>
     <g id="text_6">
      <text style="fill:#262626;font-family:DejaVu Sans;font-size:15.4px;font-style:normal;font-weight:normal;" transform="translate(62.895463 68.167902)rotate(-90)">A</text>
     </g>
    </g>
    <g id="ytick_2">
     <g id="line2d_6">
      <g>
       <use style="fill:#262626;stroke:#262626;stroke-width:1.25;" x="75.598182" xlink:href="#mb8d2e902f1" y="132.328045"/>
      </g>
     </g>
     <g id="text_7">
      <text style="fill:#262626;font-family:DejaVu Sans;font-size:15.4px;font-style:normal;font-weight:normal;" transform="translate(62.895463 137.23078)rotate(-90)">C</text>
     </g>
    </g>
    <g id="ytick_3">
     <g id="line2d_7">
      <g>
       <use style="fill:#262626;stroke:#262626;stroke-width:1.25;" x="75.598182" xlink:href="#mb8d2e902f1" y="201.171955"/>
      </g>
     </g>
     <g id="text_8">
      <text style="fill:#262626;font-family:DejaVu Sans;font-size:15.4px;font-style:normal;font-weight:normal;" transform="translate(62.895463 207.253751)rotate(-90)">G</text>
     </g>
    </g>
    <g id="ytick_4">
     <g id="line2d_8">
      <g>
       <use style="fill:#262626;stroke:#262626;stroke-width:1.25;" x="75.598182" xlink:href="#mb8d2e902f1" y="270.015864"/>
      </g>
     </g>
     <g id="text_9">
      <text style="fill:#262626;font-family:DejaVu Sans;font-size:15.4px;font-style:normal;font-weight:normal;" transform="translate(62.895463 273.571098)rotate(-90)">T</text>
     </g>
    </g>
    <g id="text_10">
     <text style="fill:#262626;font-family:DejaVu Sans;font-size:16.8px;font-style:normal;font-weight:normal;text-anchor:middle;" transform="rotate(-90, 43.699994, 166.75)" x="43.699994" y="166.75">Read base</text>
    </g>
   </g>
   <g id="QuadMesh_1">
    <path clip-path="url(#p1c097dcb92)" d="M 75.598182 29.062182 
L 144.442091 29.062182 
L 144.442091 97.906091 
L 75.598182 97.906091 
L 75.598182 29.062182 
" style="fill:none;"/>
    <path clip-path="url(#p1c097dcb92)" d="M 144.442091 29.062182 
L 213.286 29.062182 
L 213.286 97.906091 
L 144.442091 97.906091 
L 144.442091 29.062182 
" style="fill:#bdd7ec;"/>
    <path clip-path="url(#p1c097dcb92)" d="M 213.286 29.062182 
L 282.129909 29.062182 
L 282.129909 97.906091 
L 213.286 97.906091 
L 213.286 29.062182 
" style="fill:#083471;"/>
    <path clip-path="url(#p1c097dcb92)" d="M 282.129909 29.062182 
L 350.973818 29.062182 
L 350.973818 97.906091 
L 282.129909 97.906091 
L 282.129909 29.062182 
" style="fill:#1967ad;"/>
    <path clip-path="url(#p1c097dcb92)" d="M 75.598182 97.906091 
L 144.442091 97.906091 
L 144.442091 166.75 
L 75.598182 166.75 
L 75.598182 97.906091 
" style="fill:#c7dcef;"/>
    <path clip-path="url(#p1c097dcb92)" d="M 144.442091 97.906091 
L 213.286 97.906091 
L 213.286 166.75 
L 144.442091 166.75 
L 144.442091 97.906091 
" style="fill:none;"/>
    <path clip-path="url(#p1c097dcb92)" d="M 213.286 97.906091 
L 282.129909 97.906091 
L 282.129909 166.75 
L 213.286 166.75 
L 213.286 97.906091 
" style="fill:#dceaf6;"/>
    <path clip-path="url(#p1c097dcb92)" d="M 282.129909 97.906091 
L 350.973818 97.906091 
L 350.973818 166.75 
L 282.129909 166.75 
L 282.129909 97.906091 
" style="fill:#084e98;"/>
    <path clip-path="url(#p1c097dcb92)" d="M 75.598182 166.75 
L 144.442091 166.75 
L 144.442091 235.593909 
L 75.598182 235.593909 
L 75.598182 166.75 
" style="fill:#0c56a0;"/>
    <path clip-path="url(#p1c097dcb92)" d="M 144.442091 166.75 
L 213.286 166.75 
L 213.286 235.593909 
L 144.442091 235.593909 
L 144.442091 166.75 
" style="fill:#ddeaf7;"/>
    <path clip-path="url(#p1c097dcb92)" d="M 213.286 166.75 
L 282.129909 166.75 
L 282.129909 235.593909 
L 213.286 235.593909 
L 213.286 166.75 
" style="fill:none;"/>
    <path clip-path="url(#p1c097dcb92)" d="M 282.129909 166.75 
L 350.973818 166.75 
L 350.973818 235.593909 
L 282.129909 235.593909 
L 282.129909 166.75 
" style="fill:#bfd8ed;"/>
    <path clip-path="url(#p1c097dcb92)" d="M 75.598182 235.593909 
L 144.442091 235.593909 
L 144.442091 304.437818 
L 75.598182 304.437818 
L 75.598182 235.593909 
" style="fill:#1b69af;"/>
    <path clip-path="url(#p1c097dcb92)" d="M 144.442091 235.593909 
L 213.286 235.593909 
L 213.286 304.437818 
L 144.442091 304.437818 
L 144.442091 235.593909 
" style="fill:#083370;"/>
    <path clip-path="url(#p1c097dcb92)" d="M 213.286 235.593909 
L 282.129909 235.593909 
L 282.129909 304.437818 
L 213.286 304.437818 
L 213.286 235.593909 
" style="fill:#add0e6;"/>
    <path clip-path="url(#p1c097dcb92)" d="M 282.129909 235.593909 
L 350.973818 235.593909 
L 350.973818 304.437818 
L 282.129909 304.437818 
L 282.129909 235.593909 
" style="fill:none;"/>
   </g>
   <g id="text_11">
    <text style="fill:#262626;font-family:DejaVu Sans;font-size:16.8px;font-style:normal;font-weight:normal;text-anchor:middle;" transform="rotate(-0, 178.864045, 68.119886)" x="178.864045" y="68.119886">0.04</text>
   </g>
   <g id="text_12">
    <text style="fill:#ffffff;font-family:DejaVu Sans;font-size:16.8px;font-style:normal;font-weight:normal;text-anchor:middle;" transform="rotate(-0, 247.707955, 68.119886)" x="247.707955" y="68.119886">0.15</text>
   </g>
   <g id="text_13">
    <text style="fill:#ffffff;font-family:DejaVu Sans;font-size:16.8px;font-style:normal;font-weight:normal;text-anchor:middle;" transform="rotate(-0, 316.551864, 68.119886)" x="316.551864" y="68.119886">0.12</text>
   </g>
   <g id="text_14">
    <text style="fill:#262626;font-family:DejaVu Sans;font-size:16.8px;font-style:normal;font-weight:normal;text-anchor:middle;" transform="rotate(-0, 110.020136, 136.963795)" x="110.020136" y="136.963795">0.04</text>
   </g>
   <g id="text_15">
    <text style="fill:#262626;font-family:DejaVu Sans;font-size:16.8px;font-style:normal;font-weight:normal;text-anchor:middle;" transform="rotate(-0, 247.707955, 136.963795)" x="247.707955" y="136.963795">0.02</text>
   </g>
   <g id="text_16">
    <text style="fill:#ffffff;font-family:DejaVu Sans;font-size:16.8px;font-style:normal;font-weight:normal;text-anchor:middle;" transform="rotate(-0, 316.551864, 136.963795)" x="316.551864" y="136.963795">0.13</text>
   </g>
   <g id="text_17">
    <text style="fill:#ffffff;font-family:DejaVu Sans;font-size:16.8px;font-style:normal;font-weight:normal;text-anchor:middle;" transform="rotate(-0, 110.020136, 205.807705)" x="110.020136" y="205.807705">0.13</text>
   </g>
   <g id="text_18">
    <text style="fill:#262626;font-family:DejaVu Sans;font-size:16.8px;font-style:normal;font-weight:normal;text-anchor:middle;" transform="rotate(-0, 178.864045, 205.807705)" x="178.864045" y="205.807705">0.02</text>
   </g>
   <g id="text_19">
    <text style="fill:#262626;font-family:DejaVu Sans;font-size:16.8px;font-style:normal;font-weight:normal;text-anchor:middle;" transform="rotate(-0, 316.551864, 205.807705)" x="316.551864" y="205.807705">0.04</text>
   </g>
   <g id="text_20">
    <text style="fill:#ffffff;font-family:DejaVu Sans;font-size:16.8px;font-style:normal;font-weight:normal;text-anchor:middle;" transform="rotate(-0, 110.020136, 274.651614)" x="110.020136" y="274.651614">0.12</text>
   </g>
   <g id="text_21">
    <text style="fill:#ffffff;font-family:DejaVu Sans;font-size:16.8px;font-style:normal;font-weight:normal;text-anchor:middle;" transform="rotate(-0, 178.864045, 274.651614)" x="178.864045" y="274.651614">0.15</text>
   </g>
   <g id="text_22">
    <text style="fill:#262626;font-family:DejaVu Sans;font-size:16.8px;font-style:normal;font-weight:normal;text-anchor:middle;" transform="rotate(-0, 247.707955, 274.651614)" x="247.707955" y="274.651614">0.05</text>
   </g>
   <g id="text_23">
    <text style="fill:#262626;font-family:DejaVu Sans;font-size:16.8px;font-style:normal;font-weight:normal;text-anchor:middle;" transform="rotate(-0, 213.286, 23.062182)" x="213.286" y="23.062182">Real</text>
   </g>
  </g>
  <g id="axes_2">
   <g id="patch_3">
    <path d="M 415.526182 304.437818 
L 690.901818 304.437818 
L 690.901818 29.062182 
L 415.526182 29.062182 
z
" style="fill:#ffffff;"/>
   </g>
   <g id="matplotlib.axis_3">
    <g id="xtick_5">
     <g id="line2d_9">
      <g>
       <use style="fill:#262626;stroke:#262626;stroke-width:1.25;" x="449.948136" xlink:href="#ma21e0c7a5c" y="304.437818"/>
      </g>
     </g>
     <g id="text_24">
      <text style="fill:#262626;font-family:DejaVu Sans;font-size:15.4px;font-style:normal;font-weight:normal;text-anchor:middle;" transform="rotate(-0, 449.948136, 325.639412)" x="449.948136" y="325.639412">A</text>
     </g>
    </g>
    <g id="xtick_6">
     <g id="line2d_10">
      <g>
       <use style="fill:#262626;stroke:#262626;stroke-width:1.25;" x="518.792045" xlink:href="#ma21e0c7a5c" y="304.437818"/>
      </g>
     </g>
     <g id="text_25">
      <text style="fill:#262626;font-family:DejaVu Sans;font-size:15.4px;font-style:normal;font-weight:normal;text-anchor:middle;" transform="rotate(-0, 518.792045, 325.639412)" x="518.792045" y="325.639412">C</text>
     </g>
    </g>
    <g id="xtick_7">
     <g id="line2d_11">
      <g>
       <use style="fill:#262626;stroke:#262626;stroke-width:1.25;" x="587.635955" xlink:href="#ma21e0c7a5c" y="304.437818"/>
      </g>
     </g>
     <g id="text_26">
      <text style="fill:#262626;font-family:DejaVu Sans;font-size:15.4px;font-style:normal;font-weight:normal;text-anchor:middle;" transform="rotate(-0, 587.635955, 325.639412)" x="587.635955" y="325.639412">G</text>
     </g>
    </g>
    <g id="xtick_8">
     <g id="line2d_12">
      <g>
       <use style="fill:#262626;stroke:#262626;stroke-width:1.25;" x="656.479864" xlink:href="#ma21e0c7a5c" y="304.437818"/>
      </g>
     </g>
     <g id="text_27">
      <text style="fill:#262626;font-family:DejaVu Sans;font-size:15.4px;font-style:normal;font-weight:normal;text-anchor:middle;" transform="rotate(-0, 656.479864, 325.639412)" x="656.479864" y="325.639412">T</text>
     </g>
    </g>
    <g id="text_28">
     <text style="fill:#262626;font-family:DejaVu Sans;font-size:16.8px;font-style:normal;font-weight:normal;text-anchor:middle;" transform="rotate(-0, 553.214, 345.607506)" x="553.214" y="345.607506">Reference base</text>
    </g>
   </g>
   <g id="matplotlib.axis_4">
    <g id="ytick_5">
     <g id="line2d_13">
      <g>
       <use style="fill:#262626;stroke:#262626;stroke-width:1.25;" x="415.526182" xlink:href="#mb8d2e902f1" y="63.484136"/>
      </g>
     </g>
     <g id="text_29">
      <text style="fill:#262626;font-family:DejaVu Sans;font-size:15.4px;font-style:normal;font-weight:normal;" transform="translate(402.823463 68.167902)rotate(-90)">A</text>
     </g>
    </g>
    <g id="ytick_6">
     <g id="line2d_14">
      <g>
       <use style="fill:#262626;stroke:#262626;stroke-width:1.25;" x="415.526182" xlink:href="#mb8d2e902f1" y="132.328045"/>
      </g>
     </g>
     <g id="text_30">
      <text style="fill:#262626;font-family:DejaVu Sans;font-size:15.4px;font-style:normal;font-weight:normal;" transform="translate(402.823463 137.23078)rotate(-90)">C</text>
     </g>
    </g>
    <g id="ytick_7">
     <g id="line2d_15">
      <g>
       <use style="fill:#262626;stroke:#262626;stroke-width:1.25;" x="415.526182" xlink:href="#mb8d2e902f1" y="201.171955"/>
      </g>
     </g>
     <g id="text_31">
      <text style="fill:#262626;font-family:DejaVu Sans;font-size:15.4px;font-style:normal;font-weight:normal;" transform="translate(402.823463 207.253751)rotate(-90)">G</text>
     </g>
    </g>
    <g id="ytick_8">
     <g id="line2d_16">
      <g>
       <use style="fill:#262626;stroke:#262626;stroke-width:1.25;" x="415.526182" xlink:href="#mb8d2e902f1" y="270.015864"/>
      </g>
     </g>
     <g id="text_32">
      <text style="fill:#262626;font-family:DejaVu Sans;font-size:15.4px;font-style:normal;font-weight:normal;" transform="translate(402.823463 273.571098)rotate(-90)">T</text>
     </g>
    </g>
   </g>
   <g id="QuadMesh_2">
    <path clip-path="url(#p72c4c84607)" d="M 415.526182 29.062182 
L 484.370091 29.062182 
L 484.370091 97.906091 
L 415.526182 97.906091 
L 415.526182 29.062182 
" style="fill:none;"/>
    <path clip-path="url(#p72c4c84607)" d="M 484.370091 29.062182 
L 553.214 29.062182 
L 553.214 97.906091 
L 484.370091 97.906091 
L 484.370091 29.062182 
" style="fill:#fdbf86;"/>
    <path clip-path="url(#p72c4c84607)" d="M 553.214 29.062182 
L 622.057909 29.062182 
L 622.057909 97.906091 
L 553.214 97.906091 
L 553.214 29.062182 
" style="fill:#ab3803;"/>
    <path clip-path="url(#p72c4c84607)" d="M 622.057909 29.062182 
L 690.901818 29.062182 
L 690.901818 97.906091 
L 622.057909 97.906091 
L 622.057909 29.062182 
" style="fill:#c54102;"/>
    <path clip-path="url(#p72c4c84607)" d="M 415.526182 97.906091 
L 484.370091 97.906091 
L 484.370091 166.75 
L 415.526182 166.75 
L 415.526182 97.906091 
" style="fill:#fdc28b;"/>
    <path clip-path="url(#p72c4c84607)" d="M 484.370091 97.906091 
L 553.214 97.906091 
L 553.214 166.75 
L 484.370091 166.75 
L 484.370091 97.906091 
" style="fill:none;"/>
    <path clip-path="url(#p72c4c84607)" d="M 553.214 97.906091 
L 622.057909 97.906091 
L 622.057909 166.75 
L 553.214 166.75 
L 553.214 97.906091 
" style="fill:#feddbc;"/>
    <path clip-path="url(#p72c4c84607)" d="M 622.057909 97.906091 
L 690.901818 97.906091 
L 690.901818 166.75 
L 622.057909 166.75 
L 622.057909 97.906091 
" style="fill:#ab3803;"/>
    <path clip-path="url(#p72c4c84607)" d="M 415.526182 166.75 
L 484.370091 166.75 
L 484.370091 235.593909 
L 415.526182 235.593909 
L 415.526182 166.75 
" style="fill:#b83c02;"/>
    <path clip-path="url(#p72c4c84607)" d="M 484.370091 166.75 
L 553.214 166.75 
L 553.214 235.593909 
L 484.370091 235.593909 
L 484.370091 166.75 
" style="fill:#feddbc;"/>
    <path clip-path="url(#p72c4c84607)" d="M 553.214 166.75 
L 622.057909 166.75 
L 622.057909 235.593909 
L 553.214 235.593909 
L 553.214 166.75 
" style="fill:none;"/>
    <path clip-path="url(#p72c4c84607)" d="M 622.057909 166.75 
L 690.901818 166.75 
L 690.901818 235.593909 
L 622.057909 235.593909 
L 622.057909 166.75 
" style="fill:#fdbd83;"/>
    <path clip-path="url(#p72c4c84607)" d="M 415.526182 235.593909 
L 484.370091 235.593909 
L 484.370091 304.437818 
L 415.526182 304.437818 
L 415.526182 235.593909 
" style="fill:#c14002;"/>
    <path clip-path="url(#p72c4c84607)" d="M 484.370091 235.593909 
L 553.214 235.593909 
L 553.214 304.437818 
L 484.370091 304.437818 
L 484.370091 235.593909 
" style="fill:#a03403;"/>
    <path clip-path="url(#p72c4c84607)" d="M 553.214 235.593909 
L 622.057909 235.593909 
L 622.057909 304.437818 
L 553.214 304.437818 
L 553.214 235.593909 
" style="fill:#fdbb81;"/>
    <path clip-path="url(#p72c4c84607)" d="M 622.057909 235.593909 
L 690.901818 235.593909 
L 690.901818 304.437818 
L 622.057909 304.437818 
L 622.057909 235.593909 
" style="fill:none;"/>
   </g>
   <g id="text_33">
    <text style="fill:#262626;font-family:DejaVu Sans;font-size:16.8px;font-style:normal;font-weight:normal;text-anchor:middle;" transform="rotate(-0, 518.792045, 68.119886)" x="518.792045" y="68.119886">0.05</text>
   </g>
   <g id="text_34">
    <text style="fill:#ffffff;font-family:DejaVu Sans;font-size:16.8px;font-style:normal;font-weight:normal;text-anchor:middle;" transform="rotate(-0, 587.635955, 68.119886)" x="587.635955" y="68.119886">0.13</text>
   </g>
   <g id="text_35">
    <text style="fill:#ffffff;font-family:DejaVu Sans;font-size:16.8px;font-style:normal;font-weight:normal;text-anchor:middle;" transform="rotate(-0, 656.479864, 68.119886)" x="656.479864" y="68.119886">0.12</text>
   </g>
   <g id="text_36">
    <text style="fill:#262626;font-family:DejaVu Sans;font-size:16.8px;font-style:normal;font-weight:normal;text-anchor:middle;" transform="rotate(-0, 449.948136, 136.963795)" x="449.948136" y="136.963795">0.05</text>
   </g>
   <g id="text_37">
    <text style="fill:#262626;font-family:DejaVu Sans;font-size:16.8px;font-style:normal;font-weight:normal;text-anchor:middle;" transform="rotate(-0, 587.635955, 136.963795)" x="587.635955" y="136.963795">0.03</text>
   </g>
   <g id="text_38">
    <text style="fill:#ffffff;font-family:DejaVu Sans;font-size:16.8px;font-style:normal;font-weight:normal;text-anchor:middle;" transform="rotate(-0, 656.479864, 136.963795)" x="656.479864" y="136.963795">0.13</text>
   </g>
   <g id="text_39">
    <text style="fill:#ffffff;font-family:DejaVu Sans;font-size:16.8px;font-style:normal;font-weight:normal;text-anchor:middle;" transform="rotate(-0, 449.948136, 205.807705)" x="449.948136" y="205.807705">0.12</text>
   </g>
   <g id="text_40">
    <text style="fill:#262626;font-family:DejaVu Sans;font-size:16.8px;font-style:normal;font-weight:normal;text-anchor:middle;" transform="rotate(-0, 518.792045, 205.807705)" x="518.792045" y="205.807705">0.03</text>
   </g>
   <g id="text_41">
    <text style="fill:#262626;font-family:DejaVu Sans;font-size:16.8px;font-style:normal;font-weight:normal;text-anchor:middle;" transform="rotate(-0, 656.479864, 205.807705)" x="656.479864" y="205.807705">0.05</text>
   </g>
   <g id="text_42">
    <text style="fill:#ffffff;font-family:DejaVu Sans;font-size:16.8px;font-style:normal;font-weight:normal;text-anchor:middle;" transform="rotate(-0, 449.948136, 274.651614)" x="449.948136" y="274.651614">0.12</text>
   </g>
   <g id="text_43">
    <text style="fill:#ffffff;font-family:DejaVu Sans;font-size:16.8px;font-style:normal;font-weight:normal;text-anchor:middle;" transform="rotate(-0, 518.792045, 274.651614)" x="518.792045" y="274.651614">0.13</text>
   </g>
   <g id="text_44">
    <text style="fill:#262626;font-family:DejaVu Sans;font-size:16.8px;font-style:normal;font-weight:normal;text-anchor:middle;" transform="rotate(-0, 587.635955, 274.651614)" x="587.635955" y="274.651614">0.05</text>
   </g>
   <g id="text_45">
    <text style="fill:#262626;font-family:DejaVu Sans;font-size:16.8px;font-style:normal;font-weight:normal;text-anchor:middle;" transform="rotate(-0, 553.214, 23.062182)" x="553.214" y="23.062182">Simulated</text>
   </g>
  </g>
 </g>
 <defs>
  <clipPath id="p1c097dcb92">
   <rect height="275.375636" width="275.375636" x="75.598182" y="29.062182"/>
  </clipPath>
  <clipPath id="p72c4c84607">
   <rect height="275.375636" width="275.375636" x="415.526182" y="29.062182"/>
  </clipPath>
 </defs>
</svg>
