<?xml version="1.0" encoding="utf-8" standalone="no"?>
<!DOCTYPE svg PUBLIC "-//W3C//DTD SVG 1.1//EN"
  "http://www.w3.org/Graphics/SVG/1.1/DTD/svg11.dtd">
<!-- Created with matplotlib (https://matplotlib.org/) -->
<svg height="360pt" version="1.1" viewBox="0 0 432 360" width="432pt" xmlns="http://www.w3.org/2000/svg" xmlns:xlink="http://www.w3.org/1999/xlink">
 <defs>
  <style type="text/css">
*{stroke-linecap:butt;stroke-linejoin:round;}
  </style>
 </defs>
 <g id="figure_1">
  <g id="patch_1">
   <path d="M 0 360 
L 432 360 
L 432 0 
L 0 0 
z
" style="fill:#ffffff;"/>
  </g>
  <g id="axes_1">
   <g id="patch_2">
    <path d="M 104.569 280.365619 
L 413.856 280.365619 
L 413.856 18.144 
L 104.569 18.144 
z
" style="fill:#ffffff;"/>
   </g>
   <g id="matplotlib.axis_1">
    <g id="xtick_1">
     <g id="line2d_1">
      <defs>
       <path d="M 0 0 
L 0 6 
" id="mbcfaa77ecc" style="stroke:#262626;stroke-width:1.25;"/>
      </defs>
      <g>
       <use style="fill:#262626;stroke:#262626;stroke-width:1.25;" x="181.89075" xlink:href="#mbcfaa77ecc" y="280.365619"/>
      </g>
     </g>
     <g id="text_1">
      <text style="fill:#262626;font-family:DejaVu Sans;font-size:15.4px;font-style:normal;font-weight:normal;" transform="translate(150.946366 316.9407)rotate(-30)">Real</text>
     </g>
    </g>
    <g id="xtick_2">
     <g id="line2d_2">
      <g>
       <use style="fill:#262626;stroke:#262626;stroke-width:1.25;" x="336.53425" xlink:href="#mbcfaa77ecc" y="280.365619"/>
      </g>
     </g>
     <g id="text_2">
      <text style="fill:#262626;font-family:DejaVu Sans;font-size:15.4px;font-style:normal;font-weight:normal;" transform="translate(267.538334 338.909762)rotate(-30)">Simulated</text>
     </g>
    </g>
   </g>
   <g id="matplotlib.axis_2">
    <g id="ytick_1">
     <g id="line2d_3">
      <defs>
       <path d="M 0 0 
L -6 0 
" id="m76fb52c371" style="stroke:#262626;stroke-width:1.25;"/>
      </defs>
      <g>
       <use style="fill:#262626;stroke:#262626;stroke-width:1.25;" x="104.569" xlink:href="#m76fb52c371" y="254.661414"/>
      </g>
     </g>
     <g id="text_3">
      <text style="fill:#262626;font-family:DejaVu Sans;font-size:15.4px;font-style:normal;font-weight:normal;text-anchor:end;" transform="rotate(-0, 95.069, 260.512211)" x="95.069" y="260.512211">0.75</text>
     </g>
    </g>
    <g id="ytick_2">
     <g id="line2d_4">
      <g>
       <use style="fill:#262626;stroke:#262626;stroke-width:1.25;" x="104.569" xlink:href="#m76fb52c371" y="208.912019"/>
      </g>
     </g>
     <g id="text_4">
      <text style="fill:#262626;font-family:DejaVu Sans;font-size:15.4px;font-style:normal;font-weight:normal;text-anchor:end;" transform="rotate(-0, 95.069, 214.762816)" x="95.069" y="214.762816">0.80</text>
     </g>
    </g>
    <g id="ytick_3">
     <g id="line2d_5">
      <g>
       <use style="fill:#262626;stroke:#262626;stroke-width:1.25;" x="104.569" xlink:href="#m76fb52c371" y="163.162624"/>
      </g>
     </g>
     <g id="text_5">
      <text style="fill:#262626;font-family:DejaVu Sans;font-size:15.4px;font-style:normal;font-weight:normal;text-anchor:end;" transform="rotate(-0, 95.069, 169.013421)" x="95.069" y="169.013421">0.85</text>
     </g>
    </g>
    <g id="ytick_4">
     <g id="line2d_6">
      <g>
       <use style="fill:#262626;stroke:#262626;stroke-width:1.25;" x="104.569" xlink:href="#m76fb52c371" y="117.413229"/>
      </g>
     </g>
     <g id="text_6">
      <text style="fill:#262626;font-family:DejaVu Sans;font-size:15.4px;font-style:normal;font-weight:normal;text-anchor:end;" transform="rotate(-0, 95.069, 123.264026)" x="95.069" y="123.264026">0.90</text>
     </g>
    </g>
    <g id="ytick_5">
     <g id="line2d_7">
      <g>
       <use style="fill:#262626;stroke:#262626;stroke-width:1.25;" x="104.569" xlink:href="#m76fb52c371" y="71.663833"/>
      </g>
     </g>
     <g id="text_7">
      <text style="fill:#262626;font-family:DejaVu Sans;font-size:15.4px;font-style:normal;font-weight:normal;text-anchor:end;" transform="rotate(-0, 95.069, 77.51463)" x="95.069" y="77.51463">0.95</text>
     </g>
    </g>
    <g id="ytick_6">
     <g id="line2d_8">
      <g>
       <use style="fill:#262626;stroke:#262626;stroke-width:1.25;" x="104.569" xlink:href="#m76fb52c371" y="25.914438"/>
      </g>
     </g>
     <g id="text_8">
      <text style="fill:#262626;font-family:DejaVu Sans;font-size:15.4px;font-style:normal;font-weight:normal;text-anchor:end;" transform="rotate(-0, 95.069, 31.765235)" x="95.069" y="31.765235">1.00</text>
     </g>
    </g>
    <g id="text_9">
     <text style="fill:#262626;font-family:DejaVu Sans;font-size:16.8px;font-style:normal;font-weight:normal;" transform="translate(34.473737 225.411309)rotate(-90)">Sequence identity</text>
     <text style="fill:#262626;font-family:DejaVu Sans;font-size:16.8px;font-style:normal;font-weight:normal;" transform="translate(53.286062 225.437559)rotate(-90)">(gap compressed)</text>
    </g>
   </g>
   <g id="PolyCollection_1">
    <defs>
     <path d="M 181.890804 -91.553546 
L 181.890696 -91.553546 
L 181.8902 -93.961458 
L 181.889613 -96.36937 
L 181.890234 -98.777282 
L 181.89035 -101.185194 
L 181.889314 -103.593106 
L 181.886664 -106.001018 
L 181.883386 -108.40893 
L 181.881518 -110.816842 
L 181.872628 -113.224754 
L 181.861497 -115.632666 
L 181.852954 -118.040578 
L 181.84179 -120.44849 
L 181.820003 -122.856402 
L 181.793948 -125.264314 
L 181.7595 -127.672226 
L 181.721925 -130.080138 
L 181.702372 -132.48805 
L 181.65644 -134.895962 
L 181.59798 -137.303874 
L 181.542007 -139.711786 
L 181.474949 -142.119698 
L 181.420541 -144.52761 
L 181.341648 -146.935522 
L 181.263681 -149.343434 
L 181.176033 -151.751346 
L 181.072778 -154.159258 
L 180.994215 -156.56717 
L 180.910992 -158.975082 
L 180.800701 -161.382994 
L 180.671171 -163.790906 
L 180.559218 -166.198818 
L 180.46689 -168.60673 
L 180.312244 -171.014642 
L 180.160141 -173.422554 
L 180.003336 -175.830466 
L 179.835576 -178.238378 
L 179.616865 -180.64629 
L 179.394652 -183.054202 
L 179.237081 -185.462114 
L 178.984695 -187.870026 
L 178.70448 -190.277938 
L 178.408494 -192.68585 
L 178.103645 -195.093762 
L 177.790755 -197.501674 
L 177.297983 -199.909586 
L 176.793474 -202.317498 
L 176.25871 -204.72541 
L 175.614513 -207.133322 
L 174.942792 -209.541235 
L 174.13138 -211.949147 
L 173.205945 -214.357059 
L 172.109603 -216.764971 
L 170.953839 -219.172883 
L 169.726243 -221.580795 
L 168.185874 -223.988707 
L 166.456791 -226.396619 
L 164.602588 -228.804531 
L 162.710654 -231.212443 
L 160.635838 -233.620355 
L 158.680848 -236.028267 
L 156.775035 -238.436179 
L 154.925104 -240.844091 
L 153.466283 -243.252003 
L 152.488932 -245.659915 
L 152.136769 -248.067827 
L 152.405321 -250.475739 
L 153.563399 -252.883651 
L 155.585974 -255.291563 
L 158.231945 -257.699475 
L 161.384181 -260.107387 
L 164.747086 -262.515299 
L 167.911834 -264.923211 
L 171.034064 -267.331123 
L 173.814145 -269.739035 
L 176.121897 -272.146947 
L 177.977579 -274.554859 
L 179.288701 -276.962771 
L 180.207061 -279.370683 
L 180.873863 -281.778595 
L 181.270561 -284.186507 
L 181.519498 -286.594419 
L 181.663553 -289.002331 
L 181.74932 -291.410243 
L 181.803851 -293.818155 
L 181.838461 -296.226067 
L 181.858213 -298.633979 
L 181.872614 -301.041891 
L 181.882277 -303.449803 
L 181.882788 -305.857715 
L 181.885449 -308.265627 
L 181.887493 -310.673539 
L 181.888072 -313.081451 
L 181.889494 -315.489363 
L 181.890599 -317.897275 
L 181.890738 -320.305187 
L 181.890535 -322.713099 
L 181.889978 -325.121011 
L 181.890122 -327.528923 
L 181.89068 -329.936836 
L 181.89082 -329.936836 
L 181.89082 -329.936836 
L 181.891378 -327.528923 
L 181.891522 -325.121011 
L 181.890965 -322.713099 
L 181.890762 -320.305187 
L 181.890901 -317.897275 
L 181.892006 -315.489363 
L 181.893428 -313.081451 
L 181.894007 -310.673539 
L 181.896051 -308.265627 
L 181.898712 -305.857715 
L 181.899223 -303.449803 
L 181.908886 -301.041891 
L 181.923287 -298.633979 
L 181.943039 -296.226067 
L 181.977649 -293.818155 
L 182.03218 -291.410243 
L 182.117947 -289.002331 
L 182.262002 -286.594419 
L 182.510939 -284.186507 
L 182.907637 -281.778595 
L 183.574439 -279.370683 
L 184.492799 -276.962771 
L 185.803921 -274.554859 
L 187.659603 -272.146947 
L 189.967355 -269.739035 
L 192.747436 -267.331123 
L 195.869666 -264.923211 
L 199.034414 -262.515299 
L 202.397319 -260.107387 
L 205.549555 -257.699475 
L 208.195526 -255.291563 
L 210.218101 -252.883651 
L 211.376179 -250.475739 
L 211.644731 -248.067827 
L 211.292568 -245.659915 
L 210.315217 -243.252003 
L 208.856396 -240.844091 
L 207.006465 -238.436179 
L 205.100652 -236.028267 
L 203.145662 -233.620355 
L 201.070846 -231.212443 
L 199.178912 -228.804531 
L 197.324709 -226.396619 
L 195.595626 -223.988707 
L 194.055257 -221.580795 
L 192.827661 -219.172883 
L 191.671897 -216.764971 
L 190.575555 -214.357059 
L 189.65012 -211.949147 
L 188.838708 -209.541235 
L 188.166987 -207.133322 
L 187.52279 -204.72541 
L 186.988026 -202.317498 
L 186.483517 -199.909586 
L 185.990745 -197.501674 
L 185.677855 -195.093762 
L 185.373006 -192.68585 
L 185.07702 -190.277938 
L 184.796805 -187.870026 
L 184.544419 -185.462114 
L 184.386848 -183.054202 
L 184.164635 -180.64629 
L 183.945924 -178.238378 
L 183.778164 -175.830466 
L 183.621359 -173.422554 
L 183.469256 -171.014642 
L 183.31461 -168.60673 
L 183.222282 -166.198818 
L 183.110329 -163.790906 
L 182.980799 -161.382994 
L 182.870508 -158.975082 
L 182.787285 -156.56717 
L 182.708722 -154.159258 
L 182.605467 -151.751346 
L 182.517819 -149.343434 
L 182.439852 -146.935522 
L 182.360959 -144.52761 
L 182.306551 -142.119698 
L 182.239493 -139.711786 
L 182.18352 -137.303874 
L 182.12506 -134.895962 
L 182.079128 -132.48805 
L 182.059575 -130.080138 
L 182.022 -127.672226 
L 181.987552 -125.264314 
L 181.961497 -122.856402 
L 181.93971 -120.44849 
L 181.928546 -118.040578 
L 181.920003 -115.632666 
L 181.908872 -113.224754 
L 181.899982 -110.816842 
L 181.898114 -108.40893 
L 181.894836 -106.001018 
L 181.892186 -103.593106 
L 181.89115 -101.185194 
L 181.891266 -98.777282 
L 181.891887 -96.36937 
L 181.8913 -93.961458 
L 181.890804 -91.553546 
z
" id="m03c50f4bd6" style="stroke:#353535;stroke-width:1.5;"/>
    </defs>
    <g clip-path="url(#pac8cc81564)">
     <use style="fill:#166c9c;stroke:#353535;stroke-width:1.5;" x="0" xlink:href="#m03c50f4bd6" y="360"/>
    </g>
   </g>
   <g id="PolyCollection_2">
    <defs>
     <path d="M 336.534376 -168.38459 
L 336.534124 -168.38459 
L 336.533385 -169.800443 
L 336.534101 -171.216296 
L 336.531607 -172.632149 
L 336.532648 -174.048002 
L 336.532833 -175.463856 
L 336.531681 -176.879709 
L 336.532694 -178.295562 
L 336.532018 -179.711415 
L 336.532467 -181.127269 
L 336.533756 -182.543122 
L 336.531648 -183.958975 
L 336.529227 -185.374828 
L 336.529106 -186.790681 
L 336.523837 -188.206535 
L 336.522154 -189.622388 
L 336.519749 -191.038241 
L 336.515157 -192.454094 
L 336.493061 -193.869947 
L 336.491675 -195.285801 
L 336.475533 -196.701654 
L 336.459109 -198.117507 
L 336.419642 -199.53336 
L 336.376217 -200.949214 
L 336.315592 -202.365067 
L 336.238126 -203.78092 
L 336.120069 -205.196773 
L 335.940032 -206.612626 
L 335.753592 -208.02848 
L 335.412311 -209.444333 
L 335.026722 -210.860186 
L 334.467848 -212.276039 
L 333.805865 -213.691892 
L 332.75045 -215.107746 
L 331.621148 -216.523599 
L 329.956352 -217.939452 
L 327.98017 -219.355305 
L 325.642293 -220.771159 
L 322.419764 -222.187012 
L 319.016695 -223.602865 
L 314.634001 -225.018718 
L 309.77921 -226.434571 
L 304.260704 -227.850425 
L 298.993424 -229.266278 
L 292.843125 -230.682131 
L 287.066734 -232.097984 
L 281.834393 -233.513838 
L 277.993595 -234.929691 
L 275.836465 -236.345544 
L 274.67685 -237.761397 
L 275.730821 -239.17725 
L 278.163085 -240.593104 
L 282.495204 -242.008957 
L 287.613901 -243.42481 
L 293.629491 -244.840663 
L 299.699992 -246.256516 
L 306.039824 -247.67237 
L 311.472727 -249.088223 
L 316.627907 -250.504076 
L 320.907932 -251.919929 
L 324.572038 -253.335783 
L 327.259299 -254.751636 
L 329.440716 -256.167489 
L 331.360718 -257.583342 
L 332.728694 -258.999195 
L 333.763319 -260.415049 
L 334.537253 -261.830902 
L 335.087659 -263.246755 
L 335.512779 -264.662608 
L 335.838051 -266.078461 
L 336.003915 -267.494315 
L 336.196901 -268.910168 
L 336.292367 -270.326021 
L 336.35459 -271.741874 
L 336.410051 -273.157728 
L 336.463835 -274.573581 
L 336.478122 -275.989434 
L 336.493588 -277.405287 
L 336.5011 -278.82114 
L 336.517465 -280.236994 
L 336.521041 -281.652847 
L 336.525305 -283.0687 
L 336.526018 -284.484553 
L 336.526834 -285.900406 
L 336.528004 -287.31626 
L 336.527729 -288.732113 
L 336.530184 -290.147966 
L 336.533332 -291.563819 
L 336.532589 -292.979673 
L 336.532117 -294.395526 
L 336.531974 -295.811379 
L 336.533539 -297.227232 
L 336.534244 -298.643085 
L 336.534247 -300.058939 
L 336.533599 -301.474792 
L 336.532975 -302.890645 
L 336.533559 -304.306498 
L 336.533883 -305.722351 
L 336.531591 -307.138205 
L 336.533933 -308.554058 
L 336.534567 -308.554058 
L 336.534567 -308.554058 
L 336.536909 -307.138205 
L 336.534617 -305.722351 
L 336.534941 -304.306498 
L 336.535525 -302.890645 
L 336.534901 -301.474792 
L 336.534253 -300.058939 
L 336.534256 -298.643085 
L 336.534961 -297.227232 
L 336.536526 -295.811379 
L 336.536383 -294.395526 
L 336.535911 -292.979673 
L 336.535168 -291.563819 
L 336.538316 -290.147966 
L 336.540771 -288.732113 
L 336.540496 -287.31626 
L 336.541666 -285.900406 
L 336.542482 -284.484553 
L 336.543195 -283.0687 
L 336.547459 -281.652847 
L 336.551035 -280.236994 
L 336.5674 -278.82114 
L 336.574912 -277.405287 
L 336.590378 -275.989434 
L 336.604665 -274.573581 
L 336.658449 -273.157728 
L 336.71391 -271.741874 
L 336.776133 -270.326021 
L 336.871599 -268.910168 
L 337.064585 -267.494315 
L 337.230449 -266.078461 
L 337.555721 -264.662608 
L 337.980841 -263.246755 
L 338.531247 -261.830902 
L 339.305181 -260.415049 
L 340.339806 -258.999195 
L 341.707782 -257.583342 
L 343.627784 -256.167489 
L 345.809201 -254.751636 
L 348.496462 -253.335783 
L 352.160568 -251.919929 
L 356.440593 -250.504076 
L 361.595773 -249.088223 
L 367.028676 -247.67237 
L 373.368508 -246.256516 
L 379.439009 -244.840663 
L 385.454599 -243.42481 
L 390.573296 -242.008957 
L 394.905415 -240.593104 
L 397.337679 -239.17725 
L 398.39165 -237.761397 
L 397.232035 -236.345544 
L 395.074905 -234.929691 
L 391.234107 -233.513838 
L 386.001766 -232.097984 
L 380.225375 -230.682131 
L 374.075076 -229.266278 
L 368.807796 -227.850425 
L 363.28929 -226.434571 
L 358.434499 -225.018718 
L 354.051805 -223.602865 
L 350.648736 -222.187012 
L 347.426207 -220.771159 
L 345.08833 -219.355305 
L 343.112148 -217.939452 
L 341.447352 -216.523599 
L 340.31805 -215.107746 
L 339.262635 -213.691892 
L 338.600652 -212.276039 
L 338.041778 -210.860186 
L 337.656189 -209.444333 
L 337.314908 -208.02848 
L 337.128468 -206.612626 
L 336.948431 -205.196773 
L 336.830374 -203.78092 
L 336.752908 -202.365067 
L 336.692283 -200.949214 
L 336.648858 -199.53336 
L 336.609391 -198.117507 
L 336.592967 -196.701654 
L 336.576825 -195.285801 
L 336.575439 -193.869947 
L 336.553343 -192.454094 
L 336.548751 -191.038241 
L 336.546346 -189.622388 
L 336.544663 -188.206535 
L 336.539394 -186.790681 
L 336.539273 -185.374828 
L 336.536852 -183.958975 
L 336.534744 -182.543122 
L 336.536033 -181.127269 
L 336.536482 -179.711415 
L 336.535806 -178.295562 
L 336.536819 -176.879709 
L 336.535667 -175.463856 
L 336.535852 -174.048002 
L 336.536893 -172.632149 
L 336.534399 -171.216296 
L 336.535115 -169.800443 
L 336.534376 -168.38459 
z
" id="m4d9734b13e" style="stroke:#353535;stroke-width:1.5;"/>
    </defs>
    <g clip-path="url(#pac8cc81564)">
     <use style="fill:#ba611b;stroke:#353535;stroke-width:1.5;" x="0" xlink:href="#m4d9734b13e" y="360"/>
    </g>
   </g>
   <g id="line2d_9">
    <path clip-path="url(#pac8cc81564)" d="M 181.89075 174.965968 
L 181.89075 65.167419 
" style="fill:none;stroke:#353535;stroke-linecap:round;stroke-width:1.5;"/>
   </g>
   <g id="line2d_10">
    <path clip-path="url(#pac8cc81564)" d="M 181.89075 133.791511 
L 181.89075 106.341873 
" style="fill:none;stroke:#353535;stroke-linecap:round;stroke-width:4.5;"/>
   </g>
   <g id="line2d_11">
    <path clip-path="url(#pac8cc81564)" d="M 336.53425 146.50984 
L 336.53425 98.655974 
" style="fill:none;stroke:#353535;stroke-linecap:round;stroke-width:1.5;"/>
   </g>
   <g id="line2d_12">
    <path clip-path="url(#pac8cc81564)" d="M 336.53425 128.57608 
L 336.53425 116.589741 
" style="fill:none;stroke:#353535;stroke-linecap:round;stroke-width:4.5;"/>
   </g>
   <g id="patch_3">
    <path d="M 104.569 280.365619 
L 104.569 18.144 
" style="fill:none;stroke:#262626;stroke-linecap:square;stroke-linejoin:miter;stroke-width:1.25;"/>
   </g>
   <g id="patch_4">
    <path d="M 413.856 280.365619 
L 413.856 18.144 
" style="fill:none;stroke:#262626;stroke-linecap:square;stroke-linejoin:miter;stroke-width:1.25;"/>
   </g>
   <g id="patch_5">
    <path d="M 104.569 280.365619 
L 413.856 280.365619 
" style="fill:none;stroke:#262626;stroke-linecap:square;stroke-linejoin:miter;stroke-width:1.25;"/>
   </g>
   <g id="patch_6">
    <path d="M 104.569 18.144 
L 413.856 18.144 
" style="fill:none;stroke:#262626;stroke-linecap:square;stroke-linejoin:miter;stroke-width:1.25;"/>
   </g>
   <g id="PathCollection_1">
    <defs>
     <path d="M 0 1.5 
C 0.397805 1.5 0.77937 1.341951 1.06066 1.06066 
C 1.341951 0.77937 1.5 0.397805 1.5 0 
C 1.5 -0.397805 1.341951 -0.77937 1.06066 -1.06066 
C 0.77937 -1.341951 0.397805 -1.5 0 -1.5 
C -0.397805 -1.5 -0.77937 -1.341951 -1.06066 -1.06066 
C -1.341951 -0.77937 -1.5 -0.397805 -1.5 0 
C -1.5 0.397805 -1.341951 0.77937 -1.06066 1.06066 
C -0.77937 1.341951 -0.397805 1.5 0 1.5 
z
" id="m84c6f8a0ca" style="stroke:#353535;"/>
    </defs>
    <g clip-path="url(#pac8cc81564)">
     <use style="fill:#ffffff;stroke:#353535;" x="181.89075" xlink:href="#m84c6f8a0ca" y="118.053719"/>
    </g>
   </g>
   <g id="PathCollection_2">
    <g clip-path="url(#pac8cc81564)">
     <use style="fill:#ffffff;stroke:#353535;" x="336.53425" xlink:href="#m84c6f8a0ca" y="122.53716"/>
    </g>
   </g>
  </g>
 </g>
 <defs>
  <clipPath id="pac8cc81564">
   <rect height="262.221619" width="309.287" x="104.569" y="18.144"/>
  </clipPath>
 </defs>
</svg>
