<?xml version="1.0" encoding="utf-8" standalone="no"?>
<!DOCTYPE svg PUBLIC "-//W3C//DTD SVG 1.1//EN"
  "http://www.w3.org/Graphics/SVG/1.1/DTD/svg11.dtd">
<!-- Created with matplotlib (https://matplotlib.org/) -->
<svg height="360pt" version="1.1" viewBox="0 0 432 360" width="432pt" xmlns="http://www.w3.org/2000/svg" xmlns:xlink="http://www.w3.org/1999/xlink">
 <defs>
  <style type="text/css">
*{stroke-linecap:butt;stroke-linejoin:round;}
  </style>
 </defs>
 <g id="figure_1">
  <g id="patch_1">
   <path d="M 0 360 
L 432 360 
L 432 0 
L 0 0 
z
" style="fill:#ffffff;"/>
  </g>
  <g id="axes_1">
   <g id="patch_2">
    <path d="M 93.519 274.998431 
L 219.1155 274.998431 
L 219.1155 21.869 
L 93.519 21.869 
z
" style="fill:#ffffff;"/>
   </g>
   <g id="matplotlib.axis_1">
    <g id="xtick_1">
     <g id="line2d_1">
      <defs>
       <path d="M 0 0 
L 0 6 
" id="mfff3a0f407" style="stroke:#262626;stroke-width:1.25;"/>
      </defs>
      <g>
       <use style="fill:#262626;stroke:#262626;stroke-width:1.25;" x="114.45175" xlink:href="#mfff3a0f407" y="274.998431"/>
      </g>
     </g>
     <g id="text_1">
      <text style="fill:#262626;font-family:DejaVu Sans;font-size:15.4px;font-style:normal;font-weight:normal;" transform="translate(50.346685 330.71884)rotate(-30)">One-pass</text>
     </g>
    </g>
    <g id="xtick_2">
     <g id="line2d_2">
      <g>
       <use style="fill:#262626;stroke:#262626;stroke-width:1.25;" x="156.31725" xlink:href="#mfff3a0f407" y="274.998431"/>
      </g>
     </g>
     <g id="text_2">
      <text style="fill:#262626;font-family:DejaVu Sans;font-size:15.4px;font-style:normal;font-weight:normal;" transform="translate(92.187179 330.733278)rotate(-30)">Two-pass</text>
     </g>
    </g>
    <g id="xtick_3">
     <g id="line2d_3">
      <g>
       <use style="fill:#262626;stroke:#262626;stroke-width:1.25;" x="198.18275" xlink:href="#mfff3a0f407" y="274.998431"/>
      </g>
     </g>
     <g id="text_3">
      <text style="fill:#262626;font-family:DejaVu Sans;font-size:15.4px;font-style:normal;font-weight:normal;" transform="translate(120.194919 338.734059)rotate(-30)">Ref. guided</text>
     </g>
    </g>
   </g>
   <g id="matplotlib.axis_2">
    <g id="ytick_1">
     <g id="line2d_4">
      <defs>
       <path d="M 0 0 
L -6 0 
" id="m0a13a29896" style="stroke:#262626;stroke-width:1.25;"/>
      </defs>
      <g>
       <use style="fill:#262626;stroke:#262626;stroke-width:1.25;" x="93.519" xlink:href="#m0a13a29896" y="245.957293"/>
      </g>
     </g>
     <g id="text_4">
      <text style="fill:#262626;font-family:DejaVu Sans;font-size:15.4px;font-style:normal;font-weight:normal;text-anchor:end;" transform="rotate(-0, 84.019, 251.80809)" x="84.019" y="251.80809">200.0</text>
     </g>
    </g>
    <g id="ytick_2">
     <g id="line2d_5">
      <g>
       <use style="fill:#262626;stroke:#262626;stroke-width:1.25;" x="93.519" xlink:href="#m0a13a29896" y="211.137873"/>
      </g>
     </g>
     <g id="text_5">
      <text style="fill:#262626;font-family:DejaVu Sans;font-size:15.4px;font-style:normal;font-weight:normal;text-anchor:end;" transform="rotate(-0, 84.019, 216.988669)" x="84.019" y="216.988669">202.5</text>
     </g>
    </g>
    <g id="ytick_3">
     <g id="line2d_6">
      <g>
       <use style="fill:#262626;stroke:#262626;stroke-width:1.25;" x="93.519" xlink:href="#m0a13a29896" y="176.318452"/>
      </g>
     </g>
     <g id="text_6">
      <text style="fill:#262626;font-family:DejaVu Sans;font-size:15.4px;font-style:normal;font-weight:normal;text-anchor:end;" transform="rotate(-0, 84.019, 182.169249)" x="84.019" y="182.169249">205.0</text>
     </g>
    </g>
    <g id="ytick_4">
     <g id="line2d_7">
      <g>
       <use style="fill:#262626;stroke:#262626;stroke-width:1.25;" x="93.519" xlink:href="#m0a13a29896" y="141.499031"/>
      </g>
     </g>
     <g id="text_7">
      <text style="fill:#262626;font-family:DejaVu Sans;font-size:15.4px;font-style:normal;font-weight:normal;text-anchor:end;" transform="rotate(-0, 84.019, 147.349828)" x="84.019" y="147.349828">207.5</text>
     </g>
    </g>
    <g id="ytick_5">
     <g id="line2d_8">
      <g>
       <use style="fill:#262626;stroke:#262626;stroke-width:1.25;" x="93.519" xlink:href="#m0a13a29896" y="106.679611"/>
      </g>
     </g>
     <g id="text_8">
      <text style="fill:#262626;font-family:DejaVu Sans;font-size:15.4px;font-style:normal;font-weight:normal;text-anchor:end;" transform="rotate(-0, 84.019, 112.530407)" x="84.019" y="112.530407">210.0</text>
     </g>
    </g>
    <g id="ytick_6">
     <g id="line2d_9">
      <g>
       <use style="fill:#262626;stroke:#262626;stroke-width:1.25;" x="93.519" xlink:href="#m0a13a29896" y="71.86019"/>
      </g>
     </g>
     <g id="text_9">
      <text style="fill:#262626;font-family:DejaVu Sans;font-size:15.4px;font-style:normal;font-weight:normal;text-anchor:end;" transform="rotate(-0, 84.019, 77.710987)" x="84.019" y="77.710987">212.5</text>
     </g>
    </g>
    <g id="ytick_7">
     <g id="line2d_10">
      <g>
       <use style="fill:#262626;stroke:#262626;stroke-width:1.25;" x="93.519" xlink:href="#m0a13a29896" y="37.040769"/>
      </g>
     </g>
     <g id="text_10">
      <text style="fill:#262626;font-family:DejaVu Sans;font-size:15.4px;font-style:normal;font-weight:normal;text-anchor:end;" transform="rotate(-0, 84.019, 42.891566)" x="84.019" y="42.891566">215.0</text>
     </g>
    </g>
    <g id="text_11">
     <text style="fill:#262626;font-family:DejaVu Sans;font-size:16.8px;font-style:normal;font-weight:normal;text-anchor:middle;" transform="rotate(-90, 32.437813, 148.433716)" x="32.437813" y="148.433716">Annotated transcripts assembled</text>
    </g>
   </g>
   <g id="patch_3">
    <path clip-path="url(#p2215c31992)" d="M 97.70555 232.029525 
L 131.19795 232.029525 
L 131.19795 162.390684 
L 97.70555 162.390684 
L 97.70555 232.029525 
z
" style="fill:#eeeeee;stroke:#8f8f8f;stroke-linejoin:miter;stroke-width:1.5;"/>
   </g>
   <g id="patch_4">
    <path clip-path="url(#p2215c31992)" d="M 139.57105 204.173988 
L 173.06345 204.173988 
L 173.06345 106.679611 
L 139.57105 106.679611 
L 139.57105 204.173988 
z
" style="fill:#eeeeee;stroke:#8f8f8f;stroke-linejoin:miter;stroke-width:1.5;"/>
   </g>
   <g id="patch_5">
    <path clip-path="url(#p2215c31992)" d="M 181.43655 120.607379 
L 214.92895 120.607379 
L 214.92895 64.896306 
L 181.43655 64.896306 
L 181.43655 120.607379 
z
" style="fill:#eeeeee;stroke:#8f8f8f;stroke-linejoin:miter;stroke-width:1.5;"/>
   </g>
   <g id="PathCollection_1"/>
   <g id="PathCollection_2"/>
   <g id="PathCollection_3"/>
   <g id="PathCollection_4"/>
   <g id="PathCollection_5"/>
   <g id="line2d_11">
    <path clip-path="url(#p2215c31992)" d="M 114.45175 232.029525 
L 114.45175 259.885061 
" style="fill:none;stroke:#8f8f8f;stroke-linecap:round;stroke-width:1.5;"/>
   </g>
   <g id="line2d_12">
    <path clip-path="url(#p2215c31992)" d="M 114.45175 162.390684 
L 114.45175 120.607379 
" style="fill:none;stroke:#8f8f8f;stroke-linecap:round;stroke-width:1.5;"/>
   </g>
   <g id="line2d_13">
    <path clip-path="url(#p2215c31992)" d="M 106.07865 259.885061 
L 122.82485 259.885061 
" style="fill:none;stroke:#8f8f8f;stroke-linecap:round;stroke-width:1.5;"/>
   </g>
   <g id="line2d_14">
    <path clip-path="url(#p2215c31992)" d="M 106.07865 120.607379 
L 122.82485 120.607379 
" style="fill:none;stroke:#8f8f8f;stroke-linecap:round;stroke-width:1.5;"/>
   </g>
   <g id="line2d_15"/>
   <g id="line2d_16">
    <path clip-path="url(#p2215c31992)" d="M 156.31725 204.173988 
L 156.31725 232.029525 
" style="fill:none;stroke:#8f8f8f;stroke-linecap:round;stroke-width:1.5;"/>
   </g>
   <g id="line2d_17">
    <path clip-path="url(#p2215c31992)" d="M 156.31725 106.679611 
L 156.31725 78.824074 
" style="fill:none;stroke:#8f8f8f;stroke-linecap:round;stroke-width:1.5;"/>
   </g>
   <g id="line2d_18">
    <path clip-path="url(#p2215c31992)" d="M 147.94415 232.029525 
L 164.69035 232.029525 
" style="fill:none;stroke:#8f8f8f;stroke-linecap:round;stroke-width:1.5;"/>
   </g>
   <g id="line2d_19">
    <path clip-path="url(#p2215c31992)" d="M 147.94415 78.824074 
L 164.69035 78.824074 
" style="fill:none;stroke:#8f8f8f;stroke-linecap:round;stroke-width:1.5;"/>
   </g>
   <g id="line2d_20"/>
   <g id="line2d_21">
    <path clip-path="url(#p2215c31992)" d="M 198.18275 120.607379 
L 198.18275 190.24622 
" style="fill:none;stroke:#8f8f8f;stroke-linecap:round;stroke-width:1.5;"/>
   </g>
   <g id="line2d_22">
    <path clip-path="url(#p2215c31992)" d="M 198.18275 64.896306 
L 198.18275 37.040769 
" style="fill:none;stroke:#8f8f8f;stroke-linecap:round;stroke-width:1.5;"/>
   </g>
   <g id="line2d_23">
    <path clip-path="url(#p2215c31992)" d="M 189.80965 190.24622 
L 206.55585 190.24622 
" style="fill:none;stroke:#8f8f8f;stroke-linecap:round;stroke-width:1.5;"/>
   </g>
   <g id="line2d_24">
    <path clip-path="url(#p2215c31992)" d="M 189.80965 37.040769 
L 206.55585 37.040769 
" style="fill:none;stroke:#8f8f8f;stroke-linecap:round;stroke-width:1.5;"/>
   </g>
   <g id="line2d_25"/>
   <g id="line2d_26">
    <path clip-path="url(#p2215c31992)" d="M 97.70555 162.390684 
L 131.19795 162.390684 
" style="fill:none;stroke:#8f8f8f;stroke-linecap:round;stroke-width:1.5;"/>
   </g>
   <g id="line2d_27">
    <path clip-path="url(#p2215c31992)" d="M 139.57105 120.607379 
L 173.06345 120.607379 
" style="fill:none;stroke:#8f8f8f;stroke-linecap:round;stroke-width:1.5;"/>
   </g>
   <g id="line2d_28">
    <path clip-path="url(#p2215c31992)" d="M 181.43655 78.824074 
L 214.92895 78.824074 
" style="fill:none;stroke:#8f8f8f;stroke-linecap:round;stroke-width:1.5;"/>
   </g>
   <g id="patch_6">
    <path d="M 93.519 274.998431 
L 93.519 21.869 
" style="fill:none;stroke:#262626;stroke-linecap:square;stroke-linejoin:miter;stroke-width:1.25;"/>
   </g>
   <g id="patch_7">
    <path d="M 219.1155 274.998431 
L 219.1155 21.869 
" style="fill:none;stroke:#262626;stroke-linecap:square;stroke-linejoin:miter;stroke-width:1.25;"/>
   </g>
   <g id="patch_8">
    <path d="M 93.519 274.998431 
L 219.1155 274.998431 
" style="fill:none;stroke:#262626;stroke-linecap:square;stroke-linejoin:miter;stroke-width:1.25;"/>
   </g>
   <g id="patch_9">
    <path d="M 93.519 21.869 
L 219.1155 21.869 
" style="fill:none;stroke:#262626;stroke-linecap:square;stroke-linejoin:miter;stroke-width:1.25;"/>
   </g>
   <g id="PathCollection_6">
    <defs>
     <path d="M 0 4 
C 1.060812 4 2.078319 3.578535 2.828427 2.828427 
C 3.578535 2.078319 4 1.060812 4 0 
C 4 -1.060812 3.578535 -2.078319 2.828427 -2.828427 
C 2.078319 -3.578535 1.060812 -4 0 -4 
C -1.060812 -4 -2.078319 -3.578535 -2.828427 -2.828427 
C -3.578535 -2.078319 -4 -1.060812 -4 0 
C -4 1.060812 -3.578535 2.078319 -2.828427 2.828427 
C -2.078319 3.578535 -1.060812 4 0 4 
z
" id="mc563916712"/>
    </defs>
    <g clip-path="url(#p2215c31992)">
     <use style="fill:#0072b2;" x="101.479755" xlink:href="#mc563916712" y="162.390684"/>
    </g>
   </g>
   <g id="PathCollection_7">
    <defs>
     <path d="M 0 4 
C 1.060812 4 2.078319 3.578535 2.828427 2.828427 
C 3.578535 2.078319 4 1.060812 4 0 
C 4 -1.060812 3.578535 -2.078319 2.828427 -2.828427 
C 2.078319 -3.578535 1.060812 -4 0 -4 
C -1.060812 -4 -2.078319 -3.578535 -2.828427 -2.828427 
C -3.578535 -2.078319 -4 -1.060812 -4 0 
C -4 1.060812 -3.578535 2.078319 -2.828427 2.828427 
C -2.078319 3.578535 -1.060812 4 0 4 
z
" id="md59866db94"/>
    </defs>
    <g clip-path="url(#p2215c31992)">
     <use style="fill:#d55e00;" x="109.006549" xlink:href="#md59866db94" y="259.885061"/>
    </g>
   </g>
   <g id="PathCollection_8">
    <defs>
     <path d="M 0 4 
C 1.060812 4 2.078319 3.578535 2.828427 2.828427 
C 3.578535 2.078319 4 1.060812 4 0 
C 4 -1.060812 3.578535 -2.078319 2.828427 -2.828427 
C 2.078319 -3.578535 1.060812 -4 0 -4 
C -1.060812 -4 -2.078319 -3.578535 -2.828427 -2.828427 
C -3.578535 -2.078319 -4 -1.060812 -4 0 
C -4 1.060812 -3.578535 2.078319 -2.828427 2.828427 
C -2.078319 3.578535 -1.060812 4 0 4 
z
" id="m6cb85c5c92"/>
    </defs>
    <g clip-path="url(#p2215c31992)">
     <use style="fill:#009e73;" x="113.183179" xlink:href="#m6cb85c5c92" y="120.607379"/>
    </g>
   </g>
   <g id="PathCollection_9">
    <defs>
     <path d="M 0 4 
C 1.060812 4 2.078319 3.578535 2.828427 2.828427 
C 3.578535 2.078319 4 1.060812 4 0 
C 4 -1.060812 3.578535 -2.078319 2.828427 -2.828427 
C 2.078319 -3.578535 1.060812 -4 0 -4 
C -1.060812 -4 -2.078319 -3.578535 -2.828427 -2.828427 
C -3.578535 -2.078319 -4 -1.060812 -4 0 
C -4 1.060812 -3.578535 2.078319 -2.828427 2.828427 
C -2.078319 3.578535 -1.060812 4 0 4 
z
" id="me28a68fe5d"/>
    </defs>
    <g clip-path="url(#p2215c31992)">
     <use style="fill:#f0e442;" x="120.049232" xlink:href="#me28a68fe5d" y="232.029525"/>
    </g>
   </g>
   <g id="PathCollection_10">
    <defs>
     <path d="M 0 4 
C 1.060812 4 2.078319 3.578535 2.828427 2.828427 
C 3.578535 2.078319 4 1.060812 4 0 
C 4 -1.060812 3.578535 -2.078319 2.828427 -2.828427 
C 2.078319 -3.578535 1.060812 -4 0 -4 
C -1.060812 -4 -2.078319 -3.578535 -2.828427 -2.828427 
C -3.578535 -2.078319 -4 -1.060812 -4 0 
C -4 1.060812 -3.578535 2.078319 -2.828427 2.828427 
C -2.078319 3.578535 -1.060812 4 0 4 
z
" id="m928684b629"/>
    </defs>
    <g clip-path="url(#p2215c31992)">
     <use style="fill:#cc79a7;" x="128.237317" xlink:href="#m928684b629" y="162.390684"/>
    </g>
   </g>
   <g id="PathCollection_11">
    <g clip-path="url(#p2215c31992)">
     <use style="fill:#0072b2;" x="142.878686" xlink:href="#mc563916712" y="106.679611"/>
    </g>
   </g>
   <g id="PathCollection_12">
    <g clip-path="url(#p2215c31992)">
     <use style="fill:#d55e00;" x="148.907985" xlink:href="#md59866db94" y="232.029525"/>
    </g>
   </g>
   <g id="PathCollection_13">
    <g clip-path="url(#p2215c31992)">
     <use style="fill:#009e73;" x="156.214596" xlink:href="#m6cb85c5c92" y="78.824074"/>
    </g>
   </g>
   <g id="PathCollection_14">
    <g clip-path="url(#p2215c31992)">
     <use style="fill:#f0e442;" x="161.804505" xlink:href="#me28a68fe5d" y="204.173988"/>
    </g>
   </g>
   <g id="PathCollection_15">
    <g clip-path="url(#p2215c31992)">
     <use style="fill:#cc79a7;" x="170.955869" xlink:href="#m928684b629" y="120.607379"/>
    </g>
   </g>
   <g id="PathCollection_16">
    <g clip-path="url(#p2215c31992)">
     <use style="fill:#0072b2;" x="186.242373" xlink:href="#mc563916712" y="64.896306"/>
    </g>
   </g>
   <g id="PathCollection_17">
    <g clip-path="url(#p2215c31992)">
     <use style="fill:#d55e00;" x="190.668365" xlink:href="#md59866db94" y="120.607379"/>
    </g>
   </g>
   <g id="PathCollection_18">
    <g clip-path="url(#p2215c31992)">
     <use style="fill:#009e73;" x="198.392588" xlink:href="#m6cb85c5c92" y="37.040769"/>
    </g>
   </g>
   <g id="PathCollection_19">
    <g clip-path="url(#p2215c31992)">
     <use style="fill:#f0e442;" x="204.13174" xlink:href="#me28a68fe5d" y="190.24622"/>
    </g>
   </g>
   <g id="PathCollection_20">
    <g clip-path="url(#p2215c31992)">
     <use style="fill:#cc79a7;" x="212.680848" xlink:href="#m928684b629" y="78.824074"/>
    </g>
   </g>
  </g>
  <g id="axes_2">
   <g id="patch_10">
    <path d="M 288.2595 274.998431 
L 413.856 274.998431 
L 413.856 21.869 
L 288.2595 21.869 
z
" style="fill:#ffffff;"/>
   </g>
   <g id="matplotlib.axis_3">
    <g id="xtick_4">
     <g id="line2d_29">
      <g>
       <use style="fill:#262626;stroke:#262626;stroke-width:1.25;" x="309.19225" xlink:href="#mfff3a0f407" y="274.998431"/>
      </g>
     </g>
     <g id="text_12">
      <text style="fill:#262626;font-family:DejaVu Sans;font-size:15.4px;font-style:normal;font-weight:normal;" transform="translate(245.087185 330.71884)rotate(-30)">One-pass</text>
     </g>
    </g>
    <g id="xtick_5">
     <g id="line2d_30">
      <g>
       <use style="fill:#262626;stroke:#262626;stroke-width:1.25;" x="351.05775" xlink:href="#mfff3a0f407" y="274.998431"/>
      </g>
     </g>
     <g id="text_13">
      <text style="fill:#262626;font-family:DejaVu Sans;font-size:15.4px;font-style:normal;font-weight:normal;" transform="translate(286.927679 330.733278)rotate(-30)">Two-pass</text>
     </g>
    </g>
    <g id="xtick_6">
     <g id="line2d_31">
      <g>
       <use style="fill:#262626;stroke:#262626;stroke-width:1.25;" x="392.92325" xlink:href="#mfff3a0f407" y="274.998431"/>
      </g>
     </g>
     <g id="text_14">
      <text style="fill:#262626;font-family:DejaVu Sans;font-size:15.4px;font-style:normal;font-weight:normal;" transform="translate(314.935419 338.734059)rotate(-30)">Ref. guided</text>
     </g>
    </g>
   </g>
   <g id="matplotlib.axis_4">
    <g id="ytick_8">
     <g id="line2d_32">
      <g>
       <use style="fill:#262626;stroke:#262626;stroke-width:1.25;" x="288.2595" xlink:href="#m0a13a29896" y="245.306463"/>
      </g>
     </g>
     <g id="text_15">
      <text style="fill:#262626;font-family:DejaVu Sans;font-size:15.4px;font-style:normal;font-weight:normal;text-anchor:end;" transform="rotate(-0, 278.7595, 251.15726)" x="278.7595" y="251.15726">74</text>
     </g>
    </g>
    <g id="ytick_9">
     <g id="line2d_33">
      <g>
       <use style="fill:#262626;stroke:#262626;stroke-width:1.25;" x="288.2595" xlink:href="#m0a13a29896" y="203.653324"/>
      </g>
     </g>
     <g id="text_16">
      <text style="fill:#262626;font-family:DejaVu Sans;font-size:15.4px;font-style:normal;font-weight:normal;text-anchor:end;" transform="rotate(-0, 278.7595, 209.504121)" x="278.7595" y="209.504121">76</text>
     </g>
    </g>
    <g id="ytick_10">
     <g id="line2d_34">
      <g>
       <use style="fill:#262626;stroke:#262626;stroke-width:1.25;" x="288.2595" xlink:href="#m0a13a29896" y="162.000185"/>
      </g>
     </g>
     <g id="text_17">
      <text style="fill:#262626;font-family:DejaVu Sans;font-size:15.4px;font-style:normal;font-weight:normal;text-anchor:end;" transform="rotate(-0, 278.7595, 167.850982)" x="278.7595" y="167.850982">78</text>
     </g>
    </g>
    <g id="ytick_11">
     <g id="line2d_35">
      <g>
       <use style="fill:#262626;stroke:#262626;stroke-width:1.25;" x="288.2595" xlink:href="#m0a13a29896" y="120.347047"/>
      </g>
     </g>
     <g id="text_18">
      <text style="fill:#262626;font-family:DejaVu Sans;font-size:15.4px;font-style:normal;font-weight:normal;text-anchor:end;" transform="rotate(-0, 278.7595, 126.197844)" x="278.7595" y="126.197844">80</text>
     </g>
    </g>
    <g id="ytick_12">
     <g id="line2d_36">
      <g>
       <use style="fill:#262626;stroke:#262626;stroke-width:1.25;" x="288.2595" xlink:href="#m0a13a29896" y="78.693908"/>
      </g>
     </g>
     <g id="text_19">
      <text style="fill:#262626;font-family:DejaVu Sans;font-size:15.4px;font-style:normal;font-weight:normal;text-anchor:end;" transform="rotate(-0, 278.7595, 84.544705)" x="278.7595" y="84.544705">82</text>
     </g>
    </g>
    <g id="ytick_13">
     <g id="line2d_37">
      <g>
       <use style="fill:#262626;stroke:#262626;stroke-width:1.25;" x="288.2595" xlink:href="#m0a13a29896" y="37.040769"/>
      </g>
     </g>
     <g id="text_20">
      <text style="fill:#262626;font-family:DejaVu Sans;font-size:15.4px;font-style:normal;font-weight:normal;text-anchor:end;" transform="rotate(-0, 278.7595, 42.891566)" x="278.7595" y="42.891566">84</text>
     </g>
    </g>
    <g id="text_21">
     <text style="fill:#262626;font-family:DejaVu Sans;font-size:16.8px;font-style:normal;font-weight:normal;text-anchor:middle;" transform="rotate(-90, 251.669125, 148.433716)" x="251.669125" y="148.433716">Precision (%)</text>
    </g>
   </g>
   <g id="patch_11">
    <path clip-path="url(#p12df80210d)" d="M 292.44605 209.901295 
L 325.93845 209.901295 
L 325.93845 155.752215 
L 292.44605 155.752215 
L 292.44605 209.901295 
z
" style="fill:#eeeeee;stroke:#8f8f8f;stroke-linejoin:miter;stroke-width:1.5;"/>
   </g>
   <g id="patch_12">
    <path clip-path="url(#p12df80210d)" d="M 334.31155 232.810521 
L 367.80395 232.810521 
L 367.80395 168.248156 
L 334.31155 168.248156 
L 334.31155 232.810521 
z
" style="fill:#eeeeee;stroke:#8f8f8f;stroke-linejoin:miter;stroke-width:1.5;"/>
   </g>
   <g id="patch_13">
    <path clip-path="url(#p12df80210d)" d="M 376.17705 170.330813 
L 409.66945 170.330813 
L 409.66945 118.26439 
L 376.17705 118.26439 
L 376.17705 170.330813 
z
" style="fill:#eeeeee;stroke:#8f8f8f;stroke-linejoin:miter;stroke-width:1.5;"/>
   </g>
   <g id="PathCollection_21"/>
   <g id="PathCollection_22"/>
   <g id="PathCollection_23"/>
   <g id="PathCollection_24"/>
   <g id="PathCollection_25"/>
   <g id="line2d_38">
    <path clip-path="url(#p12df80210d)" d="M 309.19225 209.901295 
L 309.19225 259.885061 
" style="fill:none;stroke:#8f8f8f;stroke-linecap:round;stroke-width:1.5;"/>
   </g>
   <g id="line2d_39">
    <path clip-path="url(#p12df80210d)" d="M 309.19225 155.752215 
L 309.19225 84.941879 
" style="fill:none;stroke:#8f8f8f;stroke-linecap:round;stroke-width:1.5;"/>
   </g>
   <g id="line2d_40">
    <path clip-path="url(#p12df80210d)" d="M 300.81915 259.885061 
L 317.56535 259.885061 
" style="fill:none;stroke:#8f8f8f;stroke-linecap:round;stroke-width:1.5;"/>
   </g>
   <g id="line2d_41">
    <path clip-path="url(#p12df80210d)" d="M 300.81915 84.941879 
L 317.56535 84.941879 
" style="fill:none;stroke:#8f8f8f;stroke-linecap:round;stroke-width:1.5;"/>
   </g>
   <g id="line2d_42"/>
   <g id="line2d_43">
    <path clip-path="url(#p12df80210d)" d="M 351.05775 232.810521 
L 351.05775 247.38912 
" style="fill:none;stroke:#8f8f8f;stroke-linecap:round;stroke-width:1.5;"/>
   </g>
   <g id="line2d_44">
    <path clip-path="url(#p12df80210d)" d="M 351.05775 168.248156 
L 351.05775 101.603134 
" style="fill:none;stroke:#8f8f8f;stroke-linecap:round;stroke-width:1.5;"/>
   </g>
   <g id="line2d_45">
    <path clip-path="url(#p12df80210d)" d="M 342.68465 247.38912 
L 359.43085 247.38912 
" style="fill:none;stroke:#8f8f8f;stroke-linecap:round;stroke-width:1.5;"/>
   </g>
   <g id="line2d_46">
    <path clip-path="url(#p12df80210d)" d="M 342.68465 101.603134 
L 359.43085 101.603134 
" style="fill:none;stroke:#8f8f8f;stroke-linecap:round;stroke-width:1.5;"/>
   </g>
   <g id="line2d_47"/>
   <g id="line2d_48">
    <path clip-path="url(#p12df80210d)" d="M 392.92325 170.330813 
L 392.92325 218.231923 
" style="fill:none;stroke:#8f8f8f;stroke-linecap:round;stroke-width:1.5;"/>
   </g>
   <g id="line2d_49">
    <path clip-path="url(#p12df80210d)" d="M 392.92325 118.26439 
L 392.92325 118.26439 
" style="fill:none;stroke:#8f8f8f;stroke-linecap:round;stroke-width:1.5;"/>
   </g>
   <g id="line2d_50">
    <path clip-path="url(#p12df80210d)" d="M 384.55015 218.231923 
L 401.29635 218.231923 
" style="fill:none;stroke:#8f8f8f;stroke-linecap:round;stroke-width:1.5;"/>
   </g>
   <g id="line2d_51">
    <path clip-path="url(#p12df80210d)" d="M 384.55015 118.26439 
L 401.29635 118.26439 
" style="fill:none;stroke:#8f8f8f;stroke-linecap:round;stroke-width:1.5;"/>
   </g>
   <g id="line2d_52"/>
   <g id="line2d_53">
    <path clip-path="url(#p12df80210d)" d="M 292.44605 155.752215 
L 325.93845 155.752215 
" style="fill:none;stroke:#8f8f8f;stroke-linecap:round;stroke-width:1.5;"/>
   </g>
   <g id="line2d_54">
    <path clip-path="url(#p12df80210d)" d="M 334.31155 182.826755 
L 367.80395 182.826755 
" style="fill:none;stroke:#8f8f8f;stroke-linecap:round;stroke-width:1.5;"/>
   </g>
   <g id="line2d_55">
    <path clip-path="url(#p12df80210d)" d="M 376.17705 126.595018 
L 409.66945 126.595018 
" style="fill:none;stroke:#8f8f8f;stroke-linecap:round;stroke-width:1.5;"/>
   </g>
   <g id="patch_14">
    <path d="M 288.2595 274.998431 
L 288.2595 21.869 
" style="fill:none;stroke:#262626;stroke-linecap:square;stroke-linejoin:miter;stroke-width:1.25;"/>
   </g>
   <g id="patch_15">
    <path d="M 413.856 274.998431 
L 413.856 21.869 
" style="fill:none;stroke:#262626;stroke-linecap:square;stroke-linejoin:miter;stroke-width:1.25;"/>
   </g>
   <g id="patch_16">
    <path d="M 288.2595 274.998431 
L 413.856 274.998431 
" style="fill:none;stroke:#262626;stroke-linecap:square;stroke-linejoin:miter;stroke-width:1.25;"/>
   </g>
   <g id="patch_17">
    <path d="M 288.2595 21.869 
L 413.856 21.869 
" style="fill:none;stroke:#262626;stroke-linecap:square;stroke-linejoin:miter;stroke-width:1.25;"/>
   </g>
   <g id="PathCollection_26">
    <g clip-path="url(#p12df80210d)">
     <use style="fill:#0072b2;" x="294.789678" xlink:href="#mc563916712" y="259.885061"/>
    </g>
   </g>
   <g id="PathCollection_27">
    <g clip-path="url(#p12df80210d)">
     <use style="fill:#d55e00;" x="302.241269" xlink:href="#md59866db94" y="155.752215"/>
    </g>
   </g>
   <g id="PathCollection_28">
    <g clip-path="url(#p12df80210d)">
     <use style="fill:#009e73;" x="309.287465" xlink:href="#m6cb85c5c92" y="209.901295"/>
    </g>
   </g>
   <g id="PathCollection_29">
    <g clip-path="url(#p12df80210d)">
     <use style="fill:#f0e442;" x="315.183466" xlink:href="#me28a68fe5d" y="84.941879"/>
    </g>
   </g>
   <g id="PathCollection_30">
    <g clip-path="url(#p12df80210d)">
     <use style="fill:#cc79a7;" x="321.872926" xlink:href="#m928684b629" y="155.752215"/>
    </g>
   </g>
   <g id="PathCollection_31">
    <g clip-path="url(#p12df80210d)">
     <use style="fill:#0072b2;" x="339.025965" xlink:href="#mc563916712" y="247.38912"/>
    </g>
   </g>
   <g id="PathCollection_32">
    <g clip-path="url(#p12df80210d)">
     <use style="fill:#d55e00;" x="345.110686" xlink:href="#md59866db94" y="182.826755"/>
    </g>
   </g>
   <g id="PathCollection_33">
    <g clip-path="url(#p12df80210d)">
     <use style="fill:#009e73;" x="350.238056" xlink:href="#m6cb85c5c92" y="232.810521"/>
    </g>
   </g>
   <g id="PathCollection_34">
    <g clip-path="url(#p12df80210d)">
     <use style="fill:#f0e442;" x="357.764775" xlink:href="#me28a68fe5d" y="101.603134"/>
    </g>
   </g>
   <g id="PathCollection_35">
    <g clip-path="url(#p12df80210d)">
     <use style="fill:#cc79a7;" x="363.436194" xlink:href="#m928684b629" y="168.248156"/>
    </g>
   </g>
   <g id="PathCollection_36">
    <g clip-path="url(#p12df80210d)">
     <use style="fill:#0072b2;" x="380.498642" xlink:href="#mc563916712" y="218.231923"/>
    </g>
   </g>
   <g id="PathCollection_37">
    <g clip-path="url(#p12df80210d)">
     <use style="fill:#d55e00;" x="384.841377" xlink:href="#md59866db94" y="118.26439"/>
    </g>
   </g>
   <g id="PathCollection_38">
    <g clip-path="url(#p12df80210d)">
     <use style="fill:#009e73;" x="392.729292" xlink:href="#m6cb85c5c92" y="170.330813"/>
    </g>
   </g>
   <g id="PathCollection_39">
    <g clip-path="url(#p12df80210d)">
     <use style="fill:#f0e442;" x="400.410484" xlink:href="#me28a68fe5d" y="37.040769"/>
    </g>
   </g>
   <g id="PathCollection_40">
    <g clip-path="url(#p12df80210d)">
     <use style="fill:#cc79a7;" x="405.748385" xlink:href="#m928684b629" y="126.595018"/>
    </g>
   </g>
  </g>
  <g id="text_22">
   <text style="fill:#262626;font-family:DejaVu Sans;font-size:20.16px;font-style:normal;font-weight:normal;text-anchor:middle;" transform="rotate(-0, 216, 22.51845)" x="216" y="22.51845">Yeast Nanopore direct RNA</text>
  </g>
 </g>
 <defs>
  <clipPath id="p2215c31992">
   <rect height="253.129431" width="125.5965" x="93.519" y="21.869"/>
  </clipPath>
  <clipPath id="p12df80210d">
   <rect height="253.129431" width="125.5965" x="288.2595" y="21.869"/>
  </clipPath>
 </defs>
</svg>
